<?xml version="1.0" encoding="UTF-8"?>
<svg id="_Слой_1" data-name="Слой 1" xmlns="http://www.w3.org/2000/svg" xmlns:xlink="http://www.w3.org/1999/xlink" viewBox="0 0 2229.8 814.68">
  <defs>
    <style>
      .cls-1 {
        fill: url(#_Безымянный_градиент_19-13);
      }

      .cls-2 {
        fill: #bcb755;
      }

      .cls-3 {
        opacity: .13;
      }

      .cls-4 {
        fill: #f6f8e2;
        fill-rule: evenodd;
        opacity: .35;
      }

      .cls-5 {
        fill: url(#_Безымянный_градиент_13-4);
      }

      .cls-6 {
        fill: url(#_Безымянный_градиент_19-6);
      }

      .cls-7 {
        fill: url(#_Безымянный_градиент_9);
      }

      .cls-8 {
        fill: #472816;
      }

      .cls-9 {
        fill: url(#_Безымянный_градиент_19-3);
      }

      .cls-10 {
        fill: url(#_Безымянный_градиент_10-2);
      }

      .cls-11 {
        fill: url(#_Безымянный_градиент_24);
      }

      .cls-12 {
        fill: url(#_Безымянный_градиент_19-7);
      }

      .cls-13 {
        fill: url(#_Безымянный_градиент_20-2);
      }

      .cls-14 {
        fill: url(#_Безымянный_градиент_19-4);
      }

      .cls-15 {
        fill: url(#_Безымянный_градиент_19-20);
      }

      .cls-16 {
        fill: url(#_Безымянный_градиент_3-3);
      }

      .cls-17 {
        clip-path: url(#clippath-2);
      }

      .cls-18 {
        fill: url(#_Безымянный_градиент_19);
      }

      .cls-19 {
        fill: url(#_Безымянный_градиент_13-6);
      }

      .cls-20 {
        fill: url(#_Безымянный_градиент_13-3);
      }

      .cls-21 {
        fill: #72b39d;
      }

      .cls-22 {
        fill: url(#_Безымянный_градиент_13);
      }

      .cls-23 {
        fill: url(#_Безымянный_градиент_12-9);
      }

      .cls-24 {
        fill: url(#_Безымянный_градиент_12-8);
      }

      .cls-25 {
        fill: url(#_Безымянный_градиент_12-7);
      }

      .cls-26 {
        fill: url(#_Безымянный_градиент_19-2);
      }

      .cls-27 {
        clip-path: url(#clippath-6);
      }

      .cls-28 {
        fill: url(#_Безымянный_градиент_12-2);
      }

      .cls-29 {
        fill: url(#_Безымянный_градиент_12-6);
      }

      .cls-30 {
        fill: url(#_Безымянный_градиент_8);
      }

      .cls-31 {
        fill: #cfcc63;
      }

      .cls-32 {
        opacity: .07;
      }

      .cls-33 {
        fill: url(#_Безымянный_градиент_20);
      }

      .cls-34 {
        fill: url(#_Безымянный_градиент_3-2);
      }

      .cls-35 {
        fill: #5f9984;
      }

      .cls-36 {
        fill: url(#_Безымянный_градиент_12-4);
      }

      .cls-37 {
        fill: url(#_Безымянный_градиент_12-3);
      }

      .cls-38 {
        fill: #bf8f30;
      }

      .cls-39 {
        fill: url(#_Безымянный_градиент_10-9);
      }

      .cls-40 {
        clip-path: url(#clippath-7);
      }

      .cls-41 {
        clip-path: url(#clippath-1);
      }

      .cls-42 {
        clip-path: url(#clippath-4);
      }

      .cls-43 {
        fill: url(#_Безымянный_градиент_20-4);
      }

      .cls-44 {
        opacity: .11;
      }

      .cls-45 {
        opacity: .15;
      }

      .cls-46 {
        fill: url(#_Безымянный_градиент_2);
      }

      .cls-47 {
        fill: url(#_Безымянный_градиент_10);
      }

      .cls-48 {
        fill: url(#_Безымянный_градиент_23);
      }

      .cls-49 {
        fill: url(#_Безымянный_градиент_25);
      }

      .cls-50 {
        fill: url(#_Безымянный_градиент_19-14);
      }

      .cls-51 {
        fill: #33431c;
      }

      .cls-52 {
        fill: url(#_Безымянный_градиент_13-2);
      }

      .cls-53 {
        fill: url(#_Безымянный_градиент_19-17);
      }

      .cls-54 {
        fill: url(#_Безымянный_градиент_10-3);
      }

      .cls-55 {
        fill: url(#_Безымянный_градиент_19-18);
      }

      .cls-56 {
        opacity: .26;
      }

      .cls-57 {
        fill: url(#_Безымянный_градиент_13-5);
      }

      .cls-58 {
        fill: url(#_Безымянный_градиент_19-9);
      }

      .cls-59 {
        clip-path: url(#clippath-9);
      }

      .cls-60 {
        clip-path: url(#clippath);
      }

      .cls-61 {
        fill: url(#_Безымянный_градиент_10-6);
      }

      .cls-62 {
        fill: url(#_Безымянный_градиент_19-21);
      }

      .cls-63 {
        fill: url(#_Безымянный_градиент_4);
      }

      .cls-64 {
        fill: none;
      }

      .cls-65 {
        clip-path: url(#clippath-3);
      }

      .cls-66 {
        fill: url(#_Безымянный_градиент_10-8);
      }

      .cls-67 {
        fill: url(#_Безымянный_градиент_10-7);
      }

      .cls-68 {
        fill: url(#_Безымянный_градиент_13-7);
      }

      .cls-69 {
        fill: #8fa723;
      }

      .cls-70 {
        clip-path: url(#clippath-8);
      }

      .cls-71 {
        fill: url(#_Безымянный_градиент_12);
      }

      .cls-72 {
        fill: url(#_Безымянный_градиент_12-5);
      }

      .cls-73 {
        fill: url(#_Безымянный_градиент_19-11);
      }

      .cls-74 {
        fill: url(#_Безымянный_градиент_19-19);
      }

      .cls-75 {
        fill: url(#_Безымянный_градиент_3);
      }

      .cls-76 {
        clip-path: url(#clippath-5);
      }

      .cls-77 {
        fill: #7d8e1b;
      }

      .cls-78 {
        fill: url(#_Безымянный_градиент_19-15);
      }

      .cls-79 {
        fill: url(#_Безымянный_градиент_10-5);
      }

      .cls-80 {
        fill: url(#_Безымянный_градиент_19-16);
      }

      .cls-81 {
        fill: url(#_Безымянный_градиент_19-12);
      }

      .cls-82 {
        clip-path: url(#clippath-10);
      }

      .cls-83 {
        fill: url(#_Безымянный_градиент_19-22);
      }

      .cls-84 {
        fill: url(#_Безымянный_градиент_19-8);
      }

      .cls-85 {
        fill: #f4bf4b;
      }

      .cls-86 {
        fill: url(#_Безымянный_градиент_20-3);
      }

      .cls-87 {
        fill: url(#_Безымянный_градиент_10-4);
      }

      .cls-88 {
        fill: url(#_Безымянный_градиент_19-10);
      }

      .cls-89 {
        fill: url(#_Безымянный_градиент_19-5);
      }
    </style>
    <clipPath id="clippath">
      <rect class="cls-64" width="2229.8" height="814.68"/>
    </clipPath>
    <linearGradient id="_Безымянный_градиент_4" data-name="Безымянный градиент 4" x1="1102.23" y1="726.28" x2="1129.51" y2="39.63" gradientUnits="userSpaceOnUse">
      <stop offset="0" stop-color="#fbf69b"/>
      <stop offset="1" stop-color="#93d3c3"/>
    </linearGradient>
    <clipPath id="clippath-1">
      <rect class="cls-63" width="2229.8" height="814.68"/>
    </clipPath>
    <linearGradient id="_Безымянный_градиент_23" data-name="Безымянный градиент 23" x1="0" y1="664.78" x2="2229.8" y2="664.78" gradientUnits="userSpaceOnUse">
      <stop offset="0" stop-color="#fcee5a"/>
      <stop offset="1" stop-color="#33431c"/>
    </linearGradient>
    <clipPath id="clippath-2">
      <rect class="cls-48" y="514.87" width="2229.8" height="299.81"/>
    </clipPath>
    <linearGradient id="_Безымянный_градиент_25" data-name="Безымянный градиент 25" x1="941.13" y1="508.91" x2="936.1" y2="566.7" gradientUnits="userSpaceOnUse">
      <stop offset="0" stop-color="#fcee5a"/>
      <stop offset=".34" stop-color="#33431c"/>
    </linearGradient>
    <linearGradient id="_Безымянный_градиент_8" data-name="Безымянный градиент 8" x1="913.85" y1="511.45" x2="908.82" y2="569.24" gradientUnits="userSpaceOnUse">
      <stop offset="0" stop-color="#93d3c3"/>
      <stop offset="1" stop-color="#f7efc8"/>
    </linearGradient>
    <clipPath id="clippath-3">
      <path class="cls-31" d="M0,86.35c56.24,30.69,112.47,61.39,168.71,92.08,40.55,44.72,81.09,89.43,121.64,134.15,44.72,17.05,89.43,34.11,134.15,51.16,32.82,58.36,65.64,116.72,98.45,175.07-174.32,4.55-348.63,9.09-522.95,13.64V86.35Z"/>
    </clipPath>
    <linearGradient id="_Безымянный_градиент_12" data-name="Безымянный градиент 12" x1="210.45" y1="342.55" x2="218.13" y2="914.1" gradientUnits="userSpaceOnUse">
      <stop offset=".15" stop-color="#bcb755"/>
      <stop offset="1" stop-color="#33431c"/>
    </linearGradient>
    <linearGradient id="_Безымянный_градиент_12-2" data-name="Безымянный градиент 12" x1="392.96" y1="155.13" x2="414.18" y2="685.15" xlink:href="#_Безымянный_градиент_12"/>
    <linearGradient id="_Безымянный_градиент_12-3" data-name="Безымянный градиент 12" x1="220.14" y1="162.05" x2="241.36" y2="692.07" xlink:href="#_Безымянный_градиент_12"/>
    <linearGradient id="_Безымянный_градиент_12-4" data-name="Безымянный градиент 12" x1="209.75" y1="162.46" x2="230.97" y2="692.49" xlink:href="#_Безымянный_градиент_12"/>
    <linearGradient id="_Безымянный_градиент_12-5" data-name="Безымянный градиент 12" x1="378.16" y1="155.72" x2="399.38" y2="685.74" xlink:href="#_Безымянный_градиент_12"/>
    <linearGradient id="_Безымянный_градиент_12-6" data-name="Безымянный градиент 12" x1="285.15" y1="159.44" x2="306.37" y2="689.47" xlink:href="#_Безымянный_градиент_12"/>
    <linearGradient id="_Безымянный_градиент_12-7" data-name="Безымянный градиент 12" x1="300.9" y1="158.81" x2="322.12" y2="688.84" xlink:href="#_Безымянный_градиент_12"/>
    <linearGradient id="_Безымянный_градиент_12-8" data-name="Безымянный градиент 12" x1="275.36" y1="159.84" x2="296.58" y2="689.86" xlink:href="#_Безымянный_градиент_12"/>
    <linearGradient id="_Безымянный_градиент_12-9" data-name="Безымянный градиент 12" x1="270.08" y1="160.05" x2="291.3" y2="690.07" xlink:href="#_Безымянный_градиент_12"/>
    <clipPath id="clippath-4">
      <path class="cls-21" d="M-24.25,228.83c43.48,53.31,86.95,106.61,130.43,159.92,50.4,22.36,100.8,44.72,151.2,67.07,45.09,36,90.19,72,135.28,108,35.34,39.16,70.69,78.32,106.03,117.47-174.32,4.55-348.63,9.09-522.95,13.64V228.83Z"/>
    </clipPath>
    <linearGradient id="_Безымянный_градиент_13" data-name="Безымянный градиент 13" x1="174.22" y1="286.88" x2="187.34" y2="1263.82" gradientUnits="userSpaceOnUse">
      <stop offset=".15" stop-color="#5f9984"/>
      <stop offset="1" stop-color="#33431c"/>
    </linearGradient>
    <linearGradient id="_Безымянный_градиент_13-2" data-name="Безымянный градиент 13" x1="217.62" y1="333.51" x2="202.46" y2="776.12" xlink:href="#_Безымянный_градиент_13"/>
    <linearGradient id="_Безымянный_градиент_13-3" data-name="Безымянный градиент 13" x1="259.22" y1="334.93" x2="244.06" y2="777.54" xlink:href="#_Безымянный_градиент_13"/>
    <linearGradient id="_Безымянный_градиент_13-4" data-name="Безымянный градиент 13" x1="202.78" y1="333" x2="187.62" y2="775.61" xlink:href="#_Безымянный_градиент_13"/>
    <linearGradient id="_Безымянный_градиент_13-5" data-name="Безымянный градиент 13" x1="434.19" y1="340.92" x2="419.03" y2="783.53" xlink:href="#_Безымянный_градиент_13"/>
    <linearGradient id="_Безымянный_градиент_13-6" data-name="Безымянный градиент 13" x1="304.16" y1="336.47" x2="289" y2="779.08" xlink:href="#_Безымянный_градиент_13"/>
    <linearGradient id="_Безымянный_градиент_13-7" data-name="Безымянный градиент 13" x1="286.42" y1="335.86" x2="271.26" y2="778.47" xlink:href="#_Безымянный_градиент_13"/>
    <clipPath id="clippath-5">
      <path class="cls-31" d="M2315.01,81.1c-61.5,21.71-122.99,43.42-184.49,65.12-44.46,60.63-88.93,121.26-133.39,181.89-68.36,68.48-136.71,136.96-205.07,205.44,174.32,4.55,348.63,9.09,522.95,13.64V81.1Z"/>
    </clipPath>
    <linearGradient id="_Безымянный_градиент_24" data-name="Безымянный градиент 24" x1="68.93" y1="930.5" x2="432.14" y2="511.13" gradientUnits="userSpaceOnUse">
      <stop offset=".48" stop-color="#33431c"/>
      <stop offset="1" stop-color="#fcee5a"/>
    </linearGradient>
    <linearGradient id="_Безымянный_градиент_20" data-name="Безымянный градиент 20" x1="-35.45" y1="1060.91" x2="461.72" y2="268.15" gradientUnits="userSpaceOnUse">
      <stop offset=".66" stop-color="#33431c"/>
      <stop offset="1" stop-color="#fcee5a"/>
    </linearGradient>
    <linearGradient id="_Безымянный_градиент_20-2" data-name="Безымянный градиент 20" x1="-130.74" y1="1001.15" x2="366.43" y2="208.39" xlink:href="#_Безымянный_градиент_20"/>
    <radialGradient id="_Безымянный_градиент_10" data-name="Безымянный градиент 10" cx="2125.97" cy="646.43" fx="2125.97" fy="646.43" r="378.29" gradientUnits="userSpaceOnUse">
      <stop offset=".66" stop-color="#33431c"/>
      <stop offset="1" stop-color="#fcee5a"/>
    </radialGradient>
    <radialGradient id="_Безымянный_градиент_10-2" data-name="Безымянный градиент 10" cx="2125.97" cy="646.43" fx="2125.97" fy="646.43" r="378.29" xlink:href="#_Безымянный_градиент_10"/>
    <radialGradient id="_Безымянный_градиент_10-3" data-name="Безымянный градиент 10" cx="2125.97" cy="646.43" fx="2125.97" fy="646.43" r="378.29" xlink:href="#_Безымянный_градиент_10"/>
    <radialGradient id="_Безымянный_градиент_3" data-name="Безымянный градиент 3" cx="2125.97" cy="646.43" fx="2125.97" fy="646.43" r="378.29" gradientUnits="userSpaceOnUse">
      <stop offset=".52" stop-color="#33431c"/>
      <stop offset="1" stop-color="#fcee5a"/>
    </radialGradient>
    <radialGradient id="_Безымянный_градиент_3-2" data-name="Безымянный градиент 3" cx="2096.44" cy="590.06" fx="2096.44" fy="590.06" r="378.29" xlink:href="#_Безымянный_градиент_3"/>
    <radialGradient id="_Безымянный_градиент_3-3" data-name="Безымянный градиент 3" cx="2062.92" cy="620.37" fx="2062.92" fy="620.37" r="378.29" gradientTransform="translate(4056.62) rotate(-180) scale(1 -1)" xlink:href="#_Безымянный_градиент_3"/>
    <linearGradient id="_Безымянный_градиент_19" data-name="Безымянный градиент 19" x1="1852.77" y1="377.29" x2="2572.77" y2="1100.32" gradientUnits="userSpaceOnUse">
      <stop offset="0" stop-color="#472816"/>
      <stop offset="1" stop-color="#f8b958"/>
    </linearGradient>
    <clipPath id="clippath-6">
      <path class="cls-18" d="M2079.43,714.71c1.43-40.47,2.86-80.94,4.29-121.41-9.19-7.98-18.38-15.96-27.57-23.95,9.31,5.66,18.62,11.32,27.93,16.97,1.16-27.69,2.33-55.38,3.49-83.07,1.49,16.11,2.98,32.23,4.47,48.34,8.8-5.76,17.59-11.52,26.39-17.28-9.06,8.17-18.11,16.35-27.17,24.52,1.59,22.75,3.17,45.5,4.76,68.25,8.39-5.25,16.77-10.5,25.16-15.74-8.41,7.78-16.82,15.56-25.23,23.34,1.64,27.43,3.28,54.87,4.92,82.3-7.14-.76-14.28-1.52-21.43-2.28Z"/>
    </clipPath>
    <linearGradient id="_Безымянный_градиент_19-2" data-name="Безымянный градиент 19" x1="2072.67" y1="633.63" x2="2086.25" y2="647.26" xlink:href="#_Безымянный_градиент_19"/>
    <linearGradient id="_Безымянный_градиент_19-3" data-name="Безымянный градиент 19" x1="2055.44" y1="633.88" x2="2092.27" y2="670.86" xlink:href="#_Безымянный_градиент_19"/>
    <linearGradient id="_Безымянный_градиент_19-4" data-name="Безымянный градиент 19" x1="2061.97" y1="578.79" x2="2122.77" y2="639.85" xlink:href="#_Безымянный_градиент_19"/>
    <linearGradient id="_Безымянный_градиент_19-5" data-name="Безымянный градиент 19" x1="1838.59" y1="391.42" x2="2558.59" y2="1114.45" xlink:href="#_Безымянный_градиент_19"/>
    <linearGradient id="_Безымянный_градиент_19-6" data-name="Безымянный градиент 19" x1="1838.59" y1="391.42" x2="2558.59" y2="1114.45" xlink:href="#_Безымянный_градиент_19"/>
    <clipPath id="clippath-7">
      <path class="cls-6" d="M2014.01,729.24c4.19-59.13,8.38-118.26,12.57-177.39-20.11-30.48-29.43-46.26-27.95-47.34,1.31-.96,11.17,9.71,29.57,32.03,2.4-36.38,4.8-72.76,7.2-109.14,2.4,24.34,4.8,48.67,7.2,73.01,16.21-21.55,24.8-31.99,25.77-31.33,1.07,.73-7.18,15.05-24.76,42.95,2.93,30.59,5.87,61.19,8.8,91.78,5.59-4.6,11.18-9.19,16.76-13.79,.89,1.27,1.78,2.53,2.66,3.8-5.87,6.67-11.75,13.35-17.62,20.02,2.33,40.92,4.66,81.85,6.99,122.77-15.73-2.46-31.46-4.92-47.19-7.38Z"/>
    </clipPath>
    <linearGradient id="_Безымянный_градиент_19-7" data-name="Безымянный градиент 19" x1="1996.8" y1="599.9" x2="2039.46" y2="642.74" xlink:href="#_Безымянный_градиент_19"/>
    <linearGradient id="_Безымянный_градиент_19-8" data-name="Безымянный градиент 19" x1="1978.96" y1="597.41" x2="2053.8" y2="672.57" xlink:href="#_Безымянный_градиент_19"/>
    <linearGradient id="_Безымянный_градиент_19-9" data-name="Безымянный градиент 19" x1="2027.78" y1="659.32" x2="2048.59" y2="680.2" xlink:href="#_Безымянный_градиент_19"/>
    <linearGradient id="_Безымянный_градиент_19-10" data-name="Безымянный градиент 19" x1="2015.53" y1="526.33" x2="2060.18" y2="571.17" xlink:href="#_Безымянный_градиент_19"/>
    <linearGradient id="_Безымянный_градиент_19-11" data-name="Безымянный градиент 19" x1="2018.18" y1="494.26" x2="2061.73" y2="538" xlink:href="#_Безымянный_градиент_19"/>
    <radialGradient id="_Безымянный_градиент_10-4" data-name="Безымянный градиент 10" cx="1806.14" cy="679.78" fx="1806.14" fy="679.78" r="565.13" xlink:href="#_Безымянный_градиент_10"/>
    <radialGradient id="_Безымянный_градиент_10-5" data-name="Безымянный градиент 10" cx="1806.14" cy="679.78" fx="1806.14" fy="679.78" r="565.13" xlink:href="#_Безымянный_градиент_10"/>
    <radialGradient id="_Безымянный_градиент_10-6" data-name="Безымянный градиент 10" cx="1806.14" cy="679.78" fx="1806.14" fy="679.78" r="565.13" xlink:href="#_Безымянный_градиент_10"/>
    <radialGradient id="_Безымянный_градиент_10-7" data-name="Безымянный градиент 10" cx="1806.14" cy="679.78" fx="1806.14" fy="679.78" r="565.13" xlink:href="#_Безымянный_градиент_10"/>
    <radialGradient id="_Безымянный_градиент_2" data-name="Безымянный градиент 2" cx="1806.3" cy="679.78" fx="1806.3" fy="679.78" r="564.77" gradientUnits="userSpaceOnUse">
      <stop offset=".59" stop-color="#33431c"/>
      <stop offset="1" stop-color="#fcee5a"/>
    </radialGradient>
    <linearGradient id="_Безымянный_градиент_19-12" data-name="Безымянный градиент 19" x1="1752.43" y1="477.21" x2="2472.43" y2="1200.25" xlink:href="#_Безымянный_градиент_19"/>
    <linearGradient id="_Безымянный_градиент_19-13" data-name="Безымянный градиент 19" x1="1752.43" y1="477.21" x2="2472.43" y2="1200.25" xlink:href="#_Безымянный_градиент_19"/>
    <clipPath id="clippath-8">
      <path class="cls-1" d="M1831.86,754.31c2.54-71.07,5.08-142.15,7.63-213.22-29.34-26.41-43.31-40.48-41.94-42.19,1.27-1.57,15.48,7.27,42.65,26.53,3.17-35.75,6.34-71.49,9.5-107.24,1.99,15.77,3.97,31.54,5.96,47.31,21.2-32.92,32.31-49.06,33.34-48.44,1.11,.67-9.53,20.89-31.93,60.64,.84,7.42,1.66,14.87,2.45,22.35,4.07,38.49,7.31,76.34,9.78,113.53,21.22-24.45,32.29-36.32,33.19-35.59,.97,.78-9.8,16.09-32.3,45.94,3.77,43.72,7.54,87.44,11.3,131.15-16.55-.25-33.09-.51-49.64-.76Z"/>
    </clipPath>
    <linearGradient id="_Безымянный_градиент_19-14" data-name="Безымянный градиент 19" x1="1819.62" y1="596.44" x2="1844.55" y2="621.47" xlink:href="#_Безымянный_градиент_19"/>
    <linearGradient id="_Безымянный_градиент_19-15" data-name="Безымянный градиент 19" x1="1796.22" y1="591.01" x2="1853.59" y2="648.62" xlink:href="#_Безымянный_градиент_19"/>
    <linearGradient id="_Безымянный_градиент_19-16" data-name="Безымянный градиент 19" x1="1776.74" y1="552.81" x2="1889.34" y2="665.89" xlink:href="#_Безымянный_градиент_19"/>
    <linearGradient id="_Безымянный_градиент_19-17" data-name="Безымянный градиент 19" x1="1762.42" y1="533.46" x2="1917.52" y2="689.22" xlink:href="#_Безымянный_градиент_19"/>
    <linearGradient id="_Безымянный_градиент_20-3" data-name="Безымянный градиент 20" x1="1807.31" y1="1119.08" x2="1810.34" y2="564.3" xlink:href="#_Безымянный_градиент_20"/>
    <linearGradient id="_Безымянный_градиент_20-4" data-name="Безымянный градиент 20" x1="1922.75" y1="1191.77" x2="1926.23" y2="555.24" xlink:href="#_Безымянный_градиент_20"/>
    <radialGradient id="_Безымянный_градиент_10-8" data-name="Безымянный градиент 10" cx="2036.64" cy="-29.25" fx="2036.64" fy="-29.25" r="374.76" gradientTransform="translate(0 -10.61) scale(1 .64)" xlink:href="#_Безымянный_градиент_10"/>
    <radialGradient id="_Безымянный_градиент_10-9" data-name="Безымянный градиент 10" cx="2070.74" cy="-119.06" fx="2070.74" fy="-119.06" r="374.76" gradientTransform="translate(0 -43.21) scale(1 .64)" xlink:href="#_Безымянный_градиент_10"/>
    <linearGradient id="_Безымянный_градиент_19-18" data-name="Безымянный градиент 19" x1="1986.64" y1="243.99" x2="2706.64" y2="967.02" xlink:href="#_Безымянный_градиент_19"/>
    <linearGradient id="_Безымянный_градиент_19-19" data-name="Безымянный градиент 19" x1="1986.64" y1="243.99" x2="2706.64" y2="967.02" xlink:href="#_Безымянный_градиент_19"/>
    <clipPath id="clippath-9">
      <path class="cls-74" d="M2126.46,817.27c-8.9-179.03-17.79-358.07-26.69-537.1-25.77-19.98-51.54-39.96-77.31-59.93,.17-.85,.78-3.35,2.75-5.1,3.43-3.04,7.66-.86,7.84-.77,20.54,13.77,41.09,27.54,61.63,41.32-8.47-92.07-16.94-184.13-25.42-276.2,28.59,.26,57.19,.51,85.78,.77,5.72,44.63,11.44,89.26,17.16,133.89,19.52-17.09,39.04-34.17,58.56-51.26,1.02,5.36,2.05,10.71,3.07,16.07-17.79,22.19-35.58,44.38-53.37,66.56,11.23,94.11,22.45,188.21,33.68,282.32,12.92-15.56,25.84-31.11,38.76-46.67,2.54,3.57,5.08,7.14,7.62,10.71-13.13,21.93-26.26,43.87-39.4,65.8,15.89,123.18,31.77,246.36,47.66,369.54-47.44-3.32-94.89-6.63-142.33-9.95Z"/>
    </clipPath>
    <linearGradient id="_Безымянный_градиент_19-20" data-name="Безымянный градиент 19" x1="2041.61" y1="341.69" x2="2126" y2="426.44" xlink:href="#_Безымянный_градиент_19"/>
    <linearGradient id="_Безымянный_градиент_19-21" data-name="Безымянный градиент 19" x1="1921.85" y1="144.55" x2="2254.43" y2="478.53" xlink:href="#_Безымянный_градиент_19"/>
    <linearGradient id="_Безымянный_градиент_19-22" data-name="Безымянный градиент 19" x1="1879.12" y1="187.28" x2="2413.03" y2="723.45" xlink:href="#_Безымянный_градиент_19"/>
    <clipPath id="clippath-10">
      <rect class="cls-64" x="-279.54" y="1318.36" width="2704" height="1520"/>
    </clipPath>
    <radialGradient id="_Безымянный_градиент_9" data-name="Безымянный градиент 9" cx="2258.77" cy="1077.75" fx="2258.77" fy="1077.75" r="691.9" gradientTransform="translate(0 391.17) scale(1 .64)" gradientUnits="userSpaceOnUse">
      <stop offset=".67" stop-color="#33431c"/>
      <stop offset="1" stop-color="#fcee5a"/>
    </radialGradient>
  </defs>
  <g>
    <g class="cls-60">
      <g>
        <rect class="cls-63" width="2229.8" height="814.68"/>
        <g class="cls-41">
          <path class="cls-4" d="M135.24,237.87s64.34-59.23,89.72-67.69c25.38-8.46,25.38,33.84,67.69,33.84s50.76-42.3,101.53-33.84c14.94,2.49,50.13,24.81,75.61,33.28,14.42,4.8,51.14-9.52,62.56,0,41.3,34.4,60.2,34.4,60.2,34.4H135.24Z"/>
          <path class="cls-4" d="M135.24,238.96s64.34-48.31,89.72-55.22c25.38-6.9,25.38,27.61,67.69,27.61s50.76-34.51,101.53-27.61c14.94,2.03,50.13,20.24,75.61,27.15,14.42,3.92,51.14-7.76,62.56,0,41.3,28.06,60.2,28.06,60.2,28.06H135.24Z"/>
          <path class="cls-4" d="M1596.29,170.75s64.34-48.31,89.72-55.22c25.38-6.9,25.38,27.61,67.69,27.61s50.76-34.51,101.53-27.61c14.94,2.03,50.13,20.24,75.61,27.15,14.42,3.92,51.14-7.76,62.56,0,41.3,28.06,60.2,28.06,60.2,28.06h-457.3Z"/>
          <path class="cls-4" d="M763.54,81.8s36.12-31.14,49.99-35.77c13.87-4.62,13.87,18.49,36.98,18.49s27.74-23.11,55.48-18.49c8.16,1.36,45.19,35.15,45.19,35.15l-187.63,.61Z"/>
        </g>
      </g>
      <g>
        <rect class="cls-48" y="514.87" width="2229.8" height="299.81"/>
        <g class="cls-17">
          <path class="cls-49" d="M1794.93,512.34c6,32.56-586.01,95.96-579.82,153.54,4.21,39.15,321.63,40.27,321.42,61.39-.24,23.41-389.42,38.61-526.49,43.96-305.67,11.93-155.25-3.97-613.43,1.52-157.96,1.89-311.08,5.4-327.72-33.35-15.6-36.32,108.17-79.79,92.43-142.48-9.93-39.55-65.44-47.97-61.76-64.52,10.59-47.55,478.69-20.8,941.18-20.05,451.14,.73,749.85-23.51,754.18,0Z"/>
          <path class="cls-30" d="M1767.65,514.87c6,32.56-586.01,95.96-579.82,153.54,4.21,39.15,321.63,40.27,321.42,61.39-.24,23.41-389.42,38.61-526.49,43.96-305.67,11.93-155.25-3.97-613.43,1.52-157.96,1.89-311.08,5.4-327.72-33.35-15.6-36.32,108.17-79.79,92.43-142.48-9.93-39.55-65.44-47.97-61.76-64.52,10.59-47.55,478.69-20.8,941.18-20.05,451.14,.73,749.85-23.51,754.18,0Z"/>
        </g>
      </g>
      <g>
        <path class="cls-31" d="M0,86.35c56.24,30.69,112.47,61.39,168.71,92.08,40.55,44.72,81.09,89.43,121.64,134.15,44.72,17.05,89.43,34.11,134.15,51.16,32.82,58.36,65.64,116.72,98.45,175.07-174.32,4.55-348.63,9.09-522.95,13.64V86.35Z"/>
        <g class="cls-65">
          <path class="cls-71" d="M-11.29,84.07c60,31.45,120,62.91,180,94.36,12.76,50.91,25.52,101.81,38.27,152.72,64.67,28.29,129.35,56.59,194.02,84.88,35.87,66.69,71.75,133.39,107.62,200.08-58.67-4.83-117.34-9.65-176.01-14.48C239.45,478.13,146.29,354.62,53.13,231.11c55.27,120.39,110.55,240.79,165.82,361.18-99.99-8.23-199.98-16.45-299.97-24.68C-57.78,406.43-34.54,245.25-11.29,84.07Z"/>
        </g>
      </g>
      <g>
        <path class="cls-28" d="M401.33,324.83c-2.58,9.96-5.15,19.92-7.73,29.88,1.5,1.04,3.01,2.07,4.51,3.11-1.97,.77-3.94,1.53-5.91,2.3-1.24,4.8-2.48,9.61-3.73,14.41,8.86,.19,17.71,.38,26.57,.57-2.52-9.25-5.04-18.49-7.57-27.74-1.66-.23-3.31-.45-4.97-.68,1.39-.75,2.78-1.5,4.17-2.25-1.78-6.53-3.56-13.07-5.35-19.6Z"/>
        <path class="cls-2" d="M501.88,477.62c-2.58,9.96-5.15,19.92-7.73,29.88,1.5,1.04,3.01,2.07,4.51,3.11-1.97,.77-3.94,1.53-5.91,2.3-1.24,4.8-2.48,9.61-3.73,14.41,8.86,.19,17.71,.38,26.57,.57-2.52-9.25-5.04-18.49-7.57-27.74-1.66-.23-3.31-.45-4.97-.68,1.39-.75,2.78-1.5,4.17-2.25-1.78-6.53-3.56-13.07-5.35-19.6Z"/>
        <path class="cls-2" d="M479.65,466.51c-2.58,9.96-5.15,19.92-7.73,29.88,1.5,1.04,3.01,2.07,4.51,3.11-1.97,.77-3.94,1.53-5.91,2.3-1.24,4.8-2.48,9.61-3.73,14.41,8.86,.19,17.71,.38,26.57,.57-2.52-9.25-5.04-18.49-7.57-27.74-1.66-.23-3.31-.45-4.97-.68,1.39-.75,2.78-1.5,4.17-2.25-1.78-6.53-3.56-13.07-5.35-19.6Z"/>
        <path class="cls-37" d="M223.44,222.01c-1.48,5.72-2.96,11.44-4.44,17.16,.86,.6,1.73,1.19,2.59,1.79-1.13,.44-2.26,.88-3.4,1.32-.71,2.76-1.43,5.52-2.14,8.27,5.08,.11,10.17,.22,15.25,.33-1.45-5.31-2.9-10.62-4.34-15.93-.95-.13-1.9-.26-2.85-.39,.8-.43,1.6-.86,2.39-1.29-1.02-3.75-2.05-7.5-3.07-11.26Z"/>
        <path class="cls-36" d="M212.71,217.65c-1.23,4.74-2.45,9.49-3.68,14.23,.72,.49,1.43,.99,2.15,1.48-.94,.36-1.88,.73-2.82,1.09-.59,2.29-1.18,4.57-1.77,6.86,4.22,.09,8.43,.18,12.65,.27-1.2-4.4-2.4-8.81-3.6-13.21-.79-.11-1.58-.22-2.36-.32,.66-.36,1.32-.71,1.98-1.07-.85-3.11-1.7-6.22-2.55-9.33Z"/>
        <path class="cls-72" d="M385.8,316.34c-1.97,7.61-3.94,15.22-5.9,22.82,1.15,.79,2.3,1.58,3.45,2.38-1.51,.59-3.01,1.17-4.52,1.76-.95,3.67-1.9,7.34-2.85,11.01,6.76,.15,13.53,.29,20.29,.44-1.93-7.06-3.85-14.13-5.78-21.19-1.26-.17-2.53-.35-3.79-.52,1.06-.57,2.12-1.14,3.18-1.72-1.36-4.99-2.72-9.98-4.08-14.97Z"/>
        <path class="cls-29" d="M291.44,286.43c-1.97,7.61-3.94,15.22-5.9,22.82,1.15,.79,2.3,1.58,3.45,2.38-1.51,.59-3.01,1.17-4.52,1.76-.95,3.67-1.9,7.34-2.85,11.01,6.76,.15,13.53,.29,20.29,.44-1.93-7.06-3.85-14.13-5.78-21.19-1.26-.17-2.53-.35-3.79-.52,1.06-.57,2.12-1.14,3.18-1.72-1.36-4.99-2.72-9.98-4.08-14.97Z"/>
        <path class="cls-25" d="M307.64,297.14c-1.97,7.61-3.94,15.22-5.9,22.82,1.15,.79,2.3,1.58,3.45,2.38-1.51,.59-3.01,1.17-4.52,1.76-.95,3.67-1.9,7.34-2.85,11.01,6.76,.15,13.53,.29,20.29,.44-1.93-7.06-3.85-14.13-5.78-21.19-1.26-.17-2.53-.35-3.79-.52,1.06-.57,2.12-1.14,3.18-1.72-1.36-4.99-2.72-9.98-4.08-14.97Z"/>
        <path class="cls-24" d="M282.64,311.57c-1.97,7.61-3.94,15.22-5.9,22.82,1.15,.79,2.3,1.58,3.45,2.38-1.51,.59-3.01,1.17-4.52,1.76-.95,3.67-1.9,7.34-2.85,11.01,6.76,.15,13.53,.29,20.29,.44-1.93-7.06-3.85-14.13-5.78-21.19-1.26-.17-2.53-.35-3.79-.52,1.06-.57,2.12-1.14,3.18-1.72-1.36-4.99-2.72-9.98-4.08-14.97Z"/>
        <path class="cls-23" d="M275.93,286.43c-1.29,4.98-2.58,9.96-3.86,14.94,.75,.52,1.5,1.04,2.26,1.56-.99,.38-1.97,.77-2.96,1.15-.62,2.4-1.24,4.8-1.86,7.21,4.43,.1,8.86,.19,13.28,.29-1.26-4.62-2.52-9.25-3.78-13.87-.83-.11-1.66-.23-2.48-.34,.69-.37,1.39-.75,2.08-1.12-.89-3.27-1.78-6.53-2.67-9.8Z"/>
      </g>
      <g>
        <path class="cls-21" d="M-24.25,228.83c43.48,53.31,86.95,106.61,130.43,159.92,50.4,22.36,100.8,44.72,151.2,67.07,45.09,36,90.19,72,135.28,108,35.34,39.16,70.69,78.32,106.03,117.47-174.32,4.55-348.63,9.09-522.95,13.64V228.83Z"/>
        <g class="cls-42">
          <path class="cls-22" d="M103.91,529.72c59.87,77.68,119.75,155.37,179.62,233.05-114.59,3.41-229.18,6.82-343.77,10.23V433.4c6.43-47.88,12.86-95.75,19.29-143.63C.89,339.44,42.73,389.1,84.58,438.77c34.74,7.83,69.47,15.66,104.21,23.49,60,42.95,120,85.89,180,128.84,17.43,44.34,34.86,88.67,52.29,133.01-19.83-7.2-39.66-14.4-59.49-21.6-24.76-33.35-49.52-66.69-74.27-100.04-61.14-24.25-122.27-48.51-183.41-72.76Z"/>
        </g>
      </g>
      <g>
        <path class="cls-52" d="M212.56,396.83c-1.33,6.52-2.66,13.03-3.98,19.55,1.29,.22,2.58,.44,3.86,.66-1.26,.69-2.52,1.38-3.78,2.06-2.41,10.62-4.81,21.23-7.22,31.85,8.09,.42,16.19,.84,24.28,1.26-1.46-6.16-2.93-12.32-4.39-18.49-2-.84-4.01-1.67-6.01-2.51,1.77-.03,3.53-.05,5.3-.08-2.68-11.44-5.37-22.88-8.05-34.31Z"/>
        <path class="cls-20" d="M252.82,393.45c-2.02,9.9-4.04,19.81-6.06,29.71,1.96,.34,3.91,.67,5.87,1.01-1.92,1.05-3.83,2.09-5.75,3.14-3.66,16.14-7.32,32.27-10.97,48.41,12.3,.64,24.6,1.27,36.9,1.91l-6.67-28.1c-3.05-1.27-6.09-2.54-9.14-3.81,2.68-.04,5.37-.08,8.05-.12-4.08-17.38-8.16-34.76-12.23-52.15Z"/>
        <path class="cls-35" d="M97.47,354.74c-1.01,4.95-2.02,9.9-3.03,14.86,.98,.17,1.96,.34,2.94,.5-.96,.52-1.92,1.05-2.87,1.57-1.83,8.07-3.66,16.14-5.49,24.2,6.15,.32,12.3,.64,18.45,.96-1.11-4.68-2.22-9.37-3.34-14.05-1.52-.64-3.05-1.27-4.57-1.91,1.34-.02,2.68-.04,4.02-.06-2.04-8.69-4.08-17.38-6.12-26.07Z"/>
        <path class="cls-5" d="M197.61,399.5c-1.33,6.52-2.66,13.03-3.98,19.55,1.29,.22,2.58,.44,3.86,.66-1.26,.69-2.52,1.38-3.78,2.06-2.41,10.62-4.81,21.23-7.22,31.85,8.09,.42,16.19,.84,24.28,1.26-1.46-6.16-2.93-12.32-4.39-18.49-2-.84-4.01-1.67-6.01-2.51,1.77-.03,3.53-.05,5.3-.08-2.68-11.44-5.37-22.88-8.05-34.31Z"/>
        <path class="cls-57" d="M423.1,536.44c-2.02,9.9-4.04,19.81-6.06,29.71,1.96,.34,3.91,.67,5.87,1.01-1.92,1.05-3.83,2.09-5.75,3.14-3.66,16.14-7.32,32.27-10.97,48.41,12.3,.64,24.6,1.27,36.9,1.91-2.22-9.37-4.45-18.73-6.67-28.1-3.05-1.27-6.09-2.54-9.14-3.81,2.68-.04,5.37-.08,8.05-.12-4.08-17.38-8.16-34.76-12.23-52.15Z"/>
        <path class="cls-19" d="M296.28,438.42c-2.02,9.9-4.04,19.81-6.06,29.71,1.96,.34,3.91,.67,5.87,1.01-1.92,1.05-3.83,2.09-5.75,3.14-3.66,16.14-7.32,32.27-10.97,48.41,12.3,.64,24.6,1.27,36.9,1.91l-6.67-28.1c-3.05-1.27-6.09-2.54-9.14-3.81,2.68-.04,5.37-.08,8.05-.12-4.08-17.38-8.16-34.76-12.23-52.15Z"/>
        <path class="cls-68" d="M277.82,458.5c-2.02,9.9-4.04,19.81-6.06,29.71,1.96,.34,3.91,.67,5.87,1.01-1.92,1.05-3.83,2.09-5.75,3.14-3.66,16.14-7.32,32.27-10.97,48.41,12.3,.64,24.6,1.27,36.9,1.91-2.22-9.37-4.45-18.73-6.67-28.1-3.05-1.27-6.09-2.54-9.14-3.81,2.68-.04,5.37-.08,8.05-.12-4.08-17.38-8.16-34.76-12.23-52.15Z"/>
      </g>
      <g>
        <path class="cls-31" d="M2315.01,81.1c-61.5,21.71-122.99,43.42-184.49,65.12-44.46,60.63-88.93,121.26-133.39,181.89-68.36,68.48-136.71,136.96-205.07,205.44,174.32,4.55,348.63,9.09,522.95,13.64V81.1Z"/>
        <g class="cls-76">
          <path class="cls-2" d="M1828.44,48.13c60,31.45,120,62.91,180,94.36,12.76,50.91,25.52,101.81,38.27,152.72,64.67,28.29,129.35,56.59,194.02,84.88,35.87,66.69,71.75,133.39,107.62,200.08-58.67-4.83-117.34-9.65-176.01-14.48-93.16-123.51-186.32-247.02-279.48-370.53,55.27,120.39,110.55,240.79,165.82,361.18-99.99-8.23-199.98-16.45-299.97-24.68,23.24-161.18,46.48-322.36,69.73-483.54Z"/>
        </g>
      </g>
      <g>
        <path class="cls-11" d="M754.56,868.81c-55.75-15.11-142.41-39.43-247.66-72.68-206.56-65.25-271.35-97.46-388.98-128.92-91.79-24.55-228.75-52.1-406.23-54.19,5.28,75.09,10.56,150.18,15.84,225.27,342.34,10.17,684.68,20.35,1027.02,30.52Z"/>
        <g>
          <path class="cls-33" d="M210.83,536.71c4.74,23.23,9.47,46.46,14.21,69.7-4.59,.79-9.18,1.58-13.77,2.37,4.5,2.45,8.99,4.9,13.49,7.36,8.92,39.57,17.84,79.14,26.77,118.71-29.2-.22-58.39-.45-87.59-.67,5.22-21.97,10.44-43.94,15.66-65.91,7.14-2.98,14.29-5.96,21.43-8.94-6.29-.1-12.59-.19-18.88-.29,5.87-25.02,11.74-50.04,17.61-75.06,3.43-1.63,6.86-3.25,10.29-4.88-2.61-.69-5.22-1.38-7.84-2.07,2.88-13.44,5.75-26.88,8.63-40.32Z"/>
          <path class="cls-13" d="M72.46,299.11c-13.15,64.52-26.3,129.03-39.45,193.55,12.75,2.19,25.5,4.38,38.25,6.58-12.48,6.81-24.97,13.62-37.46,20.43-24.78,109.89-49.55,219.78-74.33,329.67,81.08-.62,162.17-1.25,243.25-1.87-14.49-61.01-28.99-122.02-43.48-183.03-19.84-8.28-39.68-16.55-59.51-24.83,17.48-.26,34.95-.53,52.43-.79-16.3-69.48-32.6-138.96-48.9-208.44-9.53-4.51-19.06-9.03-28.58-13.54,7.25-1.92,14.51-3.83,21.76-5.75-7.99-37.33-15.98-74.65-23.97-111.98Z"/>
        </g>
      </g>
      <g>
        <g>
          <g>
            <ellipse class="cls-47" cx="2084.64" cy="556.36" rx="68.85" ry="89.99"/>
            <ellipse class="cls-10" cx="2041.82" cy="441.61" rx="68.85" ry="89.99"/>
            <ellipse class="cls-54" cx="1990.49" cy="497.34" rx="68.85" ry="89.99"/>
            <ellipse class="cls-75" cx="2031.59" cy="523.39" rx="68.85" ry="89.99"/>
            <ellipse class="cls-34" cx="2002.06" cy="467.02" rx="68.85" ry="89.99"/>
            <ellipse class="cls-16" cx="2088.08" cy="497.34" rx="68.85" ry="89.99"/>
            <g>
              <path class="cls-18" d="M2079.43,714.71c1.43-40.47,2.86-80.94,4.29-121.41-9.19-7.98-18.38-15.96-27.57-23.95,9.31,5.66,18.62,11.32,27.93,16.97,1.16-27.69,2.33-55.38,3.49-83.07,1.49,16.11,2.98,32.23,4.47,48.34,8.8-5.76,17.59-11.52,26.39-17.28-9.06,8.17-18.11,16.35-27.17,24.52,1.59,22.75,3.17,45.5,4.76,68.25,8.39-5.25,16.77-10.5,25.16-15.74-8.41,7.78-16.82,15.56-25.23,23.34,1.64,27.43,3.28,54.87,4.92,82.3-7.14-.76-14.28-1.52-21.43-2.28Z"/>
              <g class="cls-27">
                <g class="cls-44">
                  <path class="cls-26" d="M2080.68,626.66c.88-.02,1.77-.04,2.65-.06l-.43-.25c1.16,1.84,.48,4.16,.73,6.2,.26,2.23,1.7,3.95,2.4,6.02,1.46,4.32-1.05,8.74-4.15,11.61-1.89,1.75-4.06,3.14-6.22,4.52-.54,.35-.04,1.21,.5,.86,4.24-2.71,8.73-5.69,10.56-10.62,.83-2.25,1-4.78,.12-7.04-.45-1.16-1.11-2.22-1.62-3.35-.56-1.24-.69-2.47-.67-3.82s.13-2.67-.32-3.92c-.16-.45-.38-1.14-.91-1.22-.41-.06-.92,.02-1.33,.03l-1.33,.03c-.64,.02-.64,1.02,0,1h0Z"/>
                </g>
                <g class="cls-44">
                  <path class="cls-9" d="M2078.99,611.48c2.73-.28,4.64,2.39,4.97,4.85,.18,1.34-.28,2.72,.72,3.83,.88,.98,2.26,1.31,3.34,2.01,2.33,1.51,3.72,4.12,4.32,6.78,.73,3.25,.18,6.62-.69,9.79-.94,3.43-2.21,6.76-3.25,10.16s-1.95,6.86-2.49,10.39c-.27,1.76-.45,3.53-.52,5.31s-.03,3.42-.13,5.13c-.17,3.28-1.01,6.29-2.86,9.02-4.23,6.24-11.46,9.28-17.74,12.99-.55,.33-.05,1.19,.5,.86,5.87-3.46,12.4-6.31,16.84-11.68,1.99-2.41,3.44-5.2,3.96-8.3,.6-3.58,.25-7.25,.62-10.85s1.25-7.4,2.29-11,2.33-7.06,3.4-10.63c.98-3.28,1.72-6.76,1.24-10.2-.38-2.75-1.51-5.49-3.52-7.45-.54-.52-1.14-.99-1.79-1.37s-1.37-.65-2.02-1.03c-.89-.52-1.25-1.15-1.22-2.19,.02-.77,.03-1.51-.13-2.27-.57-2.71-2.85-5.45-5.86-5.14-.63,.06-.64,1.06,0,1h0Z"/>
                </g>
                <g class="cls-44">
                  <path class="cls-14" d="M2079.13,561.65c3.42,4.85,4.54,10.75,5.83,16.43,.66,2.9,1.36,5.81,2.45,8.59,1.22,3.11,2.85,6.03,3.89,9.22,2.05,6.31,2.68,12.99,4.88,19.26,1.15,3.28,2.63,6.42,3.9,9.65s2.15,6.29,2.83,9.54c1.57,7.45,1.83,15.11,1.59,22.7-.02,.64,.98,.64,1,0,.21-6.76,.02-13.56-1.11-20.24-.56-3.34-1.36-6.64-2.46-9.84s-2.59-6.42-3.87-9.64-2.18-6.4-2.91-9.72-1.32-6.49-2.2-9.68-2.21-6.24-3.62-9.29c-1.3-2.84-2.21-5.78-2.94-8.81-1.54-6.38-2.52-13.17-6.39-18.66-.37-.52-1.24-.02-.86,.5h0Z"/>
                </g>
              </g>
            </g>
            <g>
              <path class="cls-89" d="M2014.01,729.24c4.19-59.13,8.38-118.26,12.57-177.39-20.11-30.48-29.43-46.26-27.95-47.34,1.31-.96,11.17,9.71,29.57,32.03,2.4-36.38,4.8-72.76,7.2-109.14,2.4,24.34,4.8,48.67,7.2,73.01,16.21-21.55,24.8-31.99,25.77-31.33,1.07,.73-7.18,15.05-24.76,42.95,2.93,30.59,5.87,61.19,8.8,91.78,5.59-4.6,11.18-9.19,16.76-13.79,.89,1.27,1.78,2.53,2.66,3.8-5.87,6.67-11.75,13.35-17.62,20.02,2.33,40.92,4.66,81.85,6.99,122.77-15.73-2.46-31.46-4.92-47.19-7.38Z"/>
              <g class="cls-40">
                <g class="cls-56">
                  <path class="cls-12" d="M2019.03,578.48c5.31,1.37,9.82,5.28,12,10.31,2.56,5.94,1.31,12.63-1.08,18.4-2.51,6.06-6.39,11.4-9.51,17.13-1.5,2.76-2.83,5.62-3.74,8.63-.96,3.2-1.38,6.54-1.51,9.87-.32,7.79,.84,15.65-.49,23.39-.11,.63,.86,.9,.96,.27,1.2-6.99,.43-14.06,.47-21.1,.02-3.58,.26-7.18,1.12-10.66,.79-3.19,2.1-6.22,3.64-9.12,3.1-5.88,7.07-11.28,9.71-17.4s3.98-12.59,1.74-18.77c-2.09-5.78-7.09-10.37-13.05-11.9-.62-.16-.89,.8-.27,.96h0Z"/>
                </g>
                <g class="cls-56">
                  <path class="cls-84" d="M2021.98,555.01c3.06,1.35,6.11,2.71,9.17,4.06,2.7,1.2,5.65,2.27,7.89,4.26s3.5,4.83,4.5,7.62c1.1,3.06,1.97,6.24,2.33,9.48,.65,5.77-.72,11.26-2.71,16.64-1.88,5.09-4.21,10.06-5.42,15.37-.57,2.49-.88,5.07-.72,7.62,.18,3.02,1.3,5.86,1.55,8.86,.5,5.95-2.35,11.57-5.76,16.24s-7.66,8.71-11.07,13.4c-1.7,2.34-3.14,4.83-4.22,7.52-1.15,2.87-1.92,5.87-2.59,8.88-2.94,13.16-5.62,26.38-8.42,39.56-.35,1.66-.71,3.32-1.06,4.98-.13,.63,.83,.9,.96,.27,2.87-13.49,5.74-26.99,8.61-40.48,1.31-6.16,2.57-12.38,5.95-17.8,3.15-5.05,7.46-9.21,11.17-13.82s6.7-9.57,7.37-15.31c.37-3.14-.38-6.02-1.03-9.06-.58-2.72-.63-5.49-.22-8.23,1.63-10.93,8.94-20.41,8.79-31.71-.04-3.19-.62-6.36-1.5-9.43-.82-2.85-1.8-5.8-3.37-8.34s-3.68-4.15-6.25-5.43c-2.9-1.45-5.92-2.67-8.88-3.98l-4.58-2.03c-.58-.26-1.09,.6-.5,.86h0Z"/>
                </g>
                <g class="cls-56">
                  <path class="cls-58" d="M2009.36,719.28c3.3-6.91,6.74-13.75,10.33-20.51,1.78-3.35,3.59-6.67,5.43-9.98,1.58-2.83,3.12-5.72,5.01-8.36s4.36-5.14,7.54-6.27l-.56-.23c2.08,2.72,4.16,5.45,6.23,8.17,.19,.26,.53,.35,.79,.1,3.11-2.99,4.26-7.27,4.99-11.38,.77-4.33,1.38-8.69,2.22-13.01,1.67-8.61,3.93-17.25,7.98-25.07,2.25-4.34,5.06-8.38,8.49-11.87,.45-.46-.26-1.17-.71-.71-6.07,6.18-10.11,13.96-12.84,22.12-2.81,8.39-4.34,17.15-5.71,25.87-.74,4.69-1.54,9.89-5.13,13.34l.79,.1c-2.08-2.72-4.16-5.45-6.23-8.17-.13-.17-.34-.31-.56-.23-5.95,2.1-9.17,8.01-12.09,13.19-3.8,6.74-7.45,13.56-10.96,20.46-2.01,3.95-3.96,7.93-5.87,11.93-.28,.58,.59,1.09,.86,.5h0Z"/>
                </g>
                <g class="cls-56">
                  <path class="cls-88" d="M2021.68,520.14c3.18,8.03,8.4,15.14,13.59,21.97,1.27,1.67,2.62,3.28,4.28,4.57s3.38,2.22,4.67,3.81,2.07,3.52,2.77,5.41c.8,2.16,1.55,4.34,2.24,6.54,1.56,4.96,2.83,10,3.81,15.1,.12,.63,1.09,.36,.96-.27-.88-4.55-1.98-9.06-3.32-13.49-.66-2.18-1.37-4.34-2.13-6.49-.68-1.91-1.36-3.86-2.36-5.63s-2.33-3.1-3.96-4.26c-1.73-1.24-3.34-2.46-4.74-4.08s-2.67-3.45-3.96-5.21-2.57-3.54-3.8-5.35c-2.76-4.06-5.29-8.3-7.1-12.88-.23-.59-1.2-.33-.96,.27h0Z"/>
                </g>
                <g class="cls-32">
                  <path class="cls-73" d="M2028.85,483.64c2.46,8.88,4.93,17.77,8.02,26.46,1.51,4.24,3.19,8.42,5.03,12.53s3.61,7.86,5.11,11.92c1.68,4.54,2.91,9.27,2.99,14.14,.01,.64,1.01,.64,1,0-.14-8.66-3.77-16.66-7.27-24.41-1.88-4.16-3.67-8.36-5.25-12.64s-3.01-8.71-4.34-13.12c-1.52-5.02-2.92-10.08-4.32-15.14-.17-.62-1.14-.36-.96,.27h0Z"/>
                </g>
              </g>
            </g>
            <g>
              <ellipse class="cls-87" cx="1846.46" cy="340.41" rx="96.42" ry="126.03"/>
              <ellipse class="cls-51" cx="1802.95" cy="454.23" rx="96.42" ry="126.03"/>
              <ellipse class="cls-79" cx="1881.03" cy="454.23" rx="96.42" ry="126.03"/>
              <ellipse class="cls-61" cx="1878.28" cy="564.02" rx="65.6" ry="69.74"/>
              <ellipse class="cls-67" cx="1808.48" cy="551.77" rx="69.8" ry="95.57"/>
              <ellipse class="cls-46" cx="1806.3" cy="432.25" rx="96.42" ry="126.03"/>
              <g>
                <path class="cls-81" d="M1831.86,754.31c2.54-71.07,5.08-142.15,7.63-213.22-29.34-26.41-43.31-40.48-41.94-42.19,1.27-1.57,15.48,7.27,42.65,26.53,3.17-35.75,6.34-71.49,9.5-107.24,1.99,15.77,3.97,31.54,5.96,47.31,21.2-32.92,32.31-49.06,33.34-48.44,1.11,.67-9.53,20.89-31.93,60.64,.84,7.42,1.66,14.87,2.45,22.35,4.07,38.49,7.31,76.34,9.78,113.53,21.22-24.45,32.29-36.32,33.19-35.59,.97,.78-9.8,16.09-32.3,45.94,3.77,43.72,7.54,87.44,11.3,131.15-16.55-.25-33.09-.51-49.64-.76Z"/>
                <g class="cls-70">
                  <g class="cls-3">
                    <path class="cls-50" d="M1833.58,583.68c4.12,.6,4.79,5.81,6.76,8.67,1.1,1.6,2.77,2.49,4.03,3.92s1.69,3.28,1.69,5.1c0,4-2.1,7.42-4.18,10.68-1.15,1.8-2.33,3.6-3.23,5.54s-1.47,3.9-2.16,5.87c-1.58,4.52-4.23,8.48-7.84,11.63-.97,.85,.45,2.26,1.41,1.41,3.3-2.89,5.92-6.5,7.61-10.55,.95-2.28,1.54-4.7,2.53-6.96,.92-2.09,2.18-4.01,3.41-5.93,2.25-3.52,4.39-7.21,4.45-11.51,.03-1.85-.35-3.75-1.3-5.37-1.06-1.81-2.9-2.71-4.24-4.26-2.87-3.3-3.15-9.41-8.41-10.18-1.26-.18-1.8,1.74-.53,1.93h0Z"/>
                  </g>
                  <g class="cls-3">
                    <path class="cls-78" d="M1829.8,559.43c3.79-1.1,7.99,.63,10.24,3.81,1.23,1.74,1.6,3.61,1.58,5.7-.02,2.21-.11,4.52,1.21,6.42,1.13,1.62,2.92,2.56,4.52,3.63,1.8,1.2,3.09,2.8,3.8,4.86,1.5,4.36,.91,9.28,.74,13.79-.44,11.36-1.02,22.71-1.73,34.05-.18,2.81-.36,5.63-.55,8.44s-.36,5.43-1.45,7.95c-1.02,2.35-2.6,4.44-4.14,6.47s-3.08,3.9-4.71,5.77c-7.32,8.39-15.83,15.69-25.23,21.65-1.08,.69-.08,2.42,1.01,1.73,8.75-5.56,16.78-12.24,23.78-19.89,3.47-3.79,6.96-7.82,9.67-12.2,1.45-2.33,2.36-4.81,2.73-7.53s.47-5.62,.65-8.42c.79-12.09,1.43-24.18,1.91-36.28,.2-4.88,.81-10.07-.39-14.87-.5-1.99-1.39-3.89-2.8-5.4-1.53-1.64-3.66-2.47-5.31-3.95-2.28-2.04-1.56-4.95-1.74-7.66-.15-2.28-1.02-4.38-2.48-6.14-2.82-3.4-7.56-5.12-11.85-3.88-1.23,.36-.71,2.29,.53,1.93h0Z"/>
                  </g>
                  <g class="cls-3">
                    <path class="cls-80" d="M1843.64,485.52c-4.53,7.34,2.44,14.58,5.3,20.95,1.76,3.93,2.6,8.27,2.49,12.57s-1.61,8.58-2.29,12.93c-1.35,8.6,2.67,16.08,5.22,24.03,2.76,8.59,3.09,17.7,3.71,26.63s1.3,18.72,1.95,28.08c.64,9.25,1.51,18.51,1.77,27.78,.24,8.45-.36,17.05-3.54,24.97-1.45,3.6-3.45,7.04-6.04,9.94-2.67,2.99-6.01,5.13-9.08,7.66-6.13,5.05-8.75,12.26-10.98,19.65-2.56,8.51-5.41,16.91-8.76,25.14-.87,2.14-1.76,4.26-2.69,6.37-.51,1.17,1.21,2.19,1.73,1.01,3.58-8.19,6.76-16.54,9.5-25.05,2.4-7.44,3.93-15.94,8.98-22.15,2.61-3.2,6.14-5.36,9.29-7.96,2.88-2.37,5.29-5.25,7.2-8.45,4.04-6.77,5.78-14.63,6.26-22.44,.56-9.16-.41-18.39-1.04-27.52s-1.3-18.72-1.95-28.08-.89-18.1-2.29-27.01c-.68-4.36-1.83-8.56-3.36-12.69-1.44-3.89-3.06-7.76-3.83-11.86-.84-4.48,.03-8.67,1.05-13.03s1.48-8.29,.94-12.55c-.51-3.98-1.76-7.81-3.72-11.32s-4.71-7-5.18-11.17c-.22-1.9,.06-3.76,1.08-5.41,.68-1.1-1.05-2.1-1.73-1.01h0Z"/>
                  </g>
                  <g class="cls-3">
                    <path class="cls-53" d="M1844.86,450.92c-1.34,10.28-.58,20.79,2.27,30.76,2.95,10.3,8.77,19.38,12.27,29.47s5.2,21.11,7.12,31.77c2.02,11.23,4.04,22.46,6.06,33.68s4.29,22.53,5.46,33.92,.89,22.31-.96,33.41c-1.82,10.94-4.73,21.67-7.52,32.39-2.72,10.48-5.56,20.94-9.19,31.14-6.94,19.53-18.39,37.09-25.12,56.69-.83,2.43-1.58,4.88-2.24,7.36-.33,1.25,1.6,1.78,1.93,.53,5.32-20.05,16.87-37.57,24.56-56.68,4.08-10.14,7.2-20.63,10.04-31.18,2.87-10.66,5.76-21.35,8.02-32.16s3.6-21.75,3.12-32.8-2.41-22.17-4.38-33.13c-2.02-11.22-4.04-22.44-6.06-33.66-1.96-10.91-3.6-21.95-6.26-32.71-1.26-5.11-2.87-10.11-4.95-14.95s-4.75-9.89-6.9-14.94c-4.18-9.81-6.22-20.47-5.93-31.13,.07-2.62,.29-5.22,.63-7.81,.17-1.27-1.84-1.26-2,0h0Z"/>
                  </g>
                </g>
              </g>
            </g>
          </g>
          <g>
            <path class="cls-77" d="M1874.59,622.26c-3.48-4.2-5.73-5.55-9.21-9.75-.33-.4-1.14-.7-1.22-.18,5.07,5.83,8.46,9.22,12.55,15.77l-2.12-5.84Z"/>
            <path class="cls-77" d="M2017.95,620.94c3.48-4.2,8.57-10.95,12.05-15.15,.33-.4,1.14-.7,1.22-.18-5.07,5.83-11.29,14.61-15.39,21.17l2.12-5.84Z"/>
            <path class="cls-77" d="M2019.52,619.34c-7.99,5.94-18.53,13.12-26.52,19.06-2.09,1.56-4.21,3.12-6.59,4.19-3.64,1.63-6.7,2.01-7.55,2.13-8.68,1.22-17.22,7.29-27.26,9.7-18.68,4.47-37.72-4.91-49.51-10.72-3.27-1.61-5.66-3.04-6.39-3.48-10.42-6.27-17.46-13.57-21.78-18.77-.1,.54-.2,1.07-.31,1.61,8.31,9,15.96,17.21,23.55,25.38,2.79,3,6.21,6.7,11.83,10.11,4.81,2.92,10.23,4.64,15.6,6.33,7.56,2.38,15.12,4.76,22.68,7.14,4.63,1.46,9.41,2.93,14.24,2.45,6.37-.63,11.88-4.56,16.84-8.6,9.03-7.36,17.35-15.57,24.83-24.5l16.34-22.03Z"/>
            <path class="cls-69" d="M2019.53,619.3c-2.36,2.61-5.98,6.46-10.67,10.82-14.97,13.91-32.05,29.77-55.77,31.83-2.43,.21-12.17,.91-24.03-2.4-8.59-2.39-14.33-5.79-22.06-10.36-4.5-2.66-13.17-8.12-22.81-16.81-5.9-5.31-10.48-10.31-13.8-14.25,4.67,8.89,9.79,17.55,15.34,25.92,4.55,6.87,9.65,12.1,11.96,14.46,13.94,14.19,48.28,28.29,80.62,13.75,33.23-14.94,41.06-49.63,41.83-53.34l-.6,.37Z"/>
            <path class="cls-77" d="M1937.78,664.44c1.67,.67,4.06,1.51,7.02,2.13,2.67,.56,8.03,1.63,14.74,.4,2.47-.45,6.12-1.4,10.19-3.57-3.33,1.33-8.21,2.83-14.25,3.24-7.67,.52-13.89-.97-17.7-2.2Z"/>
            <path class="cls-77" d="M1944.43,669.79c1.59,.44,3.66,.84,6.09,.91,3.38,.09,6.18-.5,8.1-1.08-1.29,.7-4.36,2.15-8.4,1.84-2.59-.2-4.59-1.04-5.79-1.67Z"/>
            <path class="cls-77" d="M1917.52,664.78c.07-.1,4.43,3.79,11.46,6.45,8.12,3.07,14.8,2.6,14.79,2.71,0,.11-7.48,.83-15.77-2.53-6.42-2.6-10.54-6.52-10.48-6.62Z"/>
            <path class="cls-77" d="M1836.64,606.55c2.58,1.4,5.98,2.88,10.14,3.79,9.88,2.16,18.16-.16,22.2-1.62,.18,1.08,.36,2.15,.54,3.23-6.03,2.56-11.13,3.01-14.24,3.03-.66,0-3.73-.03-7.71-.88-4.57-.98-8.15-2.57-10.56-3.84-.12-1.23-.25-2.47-.37-3.7Z"/>
            <path class="cls-77" d="M2023.1,600.93c1.73,1.14,7.15,4.36,14.7,3.94,7.56-.42,12.58-4.24,14.18-5.56,.16,.49,.32,1.13,.38,1.89,.06,.68,.03,1.28-.03,1.76-2.07,1.52-7.54,5.1-15.41,5.46-6.73,.3-11.82-1.91-14.13-3.09-.15-.42-.31-1.02-.32-1.75-.02-1.22,.38-2.15,.63-2.63Z"/>
          </g>
        </g>
        <path class="cls-86" d="M1304.41,838.94c104.11-33.94,222.78-65.4,354.69-88.67,252.8-44.59,476.83-45.45,654.82-31.83-3.03,56.08-6.06,112.17-9.09,168.25-333.47-15.92-666.95-31.83-1000.42-47.75Z"/>
        <path class="cls-43" d="M1420.04,876.98c225.2-25.94,450.41-51.89,675.61-77.83-78.06,.13-156.13,.25-234.19,.38,23.12-12.25,46.23-24.51,69.35-36.76-19.39,1.22-38.88,2.36-58.48,3.41-75.89,4.07-150.4,6.67-223.45,7.96,100.16-24.56,227.24-46.65,375.16-51.16,160.66-4.9,298.68,12.37,405.53,33.49-3.03,56.08-6.06,112.17-9.09,168.25-333.47-15.92-666.95-31.83-1000.42-47.75Z"/>
        <g>
          <path class="cls-85" d="M2005.69,776.85c18.69-45.98,37.39-91.96,56.08-137.94,14.65,48,29.31,96,43.96,144-33.35-2.02-66.69-4.04-100.04-6.06Z"/>
          <path class="cls-38" d="M2061.77,638.91c40.76-3.6,81.52-7.19,122.27-10.79,29.64,46.48,59.28,92.97,88.93,139.45-55.75,5.11-111.49,10.23-167.24,15.34-14.65-48-29.31-96-43.96-144Z"/>
        </g>
        <g>
          <path class="cls-66" d="M2037.29,140.92c-38.6,40.62-94.29,48.72-129.6,25.01-29.47-19.79-35.25-55.38-36.38-63.66-27.28,11.48-58.05,5.93-77.31-13.64-22.08-22.44-18.7-52.84-18.19-56.84-26.03,17.03-60.21,13.94-81.85-6.82-19.81-19-25.43-49.27-13.64-75.03-.58-110.96,31.15-153.85,59.12-172.8,73.93-50.1,156.48,43.43,354.69,43.2,133.87-.16,186.56-42.93,227.37-2.27,46.81,46.64,20.72,146.01,70.48,222.82,2.63,4.06,8.36,12.51,6.82,22.74-4.96,33.11-80.54,48.83-140.97,56.84,1.6,8.35,3.83,27.06-6.82,40.93-16.15,21.03-57.51,25.15-95.49,0-34.34,20.49-72.64,22.7-97.77,4.55-5.73-4.14-14.01-11.67-20.46-25.01Z"/>
          <path class="cls-39" d="M2071.4,51.11c-38.6,40.62-94.29,48.72-129.6,25.01-29.47-19.79-35.25-55.38-36.38-63.66-27.28,11.48-58.05,5.93-77.31-13.64-22.08-22.44-18.7-52.84-18.19-56.84-26.03,17.03-60.21,13.94-81.85-6.82-19.81-19-25.43-49.27-13.64-75.03-.58-110.96,31.15-153.85,59.12-172.8,73.93-50.1,156.48,43.43,354.69,43.2,133.87-.16,186.56-42.93,227.37-2.27,46.81,46.64,20.72,146.01,70.48,222.82,2.63,4.06,8.36,12.51,6.82,22.74-4.96,33.11-80.54,48.83-140.97,56.84,1.6,8.35,3.83,27.06-6.82,40.93-16.15,21.03-57.51,25.15-95.49,0-34.34,20.49-72.64,22.7-97.77,4.55-5.73-4.14-14.01-11.67-20.46-25.01Z"/>
          <g>
            <path class="cls-55" d="M2126.46,817.27c-8.9-179.03-17.79-358.07-26.69-537.1-25.77-19.98-51.54-39.96-77.31-59.93,.17-.85,.78-3.35,2.75-5.1,3.43-3.04,7.66-.86,7.84-.77,20.54,13.77,41.09,27.54,61.63,41.32-8.47-92.07-16.94-184.13-25.42-276.2,28.59,.26,57.19,.51,85.78,.77,5.72,44.63,11.44,89.26,17.16,133.89,19.52-17.09,39.04-34.17,58.56-51.26,1.02,5.36,2.05,10.71,3.07,16.07-17.79,22.19-35.58,44.38-53.37,66.56,11.23,94.11,22.45,188.21,33.68,282.32,12.92-15.56,25.84-31.11,38.76-46.67,2.54,3.57,5.08,7.14,7.62,10.71-13.13,21.93-26.26,43.87-39.4,65.8,15.89,123.18,31.77,246.36,47.66,369.54-47.44-3.32-94.89-6.63-142.33-9.95Z"/>
            <g class="cls-59">
              <g class="cls-45">
                <path class="cls-15" d="M2093.32,293.47c7.5-.28,12.19,8.57,15.98,13.89,4.44,6.22,8.78,12.52,12.7,19.08,7.68,12.84,13.92,26.99,14.7,42.13s-3.99,30.64-11.21,44.21c-6.67,12.56-15.37,26.67-26.54,35.7-13.52,10.93-32.42,9.32-48.63,7.9-3.85-.34-3.82,5.66,0,6,15.62,1.37,32.78,2.53,46.94-5.53,7.06-4.02,12.39-10.19,17.3-16.54,5.29-6.84,10.23-13.97,14.47-21.52,8.19-14.53,13.99-30.85,13.75-47.71-.24-16.81-6.74-32.67-15.18-46.95-4.89-8.28-10.45-16.14-16.09-23.92-4.5-6.21-9.77-13.06-18.21-12.75-3.85,.14-3.87,6.14,0,6h0Z"/>
              </g>
              <g class="cls-45">
                <path class="cls-62" d="M2057.43,6.14c-3.34,23.93-4.48,48.09-3.06,72.22,1.3,22.11,3.71,45.36,10.82,66.45,3.06,9.08,7.31,17.73,13.4,25.17,6.1,7.46,13.93,13.31,19.95,20.85,13.58,17.01,3.75,40.73,17.11,57.91,5.13,6.59,12.05,11.4,18.68,16.35,7.75,5.78,14.62,12.05,19.41,20.57,9.84,17.48,10.79,38.61,11.33,58.19,1.23,44.75,2.1,91.26-13.91,133.81-16.51,43.87-58.83,89.4-37.93,139.29,1.47,3.51,7.28,1.97,5.79-1.6-18.91-45.16,17.17-87.82,34.24-127.03,17.6-40.42,18.99-85.13,18.19-128.54-.36-19.65-.15-39.93-5.3-59.06-2.33-8.67-5.91-17.1-11.26-24.35s-12.18-12.49-19.26-17.76c-7.02-5.23-14.52-10.7-18.56-18.71-4.96-9.83-3.41-21.5-4.95-32.1-1.36-9.37-5.47-17.08-11.77-24.06-6.54-7.24-14.4-13.27-20-21.35-14.12-20.35-16.92-48.46-19.1-72.45-2.49-27.36-1.82-54.99,1.98-82.2,.53-3.78-5.25-5.41-5.79-1.6h0Z"/>
              </g>
              <g class="cls-45">
                <path class="cls-83" d="M2093.69-25.25c21.07,15.77,25.87,44.15,28.41,68.67,1.66,16.03,2.93,32.12,4.37,48.17,1.22,13.58,.86,28.98,9.97,40.08,4.81,5.86,10.24,10.49,13.47,17.54,3.15,6.88,4.73,14.43,6.55,21.73,4.09,16.43,8.17,32.86,12.26,49.29,8.27,33.23,16.67,66.44,24.66,99.74,15.87,66.15,29.78,133.3,32.06,201.49,1.13,33.93-.9,67.79-6.32,101.31-5.24,32.41-12.89,64.36-19.6,96.49s-12.28,64.48-14.15,97.29c-1.87,32.87-.43,65.88,4.16,98.47,1.16,8.24,2.54,16.44,4.1,24.62,.72,3.79,6.51,2.18,5.79-1.6-6.37-33.39-9.34-67.36-8.78-101.35,.56-33.98,5.06-67.54,11.62-100.85,6.47-32.83,14.44-65.36,20.39-98.3,5.95-32.92,9.27-66.12,9.11-99.59-.32-68.05-12.95-135.37-28.3-201.43-7.81-33.59-16.3-67.02-24.62-100.48-4.17-16.75-8.33-33.5-12.5-50.26-3.59-14.42-5.74-30.92-13.48-43.87-3.73-6.24-9.76-10.52-13.68-16.56-4.23-6.51-4.96-14.51-5.65-22.05-1.58-17.25-3.1-34.5-4.65-51.75-2.17-24.04-4.93-50.51-20.15-70.29-3.45-4.49-7.48-8.31-12.01-11.7-3.09-2.31-6.09,2.89-3.03,5.18h0Z"/>
              </g>
            </g>
          </g>
        </g>
        <g>
          <path class="cls-8" d="M1916.28,740.92c.67,2.36,1.35,4.72,2.02,7.07-15.83,2.86-31.66,5.73-47.49,8.59-.44-.47-1.21-1.41-1.58-2.81-.62-2.33,.3-4.26,.57-4.77,11.08-1.93,22.16-3.85,33.24-5.78,4.41-.77,8.83-1.54,13.24-2.3Z"/>
          <path class="cls-8" d="M1949.13,759.11c-16.84-7.41-33.68-14.82-50.53-22.23-.06-.22-.42-1.64,.47-3,.87-1.34,2.28-1.59,2.5-1.63,16.51,6.52,33.03,13.03,49.54,19.55-.67,2.44-1.33,4.88-2,7.32Z"/>
        </g>
      </g>
    </g>
    <path class="cls-38" d="M2061.77,638.91c-5.46,46.78-10.92,93.56-16.38,140.34,3.44,.21,6.88,.42,10.32,.63,2.02-46.99,4.04-93.98,6.06-140.97Z"/>
  </g>
  <g class="cls-82">
    <path class="cls-7" d="M2259.79,1342.76c-60.12,63.25-146.85,75.87-201.84,38.95-45.9-30.82-54.89-86.24-56.66-99.15-42.49,17.87-90.41,9.24-120.39-21.25-34.38-34.95-29.13-82.29-28.33-88.53-40.54,26.52-93.77,21.7-127.48-10.62-30.85-29.59-39.6-76.73-21.25-116.85-.91-172.81,48.51-239.6,92.07-269.12,115.14-78.02,243.7,67.64,552.4,67.28,208.49-.25,290.55-66.86,354.1-3.54,72.9,72.63,32.26,227.39,109.77,347.02,4.1,6.32,13.01,19.48,10.62,35.41-7.73,51.56-125.43,76.05-219.54,88.53,2.49,13.01,5.96,42.15-10.62,63.74-25.16,32.75-89.57,39.17-148.72,0-53.49,31.9-113.12,35.35-152.26,7.08-8.92-6.44-21.82-18.17-31.87-38.95Z"/>
  </g>
</svg>