<?xml version="1.0" encoding="UTF-8"?>
<svg id="_Слой_1" data-name="Слой 1" xmlns="http://www.w3.org/2000/svg" xmlns:xlink="http://www.w3.org/1999/xlink" viewBox="0 0 2704 1520">
  <defs>
    <style>
      .cls-1 {
        fill: url(#_Безымянный_градиент_19-13);
      }

      .cls-2 {
        fill: #bcb755;
      }

      .cls-3 {
        opacity: .13;
      }

      .cls-4 {
        fill: #f6f8e2;
        fill-rule: evenodd;
        opacity: .35;
      }

      .cls-5 {
        fill: url(#_Безымянный_градиент_13-4);
      }

      .cls-6 {
        fill: url(#_Безымянный_градиент_19-6);
      }

      .cls-7 {
        fill: url(#_Безымянный_градиент_9);
      }

      .cls-8 {
        fill: #472816;
      }

      .cls-9 {
        fill: url(#_Безымянный_градиент_19-3);
      }

      .cls-10 {
        fill: url(#_Безымянный_градиент_10-2);
      }

      .cls-11 {
        fill: url(#_Безымянный_градиент_24);
      }

      .cls-12 {
        fill: url(#_Безымянный_градиент_19-7);
      }

      .cls-13 {
        fill: url(#_Безымянный_градиент_20-2);
      }

      .cls-14 {
        fill: url(#_Безымянный_градиент_19-4);
      }

      .cls-15 {
        fill: url(#_Безымянный_градиент_19-20);
      }

      .cls-16 {
        fill: url(#_Безымянный_градиент_3-3);
      }

      .cls-17 {
        clip-path: url(#clippath-2);
      }

      .cls-18 {
        fill: url(#_Безымянный_градиент_19);
      }

      .cls-19 {
        fill: url(#_Безымянный_градиент_13-6);
      }

      .cls-20 {
        fill: url(#_Безымянный_градиент_13-3);
      }

      .cls-21 {
        fill: #72b39d;
      }

      .cls-22 {
        fill: url(#_Безымянный_градиент_13);
      }

      .cls-23 {
        fill: url(#_Безымянный_градиент_12-9);
      }

      .cls-24 {
        fill: url(#_Безымянный_градиент_12-8);
      }

      .cls-25 {
        fill: url(#_Безымянный_градиент_12-7);
      }

      .cls-26 {
        fill: url(#_Безымянный_градиент_19-2);
      }

      .cls-27 {
        clip-path: url(#clippath-6);
      }

      .cls-28 {
        fill: url(#_Безымянный_градиент_12-2);
      }

      .cls-29 {
        fill: url(#_Безымянный_градиент_12-6);
      }

      .cls-30 {
        fill: url(#_Безымянный_градиент_8);
      }

      .cls-31 {
        fill: #cfcc63;
      }

      .cls-32 {
        opacity: .07;
      }

      .cls-33 {
        fill: url(#_Безымянный_градиент_20);
      }

      .cls-34 {
        fill: url(#_Безымянный_градиент_3-2);
      }

      .cls-35 {
        fill: #5f9984;
      }

      .cls-36 {
        fill: url(#_Безымянный_градиент_12-4);
      }

      .cls-37 {
        fill: url(#_Безымянный_градиент_12-3);
      }

      .cls-38 {
        fill: #bf8f30;
      }

      .cls-39 {
        fill: url(#_Безымянный_градиент_10-9);
      }

      .cls-40 {
        clip-path: url(#clippath-7);
      }

      .cls-41 {
        clip-path: url(#clippath-1);
      }

      .cls-42 {
        clip-path: url(#clippath-4);
      }

      .cls-43 {
        fill: url(#_Безымянный_градиент_20-4);
      }

      .cls-44 {
        opacity: .11;
      }

      .cls-45 {
        opacity: .15;
      }

      .cls-46 {
        fill: url(#_Безымянный_градиент_2);
      }

      .cls-47 {
        fill: url(#_Безымянный_градиент_10);
      }

      .cls-48 {
        fill: url(#_Безымянный_градиент_23);
      }

      .cls-49 {
        fill: url(#_Безымянный_градиент_25);
      }

      .cls-50 {
        fill: url(#_Безымянный_градиент_19-14);
      }

      .cls-51 {
        fill: #33431c;
      }

      .cls-52 {
        fill: url(#_Безымянный_градиент_13-2);
      }

      .cls-53 {
        fill: url(#_Безымянный_градиент_19-17);
      }

      .cls-54 {
        fill: url(#_Безымянный_градиент_10-3);
      }

      .cls-55 {
        fill: url(#_Безымянный_градиент_19-18);
      }

      .cls-56 {
        opacity: .26;
      }

      .cls-57 {
        fill: url(#_Безымянный_градиент_13-5);
      }

      .cls-58 {
        fill: url(#_Безымянный_градиент_19-9);
      }

      .cls-59 {
        clip-path: url(#clippath-9);
      }

      .cls-60 {
        clip-path: url(#clippath);
      }

      .cls-61 {
        fill: url(#_Безымянный_градиент_10-6);
      }

      .cls-62 {
        fill: url(#_Безымянный_градиент_19-21);
      }

      .cls-63 {
        fill: url(#_Безымянный_градиент_4);
      }

      .cls-64 {
        fill: none;
      }

      .cls-65 {
        clip-path: url(#clippath-3);
      }

      .cls-66 {
        fill: url(#_Безымянный_градиент_10-8);
      }

      .cls-67 {
        fill: url(#_Безымянный_градиент_10-7);
      }

      .cls-68 {
        fill: url(#_Безымянный_градиент_13-7);
      }

      .cls-69 {
        fill: #8fa723;
      }

      .cls-70 {
        clip-path: url(#clippath-8);
      }

      .cls-71 {
        fill: url(#_Безымянный_градиент_12);
      }

      .cls-72 {
        fill: url(#_Безымянный_градиент_12-5);
      }

      .cls-73 {
        fill: url(#_Безымянный_градиент_19-11);
      }

      .cls-74 {
        fill: url(#_Безымянный_градиент_19-19);
      }

      .cls-75 {
        fill: url(#_Безымянный_градиент_3);
      }

      .cls-76 {
        clip-path: url(#clippath-5);
      }

      .cls-77 {
        fill: #7d8e1b;
      }

      .cls-78 {
        fill: url(#_Безымянный_градиент_19-15);
      }

      .cls-79 {
        fill: url(#_Безымянный_градиент_10-5);
      }

      .cls-80 {
        fill: url(#_Безымянный_градиент_19-16);
      }

      .cls-81 {
        fill: url(#_Безымянный_градиент_19-12);
      }

      .cls-82 {
        fill: url(#_Безымянный_градиент_19-22);
      }

      .cls-83 {
        fill: url(#_Безымянный_градиент_19-8);
      }

      .cls-84 {
        fill: #f4bf4b;
      }

      .cls-85 {
        fill: url(#_Безымянный_градиент_20-3);
      }

      .cls-86 {
        fill: url(#_Безымянный_градиент_10-4);
      }

      .cls-87 {
        fill: url(#_Безымянный_градиент_19-10);
      }

      .cls-88 {
        fill: url(#_Безымянный_градиент_19-5);
      }
    </style>
    <clipPath id="clippath">
      <rect class="cls-64" width="2704" height="1520"/>
    </clipPath>
    <linearGradient id="_Безымянный_градиент_4" data-name="Безымянный градиент 4" x1="2056.48" y1="1355.07" x2="2107.39" y2="73.94" gradientUnits="userSpaceOnUse">
      <stop offset="0" stop-color="#fbf69b"/>
      <stop offset="1" stop-color="#93d3c3"/>
    </linearGradient>
    <clipPath id="clippath-1">
      <rect class="cls-63" width="4160.26" height="1520"/>
    </clipPath>
    <linearGradient id="_Безымянный_градиент_23" data-name="Безымянный градиент 23" x1="0" y1="1240.31" x2="2735" y2="1240.31" gradientUnits="userSpaceOnUse">
      <stop offset="0" stop-color="#fcee5a"/>
      <stop offset="1" stop-color="#33431c"/>
    </linearGradient>
    <clipPath id="clippath-2">
      <rect class="cls-48" y="960.63" width="2735" height="559.37"/>
    </clipPath>
    <linearGradient id="_Безымянный_градиент_25" data-name="Безымянный градиент 25" x1="1125.08" y1="981.7" x2="1116.91" y2="1075.65" gradientUnits="userSpaceOnUse">
      <stop offset="0" stop-color="#fcee5a"/>
      <stop offset=".34" stop-color="#33431c"/>
    </linearGradient>
    <linearGradient id="_Безымянный_градиент_8" data-name="Безымянный градиент 8" x1="1093.41" y1="986.43" x2="1085.24" y2="1080.39" gradientUnits="userSpaceOnUse">
      <stop offset="0" stop-color="#93d3c3"/>
      <stop offset="1" stop-color="#f7efc8"/>
    </linearGradient>
    <clipPath id="clippath-3">
      <path class="cls-31" d="M0,161.1c104.92,57.27,209.84,114.54,314.76,171.81,75.65,83.43,151.3,166.86,226.95,250.29,83.43,31.82,166.86,63.63,250.29,95.45,61.23,108.88,122.46,217.76,183.69,326.64-325.23,8.48-650.46,16.97-975.69,25.45V161.1Z"/>
    </clipPath>
    <linearGradient id="_Безымянный_градиент_12" data-name="Безымянный градиент 12" x1="392.65" y1="639.11" x2="406.97" y2="1705.49" gradientUnits="userSpaceOnUse">
      <stop offset=".15" stop-color="#bcb755"/>
      <stop offset="1" stop-color="#33431c"/>
    </linearGradient>
    <linearGradient id="_Безымянный_градиент_12-2" data-name="Безымянный градиент 12" x1="733.17" y1="289.43" x2="772.76" y2="1278.32" xlink:href="#_Безымянный_градиент_12"/>
    <linearGradient id="_Безымянный_градиент_12-3" data-name="Безымянный градиент 12" x1="410.72" y1="302.34" x2="450.32" y2="1291.23" xlink:href="#_Безымянный_градиент_12"/>
    <linearGradient id="_Безымянный_градиент_12-4" data-name="Безымянный градиент 12" x1="391.34" y1="303.12" x2="430.94" y2="1292.01" xlink:href="#_Безымянный_градиент_12"/>
    <linearGradient id="_Безымянный_градиент_12-5" data-name="Безымянный градиент 12" x1="705.56" y1="290.54" x2="745.15" y2="1279.43" xlink:href="#_Безымянный_градиент_12"/>
    <linearGradient id="_Безымянный_градиент_12-6" data-name="Безымянный градиент 12" x1="532.02" y1="297.49" x2="571.62" y2="1286.37" xlink:href="#_Безымянный_градиент_12"/>
    <linearGradient id="_Безымянный_градиент_12-7" data-name="Безымянный градиент 12" x1="561.4" y1="296.31" x2="600.99" y2="1285.2" xlink:href="#_Безымянный_градиент_12"/>
    <linearGradient id="_Безымянный_градиент_12-8" data-name="Безымянный градиент 12" x1="513.75" y1="298.22" x2="553.35" y2="1287.11" xlink:href="#_Безымянный_градиент_12"/>
    <linearGradient id="_Безымянный_градиент_12-9" data-name="Безымянный градиент 12" x1="503.91" y1="298.61" x2="543.5" y2="1287.5" xlink:href="#_Безымянный_градиент_12"/>
    <clipPath id="clippath-4">
      <path class="cls-21" d="M-45.25,426.94c81.12,99.45,162.24,198.91,243.35,298.36,94.03,41.71,188.07,83.43,282.1,125.14,84.14,67.17,168.27,134.33,252.41,201.5,65.94,73.06,131.89,146.12,197.83,219.18-325.23,8.48-650.46,16.97-975.69,25.45V426.94Z"/>
    </clipPath>
    <linearGradient id="_Безымянный_градиент_13" data-name="Безымянный градиент 13" x1="325.06" y1="535.26" x2="349.53" y2="2357.98" gradientUnits="userSpaceOnUse">
      <stop offset=".15" stop-color="#5f9984"/>
      <stop offset="1" stop-color="#33431c"/>
    </linearGradient>
    <linearGradient id="_Безымянный_градиент_13-2" data-name="Безымянный градиент 13" x1="406.03" y1="622.24" x2="377.75" y2="1448.04" xlink:href="#_Безымянный_градиент_13"/>
    <linearGradient id="_Безымянный_градиент_13-3" data-name="Безымянный градиент 13" x1="483.64" y1="624.9" x2="455.36" y2="1450.7" xlink:href="#_Безымянный_градиент_13"/>
    <linearGradient id="_Безымянный_градиент_13-4" data-name="Безымянный градиент 13" x1="378.34" y1="621.29" x2="350.06" y2="1447.09" xlink:href="#_Безымянный_градиент_13"/>
    <linearGradient id="_Безымянный_градиент_13-5" data-name="Безымянный градиент 13" x1="810.08" y1="636.08" x2="781.8" y2="1461.88" xlink:href="#_Безымянный_градиент_13"/>
    <linearGradient id="_Безымянный_градиент_13-6" data-name="Безымянный градиент 13" x1="567.49" y1="627.77" x2="539.21" y2="1453.57" xlink:href="#_Безымянный_градиент_13"/>
    <linearGradient id="_Безымянный_градиент_13-7" data-name="Безымянный градиент 13" x1="534.38" y1="626.63" x2="506.1" y2="1452.44" xlink:href="#_Безымянный_градиент_13"/>
    <clipPath id="clippath-5">
      <path class="cls-31" d="M2750.6,169.5c-114.74,40.5-229.47,81-344.21,121.51-82.96,113.12-165.91,226.25-248.87,339.37-127.54,127.77-255.07,255.54-382.61,383.31,325.23,8.48,650.46,16.97,975.69,25.45V169.5Z"/>
    </clipPath>
    <linearGradient id="_Безымянный_градиент_24" data-name="Безымянный градиент 24" x1="128.61" y1="1736.08" x2="806.27" y2="953.65" gradientUnits="userSpaceOnUse">
      <stop offset=".48" stop-color="#33431c"/>
      <stop offset="1" stop-color="#fcee5a"/>
    </linearGradient>
    <linearGradient id="_Безымянный_градиент_20" data-name="Безымянный градиент 20" x1="-66.15" y1="1979.4" x2="861.46" y2="500.31" gradientUnits="userSpaceOnUse">
      <stop offset=".66" stop-color="#33431c"/>
      <stop offset="1" stop-color="#fcee5a"/>
    </linearGradient>
    <linearGradient id="_Безымянный_градиент_20-2" data-name="Безымянный градиент 20" x1="-243.94" y1="1867.9" x2="683.68" y2="388.81" xlink:href="#_Безымянный_градиент_20"/>
    <radialGradient id="_Безымянный_градиент_10" data-name="Безымянный градиент 10" cx="2510.65" cy="1284.35" fx="2510.65" fy="1284.35" r="589.15" gradientUnits="userSpaceOnUse">
      <stop offset=".66" stop-color="#33431c"/>
      <stop offset="1" stop-color="#fcee5a"/>
    </radialGradient>
    <radialGradient id="_Безымянный_градиент_10-2" data-name="Безымянный градиент 10" cx="2510.65" cy="1284.35" fx="2510.65" fy="1284.35" r="589.15" xlink:href="#_Безымянный_градиент_10"/>
    <radialGradient id="_Безымянный_градиент_10-3" data-name="Безымянный градиент 10" cx="2510.65" cy="1284.35" fx="2510.65" fy="1284.35" r="589.15" xlink:href="#_Безымянный_градиент_10"/>
    <radialGradient id="_Безымянный_градиент_3" data-name="Безымянный градиент 3" cx="2510.65" cy="1284.35" fx="2510.65" fy="1284.35" r="589.15" gradientUnits="userSpaceOnUse">
      <stop offset=".52" stop-color="#33431c"/>
      <stop offset="1" stop-color="#fcee5a"/>
    </radialGradient>
    <radialGradient id="_Безымянный_градиент_3-2" data-name="Безымянный градиент 3" cx="2464.67" cy="1196.56" fx="2464.67" fy="1196.56" xlink:href="#_Безымянный_градиент_3"/>
    <radialGradient id="_Безымянный_градиент_3-3" data-name="Безымянный градиент 3" cx="2311.04" cy="1243.77" fx="2311.04" fy="1243.77" gradientTransform="translate(4615.71) rotate(-180) scale(1 -1)" xlink:href="#_Безымянный_градиент_3"/>
    <linearGradient id="_Безымянный_градиент_19" data-name="Безымянный градиент 19" x1="2085.18" y1="865.2" x2="3206.5" y2="1991.23" gradientUnits="userSpaceOnUse">
      <stop offset="0" stop-color="#472816"/>
      <stop offset="1" stop-color="#f8b958"/>
    </linearGradient>
    <clipPath id="clippath-6">
      <path class="cls-18" d="M2438.18,1390.69c2.23-63.03,4.45-126.05,6.68-189.08-14.31-12.43-28.63-24.86-42.94-37.29,14.5,8.81,28.99,17.62,43.49,26.43,1.81-43.13,3.62-86.25,5.43-129.38,2.32,25.1,4.64,50.19,6.96,75.29,13.7-8.97,27.4-17.94,41.1-26.91-14.1,12.73-28.21,25.46-42.31,38.19,2.47,35.43,4.94,70.86,7.41,106.29,13.06-8.17,26.12-16.35,39.18-24.52-13.1,12.11-26.19,24.23-39.29,36.34,2.55,42.72,5.1,85.45,7.66,128.18-11.12-1.18-22.25-2.36-33.37-3.55Z"/>
    </clipPath>
    <linearGradient id="_Безымянный_градиент_19-2" data-name="Безымянный градиент 19" x1="2427.79" y1="1264.56" x2="2448.59" y2="1285.45" xlink:href="#_Безымянный_градиент_19"/>
    <linearGradient id="_Безымянный_градиент_19-3" data-name="Безымянный градиент 19" x1="2400.92" y1="1264.89" x2="2457.98" y2="1322.19" xlink:href="#_Безымянный_градиент_19"/>
    <linearGradient id="_Безымянный_градиент_19-4" data-name="Безымянный градиент 19" x1="2411.02" y1="1179.04" x2="2505.53" y2="1273.95" xlink:href="#_Безымянный_градиент_19"/>
    <linearGradient id="_Безымянный_градиент_19-5" data-name="Безымянный градиент 19" x1="2063.09" y1="887.2" x2="3184.41" y2="2013.24" xlink:href="#_Безымянный_градиент_19"/>
    <linearGradient id="_Безымянный_градиент_19-6" data-name="Безымянный градиент 19" x1="2063.09" y1="887.2" x2="3184.41" y2="2013.24" xlink:href="#_Безымянный_градиент_19"/>
    <clipPath id="clippath-7">
      <path class="cls-6" d="M2336.29,1413.31c6.53-92.09,13.05-184.18,19.58-276.27-31.32-47.47-45.83-72.04-43.53-73.72,2.04-1.5,17.4,15.13,46.06,49.88,3.74-56.66,7.48-113.31,11.21-169.97,3.74,37.9,7.48,75.8,11.21,113.71,25.25-33.56,38.63-49.82,40.13-48.79,1.67,1.14-11.19,23.44-38.56,66.89,4.57,47.65,9.14,95.29,13.7,142.94,8.7-7.16,17.4-14.31,26.11-21.47,1.38,1.97,2.76,3.94,4.15,5.92-9.15,10.39-18.3,20.79-27.45,31.18,3.63,63.74,7.26,127.47,10.88,191.21-24.5-3.83-49-7.66-73.5-11.5Z"/>
    </clipPath>
    <linearGradient id="_Безымянный_градиент_19-7" data-name="Безымянный градиент 19" x1="2309.59" y1="1212" x2="2375.76" y2="1278.45" xlink:href="#_Безымянный_градиент_19"/>
    <linearGradient id="_Безымянный_градиент_19-8" data-name="Безымянный градиент 19" x1="2281.77" y1="1208.09" x2="2398.09" y2="1324.9" xlink:href="#_Безымянный_градиент_19"/>
    <linearGradient id="_Безымянный_градиент_19-9" data-name="Безымянный градиент 19" x1="2357.94" y1="1304.62" x2="2389.98" y2="1336.79" xlink:href="#_Безымянный_градиент_19"/>
    <linearGradient id="_Безымянный_градиент_19-10" data-name="Безымянный градиент 19" x1="2338.75" y1="1097.37" x2="2408.1" y2="1167.01" xlink:href="#_Безымянный_градиент_19"/>
    <linearGradient id="_Безымянный_градиент_19-11" data-name="Безымянный градиент 19" x1="2342.89" y1="1047.47" x2="2410.47" y2="1115.34" xlink:href="#_Безымянный_градиент_19"/>
    <radialGradient id="_Безымянный_градиент_10-4" data-name="Безымянный градиент 10" cx="2012.55" cy="1336.29" fx="2012.55" fy="1336.29" r="880.12" xlink:href="#_Безымянный_градиент_10"/>
    <radialGradient id="_Безымянный_градиент_10-5" data-name="Безымянный градиент 10" cx="2012.55" cy="1336.29" fx="2012.55" fy="1336.29" r="880.12" xlink:href="#_Безымянный_градиент_10"/>
    <radialGradient id="_Безымянный_градиент_10-6" data-name="Безымянный градиент 10" cx="2012.55" cy="1336.29" fx="2012.55" fy="1336.29" r="880.12" xlink:href="#_Безымянный_градиент_10"/>
    <radialGradient id="_Безымянный_градиент_10-7" data-name="Безымянный градиент 10" cx="2012.55" cy="1336.29" fx="2012.55" fy="1336.29" r="880.12" xlink:href="#_Безымянный_градиент_10"/>
    <radialGradient id="_Безымянный_градиент_2" data-name="Безымянный градиент 2" cx="2012.8" cy="1336.29" fx="2012.8" fy="1336.29" r="879.56" gradientUnits="userSpaceOnUse">
      <stop offset=".59" stop-color="#33431c"/>
      <stop offset="1" stop-color="#fcee5a"/>
    </radialGradient>
    <linearGradient id="_Безымянный_градиент_19-12" data-name="Безымянный градиент 19" x1="1928.91" y1="1020.82" x2="3050.23" y2="2146.86" xlink:href="#_Безымянный_градиент_19"/>
    <linearGradient id="_Безымянный_градиент_19-13" data-name="Безымянный градиент 19" x1="1928.91" y1="1020.82" x2="3050.23" y2="2146.86" xlink:href="#_Безымянный_градиент_19"/>
    <clipPath id="clippath-8">
      <path class="cls-1" d="M2052.61,1452.35c3.96-110.69,7.92-221.38,11.88-332.07-45.69-41.14-67.46-63.04-65.31-65.71,1.97-2.45,24.11,11.32,66.42,41.31,4.93-55.67,9.87-111.34,14.8-167.02,3.1,24.56,6.19,49.12,9.28,73.68,33.01-51.27,50.32-76.41,51.92-75.45,1.73,1.04-14.85,32.53-49.72,94.44,1.31,11.55,2.58,23.15,3.82,34.8,6.34,59.94,11.38,118.89,15.24,176.81,33.06-38.08,50.29-56.56,51.69-55.43,1.5,1.21-15.26,25.06-50.3,71.55,5.87,68.09,11.74,136.17,17.6,204.26-25.77-.39-51.54-.79-77.31-1.18Z"/>
    </clipPath>
    <linearGradient id="_Безымянный_градиент_19-14" data-name="Безымянный градиент 19" x1="2033.64" y1="1206.65" x2="2072.14" y2="1245.31" xlink:href="#_Безымянный_градиент_19"/>
    <linearGradient id="_Безымянный_градиент_19-15" data-name="Безымянный градиент 19" x1="1997.28" y1="1198.22" x2="2086.26" y2="1287.57" xlink:href="#_Безымянный_градиент_19"/>
    <linearGradient id="_Безымянный_градиент_19-16" data-name="Безымянный градиент 19" x1="1966.96" y1="1138.75" x2="2141.95" y2="1314.48" xlink:href="#_Безымянный_градиент_19"/>
    <linearGradient id="_Безымянный_градиент_19-17" data-name="Безымянный градиент 19" x1="1944.6" y1="1108.58" x2="2185.84" y2="1350.83" xlink:href="#_Безымянный_градиент_19"/>
    <linearGradient id="_Безымянный_градиент_20-3" data-name="Безымянный градиент 20" x1="2114.38" y1="2020.45" x2="2119.1" y2="1156.45" xlink:href="#_Безымянный_градиент_20"/>
    <linearGradient id="_Безымянный_градиент_20-4" data-name="Безымянный градиент 20" x1="2194.17" y1="2133.65" x2="2199.58" y2="1142.33" xlink:href="#_Безымянный_градиент_20"/>
    <radialGradient id="_Безымянный_градиент_10-8" data-name="Безымянный градиент 10" cx="2398.34" cy="74.57" fx="2398.34" fy="74.57" r="600.68" gradientTransform="translate(0 27.06) scale(1 .64)" xlink:href="#_Безымянный_градиент_10"/>
    <radialGradient id="_Безымянный_градиент_10-9" data-name="Безымянный градиент 10" cx="2474.65" cy="-67.81" fx="2474.65" fy="-67.81" r="583.65" gradientTransform="translate(0 -24.61) scale(1 .64)" xlink:href="#_Безымянный_градиент_10"/>
    <linearGradient id="_Безымянный_градиент_19-18" data-name="Безымянный градиент 19" x1="2225.52" y1="467.2" x2="3825.46" y2="2073.88" xlink:href="#_Безымянный_градиент_19"/>
    <linearGradient id="_Безымянный_градиент_19-19" data-name="Безымянный градиент 19" x1="2225.52" y1="467.2" x2="3825.46" y2="2073.88" xlink:href="#_Безымянный_градиент_19"/>
    <clipPath id="clippath-9">
      <path class="cls-74" d="M2561.28,1817c-13.85-278.82-27.56-904.24-41.42-1183.07-40.13-31.11-80.27-62.23-120.4-93.34,.27-1.33,1.22-5.22,4.29-7.94,5.34-4.74,11.92-1.34,12.2-1.19,32,21.45,63.99,42.9,95.99,64.34-13.19-143.38-35.84-626.51-49.04-769.89,44.53,.4,89.06,.79,133.59,1.19,8.91,69.51,27.27,478.76,36.17,548.27,30.4-26.61,60.8-53.22,91.21-79.83,1.59,8.34,3.19,16.68,4.78,25.02-27.71,34.56-55.42,69.11-83.12,103.67,17.48,146.56,34.97,293.12,52.45,439.68,20.12-24.23,40.24-48.46,60.36-72.68,3.96,5.56,7.92,11.12,11.87,16.68-20.45,34.16-40.9,68.32-61.35,102.47,24.74,191.84,49.33,730.27,74.07,922.12-73.89-5.16-147.78-10.33-221.67-15.49Z"/>
    </clipPath>
    <linearGradient id="_Безымянный_градиент_19-20" data-name="Безымянный градиент 19" x1="2429.34" y1="729.82" x2="2560.61" y2="861.64" xlink:href="#_Безымянный_градиент_19"/>
    <linearGradient id="_Безымянный_градиент_19-21" data-name="Безымянный градиент 19" x1="2242.77" y1="422.87" x2="2760.61" y2="942.9" xlink:href="#_Безымянный_градиент_19"/>
    <linearGradient id="_Безымянный_градиент_19-22" data-name="Безымянный градиент 19" x1="2176.26" y1="489.27" x2="3007.7" y2="1324.21" xlink:href="#_Безымянный_градиент_19"/>
    <radialGradient id="_Безымянный_градиент_9" data-name="Безымянный градиент 9" cx="2538.31" cy="-240.61" fx="2538.31" fy="-240.61" r="691.9" gradientTransform="translate(0 -87.33) scale(1 .64)" gradientUnits="userSpaceOnUse">
      <stop offset=".67" stop-color="#33431c"/>
      <stop offset="1" stop-color="#fcee5a"/>
    </radialGradient>
  </defs>
  <g class="cls-60">
    <g>
      <rect class="cls-63" width="4160.26" height="1520"/>
      <g class="cls-41">
        <path class="cls-4" d="M252.33,443.8s120.03-110.5,167.39-126.29c47.36-15.79,47.36,63.14,126.29,63.14s94.71-78.93,189.43-63.14c27.87,4.64,93.54,46.28,141.06,62.1,26.91,8.95,95.41-17.75,116.72,0,77.05,64.19,112.32,64.19,112.32,64.19H252.33Z"/>
        <path class="cls-4" d="M252.33,445.84s120.03-90.14,167.39-103.02c47.36-12.88,47.36,51.51,126.29,51.51s94.71-64.39,189.43-51.51c27.87,3.79,93.54,37.76,141.06,50.66,26.91,7.3,95.41-14.48,116.72,0,77.05,52.36,112.32,52.36,112.32,52.36H252.33Z"/>
        <path class="cls-4" d="M1409.65,336.76s120.03-90.14,167.39-103.02c47.36-12.88,47.36,51.51,126.29,51.51s94.71-64.39,189.43-51.51c27.87,3.79,93.54,37.76,141.06,50.66,26.91,7.3,95.41-14.48,116.72,0,77.05,52.36,112.32,52.36,112.32,52.36h-853.2Z"/>
        <path class="cls-4" d="M885.28,122.3s67.39-58.11,93.26-66.73c25.88-8.63,25.88,34.5,69,34.5s51.75-43.13,103.5-34.5c15.23,2.54,84.3,65.59,84.3,65.59l-350.07,1.14Z"/>
      </g>
    </g>
    <g>
      <rect class="cls-48" y="960.63" width="2735" height="559.37"/>
      <g class="cls-17">
        <path class="cls-49" d="M2112.15,955.89c6.96,60.75-680.31,179.03-673.13,286.46,4.88,73.05,373.39,75.13,373.15,114.54-.27,43.68-452.09,72.03-611.22,82.01-354.86,22.27-180.23-7.4-712.15,2.83-183.38,3.53-361.14,10.07-380.46-62.22-18.11-67.76,125.58-148.86,107.31-265.84-11.53-73.79-75.97-89.5-71.7-120.37,12.3-88.71,555.72-38.81,1092.64-37.41,523.74,1.36,870.53-43.87,875.56,0Z"/>
        <path class="cls-30" d="M2080.48,960.63c6.96,60.75-680.31,179.03-673.13,286.46,4.88,73.05,373.39,75.13,373.15,114.54-.27,43.68-452.09,72.03-611.22,82.01-354.86,22.27-180.23-7.4-712.15,2.83-183.38,3.53-361.14,10.07-380.46-62.22-18.11-67.76,125.58-148.86,107.31-265.84-11.53-73.79-75.97-89.5-71.7-120.37,12.3-88.71,555.72-38.81,1092.64-37.41,523.74,1.36,870.53-43.87,875.56,0Z"/>
      </g>
    </g>
    <g>
      <path class="cls-31" d="M0,161.1c104.92,57.27,209.84,114.54,314.76,171.81,75.65,83.43,151.3,166.86,226.95,250.29,83.43,31.82,166.86,63.63,250.29,95.45,61.23,108.88,122.46,217.76,183.69,326.64-325.23,8.48-650.46,16.97-975.69,25.45V161.1Z"/>
      <g class="cls-65">
        <path class="cls-71" d="M-21.07,156.86c111.95,58.68,223.89,117.37,335.84,176.05,23.8,94.98,47.61,189.95,71.41,284.93,120.67,52.79,241.33,105.58,362,158.37,66.93,124.44,133.86,248.87,200.79,373.31-109.47-9-218.93-18.01-328.4-27.01C446.75,892.07,272.94,661.63,99.12,431.19c103.13,224.63,206.25,449.25,309.38,673.88-186.55-15.35-373.11-30.69-559.66-46.04C-107.8,758.3-64.44,457.58-21.07,156.86Z"/>
      </g>
    </g>
    <g>
      <path class="cls-28" d="M748.78,606.06c-4.81,18.58-9.61,37.17-14.42,55.75,2.81,1.93,5.62,3.87,8.42,5.8-3.68,1.43-7.36,2.86-11.03,4.29-2.32,8.96-4.64,17.93-6.95,26.89,16.52,.36,33.04,.71,49.56,1.07-4.71-17.25-9.41-34.51-14.12-51.76-3.09-.42-6.18-.85-9.27-1.27,2.59-1.4,5.18-2.79,7.78-4.19-3.33-12.19-6.65-24.39-9.98-36.58Z"/>
      <path class="cls-2" d="M936.38,891.13c-4.81,18.58-9.61,37.17-14.42,55.75,2.81,1.93,5.62,3.87,8.42,5.8-3.68,1.43-7.36,2.86-11.03,4.29-2.32,8.96-4.64,17.93-6.95,26.89,16.52,.36,33.04,.71,49.56,1.07-4.71-17.25-9.41-34.51-14.12-51.76-3.09-.42-6.18-.85-9.27-1.27,2.59-1.4,5.18-2.79,7.78-4.19-3.33-12.19-6.65-24.39-9.98-36.58Z"/>
      <path class="cls-2" d="M894.9,870.39c-4.81,18.58-9.61,37.17-14.42,55.75,2.81,1.93,5.62,3.87,8.42,5.8-3.68,1.43-7.36,2.86-11.03,4.29-2.32,8.96-4.64,17.93-6.95,26.89,16.52,.36,33.04,.71,49.56,1.07-4.71-17.25-9.41-34.51-14.12-51.76-3.09-.42-6.18-.85-9.27-1.27,2.59-1.4,5.18-2.79,7.78-4.19-3.33-12.19-6.65-24.39-9.98-36.58Z"/>
      <path class="cls-37" d="M416.89,414.22c-2.76,10.67-5.52,21.34-8.28,32.01,1.61,1.11,3.22,2.22,4.84,3.33-2.11,.82-4.22,1.64-6.33,2.46-1.33,5.15-2.66,10.29-3.99,15.44,9.49,.2,18.97,.41,28.46,.61-2.7-9.91-5.4-19.81-8.1-29.72-1.77-.24-3.55-.49-5.32-.73,1.49-.8,2.98-1.6,4.47-2.41-1.91-7-3.82-14-5.73-21Z"/>
      <path class="cls-36" d="M396.86,406.09c-2.29,8.85-4.58,17.7-6.87,26.55,1.34,.92,2.67,1.84,4.01,2.76-1.75,.68-3.5,1.36-5.25,2.04-1.1,4.27-2.21,8.53-3.31,12.8,7.87,.17,15.73,.34,23.6,.51-2.24-8.21-4.48-16.43-6.72-24.64-1.47-.2-2.94-.4-4.41-.6,1.23-.67,2.47-1.33,3.7-2-1.58-5.81-3.17-11.61-4.75-17.42Z"/>
      <path class="cls-72" d="M719.8,590.22c-3.67,14.19-7.34,28.39-11.01,42.58,2.14,1.48,4.29,2.96,6.43,4.43-2.81,1.09-5.62,2.18-8.43,3.28-1.77,6.85-3.54,13.69-5.31,20.54,12.62,.27,25.24,.54,37.86,.81-3.59-13.18-7.19-26.36-10.78-39.53-2.36-.32-4.72-.65-7.08-.97,1.98-1.07,3.96-2.13,5.94-3.2-2.54-9.31-5.08-18.63-7.62-27.94Z"/>
      <path class="cls-29" d="M543.75,534.41c-3.67,14.19-7.34,28.39-11.01,42.58,2.14,1.48,4.29,2.96,6.43,4.43-2.81,1.09-5.62,2.18-8.43,3.28-1.77,6.85-3.54,13.69-5.31,20.54,12.62,.27,25.24,.54,37.86,.81-3.59-13.18-7.19-26.36-10.78-39.53-2.36-.32-4.72-.65-7.08-.97,1.98-1.07,3.96-2.13,5.94-3.2-2.54-9.31-5.08-18.63-7.62-27.94Z"/>
      <path class="cls-25" d="M573.98,554.4c-3.67,14.19-7.34,28.39-11.01,42.58,2.14,1.48,4.29,2.96,6.43,4.43-2.81,1.09-5.62,2.18-8.43,3.28-1.77,6.85-3.54,13.69-5.31,20.54,12.62,.27,25.24,.54,37.86,.81-3.59-13.18-7.19-26.36-10.78-39.53-2.36-.32-4.72-.65-7.08-.97,1.98-1.07,3.96-2.13,5.94-3.2-2.54-9.31-5.08-18.63-7.62-27.94Z"/>
      <path class="cls-24" d="M527.33,581.31c-3.67,14.19-7.34,28.39-11.01,42.58,2.14,1.48,4.29,2.96,6.43,4.43-2.81,1.09-5.62,2.18-8.43,3.28-1.77,6.85-3.54,13.69-5.31,20.54,12.62,.27,25.24,.54,37.86,.81-3.59-13.18-7.19-26.36-10.78-39.53-2.36-.32-4.72-.65-7.08-.97,1.98-1.07,3.96-2.13,5.94-3.2-2.54-9.31-5.08-18.63-7.62-27.94Z"/>
      <path class="cls-23" d="M514.81,534.41c-2.4,9.29-4.81,18.58-7.21,27.88,1.4,.97,2.81,1.93,4.21,2.9-1.84,.71-3.68,1.43-5.52,2.14-1.16,4.48-2.32,8.96-3.48,13.44,8.26,.18,16.52,.36,24.78,.53-2.35-8.63-4.71-17.25-7.06-25.88-1.54-.21-3.09-.42-4.63-.63,1.3-.7,2.59-1.4,3.89-2.1-1.66-6.1-3.33-12.19-4.99-18.29Z"/>
    </g>
    <g>
      <path class="cls-21" d="M-45.25,426.94c81.12,99.45,162.24,198.91,243.35,298.36,94.03,41.71,188.07,83.43,282.1,125.14,84.14,67.17,168.27,134.33,252.41,201.5,65.94,73.06,131.89,146.12,197.83,219.18-325.23,8.48-650.46,16.97-975.69,25.45V426.94Z"/>
      <g class="cls-42">
        <path class="cls-22" d="M193.86,988.32c111.71,144.94,223.42,289.88,335.13,434.82-213.8,6.36-427.59,12.73-641.39,19.09V808.62c11.99-89.32,23.99-178.65,35.98-267.97C1.66,633.31,79.73,725.97,157.8,818.63c64.81,14.61,129.62,29.22,194.43,43.84,111.95,80.13,223.89,160.26,335.84,240.39,32.52,82.72,65.05,165.44,97.57,248.16-37-13.43-74-26.87-111-40.3-46.19-62.22-92.38-124.44-138.58-186.65-114.07-45.25-228.13-90.5-342.2-135.75Z"/>
      </g>
    </g>
    <g>
      <path class="cls-52" d="M396.59,740.39c-2.48,12.16-4.96,24.32-7.43,36.48,2.4,.41,4.81,.83,7.21,1.24-2.35,1.28-4.71,2.57-7.06,3.85-4.49,19.81-8.98,39.62-13.47,59.43,15.1,.78,30.2,1.56,45.31,2.35-2.73-11.5-5.46-22.99-8.19-34.49-3.74-1.56-7.48-3.12-11.22-4.68,3.29-.05,6.59-.1,9.88-.15-5.01-21.34-10.01-42.68-15.02-64.02Z"/>
      <path class="cls-20" d="M471.7,734.08c-3.77,18.48-7.53,36.96-11.3,55.43,3.65,.63,7.3,1.26,10.95,1.88-3.58,1.95-7.15,3.9-10.73,5.85-6.82,30.11-13.65,60.21-20.47,90.32,22.95,1.19,45.9,2.38,68.85,3.57-4.15-17.47-8.3-34.95-12.45-52.42-5.68-2.37-11.36-4.74-17.04-7.11,5-.08,10.01-.15,15.01-.23-7.61-32.43-15.22-64.86-22.83-97.29Z"/>
      <path class="cls-35" d="M181.85,661.87c-1.88,9.24-3.77,18.48-5.65,27.72,1.83,.31,3.65,.63,5.48,.94-1.79,.98-3.58,1.95-5.36,2.93-3.41,15.05-6.82,30.11-10.24,45.16,11.48,.59,22.95,1.19,34.43,1.78-2.08-8.74-4.15-17.47-6.23-26.21-2.84-1.19-5.68-2.37-8.52-3.56,2.5-.04,5-.08,7.51-.11-3.8-16.22-7.61-32.43-11.41-48.65Z"/>
      <path class="cls-5" d="M368.7,745.37c-2.48,12.16-4.96,24.32-7.43,36.48,2.4,.41,4.81,.83,7.21,1.24-2.35,1.28-4.71,2.57-7.06,3.85-4.49,19.81-8.98,39.62-13.47,59.43,15.1,.78,30.2,1.56,45.31,2.35-2.73-11.5-5.46-22.99-8.19-34.49-3.74-1.56-7.48-3.12-11.22-4.68,3.29-.05,6.59-.1,9.88-.15-5.01-21.34-10.01-42.68-15.02-64.02Z"/>
      <path class="cls-57" d="M789.39,1000.86c-3.77,18.48-7.53,36.96-11.3,55.43,3.65,.63,7.3,1.26,10.95,1.88-3.58,1.95-7.15,3.9-10.73,5.85-6.82,30.11-13.65,60.21-20.47,90.32,22.95,1.19,45.9,2.38,68.85,3.57-4.15-17.47-8.3-34.95-12.45-52.42-5.68-2.37-11.36-4.74-17.04-7.11,5-.08,10.01-.15,15.01-.23-7.61-32.43-15.22-64.86-22.83-97.29Z"/>
      <path class="cls-19" d="M552.78,817.98c-3.77,18.48-7.53,36.96-11.3,55.43,3.65,.63,7.3,1.26,10.95,1.88-3.58,1.95-7.15,3.9-10.73,5.85-6.82,30.11-13.65,60.21-20.47,90.32,22.95,1.19,45.9,2.38,68.85,3.57-4.15-17.47-8.3-34.95-12.45-52.42-5.68-2.37-11.36-4.74-17.04-7.11,5-.08,10.01-.15,15.01-.23-7.61-32.43-15.22-64.86-22.83-97.29Z"/>
      <path class="cls-68" d="M518.35,855.45c-3.77,18.48-7.53,36.96-11.3,55.43,3.65,.63,7.3,1.26,10.95,1.88-3.58,1.95-7.15,3.9-10.73,5.85-6.82,30.11-13.65,60.21-20.47,90.32,22.95,1.19,45.9,2.38,68.85,3.57-4.15-17.47-8.3-34.95-12.45-52.42-5.68-2.37-11.36-4.74-17.04-7.11,5-.08,10.01-.15,15.01-.23-7.61-32.43-15.22-64.86-22.83-97.29Z"/>
    </g>
    <g>
      <path class="cls-31" d="M2750.6,169.5c-114.74,40.5-229.47,81-344.21,121.51-82.96,113.12-165.91,226.25-248.87,339.37-127.54,127.77-255.07,255.54-382.61,383.31,325.23,8.48,650.46,16.97,975.69,25.45V169.5Z"/>
      <g class="cls-76">
        <path class="cls-2" d="M1842.79,107.98c111.95,58.68,223.89,117.37,335.84,176.05,23.8,94.98,47.61,189.95,71.41,284.93,120.67,52.79,241.33,105.58,362,158.37,66.93,124.44,133.86,248.87,200.79,373.31-109.47-9-218.93-18.01-328.4-27.01-173.82-230.44-347.63-460.88-521.45-691.32,103.13,224.63,206.25,449.25,309.38,673.88-186.55-15.35-373.11-30.69-559.66-46.04,43.36-300.72,86.73-601.44,130.09-902.16Z"/>
      </g>
    </g>
    <g>
      <path class="cls-11" d="M1407.82,1620.99c-104.01-28.19-265.69-73.57-462.07-135.61-385.39-121.75-506.28-181.84-725.73-240.53-171.26-45.8-426.79-97.21-757.93-101.1,9.85,140.1,19.7,280.2,29.56,420.3,638.72,18.98,1277.45,37.96,1916.17,56.94Z"/>
      <g>
        <path class="cls-33" d="M393.35,1001.37c8.84,43.35,17.67,86.69,26.51,130.04-8.57,1.47-17.13,2.95-25.7,4.42,8.39,4.58,16.78,9.15,25.16,13.73,16.65,73.83,33.29,147.66,49.94,221.49-54.48-.42-108.95-.84-163.43-1.26,9.74-40.99,19.47-81.98,29.21-122.97,13.33-5.56,26.66-11.12,39.98-16.68-11.74-.18-23.48-.36-35.22-.53,10.95-46.68,21.9-93.36,32.85-140.04,6.4-3.03,12.8-6.07,19.2-9.1-4.87-1.29-9.75-2.57-14.62-3.86,5.37-25.08,10.74-50.16,16.11-75.23Z"/>
        <path class="cls-13" d="M135.18,558.07c-24.54,120.37-49.07,240.75-73.61,361.12,23.79,4.09,47.58,8.18,71.36,12.27-23.29,12.71-46.59,25.41-69.88,38.12-46.23,205.03-92.45,410.06-138.68,615.09,151.28-1.16,302.57-2.33,453.85-3.49-27.04-113.83-54.08-227.66-81.12-341.49-37.01-15.44-74.02-30.88-111.04-46.32,32.6-.49,65.21-.99,97.81-1.48-30.41-129.63-60.83-259.26-91.24-388.9-17.78-8.42-35.55-16.85-53.33-25.27,13.53-3.57,27.06-7.15,40.6-10.72-14.91-69.64-29.82-139.29-44.73-208.93Z"/>
      </g>
    </g>
    <g>
      <g>
        <g>
          <ellipse class="cls-47" cx="2446.29" cy="1144.08" rx="107.23" ry="140.16"/>
          <ellipse class="cls-10" cx="2379.6" cy="965.36" rx="107.23" ry="140.16"/>
          <ellipse class="cls-54" cx="2299.67" cy="1052.15" rx="107.23" ry="140.16"/>
          <ellipse class="cls-75" cx="2363.67" cy="1092.74" rx="107.23" ry="140.16"/>
          <ellipse class="cls-34" cx="2317.68" cy="1004.94" rx="107.23" ry="140.16"/>
          <ellipse class="cls-16" cx="2451.65" cy="1052.15" rx="107.23" ry="140.16"/>
          <g>
            <path class="cls-18" d="M2438.18,1390.69c2.23-63.03,4.45-126.05,6.68-189.08-14.31-12.43-28.63-24.86-42.94-37.29,14.5,8.81,28.99,17.62,43.49,26.43,1.81-43.13,3.62-86.25,5.43-129.38,2.32,25.1,4.64,50.19,6.96,75.29,13.7-8.97,27.4-17.94,41.1-26.91-14.1,12.73-28.21,25.46-42.31,38.19,2.47,35.43,4.94,70.86,7.41,106.29,13.06-8.17,26.12-16.35,39.18-24.52-13.1,12.11-26.19,24.23-39.29,36.34,2.55,42.72,5.1,85.45,7.66,128.18-11.12-1.18-22.25-2.36-33.37-3.55Z"/>
            <g class="cls-27">
              <g class="cls-44">
                <path class="cls-26" d="M2440.13,1253.28c1.38-.03,2.75-.06,4.13-.1l-.43-.25c1.86,2.89,.79,6.56,1.16,9.77,.41,3.51,2.75,6.23,3.8,9.51,2.17,6.76-1.74,13.67-6.59,18.16-2.96,2.74-6.37,4.92-9.75,7.09-.54,.35-.04,1.21,.5,.86,6.49-4.16,13.43-8.72,16.28-16.25,1.3-3.44,1.61-7.32,.28-10.8-.69-1.8-1.71-3.45-2.51-5.2s-1.13-3.67-1.12-5.67,.22-4.14-.35-6.12c-.14-.46-.32-.92-.55-1.35-.26-.49-.4-.75-.97-.74-1.3,0-2.59,.06-3.89,.09-.64,.02-.64,1.02,0,1h0Z"/>
              </g>
              <g class="cls-44">
                <path class="cls-9" d="M2437.49,1229.64c4.25-.46,7.26,3.58,7.95,7.37,.38,2.12-.46,4.47,1.11,6.23,1.35,1.52,3.52,2.03,5.19,3.12,3.64,2.38,5.84,6.46,6.79,10.61,1.16,5.07,.34,10.32-1,15.27-1.46,5.39-3.46,10.63-5.1,15.96s-3.06,10.76-3.9,16.28c-.41,2.7-.69,5.42-.79,8.15s-.05,5.6-.22,8.4-.56,5.38-1.47,7.93c-.78,2.2-1.9,4.27-3.24,6.18-5.89,8.44-15.35,13.13-24.09,18.04-1.14,.64-2.28,1.29-3.41,1.96-.55,.33-.05,1.19,.5,.86,8.97-5.3,18.91-9.64,25.82-17.73,3.15-3.69,5.5-8.03,6.37-12.84,1-5.56,.45-11.27,.99-16.88s1.88-11.49,3.48-17.07c1.58-5.49,3.54-10.86,5.22-16.32,1.59-5.18,2.87-10.69,2.18-16.13-.53-4.22-2.19-8.44-5.2-11.52-1.55-1.59-3.36-2.55-5.32-3.53-.93-.46-1.95-1.01-2.47-1.96-.63-1.15-.27-2.53-.33-3.78-.16-3.82-2.47-7.99-6.22-9.3-.92-.32-1.9-.42-2.86-.31-.63,.07-.64,1.07,0,1h0Z"/>
              </g>
              <g class="cls-44">
                <path class="cls-14" d="M2437.95,1152.17c5.36,7.57,7.1,16.81,9.11,25.67,1.01,4.45,2.09,8.9,3.74,13.16,1.89,4.89,4.47,9.45,6.1,14.45,3.23,9.88,4.2,20.35,7.65,30.18,1.76,5,4.02,9.81,5.96,14.74s3.42,9.95,4.5,15.1c2.17,10.35,2.74,20.98,2.57,31.53-.02,1.29-.05,2.58-.09,3.88-.02,.64,.98,.64,1,0,.33-10.51,.03-21.09-1.72-31.48-.88-5.21-2.13-10.36-3.84-15.36s-3.99-9.9-5.97-14.86-3.41-9.99-4.56-15.17c-1.13-5.06-2.07-10.17-3.44-15.18-.69-2.54-1.5-5.04-2.48-7.48s-2.13-4.75-3.22-7.12c-1.99-4.36-3.38-8.91-4.5-13.56-2.13-8.86-3.52-18.17-8.13-26.18-.56-.97-1.16-1.9-1.8-2.81-.37-.52-1.24-.02-.86,.5h0Z"/>
              </g>
            </g>
          </g>
          <g>
            <path class="cls-88" d="M2336.29,1413.31c6.53-92.09,13.05-184.18,19.58-276.27-31.32-47.47-45.83-72.04-43.53-73.72,2.04-1.5,17.4,15.13,46.06,49.88,3.74-56.66,7.48-113.31,11.21-169.97,3.74,37.9,7.48,75.8,11.21,113.71,25.25-33.56,38.63-49.82,40.13-48.79,1.67,1.14-11.19,23.44-38.56,66.89,4.57,47.65,9.14,95.29,13.7,142.94,8.7-7.16,17.4-14.31,26.11-21.47,1.38,1.97,2.76,3.94,4.15,5.92-9.15,10.39-18.3,20.79-27.45,31.18,3.63,63.74,7.26,127.47,10.88,191.21-24.5-3.83-49-7.66-73.5-11.5Z"/>
            <g class="cls-40">
              <g class="cls-56">
                <path class="cls-12" d="M2344.18,1178.26c8.23,2.11,15.24,8.14,18.71,15.88,4.15,9.24,2.32,19.73-1.36,28.8-3.85,9.47-9.88,17.8-14.77,26.72-2.38,4.33-4.5,8.83-5.95,13.57-1.55,5.06-2.21,10.34-2.42,15.62-.43,10.77,.94,21.58-.2,32.33-.14,1.36-.33,2.71-.56,4.06-.11,.63,.85,.9,.96,.27,1.87-10.86,.65-21.87,.72-32.81,.03-5.49,.4-11.01,1.69-16.36,1.21-5.03,3.26-9.8,5.66-14.37,4.78-9.11,10.93-17.48,15.07-26.94,3.97-9.09,6.33-19.58,2.9-29.22-2.83-7.96-9.25-14.5-17.13-17.53-1-.38-2.02-.71-3.06-.97-.62-.16-.89,.8-.27,.96h0Z"/>
              </g>
              <g class="cls-56">
                <path class="cls-83" d="M2348.85,1141.72c4.76,2.11,9.52,4.22,14.28,6.33,4.23,1.87,8.83,3.57,12.35,6.68,3.56,3.15,5.51,7.61,7.09,11.99,1.72,4.8,3.08,9.77,3.64,14.84,1.01,9.01-1.13,17.59-4.23,25.99-2.93,7.93-6.55,15.66-8.43,23.94-.88,3.86-1.35,7.84-1.11,11.8,.29,4.7,2.03,9.13,2.42,13.8,.78,9.31-3.67,18.12-9.02,25.44s-11.93,13.56-17.24,20.87c-2.63,3.62-4.87,7.48-6.55,11.65-1.79,4.46-2.99,9.14-4.03,13.82-4.57,20.49-8.75,41.08-13.12,61.61-.55,2.59-1.1,5.17-1.65,7.76-.13,.63,.83,.9,.96,.27,4.47-21.01,8.94-42.03,13.41-63.04,2.05-9.61,4.02-19.33,9.29-27.79,4.92-7.88,11.65-14.38,17.44-21.58,5.49-6.83,10.37-14.79,11.4-23.65,.57-4.87-.58-9.32-1.6-14.04-.92-4.28-.99-8.64-.35-12.97,2.54-17,13.91-31.74,13.68-49.31-.06-4.95-.96-9.86-2.33-14.61-1.27-4.42-2.79-8.99-5.22-12.92s-5.68-6.39-9.63-8.36c-4.51-2.26-9.22-4.16-13.83-6.2l-7.14-3.16c-.58-.26-1.09,.6-.5,.86h0Z"/>
              </g>
              <g class="cls-56">
                <path class="cls-58" d="M2328.81,1397.67c5.12-10.74,10.47-21.37,16.05-31.88,2.77-5.21,5.59-10.39,8.46-15.54,2.48-4.45,4.9-9,7.88-13.14s6.87-8.07,11.88-9.83l-.56-.23c3.24,4.24,6.47,8.48,9.71,12.73,.2,.26,.53,.35,.79,.1,4.87-4.67,6.62-11.42,7.74-17.85,1.18-6.77,2.15-13.57,3.47-20.32,2.61-13.36,6.14-26.74,12.44-38.88,3.51-6.75,7.88-13.03,13.22-18.47,.45-.46-.25-1.17-.71-.71-9.48,9.64-15.76,21.8-20,34.53s-6.71,26.62-8.84,40.15c-1.15,7.33-2.43,15.46-8.05,20.84l.79,.1c-3.24-4.24-6.47-8.48-9.71-12.73-.13-.17-.34-.31-.56-.23-9.2,3.23-14.17,12.46-18.68,20.45-5.94,10.54-11.65,21.21-17.12,31.99-3.1,6.1-6.11,12.24-9.06,18.42-.28,.58,.59,1.09,.86,.5h0Z"/>
              </g>
              <g class="cls-56">
                <path class="cls-87" d="M2348.5,1087.59c2.48,6.26,5.79,12.15,9.47,17.78s7.67,11.12,11.76,16.48c1.95,2.55,4.03,5.01,6.58,6.98s5.38,3.54,7.39,6.1,3.17,5.49,4.26,8.44c1.25,3.36,2.4,6.75,3.48,10.16,2.42,7.69,4.39,15.52,5.91,23.43,.12,.63,1.09,.36,.96-.27-1.36-7.05-3.07-14.04-5.14-20.92-1.03-3.44-2.15-6.85-3.36-10.23-1.07-3-2.13-6.06-3.73-8.83-.74-1.28-1.6-2.51-2.63-3.58-1.13-1.19-2.46-2.17-3.8-3.11s-2.7-1.86-3.93-2.95-2.29-2.22-3.32-3.44c-2.16-2.56-4.09-5.32-6.06-8.02s-3.98-5.5-5.89-8.31c-4.28-6.3-8.19-12.89-11-19.98-.23-.59-1.2-.33-.96,.27h0Z"/>
              </g>
              <g class="cls-32">
                <path class="cls-73" d="M2359.67,1030.75c3.83,13.83,7.67,27.68,12.49,41.2,2.37,6.65,5,13.19,7.88,19.63s5.66,12.32,8,18.69c2.58,7.02,4.47,14.34,4.58,21.86,0,.64,1.01,.64,1,0-.2-13.54-5.96-26.06-11.42-38.18-2.93-6.48-5.7-13.01-8.15-19.68-2.46-6.72-4.67-13.53-6.74-20.37-2.35-7.77-4.51-15.59-6.68-23.41-.17-.62-1.14-.36-.96,.27h0Z"/>
              </g>
            </g>
          </g>
          <g>
            <ellipse class="cls-86" cx="2075.36" cy="807.75" rx="150.16" ry="196.27"/>
            <ellipse class="cls-51" cx="2007.59" cy="985.02" rx="150.16" ry="196.27"/>
            <ellipse class="cls-79" cx="2129.19" cy="985.02" rx="150.16" ry="196.27"/>
            <ellipse class="cls-61" cx="2124.91" cy="1156" rx="102.16" ry="108.62"/>
            <ellipse class="cls-67" cx="2016.21" cy="1136.92" rx="108.7" ry="148.83"/>
            <ellipse class="cls-46" cx="2012.8" cy="950.79" rx="150.16" ry="196.27"/>
            <g>
              <path class="cls-81" d="M2052.61,1452.35c3.96-110.69,7.92-221.38,11.88-332.07-45.69-41.14-67.46-63.04-65.31-65.71,1.97-2.45,24.11,11.32,66.42,41.31,4.93-55.67,9.87-111.34,14.8-167.02,3.1,24.56,6.19,49.12,9.28,73.68,33.01-51.27,50.32-76.41,51.92-75.45,1.73,1.04-14.85,32.53-49.72,94.44,1.31,11.55,2.58,23.15,3.82,34.8,6.34,59.94,11.38,118.89,15.24,176.81,33.06-38.08,50.29-56.56,51.69-55.43,1.5,1.21-15.26,25.06-50.3,71.55,5.87,68.09,11.74,136.17,17.6,204.26-25.77-.39-51.54-.79-77.31-1.18Z"/>
              <g class="cls-70">
                <g class="cls-3">
                  <path class="cls-50" d="M2055.7,1186.12c3.01,.39,5.11,3.03,6.47,5.52,1.49,2.73,2.41,5.76,4.21,8.32s4.84,4.03,6.7,6.61c1.61,2.24,2.23,5.02,2.2,7.75-.05,6.35-3.39,11.77-6.71,16.95-1.72,2.68-3.46,5.37-4.83,8.25-1.48,3.14-2.43,6.47-3.59,9.73-2.46,6.9-6.63,13.01-12.16,17.82-.97,.85,.45,2.26,1.41,1.41,5.08-4.43,9.11-9.99,11.71-16.21,1.41-3.39,2.32-6.95,3.72-10.34s3.46-6.54,5.45-9.65c3.46-5.4,6.8-11,6.98-17.6,.08-2.84-.47-5.77-1.91-8.25-1.66-2.86-4.6-4.27-6.68-6.73-2.47-2.93-3.34-6.84-5.36-10.05-1.76-2.82-4.24-5.1-7.63-5.55-1.27-.17-1.26,1.84,0,2h0Z"/>
                </g>
                <g class="cls-3">
                  <path class="cls-78" d="M2049.26,1148.31c5.79-1.73,12.13,.75,15.91,5.32,1.99,2.41,3.09,5.32,3.19,8.44,.12,3.59-.49,7.44,1.42,10.69,1.63,2.77,4.58,4.3,7.17,6.02,2.84,1.88,4.93,4.34,6.11,7.56,2.48,6.75,1.61,14.4,1.34,21.42-.69,17.9-1.59,35.79-2.71,53.67-.27,4.39-.56,8.77-.86,13.16s-.59,8.68-2.37,12.7c-1.58,3.58-3.96,6.77-6.32,9.87s-4.85,6.15-7.42,9.11c-10.18,11.69-21.85,22.06-34.68,30.76-1.6,1.08-3.21,2.14-4.84,3.17-1.08,.69-.08,2.42,1.01,1.73,13.47-8.54,25.83-18.83,36.63-30.57,5.4-5.87,10.78-12.1,15.05-18.86,2.24-3.54,3.75-7.3,4.34-11.46,.63-4.43,.77-8.94,1.06-13.4,1.21-18.54,2.19-37.09,2.94-55.65,.17-4.32,.41-8.64,.46-12.96,.04-3.5-.11-7.04-.89-10.46-.73-3.16-2.08-6.21-4.29-8.61-2.33-2.52-5.55-3.8-8.11-6.02-1.42-1.23-2.4-2.71-2.79-4.57-.41-1.97-.25-4.02-.24-6.02,0-3.25-.59-6.31-2.31-9.1-3.12-5.05-8.95-8.49-14.92-8.52-1.49,0-2.98,.22-4.41,.65-1.23,.37-.71,2.3,.53,1.93h0Z"/>
                </g>
                <g class="cls-3">
                  <path class="cls-80" d="M2071.44,1034.03c-7.05,11.42,4.32,22.86,8.58,32.82,2.59,6.05,3.81,12.66,3.62,19.24-.2,6.95-2.55,13.48-3.6,20.3-2.02,13.09,4.13,24.59,8.05,36.67,4.34,13.37,4.9,27.56,5.86,41.48,1.02,14.69,2.04,29.37,3.06,44.06s2.36,28.91,2.77,43.38c.37,13.32-.57,26.91-5.67,39.37-2.33,5.7-5.53,11.1-9.67,15.68s-9.31,7.86-14.03,11.76c-9.42,7.8-13.41,18.94-16.83,30.3-4,13.28-8.46,26.39-13.68,39.25-1.35,3.32-2.74,6.62-4.18,9.9-.51,1.17,1.21,2.19,1.73,1.01,5.57-12.74,10.52-25.75,14.78-38.98,3.76-11.68,6.18-24.92,14.13-34.67,3.93-4.82,9.22-8.13,14-12,4.5-3.64,8.29-8.02,11.3-12.96,6.37-10.45,9.14-22.64,9.93-34.75,.94-14.48-.62-29.06-1.62-43.5s-2.02-29.12-3.03-43.68c-.97-13.97-1.37-28.14-3.58-41.98-1.08-6.76-2.88-13.27-5.27-19.68-2.25-6.04-4.75-12.07-5.92-18.44-1.28-6.99,.04-13.52,1.63-20.32,1.49-6.37,2.31-12.7,1.51-19.23-.75-6.09-2.63-11.96-5.59-17.34-3.16-5.75-7.57-11.25-8.31-17.98-.34-3.06,.13-6.06,1.76-8.7,.68-1.1-1.05-2.1-1.73-1.01h0Z"/>
                </g>
                <g class="cls-3">
                  <path class="cls-53" d="M2073.42,979.87c-2.08,15.96-.92,32.28,3.52,47.76,4.59,16.04,13.66,30.19,19.11,45.89s8.1,32.87,11.09,49.48c3.15,17.49,6.3,34.97,9.44,52.46s6.69,35.18,8.53,52.98,1.37,34.84-1.52,52.18c-2.84,17.03-7.36,33.74-11.7,50.44s-8.66,32.61-14.31,48.5c-10.81,30.42-28.64,57.77-39.12,88.29-1.3,3.78-2.46,7.6-3.48,11.46-.33,1.25,1.6,1.78,1.93,.53,8.28-31.22,26.27-58.51,38.25-88.27,6.36-15.79,11.21-32.13,15.63-48.55,4.47-16.6,8.97-33.25,12.49-50.08,3.51-16.78,5.58-33.77,4.84-50.93s-3.74-34.42-6.8-51.44c-3.14-17.47-6.29-34.94-9.44-52.42-3.06-16.99-5.6-34.18-9.75-50.94-1.95-7.91-4.43-15.66-7.65-23.14-3.39-7.87-7.42-15.44-10.78-23.33-6.53-15.35-9.73-32.01-9.28-48.69,.11-4.07,.45-8.13,.98-12.17,.17-1.27-1.84-1.26-2,0h0Z"/>
                </g>
              </g>
            </g>
          </g>
        </g>
        <g>
          <path class="cls-77" d="M2119.16,1246.71c-5.42-6.54-8.93-8.65-14.35-15.19-.52-.63-1.78-1.09-1.89-.29,7.9,9.08,13.17,14.35,19.54,24.57l-3.3-9.09Z"/>
          <path class="cls-77" d="M2342.42,1244.65c5.42-6.54,13.35-17.05,18.77-23.59,.52-.63,1.78-1.09,1.89-.29-7.9,9.08-17.59,22.75-23.96,32.96l3.3-9.09Z"/>
          <path class="cls-77" d="M2344.87,1242.15c-12.45,9.25-28.85,20.44-41.3,29.69-3.26,2.42-6.55,4.87-10.26,6.53-5.66,2.54-10.43,3.13-11.76,3.32-13.52,1.9-26.81,11.36-42.45,15.1-29.09,6.97-58.75-7.65-77.11-16.7-5.1-2.51-8.81-4.73-9.95-5.41-16.24-9.77-27.2-21.13-33.92-29.23-.16,.84-.32,1.67-.48,2.51,12.94,14.02,24.85,26.81,36.68,39.52,4.35,4.68,9.67,10.43,18.42,15.75,7.49,4.55,15.94,7.23,24.3,9.86,11.78,3.71,23.55,7.41,35.33,11.12,7.2,2.27,14.65,4.56,22.17,3.82,9.91-.99,18.5-7.1,26.23-13.39,14.06-11.46,27.02-24.25,38.67-38.16l25.45-34.31Z"/>
          <path class="cls-69" d="M2344.89,1242.1c-3.67,4.06-9.31,10.05-16.62,16.85-23.32,21.66-49.92,46.37-86.85,49.58-3.78,.33-18.96,1.41-37.43-3.74-13.38-3.73-22.32-9.01-34.36-16.13-7.01-4.14-20.51-12.65-35.53-26.18-9.19-8.28-16.32-16.06-21.49-22.19,7.27,13.85,15.24,27.33,23.88,40.37,7.09,10.7,15.03,18.85,18.63,22.52,21.71,22.1,75.18,44.06,125.55,21.41,51.75-23.26,63.95-77.3,65.15-83.07l-.93,.58Z"/>
          <path class="cls-77" d="M2217.57,1312.39c2.6,1.04,6.33,2.35,10.94,3.32,4.16,.87,12.51,2.54,22.95,.63,3.85-.71,9.53-2.18,15.87-5.56-5.19,2.07-12.78,4.41-22.19,5.04-11.95,.8-21.62-1.5-27.57-3.43Z"/>
          <path class="cls-77" d="M2227.93,1320.73c2.48,.68,5.7,1.31,9.48,1.41,5.27,.14,9.62-.78,12.62-1.68-2.01,1.1-6.79,3.35-13.09,2.87-4.03-.31-7.14-1.62-9.01-2.6Z"/>
          <path class="cls-77" d="M2186.02,1312.93c.1-.15,6.9,5.91,17.84,10.04,12.65,4.78,23.05,4.04,23.04,4.21-.02,.18-11.65,1.29-24.56-3.94-10-4.06-16.42-10.16-16.32-10.31Z"/>
          <path class="cls-77" d="M2060.06,1222.24c4.02,2.18,9.32,4.48,15.79,5.9,15.38,3.37,28.28-.24,34.58-2.52,.28,1.68,.56,3.35,.83,5.03-9.38,3.98-17.34,4.69-22.18,4.72-1.03,0-5.8-.05-12-1.38-7.12-1.52-12.7-4-16.44-5.98-.19-1.92-.38-3.85-.57-5.77Z"/>
          <path class="cls-77" d="M2350.45,1213.49c2.7,1.77,11.13,6.8,22.89,6.14,11.77-.66,19.59-6.61,22.08-8.67,.25,.76,.49,1.76,.59,2.94,.09,1.07,.04,2-.05,2.74-3.22,2.36-11.74,7.94-24,8.5-10.49,.47-18.41-2.97-22-4.82-.23-.65-.48-1.59-.5-2.73-.03-1.9,.6-3.36,.98-4.1Z"/>
        </g>
      </g>
      <path class="cls-85" d="M1331.17,1584.16c162.15-52.86,346.95-101.86,552.4-138.1,393.71-69.45,742.61-70.78,1019.81-49.57-4.72,87.34-9.44,174.69-14.16,262.03-519.35-24.79-1038.69-49.57-1558.04-74.36Z"/>
      <path class="cls-43" d="M1411.26,1643.4c350.73-40.4,701.46-80.81,1052.19-121.21-121.57,.2-243.15,.39-364.72,.59,36-19.08,72-38.16,108-57.25-30.19,1.9-60.55,3.68-91.08,5.31-118.19,6.33-234.23,10.38-348,12.39,155.98-38.25,353.89-72.64,584.27-79.67,250.21-7.63,465.16,19.26,631.56,52.16-4.72,87.34-9.44,174.69-14.16,262.03-519.35-24.79-1038.69-49.57-1558.04-74.36Z"/>
      <g>
        <path class="cls-84" d="M2323.33,1487.46c29.11-71.61,58.23-143.21,87.35-214.82,22.82,74.75,45.64,149.51,68.46,224.26-51.93-3.15-103.87-6.3-155.8-9.44Z"/>
        <path class="cls-38" d="M2410.68,1272.64c63.48-5.6,126.95-11.21,190.43-16.81,46.16,72.39,92.33,144.79,138.49,217.18-86.82,7.96-173.64,15.93-260.46,23.89-22.82-74.75-45.64-149.51-68.46-224.26Z"/>
        <path class="cls-38" d="M2410.68,1272.64c-8.5,72.86-17,145.71-25.5,218.57,5.36,.32,10.71,.65,16.07,.97,3.14-73.18,6.29-146.36,9.43-219.54Z"/>
      </g>
      <g>
        <path class="cls-66" d="M2422.56,337.07c-60.12,63.25-146.85,75.87-201.84,38.95-45.9-30.82-54.89-86.24-56.66-99.15-42.49,17.87-90.41,9.24-120.39-21.25-34.38-34.95-29.13-82.29-28.33-88.53-40.54,26.52-93.77,21.7-127.48-10.62-30.85-29.59-39.6-76.73-21.25-116.85-10.81-12.02-71.23-81.19-52.24-153.82,18.99-72.64,105.19-101.98,144.31-115.29,191.25-65.09,275.77,67.61,552.4,67.28,208.49-.25,290.55-66.86,354.1-3.54,72.9,72.63,32.26,227.39,109.77,347.02,4.1,6.32,13.01,19.48,10.62,35.41-7.73,51.56-125.43,76.05-219.54,88.52,2.49,13.01,5.96,42.15-10.62,63.74-25.16,32.75-89.57,39.17-148.72,0-53.49,31.9-113.12,35.35-152.26,7.08-8.92-6.44-21.82-18.17-31.87-38.95Z"/>
        <path class="cls-39" d="M2475.67,197.2c-60.12,63.25-146.85,75.87-201.84,38.95-45.9-30.82-54.89-86.24-56.66-99.15-42.49,17.87-90.41,9.24-120.39-21.25-34.38-34.95-29.13-82.29-28.33-88.53-40.54,26.52-93.77,21.7-127.48-10.62-30.85-29.59-39.6-76.73-21.25-116.85-.91-172.81,48.51-239.6,92.07-269.12,115.14-78.02,243.7,67.64,552.4,67.28,208.49-.25,290.55-66.86,354.1-3.54,72.9,72.63,32.26,227.39,109.77,347.02,4.1,6.32,13.01,19.48,10.62,35.41-7.73,51.56-125.43,76.05-219.54,88.53,2.49,13.01,5.96,42.15-10.62,63.74-25.16,32.75-89.57,39.17-148.72,0-53.49,31.9-113.12,35.35-152.26,7.08-8.92-6.44-21.82-18.17-31.87-38.95Z"/>
        <g>
          <path class="cls-55" d="M2561.28,1817c-13.85-278.82-27.56-904.24-41.42-1183.07-40.13-31.11-80.27-62.23-120.4-93.34,.27-1.33,1.22-5.22,4.29-7.94,5.34-4.74,11.92-1.34,12.2-1.19,32,21.45,63.99,42.9,95.99,64.34-13.19-143.38-35.84-626.51-49.04-769.89,44.53,.4,89.06,.79,133.59,1.19,8.91,69.51,27.27,478.76,36.17,548.27,30.4-26.61,60.8-53.22,91.21-79.83,1.59,8.34,3.19,16.68,4.78,25.02-27.71,34.56-55.42,69.11-83.12,103.67,17.48,146.56,34.97,293.12,52.45,439.68,20.12-24.23,40.24-48.46,60.36-72.68,3.96,5.56,7.92,11.12,11.87,16.68-20.45,34.16-40.9,68.32-61.35,102.47,24.74,191.84,49.33,730.27,74.07,922.12-73.89-5.16-147.78-10.33-221.67-15.49Z"/>
          <g class="cls-59">
            <g class="cls-45">
              <path class="cls-15" d="M2509.81,652.98c11.85-.75,19.24,12.56,25.2,20.88,7.04,9.81,13.93,19.74,20.18,30.07,12.53,20.71,22.71,43.58,23.89,68.07s-6.14,47.18-17.1,68.15c-5.58,10.69-12.11,20.87-19.19,30.64-7.28,10.05-15,20.67-25.11,28.08-21.38,15.68-49.88,13.37-74.82,11.18-3.85-.34-3.82,5.66,0,6,24.06,2.12,50.59,4.01,72.39-8.46,10.86-6.21,19.03-15.77,26.57-25.55,8.05-10.44,15.56-21.32,22.05-32.81,12.43-22,21.33-46.62,21.33-72.14,0-26.19-9.97-50.97-23.07-73.23-7.58-12.87-16.2-25.09-24.95-37.2-6.61-9.15-14.69-20.48-27.38-19.68-3.84,.24-3.86,6.24,0,6h0Z"/>
            </g>
            <g class="cls-45">
              <path class="cls-62" d="M2455.52,207.62c-5.25,37.29-6.91,75.01-4.68,112.62,1.09,18.27,3.08,36.5,5.93,54.58,2.64,16.72,5.79,33.51,11.38,49.53,5.05,14.47,12.17,28.14,22.33,39.69,10.01,11.36,22.47,20.62,31.23,33.07,10.1,14.35,10.38,30.74,11.51,47.59,1,14.75,3.95,28.57,13.44,40.29,8.75,10.81,20.64,18.48,31.58,26.84,11.85,9.06,21.79,19.47,28.69,32.81,14.09,27.22,15.47,59.31,16.27,89.33,1.86,69.95,3.15,142.64-22.17,209.06-23.91,62.74-77.62,121.12-65.22,192.86,1.36,7.89,3.73,15.45,6.86,22.8,1.51,3.54,6.68,.49,5.18-3.03-13.7-32.24-7.42-68.82,5-100.4,12.97-32.98,32.94-62.62,47.42-94.9,28.58-63.71,30.75-134.5,29.46-203.2-.58-30.6-.23-62.22-8.5-91.94-3.75-13.49-9.49-26.51-18.04-37.67s-19.6-19.19-30.69-27.46c-11.33-8.45-23.17-17.74-28.66-31.21-6.25-15.35-4.17-32.55-6.65-48.64-2.29-14.91-9.67-26.91-19.92-37.71s-22.49-20.75-30.88-33.73c-18.52-28.64-23.24-65.56-27.01-98.74-4.22-37.13-4.7-74.68-1.43-111.9,.85-9.68,1.96-19.34,3.31-28.96,.53-3.78-5.25-5.41-5.79-1.6h0Z"/>
            </g>
            <g class="cls-45">
              <path class="cls-82" d="M2511.23,156.84c33.17,24.81,40.96,69,45,107.67,2.61,24.94,4.57,49.96,6.82,74.94,1.9,21.15,1.21,45.4,15.56,62.59,7.49,8.97,15.79,16.28,20.79,27.12s7.47,22.57,10.32,34.03c6.5,26.14,13,52.29,19.51,78.43,12.78,51.39,25.78,102.73,38.12,154.22,24.68,102.91,46.29,207.38,49.89,313.46,1.78,52.56-1.3,105.02-9.61,156.95-8.15,50.95-20.17,101.15-30.73,151.63-10.37,49.62-19.02,99.59-21.98,150.26-3,51.25-.84,102.74,6.28,153.57,1.82,13,4,25.95,6.46,38.84,.72,3.79,6.51,2.18,5.79-1.6-10.07-52.78-14.72-106.49-13.7-160.22,1-52.84,8.13-105.02,18.37-156.81,10.1-51.07,22.49-101.68,31.71-152.93s14.17-101.88,13.94-153.46c-.49-105.6-20.03-210.06-43.83-312.59-12.17-52.41-25.42-104.58-38.4-156.79-6.5-26.14-13-52.29-19.51-78.43-5.58-22.42-8.89-48.15-20.91-68.26-5.61-9.4-14.41-15.95-20.64-24.82-7.36-10.49-8.56-23.78-9.7-36.15-2.42-26.39-4.74-52.79-7.12-79.18-3.35-37.25-7.3-78.49-30.7-109.3-5.35-7.05-11.6-13.07-18.68-18.37-3.09-2.31-6.09,2.89-3.03,5.18h0Z"/>
            </g>
          </g>
        </g>
        <path class="cls-7" d="M2539.33,24.4c-60.12,63.25-146.85,75.87-201.84,38.95-45.9-30.82-54.89-86.24-56.66-99.15-42.49,17.87-90.41,9.24-120.39-21.25-34.38-34.95-29.13-82.29-28.33-88.53-40.54,26.52-93.77,21.7-127.48-10.62-30.85-29.59-39.6-76.73-21.25-116.85-.91-172.81,48.51-239.6,92.07-269.12,115.14-78.02,243.7,67.64,552.4,67.28,208.49-.25,290.55-66.86,354.1-3.54,72.9,72.63,32.26,227.39,109.77,347.02,4.1,6.32,13.01,19.48,10.62,35.41-7.73,51.56-125.43,76.05-219.54,88.53,2.49,13.01,5.96,42.15-10.62,63.74-25.16,32.75-89.57,39.17-148.72,0-53.49,31.9-113.12,35.35-152.26,7.08-8.92-6.44-21.82-18.17-31.87-38.95Z"/>
      </g>
      <g>
        <path class="cls-8" d="M2184.1,1431.5c1.05,3.67,2.1,7.34,3.15,11.02-24.66,4.46-49.31,8.92-73.97,13.38-.69-.73-1.88-2.19-2.46-4.38-.96-3.64,.47-6.63,.89-7.43,17.26-3,34.51-6,51.77-9,6.87-1.2,13.75-2.39,20.62-3.59Z"/>
        <path class="cls-8" d="M2235.24,1459.83c-26.23-11.54-52.46-23.08-78.69-34.62-.09-.34-.65-2.55,.74-4.67,1.36-2.08,3.55-2.48,3.9-2.54,25.72,10.15,51.44,20.29,77.16,30.44-1.04,3.8-2.07,7.6-3.11,11.39Z"/>
      </g>
    </g>
  </g>
</svg>