<?xml version="1.0" encoding="UTF-8" standalone="no"?>
<svg
   xmlns:dc="http://purl.org/dc/elements/1.1/"
   xmlns:cc="http://creativecommons.org/ns#"
   xmlns:rdf="http://www.w3.org/1999/02/22-rdf-syntax-ns#"
   xmlns:svg="http://www.w3.org/2000/svg"
   xmlns="http://www.w3.org/2000/svg"
   xmlns:sodipodi="http://sodipodi.sourceforge.net/DTD/sodipodi-0.dtd"
   xmlns:inkscape="http://www.inkscape.org/namespaces/inkscape"
   desc="Created with imagetracer.js"
   height="500"
   width="2e3"
   version="1.1"
   id="svg258"
   sodipodi:docname="SingleHammockOSHW2018.svg"
   inkscape:version="0.92.2 (5c3e80d, 2017-08-06)">
  <metadata
     id="metadata264">
    <rdf:RDF>
      <cc:Work
         rdf:about="">
        <dc:format>image/svg+xml</dc:format>
        <dc:type
           rdf:resource="http://purl.org/dc/dcmitype/StillImage" />
        <dc:title></dc:title>
      </cc:Work>
    </rdf:RDF>
  </metadata>
  <defs
     id="defs262" />
  <sodipodi:namedview
     pagecolor="#ffffff"
     bordercolor="#666666"
     borderopacity="1"
     objecttolerance="10"
     gridtolerance="10"
     guidetolerance="10"
     inkscape:pageopacity="0"
     inkscape:pageshadow="2"
     inkscape:window-width="2303"
     inkscape:window-height="1378"
     id="namedview260"
     showgrid="false"
     inkscape:zoom="0.85984184"
     inkscape:cx="853.73663"
     inkscape:cy="215.74468"
     inkscape:window-x="-7"
     inkscape:window-y="0"
     inkscape:window-maximized="0"
     inkscape:current-layer="svg258" />
  <rect
     style="color:#000000"
     height="389.75"
     width="320.25"
     y="53.284"
     x="1337.9"
     fill="#006c80"
     id="rect2" />
  <flowRoot
     style="word-spacing:0px;letter-spacing:0px"
     font-weight="300"
     xml:space="preserve"
     font-size="40px"
     transform="translate(253,-376)"
     line-height="125%"
     font-family="Junction"
     fill="#000000"
     id="flowRoot10"><flowRegion
       id="flowRegion6"><rect
         y="75.828"
         width="96.08"
         x="25.57"
         height="275.07"
         id="rect4" /></flowRegion><flowPara
       id="flowPara8" /></flowRoot>  <flowRoot
     style="word-spacing:0px;letter-spacing:0px"
     font-weight="300"
     xml:space="preserve"
     font-size="40px"
     transform="translate(253,-376)"
     line-height="125%"
     font-family="Junction"
     fill="#000000"
     id="flowRoot18"><flowRegion
       id="flowRegion14"><rect
         y="88.225"
         width="123.97"
         x="10.073"
         height="249.5"
         id="rect12" /></flowRegion><flowPara
       id="flowPara16" /></flowRoot>  <rect
     style="color:#000000"
     height="389.75"
     width="320.25"
     y="54.882"
     x="668.86"
     fill="#006c38"
     id="rect20" />
  <rect
     style="color:#000000"
     height="389.75"
     width="320.25"
     y="54.263"
     x="1004.1"
     fill="#d40000"
     id="rect22" />
  <flowRoot
     style="word-spacing:0px;letter-spacing:0px"
     font-weight="300"
     xml:space="preserve"
     transform="translate(253.17 22.979)"
     line-height="125%"
     font-size="40px"
     font-family="Junction"
     fill="#000000"
     id="flowRoot30"><flowRegion
       id="flowRegion26"><rect
         y="75.828"
         width="96.08"
         x="25.57"
         height="275.07"
         id="rect24" /></flowRegion><flowPara
       id="flowPara28" /></flowRoot>  <flowRoot
     style="word-spacing:0px;letter-spacing:0px"
     font-weight="300"
     xml:space="preserve"
     transform="translate(253.17 22.979)"
     line-height="125%"
     font-size="40px"
     font-family="Junction"
     fill="#000000"
     id="flowRoot38"><flowRegion
       id="flowRegion34"><rect
         y="88.225"
         width="123.97"
         x="10.073"
         height="249.5"
         id="rect32" /></flowRegion><flowPara
       id="flowPara36" /></flowRoot>  <g
     transform="translate(-3 -201.68)"
     id="g62">
    <g
       transform="translate(-247.27 286.33)"
       id="g60">
      <g
         fill="#333"
         transform="translate(-72.786 -85.361)"
         id="g50">
        <path
           style="block-progression:tb;text-indent:0;color:#000000;text-transform:none"
           d="m713.09 278.5v3 62.062 3h3 141.56 3v-3-65.062h-5.8712l-0.12879 62.062h-135.56v-56.062h115.34v-6h-118.34z"
           id="path40" />
        <path
           d="m747.71 313.26c-0.00002-5.1406-0.53127-8.8125-1.5938-11.016-1.0469-2.2031-2.7735-3.3047-5.1797-3.3047-2.3906 0.00003-4.1172 1.1016-5.1797 3.3047-1.0469 2.2032-1.5703 5.875-1.5703 11.016-0.00001 5.125 0.52343 8.7891 1.5703 10.992 1.0625 2.2031 2.789 3.3047 5.1797 3.3047 2.4062 0 4.1328-1.0938 5.1797-3.2812 1.0625-2.2031 1.5937-5.875 1.5938-11.016m4.9453 0c-0.00003 6.0938-0.96878 10.641-2.9062 13.641-1.9219 3-4.8594 4.5-8.8125 4.5s-6.8906-1.4922-8.8125-4.4766-2.8828-7.539-2.8828-13.664c0-6.1094 0.96093-10.664 2.8828-13.664 1.9375-3 4.875-4.5 8.8125-4.5 3.9531 0.00004 6.8906 1.5 8.8125 4.5 1.9375 3 2.9062 7.5547 2.9062 13.664"
           id="path42" />
        <path
           d="m779.1 296.93v4.8047c-1.4375-0.92184-2.8828-1.6172-4.3359-2.0859-1.4375-0.46871-2.8906-0.70309-4.3594-0.70312-2.2344 0.00003-4 0.52347-5.2969 1.5703-1.2969 1.0313-1.9453 2.4297-1.9453 4.1953-0.00001 1.5469 0.42187 2.7266 1.2656 3.5391 0.85936 0.81252 2.4531 1.4922 4.7812 2.0391l2.4844 0.5625c3.2812 0.76564 5.6718 1.9688 7.1719 3.6094 1.5 1.6406 2.25 3.875 2.25 6.7031-0.00003 3.3281-1.0313 5.8672-3.0938 7.6172s-5.0625 2.625-9 2.625c-1.6406 0-3.2891-0.17969-4.9453-0.53907-1.6562-0.34375-3.3203-0.86718-4.9922-1.5703v-5.0391c1.7969 1.1406 3.4922 1.9766 5.0859 2.5078 1.6094 0.53126 3.2266 0.79688 4.8516 0.79688 2.3906 0 4.25-0.53125 5.5781-1.5938 1.3281-1.0781 1.9922-2.5781 1.9922-4.5-0.00002-1.75-0.46096-3.0859-1.3828-4.0078-0.90627-0.92186-2.4922-1.6328-4.7578-2.1328l-2.5312-0.58594c-3.25-0.73435-5.6094-1.8437-7.0781-3.3281-1.4688-1.4844-2.2031-3.4765-2.2031-5.9766 0-3.125 1.0469-5.625 3.1406-7.5 2.1094-1.8906 4.9062-2.8359 8.3906-2.8359 1.3437 0.00004 2.7578 0.15629 4.2422 0.46875 1.4844 0.29691 3.0468 0.75003 4.6875 1.3594"
           id="path44" />
        <path
           d="m787.46 295.73h4.7578v14.344h12.961v-14.344h4.7578v34.992h-4.7578v-16.664h-12.961v16.664h-4.7578v-34.992"
           id="path46" />
        <path
           d="m813.13 295.73h4.6172l3.3516 28.406 3.9844-18.797h4.9453l4.0312 18.844 11.352-54.453h4.6172l-13.227 60.992h-4.4766l-4.7578-20.789-4.7344 20.789h-4.4766l-5.2266-34.992"
           id="path48" />
      </g>
      <flowRoot
         style="font-weight:300;font-size:40px;line-height:125%;font-family:Junction;letter-spacing:0px;word-spacing:0px;fill:#333333"
         font-weight="300"
         xml:space="preserve"
         font-size="40px"
         transform="matrix(0.88898,0,0,0.88898,83.223,-193.1)"
         line-height="125%"
         id="flowRoot58"><flowRegion
           id="flowRegion54"><rect
             height="55.789001"
             width="189.06"
             y="515.15997"
             x="638.46997"
             id="rect52"
             style="fill:#333333" /></flowRegion><flowPara
           font-weight="normal"
           id="flowPara56"
           style="font-weight:normal;font-family:'Andale Mono';fill:#333333">US0095</flowPara></flowRoot>    </g>
  </g>
  <flowRoot
     style="word-spacing:0px;letter-spacing:0px"
     font-weight="300"
     xml:space="preserve"
     font-size="40px"
     transform="translate(245,-362)"
     line-height="125%"
     font-family="Junction"
     fill="#000000"
     id="flowRoot70"><flowRegion
       id="flowRegion66"><rect
         y="519.07"
         width="144.65"
         x="140.46"
         height="47.17"
         id="rect64" /></flowRegion><flowPara
       id="flowPara68">optional unique code:</flowPara></flowRoot>  <g
     fill="#333"
     transform="translate(-252.15 -66.343)"
     id="g92">
    <g
       id="g90">
      <path
         style="block-progression:tb;text-indent:0;color:#000000;text-transform:none"
         d="m713.09 278.5v3 62.062 3h3 141.56 3v-3-65.062h-5.8712l-0.12879 62.062h-135.56v-56.062h115.34v-6h-118.34z"
         transform="translate(-72.786 -85.361)"
         fill="#333"
         id="path72" />
      <path
         d="m747.71 313.26c-0.00002-5.1406-0.53127-8.8125-1.5938-11.016-1.0469-2.2031-2.7735-3.3047-5.1797-3.3047-2.3906 0.00003-4.1172 1.1016-5.1797 3.3047-1.0469 2.2032-1.5703 5.875-1.5703 11.016-0.00001 5.125 0.52343 8.7891 1.5703 10.992 1.0625 2.2031 2.789 3.3047 5.1797 3.3047 2.4062 0 4.1328-1.0938 5.1797-3.2812 1.0625-2.2031 1.5937-5.875 1.5938-11.016m4.9453 0c-0.00003 6.0938-0.96878 10.641-2.9062 13.641-1.9219 3-4.8594 4.5-8.8125 4.5s-6.8906-1.4922-8.8125-4.4766-2.8828-7.539-2.8828-13.664c0-6.1094 0.96093-10.664 2.8828-13.664 1.9375-3 4.875-4.5 8.8125-4.5 3.9531 0.00004 6.8906 1.5 8.8125 4.5 1.9375 3 2.9062 7.5547 2.9062 13.664"
         transform="translate(-72.786 -85.361)"
         fill="#333"
         id="path74" />
      <path
         d="m779.1 296.93v4.8047c-1.4375-0.92184-2.8828-1.6172-4.3359-2.0859-1.4375-0.46871-2.8906-0.70309-4.3594-0.70312-2.2344 0.00003-4 0.52347-5.2969 1.5703-1.2969 1.0313-1.9453 2.4297-1.9453 4.1953-0.00001 1.5469 0.42187 2.7266 1.2656 3.5391 0.85936 0.81252 2.4531 1.4922 4.7812 2.0391l2.4844 0.5625c3.2812 0.76564 5.6718 1.9688 7.1719 3.6094 1.5 1.6406 2.25 3.875 2.25 6.7031-0.00003 3.3281-1.0313 5.8672-3.0938 7.6172s-5.0625 2.625-9 2.625c-1.6406 0-3.2891-0.17969-4.9453-0.53907-1.6562-0.34375-3.3203-0.86718-4.9922-1.5703v-5.0391c1.7969 1.1406 3.4922 1.9766 5.0859 2.5078 1.6094 0.53126 3.2266 0.79688 4.8516 0.79688 2.3906 0 4.25-0.53125 5.5781-1.5938 1.3281-1.0781 1.9922-2.5781 1.9922-4.5-0.00002-1.75-0.46096-3.0859-1.3828-4.0078-0.90627-0.92186-2.4922-1.6328-4.7578-2.1328l-2.5312-0.58594c-3.25-0.73435-5.6094-1.8437-7.0781-3.3281-1.4688-1.4844-2.2031-3.4765-2.2031-5.9766 0-3.125 1.0469-5.625 3.1406-7.5 2.1094-1.8906 4.9062-2.8359 8.3906-2.8359 1.3437 0.00004 2.7578 0.15629 4.2422 0.46875 1.4844 0.29691 3.0468 0.75003 4.6875 1.3594"
         transform="translate(-72.786 -85.361)"
         fill="#333"
         id="path76" />
      <path
         d="m787.46 295.73h4.7578v14.344h12.961v-14.344h4.7578v34.992h-4.7578v-16.664h-12.961v16.664h-4.7578v-34.992"
         transform="translate(-72.786 -85.361)"
         fill="#333"
         id="path78" />
      <path
         d="m813.13 295.73h4.6172l3.3516 28.406 3.9844-18.797h4.9453l4.0312 18.844 11.352-54.453h4.6172l-13.227 60.992h-4.4766l-4.7578-20.789-4.7344 20.789h-4.4766l-5.2266-34.992"
         transform="translate(-72.786 -85.361)"
         fill="#ff3a3a"
         id="path80" />
      <flowRoot
         style="font-weight:300;font-size:40px;line-height:125%;font-family:Junction;letter-spacing:0px;word-spacing:0px;fill:#333333"
         font-weight="300"
         xml:space="preserve"
         font-size="40px"
         transform="matrix(0.88898,0,0,0.88898,83.223,-193.1)"
         line-height="125%"
         id="flowRoot88"><flowRegion
           id="flowRegion84"><rect
             height="55.789001"
             width="189.06"
             y="515.15997"
             x="638.46997"
             id="rect82"
             style="fill:#333333" /></flowRegion><flowPara
           font-weight="normal"
           id="flowPara86"
           style="font-weight:normal;font-family:'Andale Mono';fill:#333333">US0095</flowPara></flowRoot>    </g>
  </g>
  <text
     style="word-spacing:0px;letter-spacing:0px"
     xml:space="preserve"
     font-size="12.514px"
     line-height="125%"
     y="248.49658"
     x="321.99173"
     font-family="Andale Mono"
     fill="#000000"
     id="text98"><tspan
       style="text-anchor:end;text-align:end"
       y="248.49658"
       x="321.99173"
       id="tspan94">optional</tspan><tspan
       style="text-anchor:end;text-align:end"
       y="264.13943"
       x="321.99173"
       id="tspan96">unique code</tspan></text>
  <path
     d="m330.88 249.63l53.499-24.097"
     stroke="#ff0083"
     stroke-width="1px"
     fill="#d40000"
     id="path100" />
  <g
     fill="#fff"
     transform="translate(701.18 -356.11)"
     id="g124">
    <g
       transform="translate(-247.27 286.33)"
       id="g122">
      <g
         fill="#fff"
         transform="translate(-72.786 -85.361)"
         id="g112">
        <path
           style="block-progression:tb;text-indent:0;color:#000000;text-transform:none"
           d="m713.09 278.5v3 62.062 3h3 141.56 3v-3-65.062h-5.8712l-0.12879 62.062h-135.56v-56.062h115.34v-6h-118.34z"
           id="path102" />
        <path
           d="m747.71 313.26c-0.00002-5.1406-0.53127-8.8125-1.5938-11.016-1.0469-2.2031-2.7735-3.3047-5.1797-3.3047-2.3906 0.00003-4.1172 1.1016-5.1797 3.3047-1.0469 2.2032-1.5703 5.875-1.5703 11.016-0.00001 5.125 0.52343 8.7891 1.5703 10.992 1.0625 2.2031 2.789 3.3047 5.1797 3.3047 2.4062 0 4.1328-1.0938 5.1797-3.2812 1.0625-2.2031 1.5937-5.875 1.5938-11.016m4.9453 0c-0.00003 6.0938-0.96878 10.641-2.9062 13.641-1.9219 3-4.8594 4.5-8.8125 4.5s-6.8906-1.4922-8.8125-4.4766-2.8828-7.539-2.8828-13.664c0-6.1094 0.96093-10.664 2.8828-13.664 1.9375-3 4.875-4.5 8.8125-4.5 3.9531 0.00004 6.8906 1.5 8.8125 4.5 1.9375 3 2.9062 7.5547 2.9062 13.664"
           id="path104" />
        <path
           d="m779.1 296.93v4.8047c-1.4375-0.92184-2.8828-1.6172-4.3359-2.0859-1.4375-0.46871-2.8906-0.70309-4.3594-0.70312-2.2344 0.00003-4 0.52347-5.2969 1.5703-1.2969 1.0313-1.9453 2.4297-1.9453 4.1953-0.00001 1.5469 0.42187 2.7266 1.2656 3.5391 0.85936 0.81252 2.4531 1.4922 4.7812 2.0391l2.4844 0.5625c3.2812 0.76564 5.6718 1.9688 7.1719 3.6094 1.5 1.6406 2.25 3.875 2.25 6.7031-0.00003 3.3281-1.0313 5.8672-3.0938 7.6172s-5.0625 2.625-9 2.625c-1.6406 0-3.2891-0.17969-4.9453-0.53907-1.6562-0.34375-3.3203-0.86718-4.9922-1.5703v-5.0391c1.7969 1.1406 3.4922 1.9766 5.0859 2.5078 1.6094 0.53126 3.2266 0.79688 4.8516 0.79688 2.3906 0 4.25-0.53125 5.5781-1.5938 1.3281-1.0781 1.9922-2.5781 1.9922-4.5-0.00002-1.75-0.46096-3.0859-1.3828-4.0078-0.90627-0.92186-2.4922-1.6328-4.7578-2.1328l-2.5312-0.58594c-3.25-0.73435-5.6094-1.8437-7.0781-3.3281-1.4688-1.4844-2.2031-3.4765-2.2031-5.9766 0-3.125 1.0469-5.625 3.1406-7.5 2.1094-1.8906 4.9062-2.8359 8.3906-2.8359 1.3437 0.00004 2.7578 0.15629 4.2422 0.46875 1.4844 0.29691 3.0468 0.75003 4.6875 1.3594"
           id="path106" />
        <path
           d="m787.46 295.73h4.7578v14.344h12.961v-14.344h4.7578v34.992h-4.7578v-16.664h-12.961v16.664h-4.7578v-34.992"
           id="path108" />
        <path
           d="m813.13 295.73h4.6172l3.3516 28.406 3.9844-18.797h4.9453l4.0312 18.844 11.352-54.453h4.6172l-13.227 60.992h-4.4766l-4.7578-20.789-4.7344 20.789h-4.4766l-5.2266-34.992"
           id="path110" />
      </g>
      <flowRoot
         style="font-weight:300;font-size:40px;line-height:125%;font-family:Junction;letter-spacing:0px;word-spacing:0px;fill:#ffffff"
         font-weight="300"
         xml:space="preserve"
         font-size="40px"
         transform="matrix(0.88898,0,0,0.88898,83.223,-193.1)"
         line-height="125%"
         id="flowRoot120"><flowRegion
           id="flowRegion116"><rect
             height="55.789001"
             width="189.06"
             y="515.15997"
             x="638.46997"
             id="rect114"
             style="fill:#ffffff" /></flowRegion><flowPara
           font-weight="normal"
           id="flowPara118"
           style="font-weight:normal;font-family:'Andale Mono';fill:#ffffff">US0095</flowPara></flowRoot>    </g>
  </g>
  <g
     fill-opacity=".57021"
     fill="#fff"
     transform="translate(701.18 -210.11)"
     id="g148">
    <g
       fill-opacity=".57021"
       transform="translate(-247.27 286.33)"
       id="g146">
      <g
         fill="#fff"
         transform="translate(-72.786 -85.361)"
         id="g136">
        <path
           style="block-progression:tb;text-indent:0;color:#000000;text-transform:none"
           d="m713.09 278.5v3 62.062 3h3 141.56 3v-3-65.062h-5.8712l-0.12879 62.062h-135.56v-56.062h115.34v-6h-118.34z"
           id="path126" />
        <path
           d="m747.71 313.26c-0.00002-5.1406-0.53127-8.8125-1.5938-11.016-1.0469-2.2031-2.7735-3.3047-5.1797-3.3047-2.3906 0.00003-4.1172 1.1016-5.1797 3.3047-1.0469 2.2032-1.5703 5.875-1.5703 11.016-0.00001 5.125 0.52343 8.7891 1.5703 10.992 1.0625 2.2031 2.789 3.3047 5.1797 3.3047 2.4062 0 4.1328-1.0938 5.1797-3.2812 1.0625-2.2031 1.5937-5.875 1.5938-11.016m4.9453 0c-0.00003 6.0938-0.96878 10.641-2.9062 13.641-1.9219 3-4.8594 4.5-8.8125 4.5s-6.8906-1.4922-8.8125-4.4766-2.8828-7.539-2.8828-13.664c0-6.1094 0.96093-10.664 2.8828-13.664 1.9375-3 4.875-4.5 8.8125-4.5 3.9531 0.00004 6.8906 1.5 8.8125 4.5 1.9375 3 2.9062 7.5547 2.9062 13.664"
           id="path128" />
        <path
           d="m779.1 296.93v4.8047c-1.4375-0.92184-2.8828-1.6172-4.3359-2.0859-1.4375-0.46871-2.8906-0.70309-4.3594-0.70312-2.2344 0.00003-4 0.52347-5.2969 1.5703-1.2969 1.0313-1.9453 2.4297-1.9453 4.1953-0.00001 1.5469 0.42187 2.7266 1.2656 3.5391 0.85936 0.81252 2.4531 1.4922 4.7812 2.0391l2.4844 0.5625c3.2812 0.76564 5.6718 1.9688 7.1719 3.6094 1.5 1.6406 2.25 3.875 2.25 6.7031-0.00003 3.3281-1.0313 5.8672-3.0938 7.6172s-5.0625 2.625-9 2.625c-1.6406 0-3.2891-0.17969-4.9453-0.53907-1.6562-0.34375-3.3203-0.86718-4.9922-1.5703v-5.0391c1.7969 1.1406 3.4922 1.9766 5.0859 2.5078 1.6094 0.53126 3.2266 0.79688 4.8516 0.79688 2.3906 0 4.25-0.53125 5.5781-1.5938 1.3281-1.0781 1.9922-2.5781 1.9922-4.5-0.00002-1.75-0.46096-3.0859-1.3828-4.0078-0.90627-0.92186-2.4922-1.6328-4.7578-2.1328l-2.5312-0.58594c-3.25-0.73435-5.6094-1.8437-7.0781-3.3281-1.4688-1.4844-2.2031-3.4765-2.2031-5.9766 0-3.125 1.0469-5.625 3.1406-7.5 2.1094-1.8906 4.9062-2.8359 8.3906-2.8359 1.3437 0.00004 2.7578 0.15629 4.2422 0.46875 1.4844 0.29691 3.0468 0.75003 4.6875 1.3594"
           id="path130" />
        <path
           d="m787.46 295.73h4.7578v14.344h12.961v-14.344h4.7578v34.992h-4.7578v-16.664h-12.961v16.664h-4.7578v-34.992"
           id="path132" />
        <path
           d="m813.13 295.73h4.6172l3.3516 28.406 3.9844-18.797h4.9453l4.0312 18.844 11.352-54.453h4.6172l-13.227 60.992h-4.4766l-4.7578-20.789-4.7344 20.789h-4.4766l-5.2266-34.992"
           id="path134" />
      </g>
      <flowRoot
         style="font-weight:300;font-size:40px;line-height:125%;font-family:Junction;letter-spacing:0px;word-spacing:0px;fill:#ffffff"
         font-weight="300"
         xml:space="preserve"
         font-size="40px"
         transform="matrix(0.88898,0,0,0.88898,83.223,-193.1)"
         line-height="125%"
         id="flowRoot144"><flowRegion
           id="flowRegion140"><rect
             height="55.789001"
             width="189.06"
             y="515.15997"
             x="638.46997"
             id="rect138"
             style="fill:#ffffff;fill-opacity:0.57021" /></flowRegion><flowPara
           font-weight="normal"
           id="flowPara142"
           style="font-weight:normal;font-family:'Andale Mono';fill:#ffffff;fill-opacity:0.57021">US0095</flowPara></flowRoot>    </g>
  </g>
  <g
     fill="#fff"
     transform="translate(1035.2 -354.11)"
     id="g172">
    <g
       transform="translate(-247.27 286.33)"
       id="g170">
      <g
         fill="#fff"
         transform="translate(-72.786 -85.361)"
         id="g160">
        <path
           style="block-progression:tb;text-indent:0;color:#000000;text-transform:none"
           d="m713.09 278.5v3 62.062 3h3 141.56 3v-3-65.062h-5.8712l-0.12879 62.062h-135.56v-56.062h115.34v-6h-118.34z"
           id="path150" />
        <path
           d="m747.71 313.26c-0.00002-5.1406-0.53127-8.8125-1.5938-11.016-1.0469-2.2031-2.7735-3.3047-5.1797-3.3047-2.3906 0.00003-4.1172 1.1016-5.1797 3.3047-1.0469 2.2032-1.5703 5.875-1.5703 11.016-0.00001 5.125 0.52343 8.7891 1.5703 10.992 1.0625 2.2031 2.789 3.3047 5.1797 3.3047 2.4062 0 4.1328-1.0938 5.1797-3.2812 1.0625-2.2031 1.5937-5.875 1.5938-11.016m4.9453 0c-0.00003 6.0938-0.96878 10.641-2.9062 13.641-1.9219 3-4.8594 4.5-8.8125 4.5s-6.8906-1.4922-8.8125-4.4766-2.8828-7.539-2.8828-13.664c0-6.1094 0.96093-10.664 2.8828-13.664 1.9375-3 4.875-4.5 8.8125-4.5 3.9531 0.00004 6.8906 1.5 8.8125 4.5 1.9375 3 2.9062 7.5547 2.9062 13.664"
           id="path152" />
        <path
           d="m779.1 296.93v4.8047c-1.4375-0.92184-2.8828-1.6172-4.3359-2.0859-1.4375-0.46871-2.8906-0.70309-4.3594-0.70312-2.2344 0.00003-4 0.52347-5.2969 1.5703-1.2969 1.0313-1.9453 2.4297-1.9453 4.1953-0.00001 1.5469 0.42187 2.7266 1.2656 3.5391 0.85936 0.81252 2.4531 1.4922 4.7812 2.0391l2.4844 0.5625c3.2812 0.76564 5.6718 1.9688 7.1719 3.6094 1.5 1.6406 2.25 3.875 2.25 6.7031-0.00003 3.3281-1.0313 5.8672-3.0938 7.6172s-5.0625 2.625-9 2.625c-1.6406 0-3.2891-0.17969-4.9453-0.53907-1.6562-0.34375-3.3203-0.86718-4.9922-1.5703v-5.0391c1.7969 1.1406 3.4922 1.9766 5.0859 2.5078 1.6094 0.53126 3.2266 0.79688 4.8516 0.79688 2.3906 0 4.25-0.53125 5.5781-1.5938 1.3281-1.0781 1.9922-2.5781 1.9922-4.5-0.00002-1.75-0.46096-3.0859-1.3828-4.0078-0.90627-0.92186-2.4922-1.6328-4.7578-2.1328l-2.5312-0.58594c-3.25-0.73435-5.6094-1.8437-7.0781-3.3281-1.4688-1.4844-2.2031-3.4765-2.2031-5.9766 0-3.125 1.0469-5.625 3.1406-7.5 2.1094-1.8906 4.9062-2.8359 8.3906-2.8359 1.3437 0.00004 2.7578 0.15629 4.2422 0.46875 1.4844 0.29691 3.0468 0.75003 4.6875 1.3594"
           id="path154" />
        <path
           d="m787.46 295.73h4.7578v14.344h12.961v-14.344h4.7578v34.992h-4.7578v-16.664h-12.961v16.664h-4.7578v-34.992"
           id="path156" />
        <path
           d="m813.13 295.73h4.6172l3.3516 28.406 3.9844-18.797h4.9453l4.0312 18.844 11.352-54.453h4.6172l-13.227 60.992h-4.4766l-4.7578-20.789-4.7344 20.789h-4.4766l-5.2266-34.992"
           id="path158" />
      </g>
      <flowRoot
         style="font-weight:300;font-size:40px;line-height:125%;font-family:Junction;letter-spacing:0px;word-spacing:0px;fill:#ffffff"
         font-weight="300"
         xml:space="preserve"
         font-size="40px"
         transform="matrix(0.88898,0,0,0.88898,83.223,-193.1)"
         line-height="125%"
         id="flowRoot168"><flowRegion
           id="flowRegion164"><rect
             height="55.789001"
             width="189.06"
             y="515.15997"
             x="638.46997"
             id="rect162"
             style="fill:#ffffff" /></flowRegion><flowPara
           font-weight="normal"
           id="flowPara166"
           style="font-weight:normal;font-family:'Andale Mono';fill:#ffffff">US0095</flowPara></flowRoot>    </g>
  </g>
  <g
     fill-opacity=".57021"
     fill="#fff"
     transform="translate(1035.2 -208.11)"
     id="g196">
    <g
       fill-opacity=".57021"
       transform="translate(-247.27 286.33)"
       id="g194">
      <g
         fill="#fff"
         transform="translate(-72.786 -85.361)"
         id="g184">
        <path
           style="block-progression:tb;text-indent:0;color:#000000;text-transform:none"
           d="m713.09 278.5v3 62.062 3h3 141.56 3v-3-65.062h-5.8712l-0.12879 62.062h-135.56v-56.062h115.34v-6h-118.34z"
           id="path174" />
        <path
           d="m747.71 313.26c-0.00002-5.1406-0.53127-8.8125-1.5938-11.016-1.0469-2.2031-2.7735-3.3047-5.1797-3.3047-2.3906 0.00003-4.1172 1.1016-5.1797 3.3047-1.0469 2.2032-1.5703 5.875-1.5703 11.016-0.00001 5.125 0.52343 8.7891 1.5703 10.992 1.0625 2.2031 2.789 3.3047 5.1797 3.3047 2.4062 0 4.1328-1.0938 5.1797-3.2812 1.0625-2.2031 1.5937-5.875 1.5938-11.016m4.9453 0c-0.00003 6.0938-0.96878 10.641-2.9062 13.641-1.9219 3-4.8594 4.5-8.8125 4.5s-6.8906-1.4922-8.8125-4.4766-2.8828-7.539-2.8828-13.664c0-6.1094 0.96093-10.664 2.8828-13.664 1.9375-3 4.875-4.5 8.8125-4.5 3.9531 0.00004 6.8906 1.5 8.8125 4.5 1.9375 3 2.9062 7.5547 2.9062 13.664"
           id="path176" />
        <path
           d="m779.1 296.93v4.8047c-1.4375-0.92184-2.8828-1.6172-4.3359-2.0859-1.4375-0.46871-2.8906-0.70309-4.3594-0.70312-2.2344 0.00003-4 0.52347-5.2969 1.5703-1.2969 1.0313-1.9453 2.4297-1.9453 4.1953-0.00001 1.5469 0.42187 2.7266 1.2656 3.5391 0.85936 0.81252 2.4531 1.4922 4.7812 2.0391l2.4844 0.5625c3.2812 0.76564 5.6718 1.9688 7.1719 3.6094 1.5 1.6406 2.25 3.875 2.25 6.7031-0.00003 3.3281-1.0313 5.8672-3.0938 7.6172s-5.0625 2.625-9 2.625c-1.6406 0-3.2891-0.17969-4.9453-0.53907-1.6562-0.34375-3.3203-0.86718-4.9922-1.5703v-5.0391c1.7969 1.1406 3.4922 1.9766 5.0859 2.5078 1.6094 0.53126 3.2266 0.79688 4.8516 0.79688 2.3906 0 4.25-0.53125 5.5781-1.5938 1.3281-1.0781 1.9922-2.5781 1.9922-4.5-0.00002-1.75-0.46096-3.0859-1.3828-4.0078-0.90627-0.92186-2.4922-1.6328-4.7578-2.1328l-2.5312-0.58594c-3.25-0.73435-5.6094-1.8437-7.0781-3.3281-1.4688-1.4844-2.2031-3.4765-2.2031-5.9766 0-3.125 1.0469-5.625 3.1406-7.5 2.1094-1.8906 4.9062-2.8359 8.3906-2.8359 1.3437 0.00004 2.7578 0.15629 4.2422 0.46875 1.4844 0.29691 3.0468 0.75003 4.6875 1.3594"
           id="path178" />
        <path
           d="m787.46 295.73h4.7578v14.344h12.961v-14.344h4.7578v34.992h-4.7578v-16.664h-12.961v16.664h-4.7578v-34.992"
           id="path180" />
        <path
           d="m813.13 295.73h4.6172l3.3516 28.406 3.9844-18.797h4.9453l4.0312 18.844 11.352-54.453h4.6172l-13.227 60.992h-4.4766l-4.7578-20.789-4.7344 20.789h-4.4766l-5.2266-34.992"
           id="path182" />
      </g>
      <flowRoot
         style="font-weight:300;font-size:40px;line-height:125%;font-family:Junction;letter-spacing:0px;word-spacing:0px;fill:#ffffff"
         font-weight="300"
         xml:space="preserve"
         font-size="40px"
         transform="matrix(0.88898,0,0,0.88898,83.223,-193.1)"
         line-height="125%"
         id="flowRoot192"><flowRegion
           id="flowRegion188"><rect
             height="55.789001"
             width="189.06"
             y="515.15997"
             x="638.46997"
             id="rect186"
             style="fill:#ffffff;fill-opacity:0.57021" /></flowRegion><flowPara
           font-weight="normal"
           id="flowPara190"
           style="font-weight:normal;font-family:'Andale Mono';fill:#ffffff;fill-opacity:0.57021">US0095</flowPara></flowRoot>    </g>
  </g>
  <g
     fill="#fff"
     transform="translate(367.18 -352.11)"
     id="g220">
    <g
       transform="translate(-247.27 286.33)"
       id="g218">
      <g
         fill="#fff"
         transform="translate(-72.786 -85.361)"
         id="g208">
        <path
           style="block-progression:tb;text-indent:0;color:#000000;text-transform:none"
           d="m713.09 278.5v3 62.062 3h3 141.56 3v-3-65.062h-5.8712l-0.12879 62.062h-135.56v-56.062h115.34v-6h-118.34z"
           id="path198" />
        <path
           d="m747.71 313.26c-0.00002-5.1406-0.53127-8.8125-1.5938-11.016-1.0469-2.2031-2.7735-3.3047-5.1797-3.3047-2.3906 0.00003-4.1172 1.1016-5.1797 3.3047-1.0469 2.2032-1.5703 5.875-1.5703 11.016-0.00001 5.125 0.52343 8.7891 1.5703 10.992 1.0625 2.2031 2.789 3.3047 5.1797 3.3047 2.4062 0 4.1328-1.0938 5.1797-3.2812 1.0625-2.2031 1.5937-5.875 1.5938-11.016m4.9453 0c-0.00003 6.0938-0.96878 10.641-2.9062 13.641-1.9219 3-4.8594 4.5-8.8125 4.5s-6.8906-1.4922-8.8125-4.4766-2.8828-7.539-2.8828-13.664c0-6.1094 0.96093-10.664 2.8828-13.664 1.9375-3 4.875-4.5 8.8125-4.5 3.9531 0.00004 6.8906 1.5 8.8125 4.5 1.9375 3 2.9062 7.5547 2.9062 13.664"
           id="path200" />
        <path
           d="m779.1 296.93v4.8047c-1.4375-0.92184-2.8828-1.6172-4.3359-2.0859-1.4375-0.46871-2.8906-0.70309-4.3594-0.70312-2.2344 0.00003-4 0.52347-5.2969 1.5703-1.2969 1.0313-1.9453 2.4297-1.9453 4.1953-0.00001 1.5469 0.42187 2.7266 1.2656 3.5391 0.85936 0.81252 2.4531 1.4922 4.7812 2.0391l2.4844 0.5625c3.2812 0.76564 5.6718 1.9688 7.1719 3.6094 1.5 1.6406 2.25 3.875 2.25 6.7031-0.00003 3.3281-1.0313 5.8672-3.0938 7.6172s-5.0625 2.625-9 2.625c-1.6406 0-3.2891-0.17969-4.9453-0.53907-1.6562-0.34375-3.3203-0.86718-4.9922-1.5703v-5.0391c1.7969 1.1406 3.4922 1.9766 5.0859 2.5078 1.6094 0.53126 3.2266 0.79688 4.8516 0.79688 2.3906 0 4.25-0.53125 5.5781-1.5938 1.3281-1.0781 1.9922-2.5781 1.9922-4.5-0.00002-1.75-0.46096-3.0859-1.3828-4.0078-0.90627-0.92186-2.4922-1.6328-4.7578-2.1328l-2.5312-0.58594c-3.25-0.73435-5.6094-1.8437-7.0781-3.3281-1.4688-1.4844-2.2031-3.4765-2.2031-5.9766 0-3.125 1.0469-5.625 3.1406-7.5 2.1094-1.8906 4.9062-2.8359 8.3906-2.8359 1.3437 0.00004 2.7578 0.15629 4.2422 0.46875 1.4844 0.29691 3.0468 0.75003 4.6875 1.3594"
           id="path202" />
        <path
           d="m787.46 295.73h4.7578v14.344h12.961v-14.344h4.7578v34.992h-4.7578v-16.664h-12.961v16.664h-4.7578v-34.992"
           id="path204" />
        <path
           d="m813.13 295.73h4.6172l3.3516 28.406 3.9844-18.797h4.9453l4.0312 18.844 11.352-54.453h4.6172l-13.227 60.992h-4.4766l-4.7578-20.789-4.7344 20.789h-4.4766l-5.2266-34.992"
           id="path206" />
      </g>
      <flowRoot
         style="font-weight:300;font-size:40px;line-height:125%;font-family:Junction;letter-spacing:0px;word-spacing:0px;fill:#ffffff"
         font-weight="300"
         xml:space="preserve"
         font-size="40px"
         transform="matrix(0.88898,0,0,0.88898,83.223,-193.1)"
         line-height="125%"
         id="flowRoot216"><flowRegion
           id="flowRegion212"><rect
             height="55.789001"
             width="189.06"
             y="515.15997"
             x="638.46997"
             id="rect210"
             style="fill:#ffffff" /></flowRegion><flowPara
           font-weight="normal"
           id="flowPara214"
           style="font-weight:normal;font-family:'Andale Mono';fill:#ffffff">US0095</flowPara></flowRoot>    </g>
  </g>
  <g
     fill-opacity=".57021"
     fill="#fff"
     transform="translate(367.18 -206.11)"
     id="g244">
    <g
       fill-opacity=".57021"
       transform="translate(-247.27 286.33)"
       id="g242">
      <g
         fill="#fff"
         transform="translate(-72.786 -85.361)"
         id="g232">
        <path
           style="block-progression:tb;text-indent:0;color:#000000;text-transform:none"
           d="m713.09 278.5v3 62.062 3h3 141.56 3v-3-65.062h-5.8712l-0.12879 62.062h-135.56v-56.062h115.34v-6h-118.34z"
           id="path222" />
        <path
           d="m747.71 313.26c-0.00002-5.1406-0.53127-8.8125-1.5938-11.016-1.0469-2.2031-2.7735-3.3047-5.1797-3.3047-2.3906 0.00003-4.1172 1.1016-5.1797 3.3047-1.0469 2.2032-1.5703 5.875-1.5703 11.016-0.00001 5.125 0.52343 8.7891 1.5703 10.992 1.0625 2.2031 2.789 3.3047 5.1797 3.3047 2.4062 0 4.1328-1.0938 5.1797-3.2812 1.0625-2.2031 1.5937-5.875 1.5938-11.016m4.9453 0c-0.00003 6.0938-0.96878 10.641-2.9062 13.641-1.9219 3-4.8594 4.5-8.8125 4.5s-6.8906-1.4922-8.8125-4.4766-2.8828-7.539-2.8828-13.664c0-6.1094 0.96093-10.664 2.8828-13.664 1.9375-3 4.875-4.5 8.8125-4.5 3.9531 0.00004 6.8906 1.5 8.8125 4.5 1.9375 3 2.9062 7.5547 2.9062 13.664"
           id="path224" />
        <path
           d="m779.1 296.93v4.8047c-1.4375-0.92184-2.8828-1.6172-4.3359-2.0859-1.4375-0.46871-2.8906-0.70309-4.3594-0.70312-2.2344 0.00003-4 0.52347-5.2969 1.5703-1.2969 1.0313-1.9453 2.4297-1.9453 4.1953-0.00001 1.5469 0.42187 2.7266 1.2656 3.5391 0.85936 0.81252 2.4531 1.4922 4.7812 2.0391l2.4844 0.5625c3.2812 0.76564 5.6718 1.9688 7.1719 3.6094 1.5 1.6406 2.25 3.875 2.25 6.7031-0.00003 3.3281-1.0313 5.8672-3.0938 7.6172s-5.0625 2.625-9 2.625c-1.6406 0-3.2891-0.17969-4.9453-0.53907-1.6562-0.34375-3.3203-0.86718-4.9922-1.5703v-5.0391c1.7969 1.1406 3.4922 1.9766 5.0859 2.5078 1.6094 0.53126 3.2266 0.79688 4.8516 0.79688 2.3906 0 4.25-0.53125 5.5781-1.5938 1.3281-1.0781 1.9922-2.5781 1.9922-4.5-0.00002-1.75-0.46096-3.0859-1.3828-4.0078-0.90627-0.92186-2.4922-1.6328-4.7578-2.1328l-2.5312-0.58594c-3.25-0.73435-5.6094-1.8437-7.0781-3.3281-1.4688-1.4844-2.2031-3.4765-2.2031-5.9766 0-3.125 1.0469-5.625 3.1406-7.5 2.1094-1.8906 4.9062-2.8359 8.3906-2.8359 1.3437 0.00004 2.7578 0.15629 4.2422 0.46875 1.4844 0.29691 3.0468 0.75003 4.6875 1.3594"
           id="path226" />
        <path
           d="m787.46 295.73h4.7578v14.344h12.961v-14.344h4.7578v34.992h-4.7578v-16.664h-12.961v16.664h-4.7578v-34.992"
           id="path228" />
        <path
           d="m813.13 295.73h4.6172l3.3516 28.406 3.9844-18.797h4.9453l4.0312 18.844 11.352-54.453h4.6172l-13.227 60.992h-4.4766l-4.7578-20.789-4.7344 20.789h-4.4766l-5.2266-34.992"
           id="path230" />
      </g>
      <flowRoot
         style="font-weight:300;font-size:40px;line-height:125%;font-family:Junction;letter-spacing:0px;word-spacing:0px;fill:#ffffff"
         font-weight="300"
         xml:space="preserve"
         font-size="40px"
         transform="matrix(0.88898,0,0,0.88898,83.223,-193.1)"
         line-height="125%"
         id="flowRoot240"><flowRegion
           id="flowRegion236"><rect
             height="55.789001"
             width="189.06"
             y="515.15997"
             x="638.46997"
             id="rect234"
             style="fill:#ffffff;fill-opacity:0.57021" /></flowRegion><flowPara
           font-weight="normal"
           id="flowPara238"
           style="font-weight:normal;font-family:'Andale Mono';fill:#ffffff;fill-opacity:0.57021">US0095</flowPara></flowRoot>    </g>
  </g>
  <text
     style="word-spacing:0px;letter-spacing:0px"
     font-weight="300"
     xml:space="preserve"
     font-size="40px"
     line-height="125%"
     y="45"
     x="20"
     font-family="Junction"
     fill="#000000"
     id="text256"><tspan
       font-size="20px"
       y="45"
       x="20"
       id="tspan246">OSHWA</tspan><tspan
       x="20"
       y="88.75"
       id="tspan248">Open Source </tspan><tspan
       x="20"
       y="138.75"
       id="tspan250">Hardware </tspan><tspan
       x="20"
       y="188.75"
       id="tspan252">Certification </tspan><tspan
       x="20"
       y="238.75"
       id="tspan254">Logo</tspan></text>
</svg>
