<?xml version="1.0" encoding="UTF-8"?>
<svg id="_Слой_1" data-name="Слой 1" xmlns="http://www.w3.org/2000/svg" xmlns:xlink="http://www.w3.org/1999/xlink" viewBox="0 0 2704 1520">
  <defs>
    <style>
      .cls-1 {
        fill: url(#_Безымянный_градиент_7);
      }

      .cls-2 {
        fill: url(#_Безымянный_градиент_7-4);
      }

      .cls-3 {
        fill: url(#_Безымянный_градиент_19-6);
      }

      .cls-4 {
        fill: url(#_Безымянный_градиент_7-5);
      }

      .cls-5 {
        fill: url(#_Безымянный_градиент_20-7);
      }

      .cls-6 {
        fill: url(#_Безымянный_градиент_22);
      }

      .cls-7 {
        fill: url(#_Безымянный_градиент_19-3);
      }

      .cls-8 {
        fill: url(#_Безымянный_градиент_19-7);
      }

      .cls-9 {
        fill: url(#_Безымянный_градиент_20-2);
      }

      .cls-10 {
        fill: url(#_Безымянный_градиент_19-4);
      }

      .cls-11 {
        fill: url(#_Безымянный_градиент_17);
      }

      .cls-12 {
        clip-path: url(#clippath-2);
      }

      .cls-13 {
        fill: url(#_Безымянный_градиент_19);
      }

      .cls-14 {
        fill: url(#_Безымянный_градиент_20-11);
      }

      .cls-15 {
        fill: #245021;
      }

      .cls-16 {
        fill: url(#_Безымянный_градиент_7-6);
      }

      .cls-17 {
        fill: #ab9e42;
      }

      .cls-18 {
        fill: #1a3f17;
      }

      .cls-19 {
        fill: #9b903d;
      }

      .cls-20 {
        fill: url(#_Безымянный_градиент_19-2);
      }

      .cls-21 {
        clip-path: url(#clippath-6);
      }

      .cls-22 {
        fill: url(#_Безымянный_градиент_12-2);
      }

      .cls-23 {
        fill: url(#_Безымянный_градиент_7-7);
      }

      .cls-24 {
        fill: url(#_Безымянный_градиент_7-16);
      }

      .cls-25 {
        fill: url(#_Безымянный_градиент_20);
      }

      .cls-26 {
        fill: url(#_Безымянный_градиент_12-3);
      }

      .cls-27 {
        fill: url(#_Безымянный_градиент_7-14);
      }

      .cls-28 {
        fill: url(#_Безымянный_градиент_7-3);
      }

      .cls-29 {
        opacity: .22;
      }

      .cls-30 {
        fill: url(#_Безымянный_градиент_7-10);
      }

      .cls-31 {
        fill: #806337;
      }

      .cls-32 {
        clip-path: url(#clippath-4);
      }

      .cls-33 {
        fill: url(#_Безымянный_градиент_20-4);
      }

      .cls-34 {
        fill: url(#_Безымянный_градиент_20-10);
      }

      .cls-35 {
        opacity: .15;
      }

      .cls-36 {
        fill: url(#_Безымянный_градиент_20-12);
      }

      .cls-37 {
        fill: url(#_Безымянный_градиент_20-8);
      }

      .cls-38 {
        fill: url(#_Безымянный_градиент_20-9);
      }

      .cls-39 {
        fill: url(#_Безымянный_градиент_15);
      }

      .cls-40 {
        fill: url(#_Безымянный_градиент_19-9);
      }

      .cls-41 {
        fill: #7e7834;
      }

      .cls-42 {
        clip-path: url(#clippath);
      }

      .cls-43 {
        fill: url(#_Безымянный_градиент_14);
      }

      .cls-44 {
        fill: url(#_Безымянный_градиент_7-11);
      }

      .cls-45 {
        fill: url(#_Безымянный_градиент_7-9);
      }

      .cls-46 {
        fill: url(#_Безымянный_градиент_4);
      }

      .cls-47 {
        fill: none;
      }

      .cls-48 {
        fill: url(#_Безымянный_градиент_20-13);
      }

      .cls-49 {
        clip-path: url(#clippath-3);
      }

      .cls-50 {
        fill: url(#_Безымянный_градиент_7-13);
      }

      .cls-51 {
        fill: url(#_Безымянный_градиент_7-15);
      }

      .cls-52 {
        fill: url(#_Безымянный_градиент_12);
      }

      .cls-53 {
        fill: url(#_Безымянный_градиент_17-2);
      }

      .cls-54 {
        fill: url(#_Безымянный_градиент_19-11);
      }

      .cls-55 {
        fill: url(#_Безымянный_градиент_5);
      }

      .cls-56 {
        clip-path: url(#clippath-5);
      }

      .cls-57 {
        fill: url(#_Безымянный_градиент_20-6);
      }

      .cls-58 {
        fill: url(#_Безымянный_градиент_7-8);
      }

      .cls-59 {
        fill: url(#_Безымянный_градиент_7-2);
      }

      .cls-60 {
        fill: url(#_Безымянный_градиент_7-12);
      }

      .cls-61 {
        fill: url(#_Безымянный_градиент_20-5);
      }

      .cls-62 {
        fill: url(#_Безымянный_градиент_19-12);
      }

      .cls-63 {
        fill: url(#_Безымянный_градиент_22-2);
      }

      .cls-64 {
        fill: url(#_Безымянный_градиент_16);
      }

      .cls-65 {
        fill: url(#_Безымянный_градиент_19-8);
      }

      .cls-66 {
        fill: url(#_Безымянный_градиент_20-3);
      }

      .cls-67 {
        fill: url(#_Безымянный_градиент_19-10);
      }

      .cls-68 {
        fill: url(#_Безымянный_градиент_19-5);
      }
    </style>
    <clipPath id="clippath">
      <rect class="cls-47" width="2705.02" height="1520"/>
    </clipPath>
    <linearGradient id="_Безымянный_градиент_4" data-name="Безымянный градиент 4" x1="775.49" y1="1350.18" x2="825.98" y2="79.57" gradientUnits="userSpaceOnUse">
      <stop offset="0" stop-color="#fbf69b"/>
      <stop offset="1" stop-color="#93d3c3"/>
    </linearGradient>
    <linearGradient id="_Безымянный_градиент_5" data-name="Безымянный градиент 5" x1="-609.57" y1="760" x2="3202.58" y2="760" gradientUnits="userSpaceOnUse">
      <stop offset="0" stop-color="#33431c"/>
      <stop offset="1" stop-color="#fcee5a"/>
    </linearGradient>
    <clipPath id="clippath-2">
      <rect class="cls-55" x="-1107.13" width="3812.15" height="1520"/>
    </clipPath>
    <linearGradient id="_Безымянный_градиент_20" data-name="Безымянный градиент 20" x1="-515.85" y1="2517.95" x2="1196.08" y2="-211.73" gradientUnits="userSpaceOnUse">
      <stop offset=".66" stop-color="#33431c"/>
      <stop offset="1" stop-color="#fcee5a"/>
    </linearGradient>
    <linearGradient id="_Безымянный_градиент_20-2" data-name="Безымянный градиент 20" x1="-792.42" y1="2383.26" x2="921.76" y2="-350.01" xlink:href="#_Безымянный_градиент_20"/>
    <linearGradient id="_Безымянный_градиент_20-3" data-name="Безымянный градиент 20" x1="-300.54" y1="3564.67" x2="2889.54" y2="-1521.95" xlink:href="#_Безымянный_градиент_20"/>
    <linearGradient id="_Безымянный_градиент_20-4" data-name="Безымянный градиент 20" x1="183.26" y1="2120.25" x2="1897.44" y2="-613.03" xlink:href="#_Безымянный_градиент_20"/>
    <linearGradient id="_Безымянный_градиент_20-5" data-name="Безымянный градиент 20" x1="43.62" y1="1834.42" x2="1241.14" y2="-75.04" xlink:href="#_Безымянный_градиент_20"/>
    <linearGradient id="_Безымянный_градиент_20-6" data-name="Безымянный градиент 20" x1="1077.31" y1="2415.51" x2="2791.49" y2="-317.77" xlink:href="#_Безымянный_градиент_20"/>
    <linearGradient id="_Безымянный_градиент_20-7" data-name="Безымянный градиент 20" x1="1044.21" y1="2642.39" x2="2756.13" y2="-87.29" xlink:href="#_Безымянный_градиент_20"/>
    <linearGradient id="_Безымянный_градиент_20-8" data-name="Безымянный градиент 20" x1="767.64" y1="2507.7" x2="2481.81" y2="-225.58" xlink:href="#_Безымянный_градиент_20"/>
    <linearGradient id="_Безымянный_градиент_20-9" data-name="Безымянный градиент 20" x1="1259.52" y1="3689.11" x2="4449.6" y2="-1397.51" xlink:href="#_Безымянный_градиент_20"/>
    <linearGradient id="_Безымянный_градиент_20-10" data-name="Безымянный градиент 20" x1="1788.67" y1="2492.14" x2="3502.85" y2="-241.13" xlink:href="#_Безымянный_градиент_20"/>
    <linearGradient id="_Безымянный_градиент_20-11" data-name="Безымянный градиент 20" x1="-266.06" y1="1560.09" x2="931.46" y2="-349.36" xlink:href="#_Безымянный_градиент_20"/>
    <linearGradient id="_Безымянный_градиент_15" data-name="Безымянный градиент 15" x1="247.73" y1="733.12" x2="839.52" y2="733.12" gradientUnits="userSpaceOnUse">
      <stop offset="0" stop-color="#744d30"/>
      <stop offset=".29" stop-color="#633d20"/>
      <stop offset=".61" stop-color="#593417"/>
      <stop offset="1" stop-color="#563114"/>
    </linearGradient>
    <clipPath id="clippath-3">
      <path class="cls-39" d="M522.04-155.32c-11.99,49.01-23.19,102.14-32.74,159.11-11.44,68.3-18.89,132.5-23.56,191.62-9.72-27.53-20.57-61.83-30.4-101.93-15.4-62.81-21.88-113.65-24.68-139.45-5.4-49.85-8.86-115.21-3.26-191.86-14.98-.66-29.95-1.32-44.93-1.99-.01,31.03,.62,63.14,2.05,96.27,2.93,68.11,8.83,132,16.55,191.19-35.28-84.3-70.57-168.61-105.85-252.91-9.17,13.76-18.33,27.52-27.5,41.28,7.06,14.9,98.61,208.83,133.34,324.49,8.52,28.39,15.41,54.99,15.41,54.99,14.97,57.83,23,103.67,28.92,137.91,3.31,19.14,7.46,44.7,11.63,75.13-38.34,425.85-76.68,851.69-115.03,1277.54,102.23-14.13,204.47-28.26,306.7-42.39,.86-18.01,1.72-36.02,2.58-54.03,4.66-12.95,11.16-30.28,19.47-50.45,6.74-16.35,25.28-60.3,54.75-115,5.31-9.86,11.63-13.45,11.86-21.51,.62-22.49-34.62-41.89-66.13-55.19,.91-55.17,3.17-139.19,9.56-241.98,7.01-112.66,13.25-155.79,17.28-240.07,3.26-68.18,5.23-166.62-2.19-287.74,25.91-36.87,51.99-75.1,78.15-114.7,30-45.41,58.46-90.17,85.46-134.11-2.93-7.41-5.87-14.82-8.8-22.23-20.68,30.57-41.36,61.13-62.04,91.7,.47-4.88,1.34-12.3,3.06-21.23,4-20.79,9.06-31.5,6.95-32.87-2.12-1.37-10.33,7.48-16.36,18.05-9.37,16.43-9.31,29.76-12.11,43.5-2.95,14.49-11.04,27.87-27.23,54.63-10.1,16.69-24.76,38.32-45.23,61.4,1.31-25.5,3.25-65.56,5.13-114.76,5.3-138.95,3.35-174.49,9.53-253.75,3.19-40.86,8.45-81.11,18.98-161.6,12.99-99.28,25.29-181.42,34.44-239.78-74.61,24.25-149.21,48.49-223.82,72.74Z"/>
    </clipPath>
    <linearGradient id="_Безымянный_градиент_19" data-name="Безымянный градиент 19" x1="345.23" y1="667.78" x2="455.85" y2="667.78" gradientUnits="userSpaceOnUse">
      <stop offset="0" stop-color="#472816"/>
      <stop offset="1" stop-color="#f8b958"/>
    </linearGradient>
    <linearGradient id="_Безымянный_градиент_19-2" data-name="Безымянный градиент 19" x1="286.15" y1="917.41" x2="501.77" y2="917.41" xlink:href="#_Безымянный_градиент_19"/>
    <linearGradient id="_Безымянный_градиент_19-3" data-name="Безымянный градиент 19" x1="360.25" y1="884.35" x2="584.64" y2="884.35" xlink:href="#_Безымянный_градиент_19"/>
    <linearGradient id="_Безымянный_градиент_19-4" data-name="Безымянный градиент 19" x1="553.11" y1="574.38" x2="807.73" y2="574.38" xlink:href="#_Безымянный_градиент_19"/>
    <linearGradient id="_Безымянный_градиент_19-5" data-name="Безымянный градиент 19" x1="525.86" y1="874.49" x2="857.45" y2="874.49" xlink:href="#_Безымянный_градиент_19"/>
    <linearGradient id="_Безымянный_градиент_12" data-name="Безымянный градиент 12" x1="1637.14" y1="660.34" x2="2232.13" y2="660.34" gradientUnits="userSpaceOnUse">
      <stop offset="0" stop-color="#563114"/>
      <stop offset="1" stop-color="#744d30"/>
    </linearGradient>
    <clipPath id="clippath-4">
      <path class="cls-52" d="M1977,1397.26c-4.36-22.2-10.11-55.71-13.87-96.84-5.97-65.5-3.52-113.63-2.77-136.19,3.3-100.19-12.65-136.23-22.18-254.21-8.08-99.99-.77-125.4,1.85-293.56,1.31-83.88,1.5-206.16-4.62-357.11-21.37-29.79-38.73-54.09-50.53-70.61-37.65-52.74-44.35-62.4-59.16-76.67-24.1-23.22-47.01-36.82-66.55-48.42-26.34-15.63-36.74-18.1-71.48-37.66-22.07-12.43-39.5-23.61-50.53-30.94,9.6,.34,19.21,.67,28.81,1.01,8.61,6.02,19.57,12.57,32.82,18.16,17.19,7.25,32.75,10.56,44.83,12.11-14.51-5.33-34.39-14.65-55-31.27-15.42-12.44-26.91-25.47-35.13-36.32,9.24-1.01,18.49-2.02,27.73-3.03,14.49,13.59,27.62,22.03,36.98,27.24,20.97,11.68,31.83,12.06,49.92,25.22,10.15,7.39,14.85,13.17,26.81,26.23,0,0,21.66,23.64,61.01,61.54,14.55,14.01,36.31,33.48,65.63,54.47-3.7-28.25-7.39-56.49-11.09-84.74-9.96-12.49-20.73-25.32-32.35-38.33-14.47-16.19-28.73-30.96-42.52-44.39,13.56-2.35,27.12-4.71,40.67-7.06,10.48,8.78,20.95,17.55,31.43,26.33-1.54-45.43-3.08-90.86-4.62-136.28,51.46-.67,102.91-1.35,154.37-2.02,3.76,47.82,7.76,95.91,12.02,144.26,1.22,13.81,2.45,27.6,3.7,41.36,6.41-8.02,12.98-17.08,19.41-27.24,15.35-24.22,25.51-47.7,32.35-67.59,7.09,.67,14.17,1.35,21.26,2.02-4.49,23.04-11.17,49.37-21.26,77.68-14.63,41.02-32.21,74.34-48.07,99.87,6.28,35.91,15.2,92.29,22.18,162.41,4.11,41.24,4.66,58.32,12.02,166.45,6.51,95.69,9.76,143.53,12.94,178.55,7.07,77.81,13.54,117.64,24.96,203.77,8.83,66.62,20.87,162.88,33.28,282.46,16.64,109.62,33.28,219.24,49.92,328.86-85.04-19.84-170.08-39.68-255.13-59.52Z"/>
    </clipPath>
    <linearGradient id="_Безымянный_градиент_19-6" data-name="Безымянный градиент 19" x1="2090.76" y1="732.34" x2="2180.5" y2="732.34" xlink:href="#_Безымянный_градиент_19"/>
    <linearGradient id="_Безымянный_градиент_16" data-name="Безымянный градиент 16" x1="2031.27" y1="777.8" x2="2332.83" y2="777.8" gradientUnits="userSpaceOnUse">
      <stop offset="0" stop-color="#f8b958"/>
      <stop offset="1" stop-color="#472816"/>
    </linearGradient>
    <linearGradient id="_Безымянный_градиент_19-7" data-name="Безымянный градиент 19" x1="1937.24" y1="717.36" x2="2103.78" y2="717.36" xlink:href="#_Безымянный_градиент_19"/>
    <linearGradient id="_Безымянный_градиент_22" data-name="Безымянный градиент 22" x1="1271.17" y1="-6876.74" x2="1275.87" y2="-7735.78" gradientTransform="translate(0 -5772.12) scale(1 -1)" gradientUnits="userSpaceOnUse">
      <stop offset="0" stop-color="#33431c"/>
      <stop offset="1" stop-color="#fcee5a"/>
    </linearGradient>
    <linearGradient id="_Безымянный_градиент_22-2" data-name="Безымянный градиент 22" x1="1734.11" y1="-6886.02" x2="1738.81" y2="-7745.06" gradientTransform="translate(1965.99 -5772.12) rotate(-180)" xlink:href="#_Безымянный_градиент_22"/>
    <linearGradient id="_Безымянный_градиент_20-12" data-name="Безымянный градиент 20" x1="811.47" y1="2250.39" x2="818.28" y2="1004.27" xlink:href="#_Безымянный_градиент_20"/>
    <linearGradient id="_Безымянный_градиент_12-2" data-name="Безымянный градиент 12" x1="2085.22" y1="706.06" x2="2844.37" y2="706.06" xlink:href="#_Безымянный_градиент_12"/>
    <linearGradient id="_Безымянный_градиент_12-3" data-name="Безымянный градиент 12" x1="2085.22" y1="706.06" x2="2844.37" y2="706.06" xlink:href="#_Безымянный_градиент_12"/>
    <clipPath id="clippath-5">
      <path class="cls-26" d="M2085.22,1376.65c20.62-16.27,48.02-36.94,81.13-59.34,57.59-38.98,86.39-58.47,121.7-71.21,37.07-13.38,51.04-10.83,94.17-30.52,12.38-5.65,33.56-15.43,57.95-32.22,23.65-16.27,74.56-51.3,102.86-110.21,8.01-16.67,13.17-53.16,23.18-125.47,15.17-109.61,22.88-165.64,28.98-225.51,7.26-71.23,7.41-89.29,7.24-101.73-.49-37.34-1.19-90.9-20.28-142.43-14.55-39.27-31.21-54.22-101.41-130.56-91.86-99.89-69.61-81.11-115.9-128.86-49.38-50.94-112.6-111.41-189.79-174.64,69.54-5.65,139.08-11.3,208.62-16.96,44.21,30.94,96.19,73.28,149.22,130.56,40.84,44.11,73.78,87.85,99.97,127.17,5.31-104.56,10.62-209.12,15.94-313.68,65.19,11.3,130.39,22.61,195.58,33.91-8.69,478.71-17.39,957.43-26.08,1436.14-244.36-21.48-488.72-42.95-733.08-64.43Z"/>
    </clipPath>
    <linearGradient id="_Безымянный_градиент_19-8" data-name="Безымянный градиент 19" x1="2510.83" y1="855.43" x2="2633.56" y2="855.43" xlink:href="#_Безымянный_градиент_19"/>
    <linearGradient id="_Безымянный_градиент_19-9" data-name="Безымянный градиент 19" x1="2377.86" y1="921.83" x2="2686.82" y2="921.83" xlink:href="#_Безымянный_градиент_19"/>
    <linearGradient id="_Безымянный_градиент_19-10" data-name="Безымянный градиент 19" x1="2553.64" y1="811.32" x2="2715.05" y2="811.32" xlink:href="#_Безымянный_градиент_19"/>
    <linearGradient id="_Безымянный_градиент_7" data-name="Безымянный градиент 7" x1="2441.05" y1="602.46" x2="2528.06" y2="602.46" gradientUnits="userSpaceOnUse">
      <stop offset="0" stop-color="#3c6136"/>
      <stop offset="1" stop-color="#638a5e"/>
    </linearGradient>
    <linearGradient id="_Безымянный_градиент_7-2" data-name="Безымянный градиент 7" x1="2453.04" y1="506.98" x2="2722.65" y2="506.98" xlink:href="#_Безымянный_градиент_7"/>
    <linearGradient id="_Безымянный_градиент_7-3" data-name="Безымянный градиент 7" x1="2610.54" y1="412.53" x2="2683.83" y2="412.53" xlink:href="#_Безымянный_градиент_7"/>
    <linearGradient id="_Безымянный_градиент_7-4" data-name="Безымянный градиент 7" x1="2517.05" y1="409.4" x2="2587.49" y2="409.4" xlink:href="#_Безымянный_градиент_7"/>
    <linearGradient id="_Безымянный_градиент_7-5" data-name="Безымянный градиент 7" x1="2615.83" y1="261.77" x2="2915.51" y2="261.77" xlink:href="#_Безымянный_градиент_7"/>
    <linearGradient id="_Безымянный_градиент_7-6" data-name="Безымянный градиент 7" x1="2276.22" y1="330.19" x2="2279.12" y2="-200.1" xlink:href="#_Безымянный_градиент_7"/>
    <linearGradient id="_Безымянный_градиент_7-7" data-name="Безымянный градиент 7" x1="2454.75" y1="71.8" x2="2872.29" y2="71.8" xlink:href="#_Безымянный_градиент_7"/>
    <linearGradient id="_Безымянный_градиент_14" data-name="Безымянный градиент 14" x1="-672" y1="661.75" x2="202.17" y2="661.75" gradientUnits="userSpaceOnUse">
      <stop offset="0" stop-color="#563114"/>
      <stop offset=".53" stop-color="#583215"/>
      <stop offset=".76" stop-color="#5f391c"/>
      <stop offset=".93" stop-color="#6b4528"/>
      <stop offset="1" stop-color="#744d30"/>
    </linearGradient>
    <clipPath id="clippath-6">
      <path class="cls-43" d="M-672,1376.24c24.59-17.18,57.26-39.02,96.75-62.69,68.68-41.18,103.02-61.77,145.12-75.23,44.2-14.14,60.86-11.44,112.29-32.24,14.77-5.97,40.02-16.31,69.1-34.03,28.21-17.19,88.91-54.19,122.66-116.43,9.55-17.61,15.71-56.17,27.64-132.56,18.09-115.8,27.28-175,34.55-238.24,8.65-75.25,8.83-94.33,8.64-107.48-.58-39.45-1.42-96.03-24.19-150.47-17.35-41.49-37.21-57.28-120.93-137.93-109.54-105.53-83.01-85.69-138.21-136.14-58.88-53.81-134.27-117.7-226.32-184.5,82.93-5.97,165.85-11.94,248.78-17.91C-263.4-16.94-201.42,27.8-138.17,88.3c48.71,46.6,87.98,92.81,119.21,134.35C-12.63,112.19-6.3,1.73,.04-108.74c55.11-4.02,110.22-8.05,165.33-12.07,23.55,306.15,14.78,547.31,2.18,712.12-10.78,141-29.02,287.03-15.14,498.3,9.98,151.76,32.43,274.76,49.75,354.69-291.39-22.69-582.78-45.38-874.17-68.07Z"/>
    </clipPath>
    <linearGradient id="_Безымянный_градиент_17" data-name="Безымянный градиент 17" x1="101.29" y1="807.46" x2="178.63" y2="807.46" gradientUnits="userSpaceOnUse">
      <stop offset="0" stop-color="#f8b958"/>
      <stop offset="1" stop-color="#472816"/>
    </linearGradient>
    <linearGradient id="_Безымянный_градиент_17-2" data-name="Безымянный градиент 17" x1="44.84" y1="914.09" x2="279.95" y2="914.09" xlink:href="#_Безымянный_градиент_17"/>
    <linearGradient id="_Безымянный_градиент_19-11" data-name="Безымянный градиент 19" x1="-255.82" y1="646.89" x2="55.78" y2="646.89" xlink:href="#_Безымянный_градиент_19"/>
    <linearGradient id="_Безымянный_градиент_19-12" data-name="Безымянный градиент 19" x1="-208.28" y1="762.99" x2="110.43" y2="762.99" xlink:href="#_Безымянный_градиент_19"/>
    <linearGradient id="_Безымянный_градиент_7-8" data-name="Безымянный градиент 7" x1="2597.13" y1="242.01" x2="2600.59" y2="-390.35" gradientTransform="translate(3247.26) rotate(-180) scale(1 -1)" xlink:href="#_Безымянный_градиент_7"/>
    <linearGradient id="_Безымянный_градиент_7-9" data-name="Безымянный градиент 7" x1="-2.99" y1="461.37" x2="354.38" y2="461.37" xlink:href="#_Безымянный_градиент_7"/>
    <linearGradient id="_Безымянный_градиент_7-10" data-name="Безымянный градиент 7" x1="413.28" y1="430.97" x2="416.73" y2="-201.39" gradientTransform="translate(402.25) rotate(-180) scale(1 -1)" xlink:href="#_Безымянный_градиент_7"/>
    <linearGradient id="_Безымянный_градиент_7-11" data-name="Безымянный градиент 7" x1="396.39" y1="110.6" x2="894.29" y2="110.6" gradientTransform="translate(402.25) rotate(-180) scale(1 -1)" xlink:href="#_Безымянный_градиент_7"/>
    <linearGradient id="_Безымянный_градиент_20-13" data-name="Безымянный градиент 20" x1="2179.76" y1="2224.35" x2="2186.25" y2="1035.84" xlink:href="#_Безымянный_градиент_20"/>
    <linearGradient id="_Безымянный_градиент_7-12" data-name="Безымянный градиент 7" x1="1715.46" y1="235.32" x2="1718.35" y2="-294.97" gradientTransform="translate(3247.26) rotate(-180) scale(1 -1)" xlink:href="#_Безымянный_градиент_7"/>
    <linearGradient id="_Безымянный_градиент_7-13" data-name="Безымянный градиент 7" x1="2489.1" y1="-6976.91" x2="2492.55" y2="-7609.26" gradientTransform="translate(0 -5772.12) scale(1 -1)" xlink:href="#_Безымянный_градиент_7"/>
    <linearGradient id="_Безымянный_градиент_7-14" data-name="Безымянный градиент 7" x1="2271.41" y1="-7086.23" x2="2274.87" y2="-7718.58" gradientTransform="translate(0 -5772.12) scale(1 -1)" xlink:href="#_Безымянный_градиент_7"/>
    <linearGradient id="_Безымянный_градиент_7-15" data-name="Безымянный градиент 7" x1="-2034.07" y1="-6804.87" x2="-1327.64" y2="-6804.87" gradientTransform="translate(1921 -5279.58) rotate(-152.46)" xlink:href="#_Безымянный_градиент_7"/>
    <linearGradient id="_Безымянный_градиент_7-16" data-name="Безымянный градиент 7" x1="36.58" y1="-7418.1" x2="534.47" y2="-7418.1" gradientTransform="translate(402.25 -5945.89) rotate(-180)" xlink:href="#_Безымянный_градиент_7"/>
  </defs>
  <g class="cls-42">
    <rect class="cls-46" x="-1107.13" width="3812.15" height="1520"/>
    <g>
      <rect class="cls-55" x="-1107.13" width="3812.15" height="1520"/>
      <g class="cls-12">
        <g class="cls-29">
          <g>
            <path class="cls-25" d="M334.19,714.25c15.1,80.87,30.21,161.74,45.31,242.61-14.64,2.75-29.29,5.5-43.93,8.24,14.34,8.54,28.68,17.07,43.02,25.61l85.37,413.24c-93.13-.78-186.27-1.56-279.4-2.34l49.94-229.42c22.79-10.37,45.57-20.75,68.36-31.12-20.07-.33-40.14-.66-60.22-1l56.17-261.28c10.94-5.66,21.89-11.32,32.83-16.98-8.33-2.4-16.66-4.8-24.99-7.2,9.18-46.79,18.36-93.58,27.53-140.37Z"/>
            <path class="cls-9" d="M-83.86-32.24c-41.95,224.59-83.89,449.17-125.84,673.76,40.67,7.63,81.34,15.26,122.01,22.9-39.82,23.71-79.65,47.41-119.47,71.12-79.03,382.53-158.06,765.07-237.09,1147.6,258.64-2.17,517.28-4.34,775.92-6.51-46.23-212.38-92.46-424.76-138.69-637.13-63.28-28.81-126.56-57.62-189.83-86.43,55.74-.92,111.48-1.84,167.23-2.76C118.36,908.43,66.36,666.57,14.37,424.71c-30.39-15.71-60.78-31.43-91.17-47.14,23.14-6.67,46.27-13.33,69.41-20C-32.89,227.63-58.38,97.69-83.86-32.24Z"/>
          </g>
          <g>
            <path class="cls-66" d="M1283.45,203.56c28.15,150.7,56.29,301.4,84.44,452.1-27.29,5.12-54.58,10.24-81.87,15.36,26.72,15.91,53.44,31.81,80.17,47.72,53.03,256.68,106.06,513.37,159.09,770.05-173.55-1.46-347.1-2.91-520.65-4.37,31.02-142.51,62.04-285.01,93.06-427.52,42.46-19.33,84.92-38.66,127.38-57.99-37.4-.62-74.81-1.24-112.21-1.86,34.89-162.29,69.78-324.58,104.67-486.87,20.39-10.54,40.79-21.09,61.18-31.63-15.52-4.47-31.05-8.95-46.57-13.42,17.1-87.19,34.21-174.38,51.31-261.56Z"/>
            <path class="cls-33" d="M891.82-295.26c-41.95,224.59-83.89,449.17-125.84,673.76,40.67,7.63,81.34,15.26,122.01,22.9-39.82,23.71-79.65,47.41-119.47,71.12-79.03,382.53-158.06,765.07-237.09,1147.6,258.64-2.17,517.28-4.34,775.92-6.51-46.23-212.38-92.46-424.76-138.69-637.13-63.28-28.81-126.56-57.62-189.83-86.43,55.74-.92,111.48-1.84,167.23-2.76-51.99-241.86-103.99-483.72-155.98-725.59-30.39-15.71-60.78-31.43-91.17-47.14,23.14-6.67,46.27-13.33,69.41-20-25.49-129.94-50.98-259.87-76.46-389.81Z"/>
            <path class="cls-61" d="M538.62,146.95c-29.3,156.9-58.61,313.79-87.91,470.69,28.41,5.33,56.82,10.66,85.23,15.99-27.82,16.56-55.64,33.12-83.46,49.68-55.21,267.24-110.42,534.47-165.63,801.71,180.68-1.52,361.37-3.03,542.05-4.55-32.3-148.37-64.59-296.73-96.89-445.1-44.21-20.13-88.41-40.25-132.62-60.38,38.94-.64,77.88-1.29,116.82-1.93-36.32-168.96-72.65-337.93-108.97-506.89-21.23-10.98-42.46-21.96-63.69-32.93,16.16-4.66,32.32-9.31,48.49-13.97-17.81-90.77-35.61-181.55-53.42-272.32Z"/>
          </g>
          <path class="cls-57" d="M1785.87,0c-41.95,224.59-83.89,449.17-125.84,673.76,40.67,7.63,81.34,15.26,122.01,22.9-39.82,23.71-79.65,47.41-119.47,71.12-79.03,382.53-158.06,765.07-237.09,1147.6,258.64-2.17,517.28-4.34,775.92-6.51-46.23-212.38-92.46-424.76-138.69-637.13-63.28-28.81-126.56-57.62-189.83-86.43,55.74-.92,111.48-1.84,167.23-2.76-51.99-241.86-103.99-483.72-155.98-725.59-30.39-15.71-60.78-31.43-91.17-47.14,23.14-6.67,46.27-13.33,69.41-20C1836.85,259.87,1811.36,129.94,1785.87,0Z"/>
          <g>
            <path class="cls-5" d="M1894.24,838.68c15.1,80.87,30.21,161.74,45.31,242.61-14.64,2.75-29.29,5.5-43.93,8.24,14.34,8.54,28.68,17.07,43.02,25.61l85.37,413.24c-93.13-.78-186.27-1.56-279.4-2.34l49.94-229.42c22.79-10.37,45.57-20.75,68.36-31.12-20.07-.33-40.14-.66-60.22-1l56.17-261.28c10.94-5.66,21.89-11.32,32.83-16.98-8.33-2.4-16.66-4.8-24.99-7.2,9.18-46.79,18.36-93.58,27.53-140.37Z"/>
            <path class="cls-37" d="M1476.19,92.19c-41.95,224.59-83.89,449.17-125.84,673.76,40.67,7.63,81.34,15.26,122.01,22.9-39.82,23.71-79.65,47.41-119.47,71.12-79.03,382.53-158.06,765.07-237.09,1147.6,258.64-2.17,517.28-4.34,775.92-6.51-46.23-212.38-92.46-424.76-138.69-637.13-63.28-28.81-126.56-57.62-189.83-86.43,55.74-.92,111.48-1.84,167.23-2.76-51.99-241.86-103.99-483.72-155.98-725.59-30.39-15.71-60.78-31.43-91.17-47.14,23.14-6.67,46.27-13.33,69.41-20-25.49-129.94-50.98-259.87-76.46-389.81Z"/>
          </g>
          <g>
            <path class="cls-38" d="M2843.51,328c28.15,150.7,56.29,301.4,84.44,452.1-27.29,5.12-54.58,10.24-81.87,15.36,26.72,15.91,53.44,31.81,80.17,47.72,53.03,256.68,106.06,513.37,159.09,770.05-173.55-1.46-347.1-2.91-520.65-4.37,31.02-142.51,62.04-285.01,93.06-427.52,42.46-19.33,84.92-38.66,127.38-57.99-37.4-.62-74.81-1.24-112.21-1.86,34.89-162.29,69.78-324.58,104.67-486.87,20.39-10.54,40.79-21.09,61.18-31.63-15.52-4.47-31.05-8.95-46.57-13.42,17.1-87.19,34.21-174.38,51.31-261.56Z"/>
            <path class="cls-34" d="M2497.22,76.64c-41.95,224.59-83.89,449.17-125.84,673.76,40.67,7.63,81.34,15.26,122.01,22.9-39.82,23.71-79.65,47.41-119.47,71.12-79.03,382.53-158.06,765.07-237.09,1147.6,258.64-2.17,517.28-4.34,775.92-6.51-46.23-212.38-92.46-424.76-138.69-637.13-63.28-28.81-126.56-57.62-189.83-86.43,55.74-.92,111.48-1.84,167.23-2.76-51.99-241.86-103.99-483.72-155.98-725.59-30.39-15.71-60.78-31.43-91.17-47.14,23.14-6.67,46.27-13.33,69.41-20-25.49-129.94-50.98-259.87-76.46-389.81Z"/>
            <path class="cls-14" d="M228.94-127.37c-29.3,156.9-58.61,313.79-87.91,470.69,28.41,5.33,56.82,10.66,85.23,15.99-27.82,16.56-55.64,33.12-83.46,49.68C87.58,676.23,32.37,943.47-22.84,1210.7c180.68-1.52,361.37-3.03,542.05-4.55-32.3-148.37-64.59-296.73-96.89-445.1-44.21-20.13-88.41-40.25-132.62-60.38,38.94-.64,77.88-1.29,116.82-1.93-36.32-168.96-72.65-337.93-108.97-506.89-21.23-10.98-42.46-21.96-63.69-32.93,16.16-4.66,32.32-9.31,48.49-13.97-17.81-90.77-35.61-181.55-53.42-272.32Z"/>
          </g>
        </g>
      </g>
    </g>
    <g>
      <path class="cls-17" d="M2294.11,1517.65c-1.14-9.33-2.77-22.93-4.62-39.34-4.85-43.06-12.36-109.74-15.71-173.51-1.58-30.09-1.36-72.52-.92-157.37,.27-52.91,.99-82.81,0-135.18-.69-36.39-1.87-66.19-2.77-85.75,13.71-34.58,27.4-75.07,38.82-121.05,9-36.23,15.18-70.13,19.41-100.88,8.1-12.6,19.39-32.02,29.58-57.5,8.45-21.13,12.62-37.6,20.34-68.6,4.71-18.91,10.75-44.99,16.64-76.67-1.22-.64-3.37-1.54-6.16-1.68-2.73-.14-4.9,.51-6.16,1.01-.74,4.88-1.87,11.98-3.39,20.51-3.36,18.93-7.38,41.54-14.17,64.56-4.6,15.59-12.17,37.13-24.96,61.87,.82-16.23,1.6-29.46,2.16-38.33,2.55-40.88,4.24-55.05,3.7-79.02-.3-13.42-1.18-24.34-1.85-31.27-2.18,.79-6.2,2.61-9.86,6.73-2.64,2.96-4.11,6-4.93,8.07-.42,22.81-1.87,47.82-4.93,74.65-2.46,21.57-5.66,41.68-9.24,60.19-1.51,10.47-3.78,24.8-7.09,41.7-5.63,28.81-11.03,55.82-23.11,87.76-3.99,10.56-9.57,23.94-17.26,39.01-2.82-98.75-3.96-200.7-3.08-305.66,.53-63.72,1.79-126.28,3.7-187.63,10.74-14.93,25.96-38.94,37.9-71.62,10.12-27.7,10.55-41.53,19.41-66.58,7.31-20.67,20.68-49.86,47.14-81.71-8.94-.67-17.87-1.35-26.81-2.02-13.35,16.02-27.53,34.8-41.6,56.49-12.37,19.08-22.74,37.45-31.43,54.47,1.54-47.41,3.08-94.83,4.62-142.24-32.04,1.01-64.09,2.02-96.13,3.03,.65,50.87,.68,102.89,0,156.02-1.02,79.63-3.59,156.8-7.39,231.35-5.72-11.38-13.54-27.46-22.18-47.08-12.77-28.99-21.1-51.55-25.88-64.56-24.23-65.94-37.95-104.34-43.14-118.36-13.92-37.63-36.71-89.81-75.18-150.64-5.75,3.59-11.5,7.17-17.25,10.76,30.68,54.15,52.12,100.43,66.55,134.5,11.39,26.88,20.4,50.85,25.88,65.91,5.5,15.1,10.6,29.92,25.88,78.01,23.9,75.21,28.96,94.17,44.37,139.88,8.31,24.65,15.37,44.45,19.72,56.49,.54,107.04-2.9,194.14-6.16,254.21-3.89,71.51-6.8,91.14-20.95,289.18-6.64,92.89-6.66,97.88-11.09,157.37-8.02,107.72-15.67,195.14-20.95,252.87,60.19-.78,120.37-1.57,180.56-2.35Z"/>
      <path class="cls-41" d="M883.96,1568.03c-1.36-11.13-3.31-27.34-5.51-46.91-5.79-51.35-14.74-130.86-18.74-206.91-1.89-35.88-1.62-86.47-1.1-187.66,.33-63.09,1.18-98.75,0-161.19-.82-43.39-2.24-78.92-3.31-102.25,16.35-41.23,32.67-89.51,46.3-144.35,10.73-43.2,18.1-83.63,23.15-120.29,9.66-15.02,23.12-38.18,35.27-68.57,10.08-25.2,15.05-44.84,24.25-81.8,5.62-22.55,12.81-53.65,19.84-91.42-1.46-.76-4.02-1.84-7.35-2-3.25-.16-5.84,.61-7.35,1.2-.89,5.82-2.23,14.28-4.04,24.46-4.01,22.58-8.8,49.53-16.9,76.99-5.49,18.59-14.51,44.28-29.76,73.78,.97-19.36,1.91-35.13,2.57-45.71,3.04-48.75,5.06-65.65,4.41-94.23-.36-16-1.41-29.02-2.2-37.29-2.6,.95-7.39,3.12-11.76,8.02-3.14,3.52-4.91,7.15-5.88,9.62-.5,27.19-2.23,57.03-5.88,89.02-2.93,25.72-6.75,49.7-11.02,71.78-1.8,12.49-4.51,29.57-8.45,49.72-6.72,34.36-13.16,66.56-27.56,104.66-4.76,12.59-11.42,28.54-20.58,46.51-3.36-117.76-4.72-239.33-3.67-364.49,.64-75.98,2.14-150.58,4.41-223.75,12.8-17.8,30.95-46.44,45.19-85.41,12.07-33.03,12.58-49.52,23.15-79.39,8.72-24.64,24.66-59.46,56.22-97.44-10.66-.8-21.31-1.6-31.97-2.41-15.92,19.11-32.82,41.5-49.6,67.36-14.76,22.75-27.12,44.65-37.48,64.96,1.84-56.54,3.67-113.08,5.51-169.61-38.21,1.2-76.43,2.41-114.64,3.61,.78,60.66,.82,122.7,0,186.05-1.22,94.96-4.28,186.97-8.82,275.87-6.83-13.57-16.15-32.74-26.45-56.14-15.23-34.57-25.16-61.47-30.86-76.99-28.89-78.63-45.25-124.42-51.44-141.14-16.6-44.87-43.78-107.09-89.65-179.64-6.86,4.28-13.72,8.55-20.58,12.83,36.59,64.57,62.15,119.76,79.36,160.39,13.58,32.05,24.33,60.64,30.86,78.59,6.55,18,12.64,35.68,30.86,93.03,28.5,89.68,34.54,112.29,52.91,166.81,9.91,29.4,18.33,53.01,23.52,67.36,.64,127.64-3.45,231.51-7.35,303.14-4.64,85.27-8.11,108.68-24.98,344.84-7.92,110.77-7.94,116.71-13.23,187.66-9.57,128.45-18.69,232.69-24.99,301.54,71.77-.94,143.54-1.87,215.31-2.81Z"/>
      <path class="cls-19" d="M2040.77,.4c-38.47,60.84-61.26,113.01-75.18,150.64-5.19,14.02-18.91,52.42-43.14,118.36-4.78,13.02-13.11,35.57-25.88,64.56-8.64,19.62-16.46,35.7-22.19,47.08-3.81-74.55-6.37-151.72-7.39-231.35-.68-53.13-.65-105.16,0-156.02-32.04-1.01-64.09-2.02-96.13-3.03,1.54,47.41,3.08,94.83,4.62,142.24-8.68-17.03-19.05-35.4-31.43-54.47-14.07-21.69-28.25-40.47-41.6-56.49-8.94,.67-17.87,1.35-26.81,2.02,26.46,31.85,39.83,61.05,47.14,81.71,8.86,25.05,9.29,38.88,19.41,66.58,11.94,32.68,27.16,56.7,37.9,71.62,1.91,61.36,3.16,123.92,3.7,187.63,.88,104.96-.26,206.91-3.08,305.66-7.68-15.07-13.27-28.45-17.26-39.01-.29-.76-.55-1.5-.83-2.25,7.11,47.54,14.71,95.16,12.87,143.2,.91,2.36,1.83,4.7,2.75,7.01-.9,19.56-2.08,49.36-2.77,85.75-.99,52.37-.27,82.27,0,135.18,.44,84.85,.66,127.28-.92,157.37-3.35,63.77-10.86,130.45-15.71,173.51-1.85,16.41-3.48,30.01-4.62,39.34,60.19,.78,120.37,1.57,180.56,2.35-5.28-57.73-12.93-145.15-20.95-252.87-4.43-59.49-4.45-64.48-11.09-157.37-14.15-198.04-17.06-217.68-20.95-289.18-3.27-60.07-6.7-147.17-6.16-254.21,4.35-12.04,11.41-31.84,19.72-56.49,15.41-45.71,20.47-64.68,44.37-139.88,15.28-48.09,20.39-62.91,25.88-78.01,5.48-15.05,14.5-39.03,25.88-65.91,14.44-34.08,35.87-80.36,66.55-134.5-5.75-3.59-11.5-7.17-17.25-10.76Z"/>
      <path class="cls-31" d="M838.39,1621.76c-2.2-53.5-5.75-140.92-9.92-249.01-12.16-315.03-18.27-475.37-19.84-613.5-.78-68.81-1.04-143.65-3.31-287.5-1.21-76.44-2.45-138.92-3.31-179.24-7.56-15.08-17.85-38.45-25.35-68.57-8.08-32.41-5.08-41.17-13.23-92.63-6.05-38.25-9.19-42.76-17.64-90.22-6.06-34.04-9.85-62.08-12.13-80.6,7.72-1.2,15.43-2.41,23.15-3.61,4.51,21.36,8.92,43.01,13.23,64.96,6.31,32.15,12.18,63.84,17.64,95.03-2.94-82.6-5.88-165.2-8.82-247.81,21.68,1.2,43.36,2.41,65.03,3.61,1.84,74.18,3.67,148.36,5.51,222.54,2.94,57.34,5.88,114.68,8.82,172.02,13.23-122.3,26.45-244.6,39.68-366.9h20.94c-3.29,56.5-6.42,103.76-8.82,138.34-11.19,161.47-18.09,215.56-20.94,236.98-6.93,51.97-14.44,94.39-19.84,122.7,14.75,158.68,24.02,287.25,29.76,375.32,2.62,40.25,2.54,41.84,14.33,241.79,14.98,254.07,15.93,265.39,18.74,319.98,4.29,83.44,9.76,206.73,13.23,359.68-35.64-24.46-71.28-48.92-106.92-73.38Z"/>
      <path class="cls-31" d="M247.54,1468.73c-2.2-53.5-5.75-140.92-9.92-249.01-12.16-315.03-18.27-475.37-19.84-613.5-.78-68.81-1.04-143.65-3.31-287.5-1.21-76.44-2.45-138.92-3.31-179.24-7.56-15.08-17.85-38.45-25.35-68.57-8.08-32.41-5.08-41.17-13.23-92.63-6.05-38.25-9.19-42.76-17.64-90.22-6.06-34.04-9.85-62.08-12.13-80.6,7.72-1.2,15.43-2.41,23.15-3.61,4.51,21.36,8.92,43.01,13.23,64.96,6.31,32.15,12.18,63.84,17.64,95.03-2.94-82.6-5.88-165.2-8.82-247.81,21.68,1.2,43.36,2.41,65.03,3.61,1.84,74.18,3.67,148.36,5.51,222.54,2.94,57.34,5.88,114.68,8.82,172.02,13.23-122.3,26.45-244.6,39.68-366.9h20.94c-3.29,56.5-6.42,103.76-8.82,138.34-11.19,161.47-18.09,215.56-20.94,236.98-6.93,51.97-14.44,94.39-19.84,122.7,14.75,158.68,24.02,287.25,29.76,375.32,2.62,40.25,2.54,41.84,14.33,241.79,14.98,254.07,15.93,265.39,18.74,319.98,4.29,83.44,9.76,206.73,13.23,359.68-35.64-24.46-71.28-48.92-106.92-73.38Z"/>
      <path class="cls-31" d="M1002.26,1571.16c5.47-87.58,10.62-175.8,15.43-264.65,7.59-140.18,14.19-278.93,19.84-416.22-12.74-19.5-25.5-41.51-37.48-66.16-39.09-80.44-54.5-157.33-60.63-215.33,2.85-4.23,5.71-8.46,8.56-12.69,6.62,44.18,21.21,104.37,55.37,166.67,12.14,22.14,24.98,41.31,37.48,57.74,5.54-133.53,9.65-269.9,12.13-409,3.74-210.55,3.53-415.18,0-613.5,26.45-7.22,52.91-14.44,79.36-21.65-3.14,158.51-2.66,322.22,2.2,490.8,1.47,51.03,3.32,101.55,5.51,151.57,6.71-16.76,16.14-41.95,25.35-73.38,4.65-15.85,11.24-45.27,24.25-103.45,8.07-36.09,19.26-71.52,24.25-108.26,1.58-11.63,3.57-28.84,6.61-28.87,2.99-.03,6.22,16.57,6.61,31.28,.44,16.39-2.68,28.76-3.31,31.28-11.1,44.58-7.7,78.59-35.27,186.46-13.61,53.25-23.29,79.58-34.17,103.45-5.65,12.38-10.8,22.31-14.33,28.87,1.97,121.47,3.81,242.97,5.51,364.49,3.49,249.03,6.43,498.04,8.82,747.02-50.71-8.82-101.41-17.64-152.12-26.46Z"/>
      <path class="cls-31" d="M2477.52,1382.46c-1.14-9.33-2.77-22.93-4.62-39.34-4.85-43.06-12.36-109.74-15.71-173.51-1.58-30.09-1.36-72.52-.92-157.37,.27-52.91,.99-82.81,0-135.18-.69-36.39-1.87-66.19-2.77-85.75,13.71-34.58,27.4-75.07,38.82-121.05,9-36.23,15.18-70.13,19.41-100.88,8.1-12.6,19.39-32.02,29.58-57.5,8.45-21.13,12.62-37.6,20.34-68.6,4.71-18.91,10.75-44.99,16.64-76.67-1.22-.64-3.37-1.54-6.16-1.68-2.73-.14-4.9,.51-6.16,1.01-.74,4.88-1.87,11.98-3.39,20.51-3.36,18.93-7.38,41.54-14.17,64.56-4.6,15.59-12.17,37.13-24.96,61.87,.82-16.23,1.6-29.46,2.16-38.33,2.55-40.88,4.24-55.05,3.7-79.02-.3-13.42-1.18-24.34-1.85-31.27-2.18,.79-6.2,2.61-9.86,6.73-2.64,2.96-4.11,6-4.93,8.07-.42,22.81-1.87,47.82-4.93,74.65-2.46,21.57-5.66,41.68-9.24,60.19-1.51,10.47-3.78,24.8-7.09,41.7-5.63,28.81-11.03,55.82-23.11,87.76-3.99,10.56-9.57,23.94-17.26,39.01-2.82-98.75-3.96-200.7-3.08-305.66,.53-63.72,1.79-126.28,3.7-187.63,10.74-14.93,25.96-38.94,37.9-71.62,10.12-27.7,10.55-41.53,19.41-66.58,7.31-20.67,20.68-49.86,47.14-81.71-8.94-.67-17.87-1.35-26.81-2.02-13.35,16.02-27.53,34.8-41.6,56.49-12.37,19.08-22.74,37.45-31.43,54.47,1.54-47.41,3.08-94.83,4.62-142.24-32.04,1.01-64.09,2.02-96.13,3.03,.65,50.87,.68,102.89,0,156.02-1.02,79.63-3.59,156.8-7.39,231.35-5.72-11.38-13.54-27.46-22.18-47.08-12.77-28.99-21.1-51.55-25.88-64.56-24.23-65.94-37.95-104.34-43.14-118.36-13.92-37.63-36.71-89.81-75.18-150.64-5.75,3.59-11.5,7.17-17.25,10.76,30.68,54.15,52.12,100.43,66.55,134.5,11.39,26.88,20.4,50.85,25.88,65.91,5.5,15.1,10.6,29.92,25.88,78.01,23.9,75.21,28.96,94.17,44.37,139.88,8.31,24.65,15.37,44.45,19.72,56.49,.54,107.04-2.9,194.14-6.16,254.21-3.89,71.51-6.8,91.14-20.95,289.18-6.64,92.89-6.66,97.88-11.09,157.37-8.02,107.72-15.67,195.14-20.95,252.87,60.19-.78,120.37-1.57,180.56-2.35Z"/>
      <path class="cls-31" d="M1563.26-123.27h0c3.63,29.18,6.78,59.81,9.24,91.8,2.2,28.58,3.7,56.19,4.62,82.72-4.29-6-10.29-14.89-16.64-26.23-4.46-7.98-20.98-38.4-31.43-83.73-2.6-11.27-5.57-26.69-7.39-45.4-7.09,1.01-14.17,2.02-21.26,3.03,.11,11.77,.96,29.05,4.62,49.43,6.06,33.78,16.26,56.12,29.58,86.76,10.14,23.32,25.14,58.47,43.45,103.9,3.54,59.86,6.93,119.71,10.17,179.56,3.58,66.22,6.97,132.46,10.17,198.73-10.19-21.82-17.79-40.57-23.11-54.47-15.28-39.96-24.29-72.89-30.5-95.83-4.09-15.08-7.18-27.66-9.24-36.32-3.7,5.04-7.39,10.09-11.09,15.13,2.56,9.03,5.04,18.45,7.4,28.25,3.28,13.63,6.02,26.77,8.32,39.34-5.52-8.66-11.08-17.74-16.64-27.24-6.64-11.36-12.8-22.48-18.49-33.29-4.01,6.39-8.01,12.78-12.02,19.17,9.97,15.28,24.24,37.17,34.2,52.46,5.92,9.09,19.04,29.24,24.96,38.33,6.81,20.66,13.59,41.51,20.34,62.54,5.96,18.59,11.81,37.09,17.56,55.48,2.35,14.23,5.61,35.91,8.32,62.54,3.89,38.23,3.93,60.01,6.47,104.91,2.6,46.03,4.51,57.65,6.47,87.76,4.72,72.61-.94,88.79-.92,179.56,.02,92.32,5.88,98.62,5.55,189.65-.21,56.31-2.63,102.26-4.62,132.15,47.44-1.88,94.89-3.77,142.33-5.65-.32-27.38-1.04-64.04-2.75-107.34-1.31-33.23-3.89-87.83-9.24-156.36-5.41-69.24-7.74-77.1-11.09-128.12-3.69-56.1-4.51-102-4.62-132.15,9.77-21.48,19.14-47.1,25.88-76.67,1.89-8.27,3.44-16.32,4.72-24.1-.35-3.87-1.13-8.79-2.88-14.23-2.28-7.09-5.37-12.48-7.86-16.14-4.53,12.22-9.01,24.83-13.4,37.83-3.58,10.59-6.97,21.02-10.17,31.27-1.2-51.62-3.08-93.92-4.62-123.58-1.44-27.86-3.14-53.92-6.47-104.91-3-45.93-5.59-83.82-7.39-109.96,8.36-33.23,16.4-67.53,24.03-102.9,14.34-66.48,25.88-130.52,35.13-191.67,7.81-8.05,18.57-20.13,29.58-36.32,21.69-31.87,31.53-60.78,42.52-93.82,7.13-21.42,15.52-50.4,22.18-85.75-5.85-4.37-11.71-8.74-17.56-13.11-1.35,18.81-5.04,43.88-14.79,71.62-14.85,42.24-36.9,71.2-51.76,87.76,1.96-23.58,4.91-48.9,9.24-75.66,5.42-33.52,12.17-64.2,19.41-91.8-5.55,1.35-11.09,2.69-16.64,4.04-6.76,23.14-11.89,43.35-15.71,59.52-5.44,23.02-13.44,56.89-19.41,100.88-4.19,30.88-3.34,36.98-8.32,59.52-4.71,21.32-10.09,36.84-16.64,55.48-6.65,18.94-16.21,43.9-29.58,72.63-2.16-132.82-4.31-265.65-6.47-398.47"/>
      <g>
        <path class="cls-39" d="M522.04-155.32c-11.99,49.01-23.19,102.14-32.74,159.11-11.44,68.3-18.89,132.5-23.56,191.62-9.72-27.53-20.57-61.83-30.4-101.93-15.4-62.81-21.88-113.65-24.68-139.45-5.4-49.85-8.86-115.21-3.26-191.86-14.98-.66-29.95-1.32-44.93-1.99-.01,31.03,.62,63.14,2.05,96.27,2.93,68.11,8.83,132,16.55,191.19-35.28-84.3-70.57-168.61-105.85-252.91-9.17,13.76-18.33,27.52-27.5,41.28,7.06,14.9,98.61,208.83,133.34,324.49,8.52,28.39,15.41,54.99,15.41,54.99,14.97,57.83,23,103.67,28.92,137.91,3.31,19.14,7.46,44.7,11.63,75.13-38.34,425.85-76.68,851.69-115.03,1277.54,102.23-14.13,204.47-28.26,306.7-42.39,.86-18.01,1.72-36.02,2.58-54.03,4.66-12.95,11.16-30.28,19.47-50.45,6.74-16.35,25.28-60.3,54.75-115,5.31-9.86,11.63-13.45,11.86-21.51,.62-22.49-34.62-41.89-66.13-55.19,.91-55.17,3.17-139.19,9.56-241.98,7.01-112.66,13.25-155.79,17.28-240.07,3.26-68.18,5.23-166.62-2.19-287.74,25.91-36.87,51.99-75.1,78.15-114.7,30-45.41,58.46-90.17,85.46-134.11-2.93-7.41-5.87-14.82-8.8-22.23-20.68,30.57-41.36,61.13-62.04,91.7,.47-4.88,1.34-12.3,3.06-21.23,4-20.79,9.06-31.5,6.95-32.87-2.12-1.37-10.33,7.48-16.36,18.05-9.37,16.43-9.31,29.76-12.11,43.5-2.95,14.49-11.04,27.87-27.23,54.63-10.1,16.69-24.76,38.32-45.23,61.4,1.31-25.5,3.25-65.56,5.13-114.76,5.3-138.95,3.35-174.49,9.53-253.75,3.19-40.86,8.45-81.11,18.98-161.6,12.99-99.28,25.29-181.42,34.44-239.78-74.61,24.25-149.21,48.49-223.82,72.74Z"/>
        <g class="cls-49">
          <g class="cls-35">
            <path class="cls-13" d="M358.62,327.16c10.21,49.55,23.42,98.48,39.67,146.39,8.08,23.83,16.91,47.42,26.47,70.7,9.29,22.62,20.28,44.83,26.26,68.65,2.91,11.57,4.53,23.56,3.54,35.49s-5.51,23.77-11.1,34.89c-4.77,9.49-9.92,18.97-12.3,29.41-2.53,11.09-1.52,22.51,.72,33.55,2.44,12.03,6.23,23.75,8.58,35.8,2.43,12.52,2.89,25.33,1.78,38.02-2.23,25.39-10.41,49.87-19.76,73.43-8.22,20.71-16.76,41.59-27.35,61.23-9.5,17.61-21.33,34.88-38.02,46.39-3.84,2.65-7.9,4.92-12.15,6.86-.88,.4-.12,1.69,.76,1.3,37.24-16.98,54.67-59.22,69.62-94.55,9.81-23.19,19.39-46.72,24.78-71.4,2.61-11.96,4.21-24.17,4.2-36.42s-1.92-24.29-4.89-36.2-6.76-24.24-7.93-36.76,1.23-24.56,6.47-36.13c4.56-10.07,10.33-19.6,14-30.07,3.85-10.96,4.97-22.65,4.06-34.19-1.89-23.92-11.46-46.5-20.81-68.31-10.19-23.77-19.79-47.77-28.53-72.12-17.29-48.19-31.51-97.47-42.6-147.44-1.4-6.29-2.74-12.6-4.04-18.91-.19-.94-1.64-.54-1.45,.4h0Z"/>
          </g>
          <g class="cls-35">
            <path class="cls-20" d="M399.68,295.79c13.18,44.89,26.37,89.78,39.55,134.68,12.72,43.31,26.39,86.63,33.57,131.28,3.58,22.25,4.46,44.77,7.6,67.07,3.02,21.5,9.82,42.04,14.91,63.08,5.46,22.56,6.74,44.55,2.92,67.48-3.46,20.79-9.57,41.03-13.32,61.76-3.78,20.89-3.56,41.49-1.7,62.57s4.86,44.56,.82,66.54c-7.12,38.79-39.03,64.85-54,100.08-15.72,37-14.84,78.24-24.95,116.71-10.64,40.5-36.38,73.52-57.15,109.1-41.1,70.42-52.25,152.68-59.61,232.55-.94,10.18-1.81,20.36-2.68,30.55-.08,.96,1.42,.96,1.5,0,7.07-82.79,14.28-169.15,52.36-244.51,18.02-35.66,44.05-66.92,59.27-104.05,15.49-37.8,14.88-79.19,25.35-118.26,5.26-19.62,14.26-36.89,25.76-53.53,10.64-15.4,22.28-30.38,29.53-47.79,16.44-39.45,2.26-81.97,3.85-122.9,1.67-42.85,21.96-83.33,18.62-126.61-1.6-20.75-7.99-40.66-13.27-60.66-5.88-22.25-8.26-44.66-10.4-67.52-4.19-44.64-15.41-87.72-27.95-130.65-13.08-44.79-26.29-89.54-39.44-134.3-3.24-11.03-6.48-22.05-9.71-33.08-.27-.92-1.72-.53-1.45,.4h0Z"/>
          </g>
          <g class="cls-35">
            <path class="cls-7" d="M427.08,83.12c45.05,102.34,88.7,206.65,89.72,320.27,.26,28.56-.99,57.15,.9,85.68,1.72,25.94,6.83,51.06,15.33,75.63,16.61,47.98,42.85,93.36,49.16,144.43,7.04,57.01-13.18,112.31-27.59,166.54-14.03,52.8-24.05,106.56-33.16,160.39-18.14,107.22-32.53,215.98-67.78,319.32-32.89,96.42-95.41,189.75-93.88,294.86,.18,12.07,1.36,24.06,3.35,35.96,.16,.95,1.61,.55,1.45-.4-18.17-108.22,44.19-207.03,81.2-304.15,39.03-102.42,55.01-211.53,72.76-319.12,8.9-53.93,18.23-107.86,31.07-161.02,12.76-52.86,33.32-105.29,35.38-160.13,1.95-52.02-19.13-98.55-38.43-145.6-9.6-23.42-18.51-47.27-23.17-72.23-5.41-28.97-5.4-58.57-5.19-87.93,.21-28.76,.28-57.45-3.04-86.06-3.05-26.27-8.28-52.25-15.05-77.8-13.84-52.15-33.98-102.37-55.32-151.84-5.41-12.54-10.9-25.04-16.4-37.54-.39-.88-1.68-.12-1.3,.76h0Z"/>
          </g>
          <g class="cls-35">
            <path class="cls-10" d="M552.63,55.94c21.23,74.06,33.25,150.66,35.93,227.65,1.33,38.29,.37,76.67-2.93,114.84-1.69,19.59-4.13,39.08-6.9,58.54-1.12,7.83-2.1,15.95-.17,23.73,1.73,6.99,5.99,12.74,10.55,18.17,10.85,12.94,19.18,26.44,24.68,42.49s8.25,32.03,10.26,48.4c4.23,34.42,5.65,68.95,11.91,103.14,6.99,38.18,17.48,75.61,29.08,112.61,10.76,34.32,21.98,68.57,33.97,102.48,21.34,60.35,47.07,121.84,91.35,169.23,5.32,5.69,10.9,11.12,16.7,16.31,.72,.64,1.78-.42,1.06-1.06-49.32-44.11-78.31-105.49-101-166.49-12.07-32.44-22.75-65.41-33.43-98.33-11.87-36.58-23.09-73.42-31.39-110.99-4.31-19.53-7.84-39.25-10.22-59.12-1.97-16.44-3.06-32.96-4.59-49.44-2.83-30.51-6.81-62.47-22.2-89.55-3.57-6.28-7.77-12.09-12.44-17.59-5.93-7-11.82-13.92-13.38-23.26-1.69-10.14,.82-20.69,2.21-30.72,1.21-8.74,2.31-17.5,3.27-26.27,4.16-37.76,6.04-75.76,5.64-113.74-.78-75.57-10.49-151.09-29.16-224.34-2.31-9.07-4.77-18.1-7.35-27.09-.27-.93-1.71-.53-1.45,.4h0Z"/>
          </g>
          <g class="cls-35">
            <path class="cls-68" d="M529.41,184.98c-14.91,97.67,15.94,193.5,37.44,287.69,11.54,50.55,19,101.55,22.51,153.28s3.95,101.98,4.61,153,1.47,102.16,5.59,153.08c4.05,50,12.26,99.42,20.84,148.81,8.85,50.92,17.83,101.94,21.7,153.53,1.86,24.77,2.17,49.74,6.38,74.27,3.83,22.32,11.61,43.58,21.9,63.7,10.58,20.68,23.48,40.04,36.63,59.16,11.47,16.68,23.03,33.31,35.49,49.27,23.72,30.4,51.69,60.35,87.84,75.7,8.65,3.67,17.63,6.33,26.86,8.06,.94,.18,1.35-1.27,.4-1.45-40.03-7.49-72.02-34.19-98.16-64.08-13.82-15.81-26.32-32.72-38.39-49.89-12.79-18.19-25.57-36.48-37.06-55.52-11.97-19.83-22.41-40.72-28.94-63.01-7.13-24.37-8.64-49.77-10.1-74.98-2.84-49.22-9.82-97.82-18.12-146.38-8.57-50.11-17.97-100.13-23.31-150.73s-6.81-100.08-7.63-150.21c-1.62-98.64-.46-198.04-19-295.35-18.27-95.88-53.78-190.6-49.73-289.48,.52-12.76,1.77-25.46,3.69-38.08,.14-.94-1.3-1.35-1.45-.4h0Z"/>
          </g>
        </g>
      </g>
      <g>
        <path class="cls-52" d="M1977,1397.26c-4.36-22.2-10.11-55.71-13.87-96.84-5.97-65.5-3.52-113.63-2.77-136.19,3.3-100.19-12.65-136.23-22.18-254.21-8.08-99.99-.77-125.4,1.85-293.56,1.31-83.88,1.5-206.16-4.62-357.11-21.37-29.79-38.73-54.09-50.53-70.61-37.65-52.74-44.35-62.4-59.16-76.67-24.1-23.22-47.01-36.82-66.55-48.42-26.34-15.63-36.74-18.1-71.48-37.66-22.07-12.43-39.5-23.61-50.53-30.94,9.6,.34,19.21,.67,28.81,1.01,8.61,6.02,19.57,12.57,32.82,18.16,17.19,7.25,32.75,10.56,44.83,12.11-14.51-5.33-34.39-14.65-55-31.27-15.42-12.44-26.91-25.47-35.13-36.32,9.24-1.01,18.49-2.02,27.73-3.03,14.49,13.59,27.62,22.03,36.98,27.24,20.97,11.68,31.83,12.06,49.92,25.22,10.15,7.39,14.85,13.17,26.81,26.23,0,0,21.66,23.64,61.01,61.54,14.55,14.01,36.31,33.48,65.63,54.47-3.7-28.25-7.39-56.49-11.09-84.74-9.96-12.49-20.73-25.32-32.35-38.33-14.47-16.19-28.73-30.96-42.52-44.39,13.56-2.35,27.12-4.71,40.67-7.06,10.48,8.78,20.95,17.55,31.43,26.33-1.54-45.43-3.08-90.86-4.62-136.28,51.46-.67,102.91-1.35,154.37-2.02,3.76,47.82,7.76,95.91,12.02,144.26,1.22,13.81,2.45,27.6,3.7,41.36,6.41-8.02,12.98-17.08,19.41-27.24,15.35-24.22,25.51-47.7,32.35-67.59,7.09,.67,14.17,1.35,21.26,2.02-4.49,23.04-11.17,49.37-21.26,77.68-14.63,41.02-32.21,74.34-48.07,99.87,6.28,35.91,15.2,92.29,22.18,162.41,4.11,41.24,4.66,58.32,12.02,166.45,6.51,95.69,9.76,143.53,12.94,178.55,7.07,77.81,13.54,117.64,24.96,203.77,8.83,66.62,20.87,162.88,33.28,282.46,16.64,109.62,33.28,219.24,49.92,328.86-85.04-19.84-170.08-39.68-255.13-59.52Z"/>
        <g class="cls-32">
          <g class="cls-35">
            <path class="cls-3" d="M2122.03,577.47c-9.09-1.1-17.35,3.97-22.84,10.89-6.46,8.13-9.19,18.24-8.91,28.52,.66,24.6,15.71,45.19,23.76,67.63,2.05,5.7,3.66,11.58,4.45,17.59,.86,6.49,.77,13.07,.48,19.6-.28,6.45-.75,12.89-.74,19.35,.01,5.72,.38,11.43,1.06,17.11,2.68,22.24,10.29,43.55,20.2,63.54,10.13,20.45,22.61,39.63,35.43,58.46,1.56,2.29,3.13,4.59,4.7,6.87,.54,.79,1.84,.04,1.3-.76-12.58-18.32-25.02-36.81-35.54-56.42-10.47-19.51-19.05-40.24-23.12-62.09-2.09-11.24-2.84-22.63-2.39-34.05,.49-12.41,1.72-24.86-.82-37.13-4.83-23.28-19.9-42.82-25.39-65.89-2.61-10.95-3.04-22.89,1.75-33.31,3.82-8.31,10.8-16.22,20.09-18.16,2.15-.45,4.33-.49,6.51-.23,.96,.12,.95-1.39,0-1.5h0Z"/>
          </g>
          <g class="cls-35">
            <path class="cls-64" d="M2179.27,395.95c-13.8-3.58-24.81,9.06-31.89,19.14-8.45,12.03-15.39,25.05-21.73,38.3-13.02,27.18-23.56,55.76-39.96,81.2-8.36,12.97-18.73,23.89-29.09,35.23-9.87,10.79-18.55,22.45-22.62,36.69-8.74,30.57,1.31,62.52,13.73,90.5,7.06,15.91,15.03,31.43,21.26,47.71,6.16,16.1,10.71,32.8,13.64,49.79,3.06,17.71,4.26,35.67,3.83,53.63-.45,18.55-2.4,37.02-3.97,55.49-2.78,32.59-4.39,66.32,5.4,97.98,4.19,13.56,10.46,27.43,20.29,37.87,11.12,11.81,25.87,13.65,41.1,16.27,34.88,6,69.27,14.79,102.77,26.2,30.13,10.26,62.34,24.15,75.23,55.69,2.86,6.99,4.42,14.37,4.58,21.92,.02,.96,1.52,.97,1.5,0-.62-29.21-21.57-52.11-46.3-65.02-14.05-7.34-29.26-12.38-44.3-17.25-16.39-5.31-32.98-9.99-49.72-14.03-16.87-4.07-33.88-7.42-51-10.22-8.01-1.31-16.22-2.75-23.32-6.91-6.65-3.9-11.89-9.81-16.12-16.17-17.86-26.87-21.39-61.04-20.67-92.51,.82-35.75,7.26-71.21,5.94-107.03-1.21-33.01-8.53-65.62-21.45-96.01-13-30.57-30.68-60.05-33.67-93.81-1.42-16.03,.45-32.65,8.06-47.03,7.18-13.58,18.53-24.16,28.73-35.41,19.54-21.56,32.05-47.74,43.83-74.06,6.07-13.57,12.02-27.2,18.82-40.42,6.68-12.97,14.06-27,24.39-37.46,5.9-5.97,13.63-11.04,22.34-8.78,.93,.24,1.33-1.2,.4-1.45h0Z"/>
          </g>
          <g class="cls-35">
            <path class="cls-8" d="M2103.09,149.67c-28.17,24.78-55.02,51.4-76.65,82.2-22.9,32.6-37.61,69.27-48.68,107.35-11.68,40.17-21.83,81.18-30.14,122.17-8.2,40.48-12.94,81.62-9.83,122.92,5.64,74.84,32.42,145.74,53.97,216.98,10.92,36.1,20.73,72.71,25.69,110.16,2.46,18.54,3.71,37.24,3.33,55.94-.4,19.85-3.27,39.41-5.57,59.1-2.25,19.31-3.77,39.1,.1,58.31,3.92,19.49,14.98,35.35,23.58,52.89,17.72,36.14,18.51,77.63,16.3,117.01-.56,9.95-1.33,19.88-2.13,29.81-.08,.96,1.42,.96,1.5,0,3.05-38,6.05-77.12-2.74-114.6-4.27-18.22-12.11-34.22-21.09-50.51-10.51-19.05-16.21-38.04-16.28-59.91-.06-20.47,3.42-40.73,5.69-61.02,2.06-18.44,2.69-36.94,1.74-55.48-1.86-36.39-9.24-72.25-18.69-107.36-19.41-72.06-47.83-141.89-59.68-215.86-6.48-40.45-6.6-81.01-.82-121.56,6-42.08,16.79-83.4,27.3-124.53,10.05-39.38,21.33-79.01,41.17-114.73,18.78-33.81,44.49-63.13,72.47-89.6,6.71-6.35,13.57-12.54,20.51-18.64,.73-.64-.34-1.7-1.06-1.06h0Z"/>
          </g>
        </g>
      </g>
    </g>
    <path class="cls-6" d="M785.68,1797.89c-79.15-4.17-140.19-68.94-142.4-142.37-1.82-60.77,36.91-118.97,96.63-142.37-33.24-22.01-47.98-62.2-37.29-96.09,11.4-36.17,46.66-48.94,50.86-50.39-.8-5.22-2.99-23.54,7.91-38.67,13.63-18.91,42.31-25.33,68.94-12.89,11.6-13.83,28.54-20.57,42.95-16.4,20.65,5.98,35.4,34.18,25.99,63.28,.25-.94,4.35-15.6,18.08-19.92,11-3.46,23.45,1.2,30.51,11.72-1.3-2.21-11.3-19.79-4.52-35.15,7.57-17.16,33.92-26.65,59.9-14.06,18.15-21.94,44.74-32.53,66.68-25.78,31.5,9.69,53.64,55.2,36.16,100.77,3.95-.32,13.96-.56,23.73,5.86,17.32,11.37,18.05,33.23,18.08,35.15-7.58-17.46-5.98-37.43,4.52-51.56,13.73-18.47,40.69-24.23,63.29-11.72,.53-4.12,3.8-26.32,22.6-39.84,18.3-13.16,43.91-12.79,64.42,1.17-2.64-2.7-26.9-28.3-21.47-60.93,5.45-32.76,38.63-59.41,79.11-57.42-1.57-2.24-19.22-28.11-10.17-50.39,9.71-23.89,47.9-38.16,85.89-18.75,9.56-19.81,29.87-30.6,48.6-26.95,22.93,4.47,40.02,29.92,35.03,57.42,14.59-12.47,33.76-16.87,50.01-10.55,22.66,8.82,36.8,37.41,29.67,66.79,2.3-3.76,22.41-35.44,57.64-37.79,34.05-2.27,68.01,23.82,78.83,64.15,2.49,1.71,29.36,20.8,29.66,52.73,.29,29.8-22.67,58.15-55.94,65.03,28.37-3.41,50.78,18.96,50.86,40.43,.07,22.06-23.44,45.07-52.55,40.43,7.02-4.98,28.51-18.8,54.25-14.06,34.17,6.28,62.34,42.76,64.42,89.64,43.3,17.06,59.88,42.62,66.11,54.49,32.89,62.63-.53,166.62-94.93,242.56-11.66,18.23-83.02,125.94-213.59,144.13-124.39,17.33-252-53.62-318.69-179.28-70.68,134.56-207.85,199.42-322.09,165.22-101-30.23-148.2-127.16-157.65-147.64Z"/>
    <path class="cls-63" d="M717.36,1807.16c79.15-4.17,140.19-68.94,142.4-142.37,1.82-60.77-36.91-118.97-96.63-142.37,33.24-22.01,47.98-62.2,37.29-96.09-11.4-36.17-46.66-48.94-50.86-50.39,.8-5.22,2.99-23.54-7.91-38.67-13.63-18.91-42.31-25.33-68.94-12.89-11.6-13.83-28.54-20.57-42.95-16.4-20.65,5.98-35.4,34.18-25.99,63.28-.25-.94-4.35-15.6-18.08-19.92-11-3.46-23.45,1.2-30.51,11.72,1.3-2.21,11.3-19.79,4.52-35.15-7.57-17.16-33.92-26.65-59.9-14.06-18.15-21.94-44.74-32.53-66.68-25.78-31.5,9.69-53.64,55.2-36.16,100.77-3.95-.32-13.96-.56-23.73,5.86-17.32,11.37-18.05,33.23-18.08,35.15,7.58-17.46,5.98-37.43-4.52-51.56-13.73-18.47-40.69-24.23-63.29-11.72-.53-4.12-3.8-26.32-22.6-39.84-18.3-13.16-43.91-12.79-64.42,1.17,2.64-2.7,26.9-28.3,21.47-60.93-5.45-32.76-38.63-59.41-79.11-57.42,1.57-2.24,19.22-28.11,10.17-50.39-9.71-23.89-47.9-38.16-85.89-18.75-9.56-19.81-29.87-30.6-48.6-26.95-22.93,4.47-40.02,29.92-35.03,57.42-14.59-12.47-33.76-16.87-50.01-10.55-22.66,8.82-36.8,37.41-29.67,66.79-2.3-3.76-22.41-35.44-57.64-37.79-34.05-2.27-68.01,23.82-78.83,64.15-2.49,1.71-29.36,20.8-29.66,52.73-.29,29.8,22.67,58.15,55.94,65.03-28.37-3.41-50.78,18.96-50.86,40.43-.07,22.06,23.44,45.07,52.55,40.43-7.02-4.98-28.51-18.8-54.25-14.06-34.17,6.28-62.34,42.76-64.42,89.64-43.3,17.06-59.88,42.62-66.11,54.49-32.89,62.63,.53,166.62,94.93,242.56,11.66,18.23,83.02,125.94,213.59,144.13,124.39,17.33,252-53.62,318.69-179.28,70.68,134.56,207.85,199.42,322.09,165.22,101-30.23,148.2-127.16,157.65-147.64Z"/>
    <path class="cls-36" d="M57.85,1718.16c-238.41-4.78-476.83-9.56-715.24-14.34-186.26-108.66-372.52-217.33-558.78-325.99,983.17,50.28,1965,57.6,2945.51,21.97,373.35-13.57,746.52-33.36,1119.51-59.39-5.18,104.64-10.37,209.28-15.55,313.92-925.15,21.28-1850.3,42.55-2775.45,63.83Z"/>
    <g>
      <g>
        <g>
          <path class="cls-22" d="M2085.22,1376.65c20.62-16.27,48.02-36.94,81.13-59.34,57.59-38.98,86.39-58.47,121.7-71.21,37.07-13.38,51.04-10.83,94.17-30.52,12.38-5.65,33.56-15.43,57.95-32.22,23.65-16.27,74.56-51.3,102.86-110.21,8.01-16.67,13.17-53.16,23.18-125.47,15.17-109.61,22.88-165.64,28.98-225.51,7.26-71.23,7.41-89.29,7.24-101.73-.49-37.34-1.19-90.9-20.28-142.43-14.55-39.27-31.21-54.22-101.41-130.56-91.86-99.89-69.61-81.11-115.9-128.86-49.38-50.94-112.6-111.41-189.79-174.64,69.54-5.65,139.08-11.3,208.62-16.96,44.21,30.94,96.19,73.28,149.22,130.56,40.84,44.11,73.78,87.85,99.97,127.17,5.31-104.56,10.62-209.12,15.94-313.68,65.19,11.3,130.39,22.61,195.58,33.91-8.69,478.71-17.39,957.43-26.08,1436.14-244.36-21.48-488.72-42.95-733.08-64.43Z"/>
          <g class="cls-56">
            <g class="cls-35">
              <path class="cls-65" d="M2578.89,660.89c17.29,24.56,32.66,50.76,42.48,79.26,9.68,28.12,13.75,58.36,9.58,87.93-1.98,14.03-5.85,27.9-12.2,40.6-6.65,13.3-16.78,24.59-22.75,38.25-6.15,14.05-7.41,29.55-11.03,44.31-3.3,13.44-8.23,26.49-14.73,38.72-12,22.58-29.52,42.85-51.86,55.66-2.55,1.46-5.16,2.82-7.83,4.07-.87,.41-.11,1.71,.76,1.3,22.98-10.83,41.58-29.52,54.87-50.95,7.17-11.57,12.87-24.06,17.02-37.02,4.69-14.65,6.26-29.97,10.4-44.75,2.16-7.7,5.41-14.85,9.58-21.66,4.03-6.59,8.61-12.82,12.6-19.43,7.28-12.06,12.13-25.45,14.98-39.22,5.94-28.75,3.66-58.94-4.41-87.04-8.41-29.28-22.9-56.4-39.83-81.59-2.07-3.09-4.19-6.15-6.33-9.19-.55-.78-1.85-.03-1.3,.76h0Z"/>
            </g>
            <g class="cls-35">
              <path class="cls-40" d="M2497.93,403.04c38.67,1.24,74.67,19.76,101.41,47.19,28.94,29.68,46.48,68.99,53.99,109.44,3.86,20.78,5.08,42.08,3.53,63.17-1.64,22.31-7.69,44.21-7.86,66.64-.08,10.27,1.28,20.5,4.86,30.17,3.44,9.32,8.51,17.88,13.32,26.54,10.33,18.61,16.5,38.24,18.12,59.51,3.23,42.43-8.46,84.68-23.53,123.93-15.45,40.26-34.07,79.77-42.04,122.43-3.68,19.71-4.01,39.5-4.61,59.48-.56,18.62-1.3,38.62-9.73,55.64-4.51,9.1-11.31,16.23-19.8,21.74-7.92,5.14-16.62,9.02-24.2,14.67-14.29,10.65-20.88,27.11-26.11,43.58-6.15,19.35-12,38.36-21.46,56.43-8.93,17.06-19.94,32.97-32.37,47.66-23.9,28.25-52.71,51.83-82.33,73.8-7.11,5.28-14.29,10.47-21.48,15.64-.78,.56-.03,1.86,.76,1.3,60.32-43.39,121.07-91.56,148.25-163.29,7.24-19.1,10.64-40.19,21.23-57.88,5.47-9.14,13.09-15.72,22.18-21.12,7.72-4.58,15.87-8.5,22.85-14.23,13.75-11.29,19.34-28.51,21.7-45.58,2.64-19.1,1.87-38.46,2.96-57.67,2.6-45.65,20.01-88.08,36.88-129.98,15.81-39.28,30.39-79.48,32.6-122.18,1.07-20.58-.84-41.57-7.66-61.12-6.87-19.67-20.85-36.23-26.23-56.44-6.25-23.5-.2-48,3.18-71.44,3.07-21.27,3.5-42.79,1.07-64.14-8.62-75.82-54.98-154.28-133.94-172.14-8.4-1.9-16.94-2.95-25.54-3.22-.97-.03-.96,1.47,0,1.5h0Z"/>
            </g>
            <g class="cls-35">
              <path class="cls-67" d="M2553.54,96.73c38.63,16.16,60.1,57.09,74.05,94.29,17.02,45.39,26.65,94.08,33.41,141.96,3.79,26.83,6.32,53.83,7.62,80.9,1.25,26.04,.68,52.02,.79,78.07,.1,24.46,1.82,48.84,9.75,72.15,7.68,22.56,17.73,43.97,23.61,67.17,23.85,94.08,5.17,192.78-5.87,287.3-5.72,48.93-9.94,98.14-7.24,147.42,2.89,52.77,11.53,105.33,8,158.31-6.5,97.25-48.23,186.98-93.37,271.78-5.38,10.1-10.81,20.16-16.27,30.22-.46,.85,.83,1.61,1.3,.76,45.68-84.26,91.36-171.35,105.94-267.24,7.86-51.65,3.47-102.86-1.13-154.58-4.61-51.8-4.33-102.77,.78-154.52,9.51-96.25,31.07-194.53,15.24-291.28-3.91-23.91-10.47-47.11-19.45-69.6-4.57-11.44-9.41-22.82-12.78-34.69-3.72-13.13-5.53-26.7-6.35-40.31-1.59-26.23-.05-52.56-.66-78.81s-2.5-54.34-5.63-81.35c-5.74-49.58-14.97-99.56-30.36-147.11-11.79-36.42-28.65-75.87-59.79-99.96-6.52-5.04-13.6-9.12-21.2-12.3-.89-.37-1.28,1.08-.4,1.45h0Z"/>
            </g>
          </g>
        </g>
        <path class="cls-1" d="M2505.57,617.99c-.35,2.66-1.59,9.25-6.86,14.45-6.76,6.66-17.39,8.32-27.2,4.34-6.87,7.1-16.33,8.97-21.98,5.42-7.34-4.61-10.07-19.48-.61-30.76-5.07-3.9-8.51-9.6-7.76-14.81,1.13-7.88,11.92-15.31,25.11-11.93-2.37-6.59-1.14-13.79,3.14-18.45,5.67-6.17,16.31-7.48,22.51-1.06,4.93,5.11,5.75,13.77,1.56,20.59,19.57-2.84,33.58,4.72,34.53,11.94,.85,6.48-8.45,15.54-22.44,20.27Z"/>
        <path class="cls-59" d="M2539.52,553.24c-4.21,9.57-13.9,14.86-23.02,13.02-7.34-1.48-13.38-7.38-15.7-15.19-2.38,1.47-10.92,6.36-21.98,4.34-1.61-.29-15.25-3.03-21.98-16.28-1.29-2.54-6.45-12.69-2.09-22.79,4.1-9.51,15.09-15.34,27.21-14.11,.28-8.47,6.95-15.14,14.65-15.19,7.04-.05,13.37,5.43,14.65,13.02-3.39-4.42-2.36-10.74,1.57-13.56,4.1-2.94,10.48-1.45,13.08,3.8-1.89-1.35-9.25-6.95-11.51-17.36-2.13-9.82,1.22-19.59,6.28-24.96,9.82-10.42,31.69-10.2,49.79,5.45,5.92-7.69,14.93-11.44,22.41-9.25,10.59,3.09,18.14,18.07,12.56,33.09,7-4,15.22-4.07,21.45,0,5.34,3.49,7.42,8.85,8.08,10.85,.97-.89,12.59-11.13,28.02-7.05,14.74,3.9,20.36,17.53,20.93,18.99,4.41-4.15,10.77-4.99,15.7-2.17,6.45,3.7,6.79,11.57,6.8,11.93,6.67-.85,12.9,1.87,15.17,6.51,3.17,6.46-.88,17.5-11.51,21.16,5.63,10.17,1.3,22.64-7.33,26.58-8.84,4.05-20.96-1.42-24.07-13.02-5.22,5.38-12.92,7.27-19.88,4.88-7.08-2.43-12.22-8.89-13.19-16.58-1.35,2.3-9.81,16.2-26.57,19.29-10.9,2.01-19.61-1.61-23.02-3.26-1.5,3.13-6.53,12.64-16.74,16.28-13.32,4.74-30.17-2.39-39.76-18.45Z"/>
        <path class="cls-28" d="M2646.25,435.52c8.32,10.61,23.37,11.26,31.74,2.71,8.35-8.52,7.29-23.36-.35-30.92-5.49-5.43-12.77-5.53-14.94-5.48,1.64-6.95-.55-14.21-5.64-18.58-6.02-5.16-15.05-5.41-21.8-.36-6.29-2.88-13.26-3.14-17.27,.36-5.88,5.14-6.22,19.12,4.19,29.48-9.36,4.63-13.56,14.86-10.81,22.6,2.7,7.59,11.23,10.43,17.09,10.49,11.09,.12,17.36-9.61,17.79-10.31Z"/>
        <path class="cls-2" d="M2533.24,410.74c-.62-.9-7.06-10.67-3.14-21.34,3.15-8.57,12.6-16.65,21.98-13.74,6.61,2.05,11.48,9.03,12.21,17.36,1.2-.21,9.91-1.62,16.74,4.7,.95,.88,7.66,7.29,6.28,15.91-.58,3.61-2.35,6.2-3.49,7.6,.52,1.45,2.56,7.66-.35,12.66-3.67,6.32-14.16,8.84-24.07,3.26-14.12,9.04-29.39,8.44-36.63,.36-5.07-5.66-8.43-17.47-2.79-23.51,4.38-4.69,11.92-3.49,13.26-3.26Z"/>
        <path class="cls-4" d="M2799.38,173.48c-7.48-22.59-29.37-36.53-51.63-33.27-21.1,3.09-37.9,20.95-40.46,43.4-18.28,.1-35.02,10.73-43.25,27.49-7.9,16.08-6.82,35.44,2.79,50.63-18.54-9.16-39.53-1.86-47.44,13.02-9.12,17.17-.43,43.67,22.32,52.08-12.08,5.62-19.31,18.05-18.14,30.38,1.56,16.39,17.66,29.43,33.49,26.04,12.26-2.62,21.76-14.55,22.32-28.93,8.21,8.45,19.95,11.82,30.7,8.68,13.06-3.81,18.67-15.49,19.53-17.36,1.5,3.61,5.84,12.59,15.35,17.36,12.81,6.43,29.74,2.54,41.86-10.13,4.24,3.96,12.41,10.26,23.72,11.57,18.65,2.17,38.06-10.13,48.83-31.1,23.13,3.03,45.09-10.48,53.02-31.83,8.85-23.81-1.69-52.2-25.11-64.38,7.11-21.15,3.59-44.18-9.77-59.31-18.18-20.6-52.24-23.91-78.13-4.34Z"/>
        <path class="cls-16" d="M1976.53-97.77c-48.86,2.58-86.54,42.56-87.9,87.89-1.12,37.51,22.79,73.44,59.65,87.89-20.52,13.58-29.62,38.39-23.02,59.31,7.04,22.32,28.8,30.21,31.39,31.1-.5,3.22-1.85,14.53,4.88,23.87,8.41,11.67,26.12,15.64,42.56,7.96,7.16,8.54,17.62,12.7,26.51,10.13,12.75-3.69,21.85-21.1,16.04-39.06,.15,.58,2.69,9.63,11.16,12.3,6.79,2.14,14.47-.74,18.84-7.23-.8,1.37-6.98,12.22-2.79,21.7,4.67,10.59,20.94,16.45,36.97,8.68,11.2,13.54,27.62,20.08,41.16,15.91,19.45-5.98,33.11-34.08,22.32-62.21,2.44,.2,8.62,.34,14.65-3.62,10.69-7.02,11.14-20.51,11.16-21.7-4.68,10.78-3.69,23.11,2.79,31.83,8.48,11.4,25.12,14.96,39.07,7.23,.33,2.55,2.35,16.25,13.95,24.59,11.29,8.12,27.11,7.89,39.77-.72-1.63,1.67-16.61,17.47-13.26,37.61,3.36,20.22,23.85,36.68,48.83,35.44-.97,1.38-11.87,17.35-6.28,31.1,5.99,14.75,29.57,23.56,53.02,11.57,5.9,12.23,18.44,18.89,30,16.64,14.16-2.76,24.71-18.47,21.63-35.44,9,7.7,20.84,10.42,30.87,6.51,13.99-5.45,22.72-23.09,18.31-41.23,1.42,2.32,13.84,21.88,35.58,23.33,21.02,1.4,41.98-14.7,48.66-39.6,1.54-1.06,18.12-12.84,18.31-32.55,.18-18.39-14-35.9-34.53-40.15,17.51,2.1,31.35-11.7,31.39-24.96,.05-13.62-14.47-27.82-32.44-24.96,4.34,3.08,17.6,11.6,33.49,8.68,21.09-3.88,38.48-26.4,39.77-55.34,26.73-10.53,36.96-26.31,40.81-33.64,20.31-38.66-.33-102.85-58.6-149.73-7.2-11.25-51.25-77.74-131.85-88.97-76.78-10.7-155.56,33.1-196.73,110.67-43.63-83.07-128.31-123.1-198.83-101.99-62.35,18.66-91.49,78.5-97.32,91.14Z"/>
        <path class="cls-23" d="M2503.94-48.04c-28.4,.6-48.91,21.49-49.18,42.5-.26,20.06,18.04,33.42,19.88,34.72-13.46,10.36-15.93,29.38-7.33,41.23,6.93,9.53,20.25,13.35,32.44,8.68,.04,9.32,1.73,24.32,11.51,36.89,17.45,22.42,53.94,28.49,88.95,11.94,.48,3.2,3.32,19.89,16.74,28.21,15.52,9.61,39.31,4.39,54.42-15.19,.46,5.17,2.16,14.99,9.42,22.79,11.67,12.52,32.96,14.73,52.32,4.34,8.72,23.85,21.89,32,27.21,34.72,29.77,15.2,78.63-4.76,111.97-56.42-5.58-70.16-11.16-140.33-16.74-210.49-117.2,5.36-234.4,10.73-351.61,16.09Z"/>
      </g>
      <g>
        <g>
          <path class="cls-43" d="M-672,1376.24c24.59-17.18,57.26-39.02,96.75-62.69,68.68-41.18,103.02-61.77,145.12-75.23,44.2-14.14,60.86-11.44,112.29-32.24,14.77-5.97,40.02-16.31,69.1-34.03,28.21-17.19,88.91-54.19,122.66-116.43,9.55-17.61,15.71-56.17,27.64-132.56,18.09-115.8,27.28-175,34.55-238.24,8.65-75.25,8.83-94.33,8.64-107.48-.58-39.45-1.42-96.03-24.19-150.47-17.35-41.49-37.21-57.28-120.93-137.93-109.54-105.53-83.01-85.69-138.21-136.14-58.88-53.81-134.27-117.7-226.32-184.5,82.93-5.97,165.85-11.94,248.78-17.91C-263.4-16.94-201.42,27.8-138.17,88.3c48.71,46.6,87.98,92.81,119.21,134.35C-12.63,112.19-6.3,1.73,.04-108.74c55.11-4.02,110.22-8.05,165.33-12.07,23.55,306.15,14.78,547.31,2.18,712.12-10.78,141-29.02,287.03-15.14,498.3,9.98,151.76,32.43,274.76,49.75,354.69-291.39-22.69-582.78-45.38-874.17-68.07Z"/>
          <g class="cls-21">
            <g class="cls-35">
              <path class="cls-11" d="M172.68,669.16c-7.54-5-17.39-2.9-23.94,2.77-3.41,2.94-5.98,6.91-7.05,11.3-1.53,6.28,1.11,13.12-1.4,19.18-2.23,5.37-7.89,8.01-12.34,11.23-3.79,2.75-7.22,5.97-10.24,9.55-6.2,7.37-10.65,16.11-13.44,25.3-5.67,18.69-4.74,40.06,4.6,57.44,2.77,5.15,6.58,9.55,9.72,14.46,1.81,2.83,3.21,5.83,4.02,9.1,.88,3.5,1.18,7.1,1.42,10.68,.44,6.45,1.03,12.8,2.56,19.1s3.57,11.92,6.27,17.52,5.91,10.73,9.72,15.53c4.06,5.13,8.85,9.56,13.66,13.97,9.54,8.75,19.45,18.6,21.16,32.11,.39,3.09,.26,6.21-.43,9.24-.21,.94,1.23,1.34,1.45,.4,2.75-12.07-3.15-24.04-11.02-32.88-4.33-4.87-9.29-9.12-14.04-13.57-4.74-4.44-9.12-9.17-12.81-14.53-7-10.18-11.65-21.92-13.71-34.09-1.12-6.62-1.02-13.35-2.01-19.98-.47-3.16-1.26-6.26-2.61-9.16s-3.17-5.55-5.05-8.13c-3.14-4.3-6.15-8.56-8.43-13.38-2.11-4.48-3.67-9.22-4.73-14.05-2.12-9.64-2.24-19.73-.6-29.45s4.94-18.9,10.06-27.17c2.51-4.06,5.46-7.84,8.84-11.21,3.57-3.56,7.64-6.24,11.75-9.1,4.59-3.2,8.11-7.04,8.69-12.83s-1.08-11.91,1.32-17.68c3.42-8.22,12.8-14.33,21.81-12.78,2.18,.38,4.21,1.21,6.05,2.43,.81,.53,1.56-.76,.76-1.3h0Z"/>
            </g>
            <g class="cls-35">
              <path class="cls-53" d="M262.58,484.97c-23.25-2.82-46.69-3.85-70.09-2.93-11.69,.46-23.4,1.32-35,2.79-6.98,.88-14.31,2.4-20.16,6.52-16.86,11.89-2.56,31.24,2.58,45.34,6.4,17.55,7.72,36.87,4.55,55.23-3.12,18.09-10.67,35.64-22.84,49.49-11.92,13.58-27.63,24.1-34.56,41.44-13.96,34.92,7.62,74.98-13.25,108.31-8.46,13.51-21.24,24.76-27.09,39.83-2.52,6.5-3.16,13.56-1.11,20.28,2.5,8.18,8.55,14.3,14.16,20.47,23.02,25.33,20.37,60.5,29.59,91.48,3.99,13.4,10.74,26.04,22.56,34.05,12.52,8.48,27.81,11.06,41.86,15.93,7.38,2.56,14.73,5.82,20.57,11.12,7.24,6.56,10.88,15.46,12.56,24.93,3.91,22.08,2.06,45.19,1.99,67.49s.91,42.87,7.14,63.42c5.07,16.74,13.06,32.41,22.04,47.36,18.36,30.58,41.39,58.91,53.92,92.66,3.11,8.36,5.46,16.97,6.99,25.76,.17,.95,1.61,.55,1.45-.4-6.06-34.81-25.8-64.43-44.88-93.39-9.6-14.57-19.17-29.24-26.97-44.89-8.8-17.65-14.63-36.25-16.76-55.9-2.44-22.57-1.02-45.3-1.18-67.94-.13-17.94,.85-40.51-10.85-55.45-8.55-10.92-22.17-15.37-34.96-19.17-14.87-4.43-30.53-8.64-41.13-20.78-10.29-11.78-14.15-27.67-16.97-42.66s-4.62-31.13-9.45-46.1c-2.25-6.97-5.21-13.77-9.35-19.84-4.79-7.03-11.43-12.53-16.31-19.48-11.29-16.12-3.22-32.36,7.27-46.24,10.06-13.3,21.18-25.69,24.59-42.55,3.56-17.61,.76-35.73,.33-53.49-.23-9.49,.12-19.14,2.66-28.34,2.6-9.45,7.72-17.53,14.27-24.73,6.39-7.02,13.68-13.14,20.12-20.11,5.75-6.22,10.63-13.18,14.54-20.69,15.5-29.86,16.36-66.91,1.79-97.25-4.75-9.89-11.07-22.82-1.41-32,6.38-6.06,15.81-7.54,24.2-8.5,22.98-2.64,46.17-3.43,69.28-2.37,11.14,.51,22.25,1.47,33.33,2.81,.96,.12,.95-1.38,0-1.5h0Z"/>
            </g>
            <g class="cls-35">
              <path class="cls-54" d="M44.45,168.47c15.58,65.71,13.39,135.42-5.71,200.18-4.78,16.19-10.62,32.08-17.54,47.48-6.89,15.31-15.16,29.75-23.5,44.29-8.22,14.32-15.63,29.13-18.31,45.58-2.89,17.66-1.6,35.8-1.13,53.6,1.03,38.98,2.06,77.96,3.09,116.95,1.02,38.57,3.06,77.27,2.82,115.86-.12,18.74-2.39,36.9-8.5,54.67-5.65,16.44-13.17,32.21-17.72,49.02-9.05,33.44-7.56,69.67-25.85,100.21-17.55,29.3-46.79,51.65-74.96,70.07-28.66,18.74-59.46,33.87-90.51,48.16-7.55,3.48-15.13,6.91-22.7,10.34-.88,.4-.12,1.69,.76,1.3,31.62-14.31,63.3-28.71,93.32-46.22,28.82-16.82,57.24-36.64,79.58-61.66,10.66-11.94,19.52-25.42,24.98-40.52,5.96-16.49,8.2-34.01,10.89-51.24,2.75-17.58,6.65-34.45,13.01-51.09,6.33-16.58,13.58-32.92,16.67-50.5s2.69-36.15,2.21-54.24c-.52-19.97-1.05-39.93-1.58-59.9-1.04-39.3-2.07-78.6-3.11-117.9-.52-19.7-1.34-39.41-1.48-59.12-.14-19.3,2.31-37.53,10.57-55.13,7.18-15.3,16.67-29.4,24.41-44.41,7.41-14.35,13.84-29.21,19.28-44.41,22.47-62.69,28.58-131.36,17.52-197.03-1.4-8.29-3.09-16.53-5.03-24.71-.22-.94-1.67-.54-1.45,.4h0Z"/>
            </g>
            <g class="cls-35">
              <path class="cls-62" d="M105.8,199.15c3.45,38.73,6.88,78.56-1.53,116.91-4.25,19.39-12.44,36.6-21.86,53.94-8.87,16.33-15.59,32.4-17.86,50.99-2.48,20.38-2.58,40.81-6.47,61.05-3.65,18.99-9.1,37.57-14.9,55.99-11.46,36.41-24.29,72.69-28.08,110.91-7.92,79.78,18.32,160.17,1.94,239.47-4.01,19.43-11.1,37.95-17.23,56.77-6.03,18.5-10.36,37.11-11.21,56.6s.79,40.67-.13,61-5.1,39.34-14.24,57.33c-17.21,33.87-46.25,60.77-71.96,88.14-29.57,31.47-59.14,62.94-88.72,94.41-7.39,7.87-14.79,15.74-22.18,23.6-.66,.7,.4,1.77,1.06,1.06,29.83-31.74,59.65-63.48,89.48-95.23,14.95-15.91,29.91-31.8,44.84-47.72,11.81-12.59,23.53-25.34,33.73-39.3,10.37-14.21,19.09-29.76,24.06-46.7,5.49-18.69,5.91-38.29,5.64-57.62-.29-21.23-1.32-42.62,2.61-63.61,3.65-19.48,10.77-38.04,16.95-56.79,6.12-18.55,10.59-37.35,12.57-56.81,2.02-19.97,1.85-40.09,.78-60.11-2.15-40.26-7.98-80.32-8.04-120.69-.03-20.35,1.59-40.61,5.57-60.58,3.86-19.32,9.52-38.22,15.46-56.98,11.62-36.66,24.3-73.3,27.42-111.9,1.66-20.52,1.75-41.3,9.5-60.7,7.17-17.93,18.52-33.84,25.47-51.89,13.76-35.7,13.68-74.96,11.15-112.58-.65-9.66-1.49-19.31-2.34-28.95-.08-.95-1.59-.96-1.5,0h0Z"/>
            </g>
          </g>
        </g>
        <g>
          <path class="cls-58" d="M1007.5-268.32c58.26,3.07,103.2,50.75,104.82,104.8,1.34,44.73-27.17,87.58-71.13,104.8,24.47,16.2,35.32,45.78,27.45,70.73-8.39,26.62-34.34,36.03-37.44,37.09,.59,3.84,2.2,17.33-5.82,28.46-10.03,13.92-31.15,18.65-50.75,9.49-8.54,10.18-21.01,15.14-31.61,12.08-15.2-4.4-26.06-25.16-19.13-46.58-.18,.7-3.2,11.48-13.31,14.66-8.1,2.55-17.26-.88-22.46-8.63,.96,1.63,8.32,14.57,3.33,25.88-5.57,12.63-24.97,19.62-44.09,10.35-13.36,16.15-32.93,23.95-49.08,18.98-23.19-7.13-39.48-40.64-26.62-74.18-2.91,.24-10.27,.41-17.47-4.31-12.75-8.37-13.29-24.46-13.31-25.88,5.58,12.85,4.4,27.56-3.33,37.95-10.11,13.6-29.95,17.84-46.59,8.63-.39,3.04-2.8,19.37-16.64,29.33-13.47,9.69-32.32,9.41-47.42-.86,1.94,1.99,19.8,20.84,15.81,44.85-4.01,24.11-28.43,43.74-58.23,42.27,1.16,1.65,14.15,20.69,7.49,37.09-7.15,17.59-35.26,28.09-63.22,13.8-7.04,14.58-21.98,22.53-35.77,19.84-16.88-3.29-29.46-22.02-25.79-42.27-10.74,9.18-24.85,12.42-36.81,7.76-16.68-6.5-27.09-27.54-21.84-49.17-1.7,2.77-16.5,26.09-42.43,27.82-25.06,1.67-50.06-17.53-58.03-47.23-1.83-1.26-21.61-15.31-21.84-38.82-.21-21.93,16.69-42.81,41.18-47.87-20.88,2.51-37.38-13.96-37.44-29.76-.05-16.24,17.26-33.17,38.68-29.76-5.17,3.67-20.98,13.84-39.93,10.35-25.15-4.63-45.89-31.48-47.42-65.99-31.87-12.56-44.08-31.38-48.67-40.11-24.21-46.1,.39-122.65,69.88-178.55,8.59-13.42,61.11-92.71,157.23-106.1,91.56-12.75,185.5,39.47,234.6,131.97,52.03-99.05,153-146.8,237.09-121.62,74.34,22.26,109.09,93.61,116.05,108.68Z"/>
          <path class="cls-45" d="M215.9,356.1c-8.92-26.94-35.02-43.56-61.56-39.68-25.16,3.68-45.19,24.98-48.25,51.75-21.8,.12-41.76,12.79-51.58,32.78-9.42,19.17-8.13,42.26,3.33,60.38-22.1-10.92-47.14-2.22-56.57,15.53-10.88,20.47-.51,52.08,26.62,62.1-14.41,6.71-23.02,21.53-21.63,36.23,1.86,19.54,21.06,35.09,39.93,31.05,14.62-3.13,25.95-17.35,26.62-34.5,9.79,10.08,23.8,14.09,36.6,10.35,15.57-4.55,22.27-18.47,23.29-20.7,1.79,4.3,6.97,15.02,18.3,20.7,15.28,7.67,35.47,3.03,49.91-12.08,5.06,4.72,14.8,12.23,28.28,13.8,22.24,2.59,45.38-12.08,58.23-37.09,27.58,3.61,53.77-12.49,63.22-37.95,10.55-28.4-2.01-62.24-29.95-76.77,8.48-25.22,4.28-52.68-11.65-70.73-21.68-24.57-62.29-28.51-93.17-5.18Z"/>
          <path class="cls-30" d="M346.35-79.36c58.26,3.07,103.2,50.75,104.82,104.8,1.34,44.73-27.17,87.58-71.13,104.8,24.47,16.2,35.32,45.78,27.45,70.73-8.39,26.62-34.34,36.03-37.44,37.09,.59,3.84,2.2,17.33-5.82,28.46-10.03,13.92-31.15,18.65-50.75,9.49-8.54,10.18-21.01,15.14-31.61,12.08-15.2-4.4-26.06-25.16-19.13-46.58-.18,.7-3.2,11.48-13.31,14.66-8.1,2.55-17.26-.88-22.46-8.63,.96,1.63,8.32,14.57,3.33,25.88-5.57,12.63-24.97,19.62-44.09,10.35-13.36,16.15-32.93,23.95-49.08,18.98-23.19-7.13-39.48-40.64-26.62-74.18-2.91,.24-10.27,.41-17.47-4.31-12.75-8.37-13.29-24.46-13.31-25.88,5.58,12.85,4.4,27.56-3.33,37.95-10.11,13.6-29.95,17.84-46.59,8.63-.39,3.04-2.8,19.37-16.64,29.33-13.47,9.69-32.32,9.41-47.42-.86,1.94,1.99,19.8,20.84,15.81,44.85-4.01,24.11-28.43,43.74-58.23,42.27,1.16,1.65,14.15,20.69,7.49,37.09-7.15,17.59-35.26,28.09-63.22,13.8-7.04,14.58-21.98,22.53-35.77,19.84-16.88-3.29-29.46-22.02-25.79-42.27-10.74,9.18-24.85,12.42-36.81,7.76-16.68-6.5-27.09-27.54-21.84-49.17-1.7,2.77-16.5,26.09-42.43,27.82-25.06,1.67-50.06-17.53-58.03-47.23-1.83-1.26-21.61-15.31-21.84-38.82-.21-21.93,16.69-42.81,41.18-47.87-20.88,2.51-37.38-13.96-37.44-29.76-.05-16.24,17.26-33.17,38.68-29.76-5.17,3.67-20.98,13.84-39.93,10.35-25.15-4.63-45.89-31.48-47.42-65.99-31.87-12.56-44.08-31.38-48.67-40.11-24.21-46.1,.39-122.65,69.88-178.55,8.59-13.42,61.11-92.71,157.23-106.1C-149.83-211.15-55.89-158.92-6.79-66.42c52.03-99.05,153-146.8,237.09-121.62,74.34,22.26,109.09,93.61,116.05,108.68Z"/>
          <path class="cls-44" d="M-52.79-32.31C-18.93-31.6,5.54-6.68,5.86,18.36c.31,23.92-21.51,39.85-23.71,41.4C-1.8,72.12,1.14,94.81-9.12,108.93c-8.26,11.37-24.14,15.92-38.68,10.35-.05,11.12-2.07,29-13.73,43.99-20.81,26.74-64.32,33.97-106.07,14.23-.58,3.81-3.96,23.72-19.97,33.64-18.5,11.46-46.87,5.23-64.89-18.11-.55,6.17-2.57,17.88-11.23,27.17-13.91,14.93-39.31,17.56-62.39,5.18-10.4,28.44-26.1,38.16-32.44,41.4-35.5,18.13-93.76-5.67-133.52-67.28,6.66-83.67,13.31-167.34,19.97-251.01,139.76,6.4,279.52,12.79,419.28,19.19Z"/>
        </g>
      </g>
    </g>
    <path class="cls-48" d="M1320.63,1636.22c385.02-48.4,770.03-96.81,1155.05-145.21-133.46,.24-266.92,.47-400.38,.71-121.15-15.79-242.3-31.58-363.45-47.37,171.23-45.82,388.49-87.03,641.38-95.45,274.67-9.14,510.64,23.08,693.3,62.49-5.18,104.64-10.37,209.28-15.55,313.92-570.12-29.69-1140.24-59.39-1710.36-89.08Z"/>
    <g>
      <path class="cls-18" d="M2138.66,909.12c-10.2-13.44-20.4-26.87-30.61-40.31-.98-1.29-3.35-2.24-3.57-.59,14.87,18.65,28.39,38.59,40.38,59.56l-6.21-18.67Z"/>
      <path class="cls-18" d="M2558.81,904.87c10.2-13.44,20.4-26.87,30.61-40.31,.98-1.29,3.35-2.24,3.57-.59-14.87,18.65-28.39,38.59-40.38,59.56l6.21-18.67Z"/>
      <path class="cls-18" d="M2563.4,899.76c-23.42,19-54.3,41.97-77.72,60.97-6.14,4.98-12.33,9.99-19.31,13.41-10.66,5.21-19.63,6.43-22.14,6.82-25.44,3.89-50.46,23.32-79.89,31.01-54.75,14.31-110.56-15.72-145.11-34.3-9.59-5.16-16.58-9.71-18.73-11.12-30.55-20.06-51.19-43.39-63.83-60.04-.3,1.72-.6,3.44-.9,5.15,24.35,28.79,46.77,55.05,69.02,81.17,8.19,9.61,18.2,21.42,34.66,32.35,14.09,9.35,29.99,14.84,45.72,20.24,22.16,7.61,44.32,15.22,66.48,22.83,13.56,4.66,27.58,9.37,41.72,7.84,18.66-2.02,34.82-14.57,49.35-27.5,26.45-23.53,50.85-49.81,72.77-78.36l47.89-70.47Z"/>
      <path class="cls-15" d="M2563.46,899.65c-6.9,8.34-17.51,20.65-31.27,34.6-43.89,44.49-93.94,95.23-163.44,101.81-7.11,.67-35.68,2.9-70.43-7.67-25.19-7.66-42-18.5-64.66-33.12-13.2-8.51-38.59-25.98-66.86-53.76-17.29-17-30.71-32.98-40.45-45.57,13.68,28.44,28.69,56.13,44.95,82.9,13.34,21.97,28.28,38.71,35.06,46.24,40.85,45.38,141.49,90.48,236.27,43.98,97.38-47.77,120.34-158.74,122.6-170.59l-1.76,1.19Z"/>
      <path class="cls-18" d="M2323.86,1044c4.89,2.14,11.9,4.83,20.58,6.81,7.83,1.79,23.54,5.22,43.19,1.29,7.25-1.45,17.93-4.48,29.86-11.42-9.77,4.25-24.06,9.06-41.76,10.36-22.49,1.65-40.7-3.09-51.88-7.04Z"/>
      <path class="cls-18" d="M2257.58,1035.06c5.84,6,13.78,12.87,24.06,18.77,22.6,12.97,44.1,14.12,55.8,13.73-11.99-1.58-27.64-4.95-44.94-12.41-14.37-6.19-26.03-13.54-34.92-20.09Z"/>
      <path class="cls-18" d="M1934.91,854.23c27.14,9.29,73.11,20.95,129.78,15.56,34.94-3.32,63.72-12.15,84.74-20.53,.43,3.26,.86,6.52,1.29,9.78-21.13,7.5-48.23,14.78-80.23,17.87-57.87,5.59-105.44-5.07-135.25-14.47-.11-2.73-.22-5.47-.32-8.2Z"/>
      <path class="cls-18" d="M2578.48,858.44c9.1,1.66,18.55,3.1,28.34,4.24,49.06,5.73,93.36,2.6,130.66-3.85v17.19c-24.55,5.05-55.3,9.14-90.73,8.79-26.86-.26-50.76-3.03-70.96-6.62,.9-6.58,1.79-13.17,2.69-19.75Z"/>
    </g>
    <path class="cls-60" d="M1831.5-192.63c48.86,2.58,86.54,42.56,87.9,87.89,1.12,37.51-22.79,73.44-59.65,87.89,20.52,13.58,29.62,38.39,23.02,59.31-7.04,22.32-28.8,30.21-31.39,31.1,.5,3.22,1.85,14.53-4.88,23.87-8.41,11.67-26.12,15.64-42.56,7.96-7.16,8.54-17.62,12.7-26.51,10.13-12.75-3.69-21.85-21.1-16.04-39.06-.15,.58-2.69,9.63-11.16,12.3-6.79,2.14-14.47-.74-18.84-7.23,.8,1.37,6.98,12.22,2.79,21.7-4.67,10.59-20.94,16.45-36.97,8.68-11.2,13.54-27.62,20.08-41.16,15.91-19.45-5.98-33.11-34.08-22.32-62.21-2.44,.2-8.62,.34-14.65-3.62-10.69-7.02-11.14-20.51-11.16-21.7,4.68,10.78,3.69,23.11-2.79,31.83-8.48,11.4-25.12,14.96-39.07,7.23-.33,2.55-2.35,16.25-13.95,24.59-11.29,8.12-27.11,7.89-39.77-.72,1.63,1.67,16.61,17.47,13.26,37.61-3.36,20.22-23.85,36.68-48.83,35.44,.97,1.38,11.87,17.35,6.28,31.1-5.99,14.75-29.57,23.56-53.02,11.57-5.9,12.23-18.44,18.89-30,16.64-14.16-2.76-24.71-18.47-21.63-35.44-9,7.7-20.84,10.42-30.87,6.51-13.99-5.45-22.72-23.09-18.31-41.23-1.42,2.32-13.84,21.88-35.58,23.33-21.02,1.4-41.98-14.7-48.66-39.6-1.54-1.06-18.12-12.84-18.31-32.55-.18-18.39,14-35.9,34.53-40.15-17.51,2.1-31.35-11.7-31.39-24.96-.05-13.62,14.47-27.82,32.44-24.96-4.34,3.08-17.6,11.6-33.49,8.68-21.09-3.88-38.48-26.4-39.77-55.34-26.73-10.53-36.96-26.31-40.81-33.64-20.31-38.66,.33-102.85,58.6-149.73,7.2-11.25,51.25-77.74,131.85-88.97,76.78-10.7,155.56,33.1,196.73,110.67,43.63-83.07,128.31-123.1,198.83-101.99,62.35,18.66,91.49,78.5,97.32,91.14Z"/>
    <path class="cls-50" d="M2131.72,1715.11c-58.26-3.07-103.2-50.75-104.82-104.8-1.34-44.73,27.17-87.58,71.13-104.8-24.47-16.2-35.32-45.78-27.45-70.73,8.39-26.62,34.34-36.03,37.44-37.09-.59-3.84-2.2-17.33,5.82-28.46,10.03-13.92,31.15-18.65,50.75-9.49,8.54-10.18,21.01-15.14,31.61-12.08,15.2,4.4,26.06,25.16,19.13,46.58,.18-.7,3.2-11.48,13.31-14.66,8.1-2.55,17.26,.88,22.46,8.63-.96-1.63-8.32-14.57-3.33-25.88,5.57-12.63,24.97-19.62,44.09-10.35,13.36-16.15,32.93-23.95,49.08-18.98,23.19,7.13,39.48,40.64,26.62,74.18,2.91-.24,10.27-.41,17.47,4.31,12.75,8.37,13.29,24.46,13.31,25.88-5.58-12.85-4.4-27.56,3.33-37.95,10.11-13.6,29.95-17.84,46.59-8.63,.39-3.04,2.8-19.37,16.64-29.33,13.47-9.69,32.32-9.41,47.42,.86-1.94-1.99-19.8-20.84-15.81-44.85,4.01-24.11,28.43-43.74,58.23-42.27-1.16-1.65-14.15-20.69-7.49-37.09,7.15-17.59,35.26-28.09,63.22-13.8,7.04-14.58,21.98-22.53,35.77-19.84,16.88,3.29,29.46,22.02,25.79,42.27,10.74-9.18,24.85-12.42,36.81-7.76,16.68,6.5,27.09,27.54,21.84,49.17,1.7-2.77,16.5-26.09,42.43-27.82,25.06-1.67,50.06,17.53,58.03,47.23,1.83,1.26,21.61,15.31,21.84,38.82,.21,21.93-16.69,42.81-41.18,47.87,20.88-2.51,37.38,13.96,37.44,29.76,.05,16.24-17.26,33.17-38.68,29.76,5.17-3.67,20.98-13.84,39.93-10.35,25.15,4.63,45.89,31.48,47.42,65.99,31.87,12.56,44.08,31.38,48.67,40.11,24.21,46.1-.39,122.65-69.88,178.55-8.59,13.42-61.11,92.71-157.23,106.1-91.56,12.75-185.5-39.47-234.6-131.97-52.03,99.05-153,146.8-237.09,121.62-74.34-22.26-109.09-93.61-116.05-108.68Z"/>
    <path class="cls-27" d="M1914.04,1824.43c-58.26-3.07-103.2-50.75-104.82-104.8-1.34-44.73,27.17-87.58,71.13-104.8-24.47-16.2-35.32-45.78-27.45-70.73,8.39-26.62,34.34-36.03,37.44-37.09-.59-3.84-2.2-17.33,5.82-28.46,10.03-13.92,31.15-18.65,50.75-9.49,8.54-10.18,21.01-15.14,31.61-12.08,15.2,4.4,26.06,25.16,19.13,46.58,.18-.7,3.2-11.48,13.31-14.66,8.1-2.55,17.26,.88,22.46,8.63-.96-1.63-8.32-14.57-3.33-25.88,5.57-12.63,24.97-19.62,44.09-10.35,13.36-16.15,32.93-23.95,49.08-18.98,23.19,7.13,39.48,40.64,26.62,74.18,2.91-.24,10.27-.41,17.47,4.31,12.75,8.37,13.29,24.46,13.31,25.88-5.58-12.85-4.4-27.56,3.33-37.95,10.11-13.6,29.95-17.84,46.59-8.63,.39-3.04,2.8-19.37,16.64-29.33,13.47-9.69,32.32-9.41,47.42,.86-1.94-1.99-19.8-20.84-15.81-44.85,4.01-24.11,28.43-43.74,58.23-42.27-1.16-1.65-14.15-20.69-7.49-37.09,7.15-17.59,35.26-28.09,63.22-13.8,7.04-14.58,21.98-22.53,35.77-19.84,16.88,3.29,29.46,22.02,25.79,42.27,10.74-9.18,24.85-12.42,36.81-7.76,16.68,6.5,27.09,27.54,21.84,49.17,1.7-2.77,16.5-26.09,42.43-27.82,25.06-1.67,50.06,17.53,58.03,47.23,1.83,1.26,21.61,15.31,21.84,38.82,.21,21.93-16.69,42.81-41.18,47.87,20.88-2.51,37.38,13.96,37.44,29.76,.05,16.24-17.26,33.17-38.68,29.76,5.17-3.67,20.98-13.84,39.93-10.35,25.15,4.63,45.89,31.48,47.42,65.99,31.87,12.56,44.08,31.38,48.67,40.11,24.21,46.1-.39,122.65-69.88,178.55-8.59,13.42-61.11,92.71-157.23,106.1-91.56,12.75-185.5-39.47-234.6-131.97-52.03,99.05-153,146.8-237.09,121.62-74.34-22.26-109.09-93.61-116.05-108.68Z"/>
    <path class="cls-51" d="M72.44,1594.23c-5.08,41.11,18.25,81.53,54.71,95.94,34.57,13.66,73.36,.93,93.72-31.21,28.07,15.78,61.48,14.09,86.35-4.41,23.86-17.74,36.37-48.34,32.77-79.97,10.84,15.09,25.64,24.41,40.59,27.97,19.54,4.66,36.12-4.05,41.58-6.58,71.89-33.24,221.08-5.51,228.55-40.33,4.65-21.66-48.3-54.54-80.34-67.87-27.31-11.36-51.66-13.61-67.46-13.76-2.02-41.36-28.43-73.23-59.07-77.01-30.39-3.75-52.64,21.65-55.35,24.86-6.4-20.1-21.91-35.48-40.66-40.04-22.78-5.54-39.93,7.45-42.61,9.56,.34-6.83,.26-24.38-10.8-39.96-14.92-21.01-43.69-29.81-71.51-20.96-3.6-9.75-11.5-26.52-27.86-38.39-26.98-19.58-65.69-17.64-97.54,5.08-33.21-24.79-76.71-23.24-104.48,2.54-30.97,28.76-35.61,81.4-8.64,120.47-26.36,26.19-37.81,64.53-28.44,99.34,12.77,47.39,62.5,82.13,116.48,74.73Z"/>
    <path class="cls-24" d="M307.02,1615.12c33.86-.72,58.33-25.63,58.65-50.68,.31-23.92-21.51-39.85-23.71-41.4,16.05-12.36,19-35.04,8.73-49.17-8.26-11.37-24.14-15.92-38.68-10.35-.05-11.12-2.07-29-13.73-43.99-20.81-26.74-64.32-33.97-106.07-14.23-.58-3.81-3.96-23.72-19.97-33.64-18.5-11.46-46.87-5.23-64.89,18.11-.55-6.17-2.57-17.88-11.23-27.17-13.91-14.93-39.31-17.56-62.39-5.18-10.4-28.44-26.1-38.16-32.44-41.4-35.5-18.13-93.76,5.67-133.52,67.28,6.66,83.67,13.31,167.34,19.97,251.01,139.76-6.4,279.52-12.79,419.28-19.19Z"/>
  </g>
</svg>