<?xml version="1.0" encoding="UTF-8"?>
<svg id="_Слой_1" data-name="Слой 1" xmlns="http://www.w3.org/2000/svg" xmlns:xlink="http://www.w3.org/1999/xlink" viewBox="0 0 2229.8 814.68">
  <defs>
    <style>
      .cls-1 {
        fill: url(#_Безымянный_градиент_7);
      }

      .cls-2 {
        fill: url(#_Безымянный_градиент_7-4);
      }

      .cls-3 {
        fill: url(#_Безымянный_градиент_19-6);
      }

      .cls-4 {
        fill: url(#_Безымянный_градиент_7-5);
      }

      .cls-5 {
        fill: url(#_Безымянный_градиент_20-7);
      }

      .cls-6 {
        fill: url(#_Безымянный_градиент_22);
      }

      .cls-7 {
        fill: url(#_Безымянный_градиент_19-3);
      }

      .cls-8 {
        fill: url(#_Безымянный_градиент_19-7);
      }

      .cls-9 {
        fill: url(#_Безымянный_градиент_20-2);
      }

      .cls-10 {
        fill: url(#_Безымянный_градиент_19-4);
      }

      .cls-11 {
        fill: url(#_Безымянный_градиент_17);
      }

      .cls-12 {
        clip-path: url(#clippath-2);
      }

      .cls-13 {
        fill: url(#_Безымянный_градиент_19);
      }

      .cls-14 {
        fill: url(#_Безымянный_градиент_20-11);
      }

      .cls-15 {
        fill: #245021;
      }

      .cls-16 {
        fill: url(#_Безымянный_градиент_7-6);
      }

      .cls-17 {
        fill: #ab9e42;
      }

      .cls-18 {
        fill: #1a3f17;
      }

      .cls-19 {
        fill: #9b903d;
      }

      .cls-20 {
        fill: url(#_Безымянный_градиент_19-2);
      }

      .cls-21 {
        clip-path: url(#clippath-6);
      }

      .cls-22 {
        fill: url(#_Безымянный_градиент_12-2);
      }

      .cls-23 {
        fill: url(#_Безымянный_градиент_7-7);
      }

      .cls-24 {
        fill: url(#_Безымянный_градиент_7-16);
      }

      .cls-25 {
        fill: url(#_Безымянный_градиент_20);
      }

      .cls-26 {
        fill: url(#_Безымянный_градиент_12-3);
      }

      .cls-27 {
        fill: url(#_Безымянный_градиент_7-14);
      }

      .cls-28 {
        fill: url(#_Безымянный_градиент_7-3);
      }

      .cls-29 {
        opacity: .22;
      }

      .cls-30 {
        fill: url(#_Безымянный_градиент_7-10);
      }

      .cls-31 {
        fill: #806337;
      }

      .cls-32 {
        clip-path: url(#clippath-4);
      }

      .cls-33 {
        fill: url(#_Безымянный_градиент_20-4);
      }

      .cls-34 {
        fill: url(#_Безымянный_градиент_7-17);
      }

      .cls-35 {
        fill: url(#_Безымянный_градиент_20-10);
      }

      .cls-36 {
        opacity: .15;
      }

      .cls-37 {
        fill: url(#_Безымянный_градиент_20-12);
      }

      .cls-38 {
        fill: url(#_Безымянный_градиент_20-8);
      }

      .cls-39 {
        fill: url(#_Безымянный_градиент_20-9);
      }

      .cls-40 {
        fill: url(#_Безымянный_градиент_15);
      }

      .cls-41 {
        fill: url(#_Безымянный_градиент_19-9);
      }

      .cls-42 {
        fill: #7e7834;
      }

      .cls-43 {
        clip-path: url(#clippath);
      }

      .cls-44 {
        fill: url(#_Безымянный_градиент_14);
      }

      .cls-45 {
        fill: url(#_Безымянный_градиент_7-11);
      }

      .cls-46 {
        fill: url(#_Безымянный_градиент_7-9);
      }

      .cls-47 {
        fill: url(#_Безымянный_градиент_4);
      }

      .cls-48 {
        fill: none;
      }

      .cls-49 {
        fill: url(#_Безымянный_градиент_20-13);
      }

      .cls-50 {
        clip-path: url(#clippath-3);
      }

      .cls-51 {
        fill: url(#_Безымянный_градиент_7-13);
      }

      .cls-52 {
        fill: url(#_Безымянный_градиент_7-15);
      }

      .cls-53 {
        fill: url(#_Безымянный_градиент_12);
      }

      .cls-54 {
        fill: url(#_Безымянный_градиент_17-2);
      }

      .cls-55 {
        fill: url(#_Безымянный_градиент_19-11);
      }

      .cls-56 {
        fill: url(#_Безымянный_градиент_5);
      }

      .cls-57 {
        clip-path: url(#clippath-5);
      }

      .cls-58 {
        fill: url(#_Безымянный_градиент_20-6);
      }

      .cls-59 {
        fill: url(#_Безымянный_градиент_7-8);
      }

      .cls-60 {
        fill: url(#_Безымянный_градиент_7-2);
      }

      .cls-61 {
        fill: url(#_Безымянный_градиент_7-12);
      }

      .cls-62 {
        fill: url(#_Безымянный_градиент_20-5);
      }

      .cls-63 {
        fill: url(#_Безымянный_градиент_19-12);
      }

      .cls-64 {
        fill: url(#_Безымянный_градиент_22-2);
      }

      .cls-65 {
        fill: url(#_Безымянный_градиент_16);
      }

      .cls-66 {
        fill: url(#_Безымянный_градиент_19-8);
      }

      .cls-67 {
        fill: url(#_Безымянный_градиент_20-3);
      }

      .cls-68 {
        fill: url(#_Безымянный_градиент_19-10);
      }

      .cls-69 {
        fill: url(#_Безымянный_градиент_19-5);
      }
    </style>
    <clipPath id="clippath">
      <rect class="cls-48" x="0" width="2229.8" height="814.68"/>
    </clipPath>
    <linearGradient id="_Безымянный_градиент_4" data-name="Безымянный градиент 4" x1="1102.23" y1="726.28" x2="1129.51" y2="39.63" gradientUnits="userSpaceOnUse">
      <stop offset="0" stop-color="#fbf69b"/>
      <stop offset="1" stop-color="#93d3c3"/>
    </linearGradient>
    <linearGradient id="_Безымянный_градиент_5" data-name="Безымянный градиент 5" x1="291.03" y1="407.34" x2="2520.83" y2="407.34" gradientUnits="userSpaceOnUse">
      <stop offset="0" stop-color="#33431c"/>
      <stop offset="1" stop-color="#fcee5a"/>
    </linearGradient>
    <clipPath id="clippath-2">
      <rect class="cls-56" x="0" width="2229.8" height="814.68"/>
    </clipPath>
    <linearGradient id="_Безымянный_градиент_20" data-name="Безымянный градиент 20" x1="383.55" y1="1360.85" x2="1311.17" y2="-118.24" gradientUnits="userSpaceOnUse">
      <stop offset=".66" stop-color="#33431c"/>
      <stop offset="1" stop-color="#fcee5a"/>
    </linearGradient>
    <linearGradient id="_Безымянный_градиент_20-2" data-name="Безымянный градиент 20" x1="219.41" y1="1292.55" x2="1147.02" y2="-186.54" xlink:href="#_Безымянный_градиент_20"/>
    <linearGradient id="_Безымянный_градиент_20-3" data-name="Безымянный градиент 20" x1="542.04" y1="1931.62" x2="2270.6" y2="-824.6" xlink:href="#_Безымянный_градиент_20"/>
    <linearGradient id="_Безымянный_градиент_20-4" data-name="Безымянный градиент 20" x1="790.1" y1="1151.58" x2="1717.72" y2="-327.51" xlink:href="#_Безымянный_градиент_20"/>
    <linearGradient id="_Безымянный_градиент_20-5" data-name="Безымянный градиент 20" x1="697.78" y1="993.81" x2="1345.8" y2="-39.48" xlink:href="#_Безымянный_градиент_20"/>
    <linearGradient id="_Безымянный_градиент_20-6" data-name="Безымянный градиент 20" x1="1313.05" y1="1309.83" x2="2240.66" y2="-169.26" xlink:href="#_Безымянный_градиент_20"/>
    <linearGradient id="_Безымянный_градиент_20-7" data-name="Безымянный градиент 20" x1="1296.06" y1="1427.55" x2="2223.67" y2="-51.55" xlink:href="#_Безымянный_градиент_20"/>
    <linearGradient id="_Безымянный_градиент_20-8" data-name="Безымянный градиент 20" x1="1131.91" y1="1359.25" x2="2059.53" y2="-119.84" xlink:href="#_Безымянный_градиент_20"/>
    <linearGradient id="_Безымянный_градиент_20-9" data-name="Безымянный градиент 20" x1="1454.54" y1="1998.31" x2="3183.11" y2="-757.9" xlink:href="#_Безымянный_градиент_20"/>
    <linearGradient id="_Безымянный_градиент_20-10" data-name="Безымянный градиент 20" x1="1729.13" y1="1350.91" x2="2656.75" y2="-128.18" xlink:href="#_Безымянный_градиент_20"/>
    <linearGradient id="_Безымянный_градиент_20-11" data-name="Безымянный градиент 20" x1="516.64" y1="846.78" x2="1164.67" y2="-186.51" xlink:href="#_Безымянный_градиент_20"/>
    <linearGradient id="_Безымянный_градиент_15" data-name="Безымянный градиент 15" x1="296.08" y1="381.08" x2="642.23" y2="381.08" gradientUnits="userSpaceOnUse">
      <stop offset="0" stop-color="#744d30"/>
      <stop offset=".29" stop-color="#633d20"/>
      <stop offset=".61" stop-color="#593417"/>
      <stop offset="1" stop-color="#563114"/>
    </linearGradient>
    <clipPath id="clippath-3">
      <path class="cls-40" d="M456.52-95.1c-7.01,26.27-13.57,54.74-19.15,85.28-6.69,36.61-11.05,71.02-13.78,102.71-5.69-14.75-12.03-33.14-17.78-54.63-9.01-33.67-12.8-60.91-14.43-74.74-3.16-26.72-5.18-61.75-1.91-102.84-8.76-.36-17.52-.71-26.28-1.07,0,16.63,.37,33.84,1.2,51.6,1.71,36.51,5.17,70.75,9.68,102.48-20.64-45.19-41.28-90.37-61.91-135.56-5.36,7.38-10.72,14.75-16.08,22.13,4.13,7.98,57.68,111.93,77.99,173.92,4.99,15.21,9.01,29.47,9.01,29.47,8.76,30.99,13.45,55.56,16.91,73.92,1.93,10.26,4.36,23.96,6.8,40.27-22.43,228.24-44.85,456.49-67.28,684.73,59.8-7.57,119.6-15.15,179.4-22.72,.5-9.65,1.01-19.31,1.51-28.96,2.73-6.94,6.53-16.23,11.39-27.04,3.94-8.76,14.79-32.32,32.03-61.64,7.4-12.58,16.88-27.76,28.63-44.57-1.25-7.96-3.77-18.45-9.08-29.9-3.76-8.11-8.01-14.72-11.85-19.88-7.54,10.69-15.4,21.52-23.59,32.45-5.3,7.07-10.59,14-15.86,20.79,.53-29.57,1.85-74.6,5.59-129.7,4.1-60.38,7.75-83.5,10.11-128.67,1.91-36.54,3.06-89.3-1.28-154.22,15.15-19.76,30.41-40.25,45.71-61.47,17.55-24.34,34.19-48.33,49.99-71.88-1.72-3.97-3.43-7.94-5.15-11.91-12.1,16.38-24.19,32.77-36.29,49.15,.28-2.61,.79-6.59,1.79-11.38,2.34-11.14,5.3-16.89,4.07-17.62-1.24-.73-6.04,4.01-9.57,9.67-5.48,8.81-5.45,15.95-7.08,23.31-1.73,7.77-6.46,14.94-15.93,29.28-5.9,8.94-14.48,20.54-26.45,32.91,.77-13.67,1.9-35.14,3-61.51,3.1-74.48,1.96-93.52,5.58-136,1.86-21.9,4.94-43.47,11.1-86.62,7.6-53.21,14.79-97.24,20.14-128.52-43.64,13-87.28,25.99-130.91,38.99Z"/>
    </clipPath>
    <linearGradient id="_Безымянный_градиент_19" data-name="Безымянный градиент 19" x1="353.07" y1="346.09" x2="417.91" y2="346.09" gradientUnits="userSpaceOnUse">
      <stop offset="0" stop-color="#472816"/>
      <stop offset="1" stop-color="#f8b958"/>
    </linearGradient>
    <linearGradient id="_Безымянный_градиент_19-2" data-name="Безымянный градиент 19" x1="318.45" y1="479.86" x2="444.78" y2="479.86" xlink:href="#_Безымянный_градиент_19"/>
    <linearGradient id="_Безымянный_градиент_19-3" data-name="Безымянный градиент 19" x1="361.79" y1="462.14" x2="493.25" y2="462.14" xlink:href="#_Безымянный_градиент_19"/>
    <linearGradient id="_Безымянный_градиент_19-4" data-name="Безымянный градиент 19" x1="474.6" y1="296" x2="623.69" y2="296" xlink:href="#_Безымянный_градиент_19"/>
    <linearGradient id="_Безымянный_градиент_19-5" data-name="Безымянный градиент 19" x1="458.65" y1="456.85" x2="652.73" y2="456.85" xlink:href="#_Безымянный_градиент_19"/>
    <linearGradient id="_Безымянный_градиент_12" data-name="Безымянный градиент 12" x1="1461.26" y1="422.85" x2="1876.26" y2="422.85" gradientUnits="userSpaceOnUse">
      <stop offset="0" stop-color="#563114"/>
      <stop offset="1" stop-color="#744d30"/>
    </linearGradient>
    <clipPath id="clippath-4">
      <path class="cls-53" d="M1698.31,893.84c-3.04-14.19-7.05-35.61-9.67-61.9-4.17-41.86-2.45-72.63-1.93-87.04,2.3-64.03-8.82-87.07-15.47-162.48-5.64-63.91-.54-80.15,1.29-187.62,.91-53.61,1.04-131.76-3.22-228.24-14.9-19.04-27.02-34.57-35.25-45.13-26.26-33.71-30.93-39.88-41.26-49-16.81-14.84-32.79-23.53-46.42-30.95-18.37-9.99-25.63-11.57-49.86-24.07-15.39-7.94-27.55-15.09-35.25-19.77,6.7,.21,13.4,.43,20.09,.64,6.01,3.85,13.65,8.04,22.89,11.61,11.99,4.63,22.84,6.75,31.27,7.74-10.12-3.41-23.99-9.36-38.36-19.99-10.75-7.95-18.77-16.28-24.5-23.21,6.45-.64,12.89-1.29,19.34-1.93,10.11,8.69,19.27,14.08,25.79,17.41,14.62,7.46,22.2,7.71,34.82,16.12,7.08,4.72,10.36,8.42,18.7,16.76,0,0,15.11,15.11,42.55,39.33,10.15,8.96,25.33,21.4,45.78,34.82-2.58-18.05-5.16-36.11-7.74-54.16-6.95-7.99-14.46-16.18-22.57-24.5-10.09-10.35-20.04-19.79-29.66-28.37,9.46-1.5,18.91-3.01,28.37-4.51,7.31,5.61,14.61,11.22,21.92,16.83-1.07-29.03-2.15-58.07-3.22-87.1,35.89-.43,71.78-.86,107.67-1.29,2.62,30.57,5.41,61.3,8.38,92.2,.85,8.83,1.71,17.64,2.58,26.43,4.47-5.13,9.05-10.92,13.54-17.41,10.7-15.48,17.79-30.49,22.57-43.2,4.94,.43,9.89,.86,14.83,1.29-3.13,14.72-7.79,31.56-14.83,49.65-10.2,26.22-22.47,47.52-33.53,63.83,4.38,22.95,10.6,58.98,15.47,103.8,2.86,26.35,3.25,37.28,8.38,106.38,4.54,61.16,6.81,91.74,9.03,114.12,4.93,49.73,9.45,75.19,17.41,130.24,6.16,42.58,14.56,104.1,23.21,180.53,11.61,70.06,23.21,140.12,34.82,210.19-59.32-12.68-118.63-25.36-177.95-38.04Z"/>
    </clipPath>
    <linearGradient id="_Безымянный_градиент_19-6" data-name="Безымянный градиент 19" x1="1777.58" y1="468.85" x2="1840.3" y2="468.85" xlink:href="#_Безымянный_градиент_19"/>
    <linearGradient id="_Безымянный_градиент_16" data-name="Безымянный градиент 16" x1="1736.09" y1="497.92" x2="1946.58" y2="497.92" gradientUnits="userSpaceOnUse">
      <stop offset="0" stop-color="#f8b958"/>
      <stop offset="1" stop-color="#472816"/>
    </linearGradient>
    <linearGradient id="_Безымянный_градиент_19-7" data-name="Безымянный градиент 19" x1="1670.5" y1="459.3" x2="1786.78" y2="459.3" xlink:href="#_Безымянный_градиент_19"/>
    <linearGradient id="_Безымянный_градиент_22" data-name="Безымянный градиент 22" x1="1391.26" y1="-3727.51" x2="1393.77" y2="-4187.96" gradientTransform="translate(0 -3135.41) scale(1 -1)" gradientUnits="userSpaceOnUse">
      <stop offset="0" stop-color="#33431c"/>
      <stop offset="1" stop-color="#fcee5a"/>
    </linearGradient>
    <linearGradient id="_Безымянный_градиент_22-2" data-name="Безымянный градиент 22" x1="1120.25" y1="-3720.63" x2="1122.76" y2="-4181.08" gradientTransform="translate(1406.9 -3135.41) rotate(-180)" xlink:href="#_Безымянный_градиент_22"/>
    <linearGradient id="_Безымянный_градиент_20-12" data-name="Безымянный градиент 20" x1="1122.46" y1="1207.36" x2="1126.12" y2="537.1" xlink:href="#_Безымянный_градиент_20"/>
    <linearGradient id="_Безымянный_градиент_12-2" data-name="Безымянный градиент 12" x1="1773.79" y1="398.49" x2="2303.3" y2="398.49" xlink:href="#_Безымянный_градиент_12"/>
    <linearGradient id="_Безымянный_градиент_12-3" data-name="Безымянный градиент 12" x1="1773.79" y1="398.49" x2="2303.3" y2="398.49" xlink:href="#_Безымянный_градиент_12"/>
    <clipPath id="clippath-5">
      <path class="cls-26" d="M1773.79,778.2c14.38-9.21,33.5-20.92,56.59-33.6,40.17-22.07,60.26-33.11,84.88-40.32,25.85-7.58,35.6-6.13,65.68-17.28,8.64-3.2,23.41-8.74,40.42-18.24,16.5-9.22,52-29.05,71.75-62.41,5.59-9.44,9.19-30.1,16.17-71.05,10.58-62.07,15.96-93.79,20.21-127.69,5.06-40.33,5.17-50.56,5.05-57.61-.34-21.14-.83-51.47-14.15-80.65-10.15-22.24-21.77-30.7-70.74-73.93-64.07-56.56-48.56-45.93-80.84-72.97-34.44-28.84-78.54-63.08-132.38-98.89,48.5-3.2,97.01-6.4,145.51-9.6,30.84,17.52,67.09,41.5,104.08,73.93,28.49,24.98,51.46,49.74,69.73,72.01,3.71-59.21,7.41-118.41,11.12-177.62,45.47,6.4,90.95,12.8,136.42,19.2-6.06,271.06-12.13,542.13-18.19,813.19-170.44-12.16-340.88-24.32-511.32-36.48Z"/>
    </clipPath>
    <linearGradient id="_Безымянный_градиент_19-8" data-name="Безымянный градиент 19" x1="2070.64" y1="483.06" x2="2156.34" y2="483.06" xlink:href="#_Безымянный_градиент_19"/>
    <linearGradient id="_Безымянный_градиент_19-9" data-name="Безымянный градиент 19" x1="1977.89" y1="520.66" x2="2193.48" y2="520.66" xlink:href="#_Безымянный_градиент_19"/>
    <linearGradient id="_Безымянный_градиент_19-10" data-name="Безымянный градиент 19" x1="2100.5" y1="458.08" x2="2213.17" y2="458.08" xlink:href="#_Безымянный_градиент_19"/>
    <linearGradient id="_Безымянный_градиент_7" data-name="Безымянный градиент 7" x1="2021.98" y1="385.86" x2="2082.67" y2="385.86" gradientUnits="userSpaceOnUse">
      <stop offset="0" stop-color="#3c6136"/>
      <stop offset="1" stop-color="#638a5e"/>
    </linearGradient>
    <linearGradient id="_Безымянный_градиент_7-2" data-name="Безымянный градиент 7" x1="2030.35" y1="324.83" x2="2218.4" y2="324.83" xlink:href="#_Безымянный_градиент_7"/>
    <linearGradient id="_Безымянный_градиент_7-3" data-name="Безымянный градиент 7" x1="2140.2" y1="264.47" x2="2191.32" y2="264.47" xlink:href="#_Безымянный_градиент_7"/>
    <linearGradient id="_Безымянный_градиент_7-4" data-name="Безымянный градиент 7" x1="2074.99" y1="262.46" x2="2124.13" y2="262.46" xlink:href="#_Безымянный_градиент_7"/>
    <linearGradient id="_Безымянный_градиент_7-5" data-name="Безымянный градиент 7" x1="2143.89" y1="168.11" x2="2352.92" y2="168.11" xlink:href="#_Безымянный_градиент_7"/>
    <linearGradient id="_Безымянный_градиент_7-6" data-name="Безымянный градиент 7" x1="1907.12" y1="211.8" x2="1908.97" y2="-127.14" xlink:href="#_Безымянный_градиент_7"/>
    <linearGradient id="_Безымянный_градиент_7-7" data-name="Безымянный градиент 7" x1="2156.84" y1="117.82" x2="2158.69" y2="-221.12" gradientTransform="translate(2688.18) rotate(-180) scale(1 -1)" xlink:href="#_Безымянный_градиент_7"/>
    <linearGradient id="_Безымянный_градиент_7-8" data-name="Безымянный градиент 7" x1="2031.54" y1="46.7" x2="2322.77" y2="46.7" xlink:href="#_Безымянный_градиент_7"/>
    <linearGradient id="_Безымянный_градиент_14" data-name="Безымянный градиент 14" x1="-241.89" y1="342.83" x2="269.43" y2="342.83" gradientUnits="userSpaceOnUse">
      <stop offset="0" stop-color="#563114"/>
      <stop offset=".53" stop-color="#583215"/>
      <stop offset=".76" stop-color="#5f391c"/>
      <stop offset=".93" stop-color="#6b4528"/>
      <stop offset="1" stop-color="#744d30"/>
    </linearGradient>
    <clipPath id="clippath-6">
      <path class="cls-44" d="M-241.89,725.78c14.38-9.21,33.5-20.92,56.59-33.6,40.17-22.07,60.26-33.11,84.88-40.32,25.85-7.58,35.6-6.13,65.68-17.28,8.64-3.2,23.41-8.74,40.42-18.24,16.5-9.22,52-29.05,71.75-62.41,5.59-9.44,9.19-30.1,16.17-71.05,10.58-62.07,15.96-93.79,20.21-127.69,5.06-40.33,5.17-50.56,5.05-57.61-.34-21.14-.83-51.47-14.15-80.65-10.15-22.24-21.77-30.7-70.74-73.93C-30.09,86.45-14.58,97.08-46.86,70.04-81.3,41.2-125.4,6.96-179.24-28.85c48.5-3.2,97.01-6.4,145.51-9.6C-2.89-20.93,33.36,3.05,70.36,35.48c28.49,24.98,51.46,49.74,69.73,72.01,3.71-59.21,7.41-118.41,11.12-177.62,32.24-2.16,64.47-4.31,96.71-6.47,13.77,164.09,8.64,293.35,1.27,381.68-6.31,75.57-16.98,153.84-8.85,267.08,5.83,81.34,18.97,147.26,29.1,190.1-170.44-12.16-340.88-24.32-511.32-36.48Z"/>
    </clipPath>
    <linearGradient id="_Безымянный_градиент_17" data-name="Безымянный градиент 17" x1="210.32" y1="420.93" x2="255.76" y2="420.93" gradientUnits="userSpaceOnUse">
      <stop offset="0" stop-color="#f8b958"/>
      <stop offset="1" stop-color="#472816"/>
    </linearGradient>
    <linearGradient id="_Безымянный_градиент_17-2" data-name="Безымянный градиент 17" x1="177.3" y1="478.08" x2="315.03" y2="478.08" xlink:href="#_Безымянный_градиент_17"/>
    <linearGradient id="_Безымянный_градиент_19-11" data-name="Безымянный градиент 19" x1="1.51" y1="334.89" x2="183.9" y2="334.89" xlink:href="#_Безымянный_градиент_19"/>
    <linearGradient id="_Безымянный_градиент_19-12" data-name="Безымянный градиент 19" x1="29.28" y1="397.09" x2="215.87" y2="397.09" xlink:href="#_Безымянный_градиент_19"/>
    <linearGradient id="_Безымянный_градиент_7-9" data-name="Безымянный градиент 7" x1="149.43" y1="235.43" x2="358.46" y2="235.43" xlink:href="#_Безымянный_градиент_7"/>
    <linearGradient id="_Безымянный_градиент_7-10" data-name="Безымянный градиент 7" x1="-70.36" y1="289.24" x2="138.67" y2="289.24" xlink:href="#_Безымянный_градиент_7"/>
    <linearGradient id="_Безымянный_градиент_7-11" data-name="Безымянный градиент 7" x1="-301.45" y1="219.1" x2="-299.6" y2="-119.84" gradientTransform="translate(-156.83) rotate(-180) scale(1 -1)" xlink:href="#_Безымянный_градиент_7"/>
    <linearGradient id="_Безымянный_градиент_7-12" data-name="Безымянный градиент 7" x1="-311.44" y1="47.43" x2="-20.21" y2="47.43" gradientTransform="translate(-156.83) rotate(-180) scale(1 -1)" xlink:href="#_Безымянный_градиент_7"/>
    <linearGradient id="_Безымянный_градиент_20-13" data-name="Безымянный градиент 20" x1="1922.75" y1="1191.77" x2="1926.23" y2="555.24" xlink:href="#_Безымянный_градиент_20"/>
    <linearGradient id="_Безымянный_градиент_7-13" data-name="Безымянный градиент 7" x1="1300.5" y1="151.17" x2="1302.35" y2="-187.77" gradientTransform="translate(2688.18) rotate(-180) scale(1 -1)" xlink:href="#_Безымянный_градиент_7"/>
    <linearGradient id="_Безымянный_градиент_7-14" data-name="Безымянный градиент 7" x1="2103.61" y1="-3781.18" x2="2105.46" y2="-4120.12" gradientTransform="translate(0 -3135.41) scale(1 -1)" xlink:href="#_Безымянный_градиент_7"/>
    <linearGradient id="_Безымянный_градиент_7-15" data-name="Безымянный градиент 7" x1="1976.28" y1="-3839.78" x2="1978.13" y2="-4178.72" gradientTransform="translate(0 -3135.41) scale(1 -1)" xlink:href="#_Безымянный_градиент_7"/>
    <linearGradient id="_Безымянный_градиент_7-16" data-name="Безымянный градиент 7" x1="-1367.83" y1="-3606.2" x2="-959.97" y2="-3606.2" gradientTransform="translate(784.09 -2921.45) rotate(-152.46)" xlink:href="#_Безымянный_градиент_7"/>
    <linearGradient id="_Безымянный_градиент_7-17" data-name="Безымянный градиент 7" x1="-362.31" y1="-4091.27" x2="-71.08" y2="-4091.27" gradientTransform="translate(-156.83 -3309.17) rotate(-180)" xlink:href="#_Безымянный_градиент_7"/>
  </defs>
  <g class="cls-43">
    <rect class="cls-47" x="0" width="2229.8" height="814.68"/>
    <g>
      <rect class="cls-56" x="0" width="2229.8" height="814.68"/>
      <g class="cls-12">
        <g class="cls-29">
          <g>
            <path class="cls-25" d="M843.05,382.82c8.84,43.35,17.67,86.69,26.51,130.04-8.57,1.47-17.13,2.95-25.7,4.42,8.39,4.58,16.78,9.15,25.16,13.73l49.94,221.49c-54.48-.42-108.95-.84-163.43-1.26l29.21-122.97c13.33-5.56,26.66-11.12,39.98-16.68-11.74-.18-23.48-.36-35.22-.53l32.85-140.04c6.4-3.03,12.8-6.07,19.2-9.1-4.87-1.29-9.75-2.57-14.62-3.86,5.37-25.08,10.74-50.16,16.11-75.23Z"/>
            <path class="cls-9" d="M598.53-17.28c-24.54,120.37-49.07,240.75-73.61,361.12,23.79,4.09,47.58,8.18,71.36,12.27-23.29,12.71-46.59,25.41-69.88,38.12-46.23,205.03-92.45,410.06-138.68,615.09,151.28-1.16,302.57-2.33,453.85-3.49-27.04-113.83-54.08-227.66-81.12-341.49-37.01-15.44-74.02-30.88-111.04-46.32,32.6-.49,65.21-.99,97.81-1.48-30.41-129.63-60.83-259.26-91.24-388.9-17.78-8.42-35.55-16.85-53.33-25.27,13.53-3.57,27.06-7.15,40.6-10.72-14.91-69.64-29.82-139.29-44.73-208.93Z"/>
          </g>
          <g>
            <path class="cls-67" d="M1398.3,109.11c16.46,80.77,32.93,161.54,49.39,242.31-15.96,2.74-31.92,5.49-47.89,8.23,15.63,8.53,31.26,17.05,46.89,25.58,31.02,137.58,62.04,275.15,93.06,412.73-101.51-.78-203.02-1.56-304.54-2.34,18.14-76.38,36.29-152.76,54.43-229.14,24.84-10.36,49.67-20.72,74.51-31.08-21.88-.33-43.76-.66-65.63-.99,20.41-86.98,40.81-173.97,61.22-260.95,11.93-5.65,23.86-11.3,35.78-16.96-9.08-2.4-18.16-4.8-27.24-7.19,10-46.73,20.01-93.46,30.01-140.19Z"/>
            <path class="cls-33" d="M1169.22-158.25c-24.54,120.37-49.07,240.75-73.61,361.12,23.79,4.09,47.58,8.18,71.36,12.27-23.29,12.71-46.59,25.41-69.88,38.12-46.23,205.03-92.45,410.06-138.68,615.09,151.28-1.16,302.57-2.33,453.85-3.49-27.04-113.83-54.08-227.66-81.12-341.49-37.01-15.44-74.02-30.88-111.04-46.32,32.6-.49,65.21-.99,97.81-1.48-30.41-129.63-60.83-259.26-91.24-388.9-17.78-8.42-35.55-16.85-53.33-25.27,13.53-3.57,27.06-7.15,40.6-10.72-14.91-69.64-29.82-139.29-44.73-208.93Z"/>
            <path class="cls-62" d="M962.63,78.76c-17.14,84.09-34.28,168.19-51.42,252.28,16.62,2.86,33.24,5.72,49.85,8.57-16.27,8.88-32.55,17.75-48.82,26.63-32.29,143.23-64.59,286.47-96.88,429.7,105.69-.81,211.37-1.63,317.06-2.44-18.89-79.52-37.78-159.04-56.67-238.56-25.86-10.79-51.71-21.57-77.57-32.36,22.78-.35,45.55-.69,68.33-1.04-21.25-90.56-42.49-181.12-63.74-271.68-12.42-5.88-24.84-11.77-37.26-17.65,9.45-2.5,18.91-4.99,28.36-7.49-10.42-48.65-20.83-97.3-31.25-145.96Z"/>
          </g>
          <path class="cls-58" d="M1692.17,0c-24.54,120.37-49.07,240.75-73.61,361.12,23.79,4.09,47.58,8.18,71.36,12.27-23.29,12.71-46.59,25.41-69.88,38.12-46.23,205.03-92.45,410.06-138.68,615.09,151.28-1.16,302.57-2.33,453.85-3.49-27.04-113.83-54.08-227.66-81.12-341.49-37.01-15.44-74.02-30.88-111.04-46.32,32.6-.49,65.21-.99,97.81-1.48-30.41-129.63-60.83-259.26-91.24-388.9-17.78-8.42-35.55-16.85-53.33-25.27,13.53-3.57,27.06-7.15,40.6-10.72-14.91-69.64-29.82-139.29-44.73-208.93Z"/>
          <g>
            <path class="cls-5" d="M1755.56,449.52c8.84,43.35,17.67,86.69,26.51,130.04-8.57,1.47-17.13,2.95-25.7,4.42,8.39,4.58,16.78,9.15,25.16,13.73l49.94,221.49c-54.48-.42-108.95-.84-163.43-1.26l29.21-122.97c13.33-5.56,26.66-11.12,39.98-16.68-11.74-.18-23.48-.36-35.22-.53l32.85-140.04c6.4-3.03,12.8-6.07,19.2-9.1-4.87-1.29-9.75-2.57-14.62-3.86,5.37-25.08,10.74-50.16,16.11-75.23Z"/>
            <path class="cls-38" d="M1511.03,49.41c-24.54,120.37-49.07,240.75-73.61,361.12,23.79,4.09,47.58,8.18,71.36,12.27-23.29,12.71-46.59,25.41-69.88,38.12-46.23,205.03-92.45,410.06-138.68,615.09,151.28-1.16,302.57-2.33,453.85-3.49-27.04-113.83-54.08-227.66-81.12-341.49-37.01-15.44-74.02-30.88-111.04-46.32,32.6-.49,65.21-.99,97.81-1.48-30.41-129.63-60.83-259.26-91.24-388.9-17.78-8.42-35.55-16.85-53.33-25.27,13.53-3.57,27.06-7.15,40.6-10.72-14.91-69.64-29.82-139.29-44.73-208.93Z"/>
          </g>
          <g>
            <path class="cls-39" d="M2310.8,175.8c16.46,80.77,32.93,161.54,49.39,242.31-15.96,2.74-31.92,5.49-47.89,8.23,15.63,8.53,31.26,17.05,46.89,25.58,31.02,137.58,62.04,275.15,93.06,412.73-101.51-.78-203.02-1.56-304.54-2.34,18.14-76.38,36.29-152.76,54.43-229.14,24.84-10.36,49.67-20.72,74.51-31.08-21.88-.33-43.76-.66-65.63-.99,20.41-86.98,40.81-173.97,61.22-260.95,11.93-5.65,23.86-11.3,35.78-16.96-9.08-2.4-18.16-4.8-27.24-7.19,10-46.73,20.01-93.46,30.01-140.19Z"/>
            <path class="cls-35" d="M2108.25,41.08c-24.54,120.37-49.07,240.75-73.61,361.12,23.79,4.09,47.58,8.18,71.36,12.27-23.29,12.71-46.59,25.41-69.88,38.12-46.23,205.03-92.45,410.06-138.68,615.09,151.28-1.16,302.57-2.33,453.85-3.49-27.04-113.83-54.08-227.66-81.12-341.49-37.01-15.44-74.02-30.88-111.04-46.32,32.6-.49,65.21-.99,97.81-1.48-30.41-129.63-60.83-259.26-91.24-388.9-17.78-8.42-35.55-16.85-53.33-25.27,13.53-3.57,27.06-7.15,40.6-10.72-14.91-69.64-29.82-139.29-44.73-208.93Z"/>
            <path class="cls-14" d="M781.49-68.27c-17.14,84.09-34.28,168.19-51.42,252.28,16.62,2.86,33.24,5.72,49.85,8.57-16.27,8.88-32.55,17.75-48.82,26.63-32.29,143.23-64.59,286.47-96.88,429.7,105.69-.81,211.37-1.63,317.06-2.44-18.89-79.52-37.78-159.04-56.67-238.56-25.86-10.79-51.71-21.57-77.57-32.36,22.78-.35,45.55-.69,68.33-1.04-21.25-90.56-42.49-181.12-63.74-271.68-12.42-5.88-24.84-11.77-37.26-17.65,9.45-2.5,18.91-4.99,28.36-7.49-10.42-48.65-20.83-97.3-31.25-145.96Z"/>
          </g>
        </g>
      </g>
    </g>
    <g>
      <path class="cls-17" d="M1919.49,970.78c-.8-5.96-1.93-14.66-3.22-25.15-3.38-27.52-8.62-70.14-10.96-110.9-1.1-19.23-.95-46.35-.64-100.58,.19-33.81,.69-52.93,0-86.4-.48-23.26-1.31-42.3-1.93-54.8,9.57-22.1,19.11-47.98,27.08-77.37,6.28-23.15,10.58-44.82,13.54-64.47,5.65-8.05,13.52-20.46,20.63-36.75,5.89-13.5,8.8-24.03,14.18-43.84,3.28-12.09,7.49-28.76,11.61-49-.85-.41-2.35-.98-4.3-1.07-1.9-.09-3.42,.33-4.3,.64-.52,3.12-1.31,7.66-2.36,13.11-2.35,12.1-5.15,26.55-9.89,41.26-3.21,9.97-8.49,23.73-17.41,39.54,.57-10.38,1.12-18.83,1.5-24.5,1.78-26.13,2.96-35.19,2.58-50.51-.21-8.58-.82-15.55-1.29-19.99-1.52,.51-4.32,1.67-6.88,4.3-1.84,1.89-2.87,3.83-3.44,5.16-.29,14.58-1.31,30.57-3.44,47.71-1.72,13.78-3.95,26.64-6.45,38.47-1.06,6.69-2.64,15.85-4.94,26.65-3.93,18.41-7.7,35.67-16.12,56.09-2.78,6.75-6.68,15.3-12.04,24.93-1.97-63.12-2.76-128.28-2.15-195.36,.37-40.72,1.25-80.71,2.58-119.92,7.49-9.54,18.1-24.89,26.43-45.78,7.06-17.7,7.36-26.54,13.54-42.55,5.1-13.21,14.43-31.87,32.88-52.22-6.23-.43-12.47-.86-18.7-1.29-9.31,10.24-19.2,22.24-29.01,36.11-8.63,12.19-15.86,23.93-21.92,34.82,1.07-30.3,2.15-60.61,3.22-90.91-22.35,.64-44.7,1.29-67.05,1.93,.46,32.51,.48,65.76,0,99.72-.71,50.89-2.5,100.21-5.16,147.86-3.99-7.27-9.45-17.55-15.47-30.09-8.91-18.53-14.72-32.95-18.05-41.26-16.9-42.14-26.47-66.69-30.09-75.65-9.71-24.05-25.61-57.4-52.44-96.28-4.01,2.29-8.02,4.58-12.03,6.88,21.4,34.61,36.35,64.19,46.42,85.97,7.94,17.18,14.23,32.5,18.05,42.12,3.83,9.65,7.39,19.12,18.05,49.86,16.67,48.07,20.2,60.19,30.95,89.4,5.8,15.76,10.72,28.41,13.75,36.11,.37,68.41-2.02,124.08-4.3,162.48-2.71,45.7-4.74,58.25-14.61,184.83-4.63,59.37-4.65,62.56-7.74,100.58-5.6,68.85-10.93,124.72-14.61,161.62,41.98-.5,83.96-1,125.94-1.5Z"/>
      <path class="cls-31" d="M2047.42,884.38c-.8-5.96-1.93-14.66-3.22-25.15-3.38-27.52-8.62-70.14-10.96-110.9-1.1-19.23-.95-46.35-.64-100.58,.19-33.81,.69-52.93,0-86.4-.48-23.26-1.31-42.3-1.93-54.8,9.57-22.1,19.11-47.98,27.08-77.37,6.28-23.15,10.58-44.82,13.54-64.47,5.65-8.05,13.52-20.46,20.63-36.75,5.89-13.5,8.8-24.03,14.18-43.84,3.28-12.09,7.49-28.76,11.61-49-.85-.41-2.35-.98-4.3-1.07-1.9-.09-3.42,.33-4.3,.64-.52,3.12-1.31,7.66-2.36,13.11-2.35,12.1-5.15,26.55-9.89,41.26-3.21,9.97-8.49,23.73-17.41,39.54,.57-10.38,1.12-18.83,1.5-24.5,1.78-26.13,2.96-35.19,2.58-50.51-.21-8.58-.82-15.55-1.29-19.99-1.52,.51-4.32,1.67-6.88,4.3-1.84,1.89-2.87,3.83-3.44,5.16-.29,14.58-1.31,30.57-3.44,47.71-1.72,13.78-3.95,26.64-6.45,38.47-1.06,6.69-2.64,15.85-4.94,26.65-3.93,18.41-7.7,35.67-16.12,56.09-2.78,6.75-6.68,15.3-12.04,24.93-1.97-63.12-2.76-128.28-2.15-195.36,.37-40.72,1.25-80.71,2.58-119.92,7.49-9.54,18.1-24.89,26.43-45.78,7.06-17.7,7.36-26.54,13.54-42.55,5.1-13.21,14.43-31.87,32.88-52.22-6.23-.43-12.47-.86-18.7-1.29-9.31,10.24-19.2,22.24-29.01,36.11-8.63,12.19-15.86,23.93-21.92,34.82,1.07-30.3,2.15-60.61,3.22-90.91-22.35,.64-44.7,1.29-67.05,1.93,.46,32.51,.48,65.76,0,99.72-.71,50.89-2.5,100.21-5.16,147.86-3.99-7.27-9.45-17.55-15.47-30.09-8.91-18.53-14.72-32.95-18.05-41.26-16.9-42.14-26.47-66.69-30.09-75.65-9.71-24.05-25.61-57.4-52.44-96.28-4.01,2.29-8.02,4.58-12.03,6.88,21.4,34.61,36.35,64.19,46.42,85.97,7.94,17.18,14.23,32.5,18.05,42.12,3.83,9.65,7.39,19.12,18.05,49.86,16.67,48.07,20.2,60.19,30.95,89.4,5.8,15.76,10.72,28.41,13.75,36.11,.37,68.41-2.02,124.08-4.3,162.48-2.71,45.7-4.74,58.25-14.61,184.83-4.63,59.37-4.65,62.56-7.74,100.58-5.6,68.85-10.93,124.72-14.61,161.62,41.98-.5,83.96-1,125.94-1.5Z"/>
      <path class="cls-42" d="M1164.63,840.43c-.8-5.96-1.93-14.66-3.22-25.15-3.38-27.52-8.62-70.14-10.96-110.9-1.1-19.23-.95-46.35-.64-100.58,.19-33.81,.69-52.93,0-86.4-.48-23.26-1.31-42.3-1.93-54.8,9.57-22.1,19.11-47.98,27.08-77.37,6.28-23.15,10.58-44.82,13.54-64.47,5.65-8.05,13.52-20.46,20.63-36.75,5.89-13.5,8.8-24.03,14.18-43.84,3.28-12.09,7.49-28.76,11.61-49-.85-.41-2.35-.98-4.3-1.07-1.9-.09-3.42,.33-4.3,.64-.52,3.12-1.31,7.66-2.36,13.11-2.35,12.1-5.15,26.55-9.89,41.26-3.21,9.97-8.49,23.73-17.41,39.54,.57-10.38,1.12-18.83,1.5-24.5,1.78-26.13,2.96-35.19,2.58-50.51-.21-8.58-.82-15.55-1.29-19.99-1.52,.51-4.32,1.67-6.88,4.3-1.84,1.89-2.87,3.83-3.44,5.16-.29,14.58-1.31,30.57-3.44,47.71-1.72,13.78-3.95,26.64-6.45,38.47-1.06,6.69-2.64,15.85-4.94,26.65-3.93,18.41-7.7,35.67-16.12,56.09-2.78,6.75-6.68,15.3-12.04,24.93-1.97-63.12-2.76-128.28-2.15-195.36,.37-40.72,1.25-80.71,2.58-119.92,7.49-9.54,18.1-24.89,26.43-45.78,7.06-17.7,7.36-26.54,13.54-42.55,5.1-13.21,14.43-31.87,32.88-52.22-6.23-.43-12.47-.86-18.7-1.29-9.31,10.24-19.2,22.24-29.01,36.11-8.63,12.19-15.86,23.93-21.92,34.82,1.07-30.3,2.15-60.61,3.22-90.91-22.35,.64-44.7,1.29-67.05,1.93,.46,32.51,.48,65.76,0,99.72-.71,50.89-2.5,100.21-5.16,147.86-3.99-7.27-9.45-17.55-15.47-30.09-8.91-18.53-14.72-32.95-18.05-41.26-16.9-42.14-26.47-66.69-30.09-75.65-9.71-24.05-25.61-57.4-52.44-96.28-4.01,2.29-8.02,4.58-12.03,6.88,21.4,34.61,36.35,64.19,46.42,85.97,7.94,17.18,14.23,32.5,18.05,42.12,3.83,9.65,7.39,19.12,18.05,49.86,16.67,48.07,20.2,60.19,30.95,89.4,5.8,15.76,10.72,28.41,13.75,36.11,.37,68.41-2.02,124.08-4.3,162.48-2.71,45.7-4.74,58.25-14.61,184.83-4.63,59.37-4.65,62.56-7.74,100.58-5.6,68.85-10.93,124.72-14.61,161.62,41.98-.5,83.96-1,125.94-1.5Z"/>
      <path class="cls-19" d="M1742.79,1.06c-26.83,38.88-42.73,72.23-52.44,96.28-3.62,8.96-13.19,33.51-30.09,75.65-3.34,8.32-9.15,22.73-18.05,41.26-6.03,12.54-11.48,22.82-15.47,30.09-2.66-47.65-4.44-96.97-5.16-147.86-.48-33.96-.46-67.21,0-99.72-22.35-.64-44.7-1.29-67.05-1.93,1.07,30.3,2.15,60.61,3.22,90.91-6.06-10.88-13.29-22.62-21.92-34.82-9.82-13.87-19.7-25.86-29.01-36.11-6.23,.43-12.47,.86-18.7,1.29,18.46,20.35,27.78,39.02,32.88,52.22,6.18,16.01,6.48,24.85,13.54,42.55,8.33,20.89,18.95,36.24,26.43,45.78,1.33,39.22,2.21,79.2,2.58,119.92,.61,67.08-.18,132.24-2.15,195.36-5.36-9.63-9.25-18.18-12.04-24.93-.2-.48-.38-.96-.58-1.44,4.96,30.39,10.26,60.82,8.98,91.52,.64,1.51,1.28,3,1.92,4.48-.63,12.5-1.45,31.55-1.93,54.8-.69,33.47-.19,52.58,0,86.4,.31,54.23,.46,81.35-.64,100.58-2.34,40.76-7.58,83.37-10.96,110.9-1.29,10.49-2.43,19.18-3.22,25.15,41.98,.5,83.96,1,125.94,1.5-3.68-36.9-9.02-92.77-14.61-161.62-3.09-38.02-3.11-41.21-7.74-100.58-9.87-126.58-11.9-139.12-14.61-184.83-2.28-38.39-4.67-94.06-4.3-162.48,3.04-7.7,7.96-20.35,13.75-36.11,10.75-29.22,14.28-41.34,30.95-89.4,10.66-30.74,14.22-40.21,18.05-49.86,3.82-9.62,10.11-24.95,18.05-42.12,10.07-21.78,25.02-51.36,46.42-85.97-4.01-2.29-8.02-4.58-12.04-6.88Z"/>
      <path class="cls-31" d="M641.57,857.38c-1.29-28.67-3.36-75.53-5.8-133.46-7.11-168.85-10.68-254.79-11.61-328.82-.46-36.88-.61-76.99-1.93-154.09-.71-40.97-1.44-74.46-1.93-96.07-4.42-8.08-10.44-20.61-14.83-36.75-4.72-17.37-2.97-22.06-7.74-49.65-3.54-20.5-5.37-22.92-10.32-48.36-3.54-18.25-5.76-33.28-7.09-43.2,4.51-.64,9.03-1.29,13.54-1.93,2.64,11.45,5.22,23.05,7.74,34.82,3.69,17.23,7.12,34.22,10.32,50.93-1.72-44.27-3.44-88.55-5.16-132.82,12.68,.64,25.36,1.29,38.04,1.93,1.07,39.76,2.15,79.52,3.22,119.28,1.72,30.73,3.44,61.47,5.16,92.2,7.74-65.55,15.47-131.1,23.21-196.65h12.25c-1.93,30.28-3.76,55.61-5.16,74.15-6.55,86.54-10.58,115.54-12.25,127.02-4.05,27.85-8.45,50.59-11.61,65.76,8.63,85.05,14.05,153.96,17.41,201.16,1.53,21.57,1.49,22.43,8.38,129.59,8.76,136.18,9.32,142.25,10.96,171.5,2.51,44.72,5.71,110.8,7.74,192.78-20.85-13.11-41.69-26.22-62.54-39.33Z"/>
      <path class="cls-31" d="M295.97,775.35c-1.29-28.67-3.36-75.53-5.8-133.46-7.11-168.85-10.68-254.79-11.61-328.82-.46-36.88-.61-76.99-1.93-154.09-.71-40.97-1.44-74.46-1.93-96.07-4.42-8.08-10.44-20.61-14.83-36.75-4.72-17.37-2.97-22.06-7.74-49.65-3.54-20.5-5.37-22.92-10.32-48.36-3.54-18.25-5.76-33.28-7.09-43.2,4.51-.64,9.03-1.29,13.54-1.93,2.64,11.45,5.22,23.05,7.74,34.82,3.69,17.23,7.12,34.22,10.32,50.93-1.72-44.27-3.44-88.55-5.16-132.82,12.68,.64,25.36,1.29,38.04,1.93,1.07,39.76,2.15,79.52,3.22,119.28,1.72,30.73,3.44,61.47,5.16,92.2,7.74-65.55,15.47-131.1,23.21-196.65h12.25c-1.93,30.28-3.76,55.61-5.16,74.15-6.55,86.54-10.58,115.54-12.25,127.02-4.05,27.85-8.45,50.59-11.61,65.76,8.63,85.05,14.05,153.96,17.41,201.16,1.53,21.57,1.49,22.43,8.38,129.59,8.76,136.18,9.32,142.25,10.96,171.5,2.51,44.72,5.71,110.8,7.74,192.78-20.85-13.11-41.69-26.22-62.54-39.33Z"/>
      <path class="cls-31" d="M737.42,830.25c3.2-46.94,6.21-94.23,9.03-141.84,4.44-75.13,8.3-149.5,11.61-223.08-7.45-10.45-14.92-22.25-21.92-35.46-22.86-43.11-31.88-84.33-35.46-115.41,1.67-2.27,3.34-4.54,5.01-6.8,3.87,23.68,12.41,55.94,32.39,89.33,7.1,11.86,14.61,22.14,21.92,30.95,3.24-71.57,5.65-144.66,7.09-219.21,2.19-112.85,2.06-222.53,0-328.82,15.47-3.87,30.95-7.74,46.42-11.61-1.84,84.96-1.55,172.7,1.29,263.06,.86,27.35,1.94,54.43,3.22,81.24,3.93-8.99,9.44-22.48,14.83-39.33,2.72-8.49,6.58-24.26,14.18-55.45,4.72-19.34,11.26-38.33,14.18-58.03,.92-6.23,2.09-15.46,3.87-15.47,1.75-.02,3.64,8.88,3.87,16.76,.26,8.78-1.57,15.41-1.93,16.76-6.5,23.89-4.51,42.12-20.63,99.94-7.96,28.54-13.62,42.66-19.99,55.45-3.3,6.64-6.32,11.96-8.38,15.47,1.15,65.11,2.23,130.23,3.22,195.36,2.04,133.47,3.76,266.94,5.16,400.39-29.66-4.73-59.32-9.46-88.97-14.18Z"/>
      <path class="cls-31" d="M1409.73-77.98h0c2.53,18.65,4.73,38.23,6.45,58.67,1.54,18.27,2.58,35.91,3.22,52.87-2.99-3.83-7.18-9.51-11.61-16.76-3.11-5.1-14.63-24.54-21.92-53.51-1.81-7.2-3.88-17.06-5.16-29.01-4.94,.64-9.89,1.29-14.83,1.93,.08,7.53,.67,18.57,3.22,31.59,4.23,21.59,11.34,35.87,20.63,55.45,7.07,14.9,17.54,37.37,30.3,66.41,2.47,38.26,4.84,76.51,7.09,114.76,2.5,42.32,4.86,84.66,7.09,127.02-7.11-13.95-12.41-25.93-16.12-34.82-10.66-25.54-16.94-46.59-21.28-61.25-2.85-9.64-5.01-17.68-6.45-23.21-2.58,3.22-5.16,6.45-7.74,9.67,1.79,5.77,3.52,11.79,5.16,18.05,2.29,8.71,4.2,17.11,5.8,25.15-3.85-5.54-7.73-11.34-11.61-17.41-4.63-7.26-8.92-14.37-12.89-21.28-2.79,4.08-5.59,8.17-8.38,12.25,6.95,9.77,16.91,23.76,23.86,33.53,4.13,5.81,13.28,18.69,17.41,24.5,4.75,13.2,9.48,26.53,14.18,39.97,4.16,11.88,8.24,23.7,12.25,35.46,1.64,9.09,3.91,22.95,5.8,39.97,2.71,24.44,2.74,38.35,4.51,67.05,1.82,29.42,3.15,36.84,4.51,56.09,3.29,46.41-.66,56.75-.64,114.76,.01,59,4.1,63.03,3.87,121.21-.14,35.99-1.83,65.36-3.22,84.46,33.09-1.2,66.18-2.41,99.28-3.61-.22-17.5-.73-40.93-1.92-68.6-.91-21.24-2.71-56.13-6.45-99.94-3.77-44.26-5.4-49.28-7.74-81.88-2.57-35.86-3.14-65.19-3.22-84.46,6.82-13.73,13.35-30.1,18.05-49,1.32-5.29,2.4-10.43,3.3-15.4-.24-2.47-.79-5.62-2.01-9.1-1.59-4.53-3.75-7.98-5.48-10.32-3.16,7.81-6.28,15.87-9.35,24.18-2.5,6.77-4.86,13.43-7.09,19.99-.84-32.99-2.15-60.03-3.22-78.98-1.01-17.81-2.19-34.46-4.51-67.05-2.09-29.35-3.9-53.57-5.16-70.28,5.83-21.24,11.44-43.16,16.76-65.76,10-42.49,18.05-83.42,24.5-122.5,5.45-5.14,12.95-12.87,20.63-23.21,15.13-20.37,21.99-38.85,29.66-59.96,4.97-13.69,10.82-32.21,15.47-54.8-4.08-2.79-8.17-5.59-12.25-8.38-.94,12.02-3.51,28.05-10.32,45.78-10.36,27-25.74,45.5-36.11,56.09,1.37-15.07,3.43-31.25,6.45-48.36,3.78-21.42,8.49-41.03,13.54-58.67-3.87,.86-7.74,1.72-11.61,2.58-4.71,14.79-8.3,27.7-10.96,38.04-3.79,14.71-9.37,36.36-13.54,64.47-2.92,19.74-2.33,23.63-5.8,38.04-3.28,13.63-7.04,23.54-11.61,35.46-4.64,12.11-11.31,28.06-20.63,46.42-1.5-84.89-3.01-169.78-4.51-254.67"/>
      <g>
        <path class="cls-40" d="M456.52-95.1c-7.01,26.27-13.57,54.74-19.15,85.28-6.69,36.61-11.05,71.02-13.78,102.71-5.69-14.75-12.03-33.14-17.78-54.63-9.01-33.67-12.8-60.91-14.43-74.74-3.16-26.72-5.18-61.75-1.91-102.84-8.76-.36-17.52-.71-26.28-1.07,0,16.63,.37,33.84,1.2,51.6,1.71,36.51,5.17,70.75,9.68,102.48-20.64-45.19-41.28-90.37-61.91-135.56-5.36,7.38-10.72,14.75-16.08,22.13,4.13,7.98,57.68,111.93,77.99,173.92,4.99,15.21,9.01,29.47,9.01,29.47,8.76,30.99,13.45,55.56,16.91,73.92,1.93,10.26,4.36,23.96,6.8,40.27-22.43,228.24-44.85,456.49-67.28,684.73,59.8-7.57,119.6-15.15,179.4-22.72,.5-9.65,1.01-19.31,1.51-28.96,2.73-6.94,6.53-16.23,11.39-27.04,3.94-8.76,14.79-32.32,32.03-61.64,7.4-12.58,16.88-27.76,28.63-44.57-1.25-7.96-3.77-18.45-9.08-29.9-3.76-8.11-8.01-14.72-11.85-19.88-7.54,10.69-15.4,21.52-23.59,32.45-5.3,7.07-10.59,14-15.86,20.79,.53-29.57,1.85-74.6,5.59-129.7,4.1-60.38,7.75-83.5,10.11-128.67,1.91-36.54,3.06-89.3-1.28-154.22,15.15-19.76,30.41-40.25,45.71-61.47,17.55-24.34,34.19-48.33,49.99-71.88-1.72-3.97-3.43-7.94-5.15-11.91-12.1,16.38-24.19,32.77-36.29,49.15,.28-2.61,.79-6.59,1.79-11.38,2.34-11.14,5.3-16.89,4.07-17.62-1.24-.73-6.04,4.01-9.57,9.67-5.48,8.81-5.45,15.95-7.08,23.31-1.73,7.77-6.46,14.94-15.93,29.28-5.9,8.94-14.48,20.54-26.45,32.91,.77-13.67,1.9-35.14,3-61.51,3.1-74.48,1.96-93.52,5.58-136,1.86-21.9,4.94-43.47,11.1-86.62,7.6-53.21,14.79-97.24,20.14-128.52-43.64,13-87.28,25.99-130.91,38.99Z"/>
        <g class="cls-50">
          <g class="cls-36">
            <path class="cls-13" d="M360.64,163.59c5.99,26.67,13.75,52.93,23.24,78.56,4.73,12.77,9.88,25.38,15.45,37.81,5.5,12.29,12.06,24.33,15.53,37.41,1.67,6.29,2.55,12.85,1.78,19.34s-3.44,12.22-6.55,17.88c-2.78,5.05-5.75,10.13-7.09,15.79-1.42,6.02-.77,12.22,.58,18.19,1.48,6.56,3.75,12.91,5.08,19.51,1.36,6.72,1.53,13.63,.8,20.44-1.48,13.92-6.54,27.23-12.13,39.96-4.7,10.71-9.54,21.5-15.51,31.57-5.52,9.3-12.34,18.21-21.53,24.14-2.32,1.5-4.77,2.78-7.31,3.85-.88,.37-.49,1.82,.4,1.45,20.56-8.58,31.23-29.79,40.1-48.9,5.82-12.52,11.6-25.22,15.03-38.64s3.83-26.28,.4-39.39c-1.75-6.7-4.09-13.33-4.92-20.24s.33-12.99,3.22-19.08c2.54-5.35,5.84-10.31,8.13-15.78,2.47-5.89,3.4-12.24,3-18.6-.83-13.08-6.43-25.35-11.9-37.06-5.93-12.7-11.58-25.51-16.71-38.55-10.25-26.07-18.72-52.84-25.3-80.07-.8-3.32-1.58-6.65-2.33-9.98-.21-.94-1.66-.54-1.45,.4h0Z"/>
          </g>
          <g class="cls-36">
            <path class="cls-20" d="M384.66,146.78c7.85,24.48,15.69,48.97,23.54,73.45,7.44,23.2,15.41,46.42,19.48,70.51,2.04,12.07,2.48,24.34,4.5,36.41s6.19,22.8,9.02,34.29c2.95,11.97,3.12,23.56,.72,35.64-2.24,11.32-5.89,22.31-7.89,33.68-1.98,11.26-1.39,22.37-.27,33.68s2.58,23.78-.31,35.36c-5.09,20.38-23.38,33.67-31.63,52.52-8.66,19.78-8.21,41.94-14.35,62.42-6.4,21.36-21.05,38.46-32.86,56.93-23.84,37.28-30.71,81.58-35.07,124.81-.56,5.56-1.08,11.12-1.6,16.68-.09,.96,1.41,.95,1.5,0,4.15-44.55,8.59-91.06,30.62-130.95,10.6-19.19,25.73-35.69,34.68-55.82,8.83-19.86,8.71-41.84,14.57-62.51,2.99-10.55,8.03-19.74,14.56-28.49,6.02-8.07,12.71-15.8,17.2-24.89,10.27-20.8,2.73-43.41,3.03-65.35,.31-23.12,12.17-44.58,11.11-67.81-.52-11.44-4.22-22.37-7.42-33.27-3.48-11.85-5.17-23.7-6.39-35.96-2.41-24.14-8.68-47.24-16.01-70.31-7.74-24.37-15.6-48.7-23.4-73.05l-5.89-18.36c-.29-.92-1.74-.52-1.45,.4h0Z"/>
          </g>
          <g class="cls-36">
            <path class="cls-7" d="M400.71,32.88c26.24,54.63,51.97,110.53,52.44,172.3,.12,15.57-.61,31.18,.65,46.73,1.14,13.98,4.36,27.41,9.42,40.48,9.58,24.75,24.06,48.1,28.01,74.72,4.69,31.51-7.87,62.04-16.39,91.75-8.16,28.45-14.01,57.5-19.36,86.59-10.6,57.69-19.24,116.31-40.15,171.41-10.24,27-24.03,52.42-35.39,78.93-10.47,24.41-19.2,50.45-18.64,77.34,.13,6.34,.82,12.64,1.96,18.87,.17,.95,1.62,.55,1.45-.4-10.56-57.56,25.2-110.05,46.59-160.66,23.05-54.55,32.71-113.34,43.12-171.28,5.24-29.13,10.68-58.26,18.17-86.91,7.51-28.74,19.84-57.24,21.05-87.24,1.11-27.38-10.54-51.67-21.53-76-5.73-12.68-11.2-25.6-14.18-39.25-3.42-15.69-3.49-31.83-3.37-47.81s.22-30.73-1.66-46.03c-1.75-14.28-4.8-28.37-8.78-42.19-8.16-28.38-20.07-55.51-32.63-82.18-3.14-6.66-6.32-13.3-9.51-19.93-.42-.87-1.71-.11-1.3,.76h0Z"/>
          </g>
          <g class="cls-36">
            <path class="cls-10" d="M474.12,18.23c12.5,39.97,19.6,81.55,21.06,123.4,.72,20.78,.07,41.6-1.98,62.29-1.04,10.56-2.78,20.99-4.17,31.49-.56,4.24-.71,8.64,1.01,12.65,1.53,3.56,4.26,6.39,6.86,9.19,12.41,13.41,16.93,30.85,19.18,48.54,2.37,18.62,3.35,37.24,7.15,55.68,4.26,20.66,10.54,40.84,17.41,60.76,6.28,18.23,12.77,36.42,19.76,54.39,12.53,32.21,27.82,64.58,52.81,89.11,3.13,3.07,6.41,5.99,9.8,8.77,.74,.61,1.81-.45,1.06-1.06-27.77-22.75-45.03-54.95-58.42-87.67-7-17.11-13.18-34.56-19.37-51.98-7.01-19.71-13.7-39.58-18.7-59.91-2.51-10.21-4.6-20.53-6.06-30.95-1.28-9.14-1.97-18.34-2.87-27.52-1.62-16.49-3.87-33.71-12.4-48.26-1.96-3.35-4.25-6.5-6.83-9.39-3.14-3.52-6.81-6.8-8.4-11.37-1.79-5.13-.52-10.82,.29-16.01,.76-4.86,1.45-9.73,2.06-14.61,2.56-20.45,3.75-41.08,3.58-61.69-.34-40.94-6.02-81.86-16.96-121.32-1.39-5.01-2.87-9.99-4.42-14.95-.29-.92-1.74-.53-1.45,.4h0Z"/>
          </g>
          <g class="cls-36">
            <path class="cls-69" d="M460.53,87.2c-8.79,52.71,9.45,104.29,22,154.78,6.74,27.11,11.07,54.51,13.11,82.37,2.03,27.76,2.27,55.61,2.67,83.44s.95,56.19,3.63,84.16,7.77,54.26,12.87,81.2c5.24,27.67,10.26,55.42,12.13,83.56,.85,12.89,1.36,25.92,4.43,38.52,2.87,11.78,8.08,22.85,14.3,33.21,6.35,10.57,13.74,20.46,21.16,30.3,6.59,8.74,13.27,17.42,20.46,25.68,13.8,15.84,29.89,30.74,49.78,38.4,4.99,1.92,10.14,3.3,15.41,4.21,.94,.16,1.35-1.28,.4-1.45-21.98-3.76-40.3-16.87-55.6-32.52-16.03-16.39-30.1-35.26-43.05-54.14-7-10.2-13.4-20.93-17.79-32.53-4.71-12.42-6.36-25.46-7.28-38.64-1.86-26.81-5.15-53.13-10-79.57-5.01-27.3-10.74-54.49-14.16-82.06-3.33-26.93-4.38-54.07-4.91-81.18-1.05-54.08-.12-108.65-11.17-161.89-10.68-51.4-31.54-102.13-29.08-155.45,.31-6.71,1.03-13.39,2.13-20.01,.16-.94-1.29-1.35-1.45-.4h0Z"/>
          </g>
        </g>
      </g>
      <g>
        <path class="cls-53" d="M1698.31,893.84c-3.04-14.19-7.05-35.61-9.67-61.9-4.17-41.86-2.45-72.63-1.93-87.04,2.3-64.03-8.82-87.07-15.47-162.48-5.64-63.91-.54-80.15,1.29-187.62,.91-53.61,1.04-131.76-3.22-228.24-14.9-19.04-27.02-34.57-35.25-45.13-26.26-33.71-30.93-39.88-41.26-49-16.81-14.84-32.79-23.53-46.42-30.95-18.37-9.99-25.63-11.57-49.86-24.07-15.39-7.94-27.55-15.09-35.25-19.77,6.7,.21,13.4,.43,20.09,.64,6.01,3.85,13.65,8.04,22.89,11.61,11.99,4.63,22.84,6.75,31.27,7.74-10.12-3.41-23.99-9.36-38.36-19.99-10.75-7.95-18.77-16.28-24.5-23.21,6.45-.64,12.89-1.29,19.34-1.93,10.11,8.69,19.27,14.08,25.79,17.41,14.62,7.46,22.2,7.71,34.82,16.12,7.08,4.72,10.36,8.42,18.7,16.76,0,0,15.11,15.11,42.55,39.33,10.15,8.96,25.33,21.4,45.78,34.82-2.58-18.05-5.16-36.11-7.74-54.16-6.95-7.99-14.46-16.18-22.57-24.5-10.09-10.35-20.04-19.79-29.66-28.37,9.46-1.5,18.91-3.01,28.37-4.51,7.31,5.61,14.61,11.22,21.92,16.83-1.07-29.03-2.15-58.07-3.22-87.1,35.89-.43,71.78-.86,107.67-1.29,2.62,30.57,5.41,61.3,8.38,92.2,.85,8.83,1.71,17.64,2.58,26.43,4.47-5.13,9.05-10.92,13.54-17.41,10.7-15.48,17.79-30.49,22.57-43.2,4.94,.43,9.89,.86,14.83,1.29-3.13,14.72-7.79,31.56-14.83,49.65-10.2,26.22-22.47,47.52-33.53,63.83,4.38,22.95,10.6,58.98,15.47,103.8,2.86,26.35,3.25,37.28,8.38,106.38,4.54,61.16,6.81,91.74,9.03,114.12,4.93,49.73,9.45,75.19,17.41,130.24,6.16,42.58,14.56,104.1,23.21,180.53,11.61,70.06,23.21,140.12,34.82,210.19-59.32-12.68-118.63-25.36-177.95-38.04Z"/>
        <g class="cls-32">
          <g class="cls-36">
            <path class="cls-3" d="M1799.47,369.62c-6.02-.66-11.7,2.2-15.69,6.59-4.38,4.82-6.61,11.02-6.69,17.5-.21,16.2,10.49,29.55,16.3,43.93,1.43,3.53,2.59,7.18,3.24,10.94,.73,4.26,.71,8.61,.52,12.92-.35,7.9-.85,15.67,.16,23.55,1.84,14.38,7.15,28.04,13.99,40.75,7.14,13.27,15.9,25.59,24.87,37.67,1.1,1.47,2.2,2.95,3.3,4.42,.57,.76,1.87,.02,1.3-.76-8.73-11.64-17.36-23.4-24.73-35.96-7.23-12.32-13.25-25.52-16.13-39.58-1.47-7.21-2-14.52-1.68-21.86,.35-8,1.2-16.02-.62-23.91-3.44-14.99-13.87-27.2-17.7-42.06-1.8-6.99-2.04-14.61,1.31-21.17,2.74-5.38,7.6-10.08,13.67-11.29,1.52-.3,3.07-.33,4.6-.16,.96,.1,.95-1.4,0-1.5h0Z"/>
          </g>
          <g class="cls-36">
            <path class="cls-65" d="M1839.46,253.61c-9.15-2.2-16.83,5.06-22,11.71-6.09,7.84-11.12,16.42-15.7,25.21-9.06,17.34-16.48,35.68-27.79,51.76-5.91,8.41-13.14,15.34-20.36,22.58-6.74,6.76-12.82,14.14-15.74,23.39-6.32,20.06,1.2,41.07,10.01,59.09,4.99,10.22,10.56,20.18,14.86,30.73s7.36,21.25,9.32,32.31c2.06,11.63,2.72,23.42,2.26,35.21-.47,11.99-1.91,23.91-2.97,35.86-1.86,20.96-2.48,42.92,5.26,62.89,3.37,8.69,8.28,17.54,15.72,23.39,8.47,6.66,19.74,7.03,29.95,8.72,23.31,3.86,46.35,9.37,68.89,16.46,19.7,6.2,41.52,14.48,50.94,34.47,2.15,4.57,3.35,9.48,3.46,14.53,.02,.96,1.52,.97,1.5,0-.44-19.41-15.79-33.8-32.21-41.7-9.45-4.55-19.55-7.67-29.57-10.68-11.09-3.33-22.3-6.28-33.59-8.84-11.29-2.56-22.67-4.73-34.12-6.51-5.44-.84-11.01-1.42-16.23-3.23-5.07-1.76-9.32-4.93-12.82-8.95-13.84-15.87-17.06-38.89-16.88-59.18,.21-23.07,4.86-45.89,4.27-68.99-.55-21.71-5.62-43.17-14.66-62.91-9.05-19.75-21.74-38.64-23.87-60.8-1-10.36,.43-21.04,5.76-30.12,5.12-8.72,12.97-15.33,19.99-22.45,13.55-13.74,22.42-30.76,30.8-47.95,4.25-8.72,8.44-17.48,13.23-25.92,4.75-8.37,10.06-17.52,17.4-23.88,4.03-3.49,9.05-6.06,14.48-4.75,.94,.23,1.34-1.22,.4-1.45h0Z"/>
          </g>
          <g class="cls-36">
            <path class="cls-8" d="M1786.09,96.27c-19.25,15.51-37.75,32.22-52.92,51.83-15.77,20.4-26.27,43.61-34.11,68.05-8.36,26.04-15.56,52.77-21.46,79.47-5.8,26.26-9.12,53.02-6.76,79.92,4.19,47.69,22.69,92.48,37.56,137.53,7.5,22.73,14.27,45.82,17.79,69.54,1.75,11.81,2.66,23.77,2.45,35.72-.23,12.82-2.21,25.41-3.84,38.1-1.61,12.55-2.72,25.48,.05,37.95,2.71,12.17,9.96,21.94,15.87,32.66,12.75,23.14,13.48,50.2,11.89,75.95-.39,6.27-.92,12.54-1.47,18.8-.08,.96,1.42,.96,1.5,0,2.14-24.38,4.21-49.6-1.99-73.59-3.08-11.92-8.72-22.15-15-32.63-7.11-11.86-10.97-23.86-10.99-37.78-.02-13.3,2.49-26.43,4.07-39.59,1.42-11.82,1.79-23.7,1.07-35.59-1.39-23.06-6.5-45.71-13-67.82-13.43-45.67-32.98-89.69-41.41-136.75-4.69-26.18-4.88-52.45-.78-78.73,4.26-27.33,11.91-54.08,19.35-80.68,7.12-25.47,15.26-51.02,29.29-73.64,13.2-21.29,30.82-39.45,49.67-55.79,4.67-4.05,9.43-7.99,14.24-11.86,.75-.61-.32-1.66-1.06-1.06h0Z"/>
          </g>
        </g>
      </g>
    </g>
    <path class="cls-6" d="M1107.14,963.63c-46.29-2.24-82-36.95-83.29-76.31-1.07-32.57,21.59-63.77,56.52-76.31-19.44-11.8-28.07-33.34-21.81-51.5,6.67-19.38,27.29-26.23,29.75-27.01-.47-2.8-1.75-12.62,4.63-20.73,7.97-10.14,24.75-13.58,40.32-6.91,6.78-7.41,16.69-11.03,25.12-8.79,12.08,3.2,20.71,18.32,15.2,33.91,.15-.51,2.55-8.36,10.58-10.68,6.44-1.86,13.71,.64,17.85,6.28-.76-1.19-6.61-10.61-2.64-18.84,4.43-9.2,19.84-14.28,35.03-7.54,10.62-11.76,26.17-17.43,39-13.82,18.43,5.19,31.37,29.59,21.15,54.01,2.31-.17,8.16-.3,13.88,3.14,10.13,6.1,10.56,17.81,10.58,18.84-4.43-9.36-3.5-20.06,2.64-27.63,8.03-9.9,23.8-12.99,37.02-6.28,.31-2.21,2.22-14.11,13.22-21.35,10.7-7.05,25.68-6.85,37.68,.63-1.54-1.45-15.73-15.17-12.56-32.66,3.19-17.56,22.59-31.84,46.27-30.77-.92-1.2-11.24-15.07-5.95-27.01,5.68-12.81,28.02-20.45,50.24-10.05,5.59-10.62,17.47-16.4,28.42-14.45,13.42,2.4,23.41,16.04,20.49,30.77,8.53-6.69,19.75-9.04,29.25-5.65,13.25,4.73,21.52,20.05,17.35,35.8,1.35-2.01,13.11-18.99,33.71-20.25,19.92-1.22,39.78,12.76,46.11,34.39,1.46,.92,17.17,11.15,17.35,28.26,.17,15.97-13.26,31.17-32.72,34.86,16.59-1.83,29.7,10.16,29.75,21.67,.04,11.82-13.71,24.16-30.74,21.67,4.11-2.67,16.67-10.07,31.73-7.54,19.98,3.37,36.46,22.92,37.68,48.05,25.33,9.14,35.03,22.85,38.67,29.2,19.24,33.57-.31,89.3-55.53,130.01-6.82,9.77-48.56,67.5-124.94,77.25-72.76,9.29-147.4-28.74-186.41-96.09-41.34,72.12-121.58,106.88-188.39,88.55-59.07-16.21-86.69-68.16-92.21-79.13Z"/>
    <path class="cls-64" d="M570.77,956.75c46.29-2.24,82-36.95,83.29-76.31,1.07-32.57-21.59-63.77-56.52-76.31,19.44-11.8,28.07-33.34,21.81-51.5-6.67-19.38-27.29-26.23-29.75-27.01,.47-2.8,1.75-12.62-4.63-20.73-7.97-10.14-24.75-13.58-40.32-6.91-6.78-7.41-16.69-11.03-25.12-8.79-12.08,3.2-20.71,18.32-15.2,33.91-.15-.51-2.55-8.36-10.58-10.68-6.44-1.86-13.71,.64-17.85,6.28,.76-1.19,6.61-10.61,2.64-18.84-4.43-9.2-19.84-14.28-35.03-7.54-10.62-11.76-26.17-17.43-39-13.82-18.43,5.19-31.37,29.59-21.15,54.01-2.31-.17-8.16-.3-13.88,3.14-10.13,6.1-10.56,17.81-10.58,18.84,4.43-9.36,3.5-20.06-2.64-27.63-8.03-9.9-23.8-12.99-37.02-6.28-.31-2.21-2.22-14.11-13.22-21.35-10.7-7.05-25.68-6.85-37.68,.63,1.54-1.45,15.73-15.17,12.56-32.66-3.19-17.56-22.59-31.84-46.27-30.77,.92-1.2,11.24-15.07,5.95-27.01-5.68-12.81-28.02-20.45-50.24-10.05-5.59-10.62-17.47-16.4-28.42-14.45-13.42,2.4-23.41,16.04-20.49,30.77-8.53-6.69-19.75-9.04-29.25-5.65-13.25,4.73-21.52,20.05-17.35,35.8-1.35-2.01-13.11-18.99-33.71-20.25-19.92-1.22-39.78,12.76-46.11,34.39-1.46,.92-17.17,11.15-17.35,28.26-.17,15.97,13.26,31.17,32.72,34.86-16.59-1.83-29.7,10.16-29.75,21.67-.04,11.82,13.71,24.16,30.74,21.67-4.11-2.67-16.67-10.07-31.73-7.54-19.98,3.37-36.46,22.92-37.68,48.05-25.33,9.14-35.03,22.85-38.67,29.2-19.24,33.57,.31,89.3,55.53,130.01,6.82,9.77,48.56,67.5,124.94,77.25,72.76,9.29,147.4-28.74,186.41-96.09,41.34,72.12,121.58,106.88,188.39,88.55,59.07-16.21,86.69-68.16,92.21-79.13Z"/>
    <path class="cls-37" d="M681.42,920.89c-139.45-2.56-278.91-5.12-418.36-7.68-108.95-58.24-217.89-116.48-326.84-174.72,575.07,26.95,1149.37,30.87,1722.88,11.78,218.38-7.27,436.65-17.88,654.82-31.83-3.03,56.08-6.06,112.17-9.09,168.25-541.14,11.4-1082.27,22.81-1623.41,34.21Z"/>
    <g>
      <g>
        <g>
          <path class="cls-22" d="M1773.79,778.2c14.38-9.21,33.5-20.92,56.59-33.6,40.17-22.07,60.26-33.11,84.88-40.32,25.85-7.58,35.6-6.13,65.68-17.28,8.64-3.2,23.41-8.74,40.42-18.24,16.5-9.22,52-29.05,71.75-62.41,5.59-9.44,9.19-30.1,16.17-71.05,10.58-62.07,15.96-93.79,20.21-127.69,5.06-40.33,5.17-50.56,5.05-57.61-.34-21.14-.83-51.47-14.15-80.65-10.15-22.24-21.77-30.7-70.74-73.93-64.07-56.56-48.56-45.93-80.84-72.97-34.44-28.84-78.54-63.08-132.38-98.89,48.5-3.2,97.01-6.4,145.51-9.6,30.84,17.52,67.09,41.5,104.08,73.93,28.49,24.98,51.46,49.74,69.73,72.01,3.71-59.21,7.41-118.41,11.12-177.62,45.47,6.4,90.95,12.8,136.42,19.2-6.06,271.06-12.13,542.13-18.19,813.19-170.44-12.16-340.88-24.32-511.32-36.48Z"/>
          <g class="cls-57">
            <g class="cls-36">
              <path class="cls-66" d="M2118.05,373.23c11.8,13.61,22.66,28.4,29.67,45.09,6.65,15.82,9.53,33.39,6.28,50.38-1.57,8.2-4.57,16.12-9.16,23.11-4.92,7.5-11.84,13.62-15.75,21.78-3.91,8.15-4.8,17.31-7.63,25.82-2.46,7.38-5.97,14.39-10.33,20.83-8.76,12.93-20.99,23.53-35.14,30.15-1.79,.84-3.61,1.6-5.45,2.31-.89,.34-.51,1.79,.4,1.45,14.74-5.64,27.77-15.38,37.54-27.77,4.9-6.21,8.99-13.04,12.07-20.33,1.54-3.64,2.82-7.37,3.84-11.19,1.24-4.65,2.14-9.39,3.54-14,1.4-4.61,3.43-8.85,6.22-12.78,2.7-3.81,5.84-7.27,8.7-10.95,5.21-6.69,9.02-14.24,11.29-22.41,4.64-16.7,3.05-34.7-2.69-50.92-6.07-17.15-16.36-32.45-27.89-46.39-1.46-1.77-2.94-3.51-4.45-5.24-.63-.73-1.69,.33-1.06,1.06h0Z"/>
            </g>
            <g class="cls-36">
              <path class="cls-41" d="M2061.66,227.23c24.04,.61,47.57,9.01,66.7,23.55,19.79,15.03,33.91,36.53,40.37,60.48,3.17,11.76,4.51,24.01,3.84,36.17-.73,13.35-5.09,26.19-5.71,39.53-.29,6.2,.44,12.42,2.84,18.19,2.26,5.43,5.68,10.24,9,15.06,7.32,10.62,12.21,21.83,13.42,34.78,4.94,53.03-37.32,94.08-46.69,143.92-2.08,11.04-1.84,22.21-2.45,33.38-.6,10.9-2.14,22.73-9.59,31.27-7.87,9.02-20.23,11.16-29.77,17.77-9.16,6.35-13.56,16.57-17.36,26.66-4.13,10.97-8.76,21.42-15.36,31.16-6.43,9.49-14.12,18.09-22.48,25.93-16.82,15.76-36.24,28.47-55.93,40.32-4.93,2.97-9.89,5.88-14.86,8.78-.83,.49-.08,1.78,.76,1.3,39.07-22.81,81.82-48.32,102.48-90.48,5.21-10.62,7.85-22.56,14.25-32.58,3.5-5.47,8.19-9.54,13.89-12.59,5.1-2.72,10.54-4.74,15.6-7.55,9.39-5.21,15.22-13.4,17.76-23.77s2.21-21.91,2.71-32.85c1.24-27.08,12.78-51.16,24.64-75.02,11.21-22.57,22.23-45.78,24.02-71.31,.83-11.8-.5-23.85-5.09-34.82-4.96-11.86-15.2-21.08-18.83-33.5-4.19-14.33,1.14-29.2,3.22-43.41,1.71-11.63,1.54-23.48-.35-35.08-3.88-23.74-15.1-46.25-32.23-63.21-16.77-16.6-38.77-27.91-62.02-31.93-5.55-.96-11.16-1.5-16.79-1.64-.97-.02-.97,1.48,0,1.5h0Z"/>
            </g>
            <g class="cls-36">
              <path class="cls-68" d="M2100.38,53.78c23.12,7.83,38.8,27.53,49.35,48.72,12.35,24.81,19.45,52.6,24.52,79.71,5.64,30.14,6.98,60.22,6.79,90.8-.09,14.07,.48,28.39,5.43,41.72,4.96,13.36,12.57,25.48,17.06,39.07,17.74,53.6,4.38,111.28-3.39,165.41-3.94,27.46-6.85,55.15-5,82.91,2.02,30.28,8.17,60.37,5.5,90.82-4.93,56.31-34.76,106.6-65.1,152.85-3.72,5.68-7.49,11.33-11.25,16.97-.54,.81,.76,1.56,1.3,.76,30.81-46.13,62.83-94.53,73.63-149.89,5.8-29.72,2.81-59.07-.47-88.89-1.68-15.29-2.96-30.6-2.67-46,.26-14.16,1.54-28.28,3.26-42.33,6.72-54.79,21.99-111.51,10.08-166.66-2.86-13.26-7.51-25.87-13.51-38.02-3.59-7.27-7.34-14.51-9.64-22.32-2.2-7.48-3.15-15.26-3.52-23.03-.74-15.27,.22-30.57-.4-45.85-.61-14.85-2.03-29.67-4.24-44.38-4.26-28.29-11-56.95-22.07-83.41-8.67-20.69-21.15-41.37-40.6-53.53-4.61-2.88-9.53-5.15-14.67-6.89-.92-.31-1.31,1.14-.4,1.45h0Z"/>
            </g>
          </g>
        </g>
        <path class="cls-1" d="M2066.99,395.79c-.24,1.7-1.11,5.91-4.79,9.24-4.72,4.26-12.13,5.32-18.97,2.77-4.79,4.54-11.39,5.74-15.33,3.47-5.12-2.95-7.02-12.45-.43-19.66-3.54-2.5-5.93-6.14-5.41-9.47,.79-5.03,8.31-9.78,17.52-7.63-1.66-4.21-.8-8.81,2.19-11.79,3.96-3.94,11.38-4.78,15.7-.68,3.44,3.26,4.01,8.8,1.09,13.16,13.65-1.81,23.42,3.02,24.09,7.63,.6,4.14-5.89,9.93-15.65,12.95Z"/>
        <path class="cls-60" d="M2090.66,354.4c-2.94,6.12-9.69,9.5-16.06,8.32-5.12-.95-9.33-4.72-10.95-9.71-1.66,.94-7.62,4.06-15.33,2.77-1.12-.19-10.63-1.94-15.33-10.4-.9-1.62-4.5-8.11-1.46-14.56,2.86-6.08,10.52-9.81,18.98-9.02,.2-5.41,4.85-9.67,10.22-9.71,4.91-.03,9.33,3.47,10.22,8.32-2.36-2.82-1.65-6.86,1.09-8.67,2.86-1.88,7.31-.92,9.12,2.43-1.32-.86-6.45-4.44-8.03-11.1-1.48-6.27,.85-12.52,4.38-15.95,6.85-6.66,22.11-6.52,34.73,3.49,4.13-4.91,10.41-7.31,15.63-5.91,7.39,1.98,12.65,11.55,8.76,21.15,4.88-2.56,10.62-2.6,14.96,0,3.73,2.23,5.17,5.65,5.64,6.93,.68-.57,8.78-7.11,19.54-4.51,10.28,2.49,14.2,11.21,14.6,12.14,3.08-2.66,7.51-3.19,10.95-1.39,4.5,2.36,4.74,7.4,4.74,7.63,4.65-.54,8.99,1.2,10.58,4.16,2.21,4.13-.62,11.19-8.03,13.52,3.93,6.5,.91,14.47-5.11,16.99-6.16,2.59-14.62-.91-16.79-8.32-3.64,3.44-9.01,4.65-13.87,3.12-4.94-1.55-8.52-5.68-9.2-10.6-.94,1.47-6.84,10.36-18.54,12.33-7.6,1.28-13.68-1.03-16.06-2.08-1.04,2-4.55,8.08-11.68,10.4-9.29,3.03-21.05-1.53-27.74-11.79Z"/>
        <path class="cls-28" d="M2165.11,279.16c5.8,6.78,16.3,7.2,22.14,1.73,5.82-5.45,5.09-14.93-.24-19.76-3.83-3.47-8.91-3.53-10.42-3.5,1.15-4.44-.39-9.08-3.94-11.87-4.2-3.3-10.5-3.46-15.21-.23-4.39-1.84-9.25-2.01-12.04,.23-4.1,3.28-4.34,12.22,2.92,18.84-6.53,2.96-9.46,9.5-7.54,14.45,1.88,4.85,7.83,6.66,11.92,6.7,7.73,.08,12.11-6.14,12.41-6.59Z"/>
        <path class="cls-2" d="M2086.28,263.32c-.43-.58-4.93-6.82-2.19-13.64,2.2-5.48,8.79-10.64,15.33-8.78,4.61,1.31,8.01,5.77,8.52,11.1,.83-.14,6.91-1.04,11.68,3.01,.67,.56,5.34,4.66,4.38,10.17-.4,2.31-1.64,3.96-2.43,4.85,.36,.93,1.79,4.89-.24,8.09-2.56,4.04-9.87,5.65-16.79,2.08-9.85,5.78-20.5,5.39-25.55,.23-3.54-3.62-5.88-11.16-1.95-15.03,3.05-3,8.31-2.23,9.25-2.08Z"/>
        <path class="cls-4" d="M2271.92,111.68c-5.21-14.44-20.49-23.35-36.01-21.27-14.72,1.97-26.43,13.39-28.22,27.74-12.75,.06-24.43,6.86-30.17,17.57-5.51,10.28-4.76,22.65,1.95,32.36-12.93-5.85-27.57-1.19-33.09,8.32-6.36,10.97-.3,27.91,15.57,33.29-8.43,3.59-13.47,11.54-12.65,19.42,1.09,10.48,12.32,18.81,23.36,16.64,8.55-1.68,15.18-9.3,15.57-18.49,5.73,5.4,13.92,7.55,21.41,5.55,9.11-2.44,13.02-9.9,13.62-11.1,1.05,2.3,4.08,8.05,10.71,11.1,8.94,4.11,20.75,1.62,29.2-6.47,2.96,2.53,8.65,6.56,16.54,7.4,13.01,1.39,26.54-6.48,34.06-19.88,16.13,1.93,31.45-6.7,36.98-20.34,6.17-15.22-1.18-33.36-17.52-41.15,4.96-13.52,2.5-28.24-6.81-37.91-12.68-13.17-36.43-15.28-54.5-2.77Z"/>
        <path class="cls-16" d="M1697.98-61.68c-34.08,1.65-60.36,27.2-61.31,56.17-.78,23.98,15.89,46.94,41.6,56.17-14.31,8.68-20.66,24.54-16.06,37.91,4.91,14.27,20.09,19.31,21.9,19.88-.35,2.06-1.29,9.29,3.41,15.26,5.87,7.46,18.22,9.99,29.68,5.09,4.99,5.46,12.29,8.12,18.49,6.47,8.89-2.36,15.24-13.49,11.19-24.97,.11,.37,1.87,6.15,7.79,7.86,4.74,1.37,10.1-.47,13.14-4.62-.56,.87-4.87,7.81-1.95,13.87,3.26,6.77,14.61,10.51,25.79,5.55,7.81,8.66,19.26,12.83,28.71,10.17,13.56-3.82,23.09-21.78,15.57-39.76,1.7,.13,6.01,.22,10.22-2.31,7.46-4.49,7.77-13.11,7.79-13.87-3.26,6.89-2.58,14.77,1.95,20.34,5.91,7.29,17.52,9.56,27.25,4.62,.23,1.63,1.64,10.38,9.73,15.72,7.88,5.19,18.91,5.05,27.74-.46-1.14,1.07-11.58,11.17-9.25,24.04,2.35,12.92,16.63,23.44,34.06,22.65-.68,.88-8.28,11.09-4.38,19.88,4.18,9.43,20.62,15.06,36.98,7.4,4.12,7.81,12.86,12.07,20.92,10.63,9.88-1.76,17.23-11.8,15.08-22.65,6.28,4.92,14.54,6.66,21.53,4.16,9.76-3.48,15.84-14.76,12.77-26.35,.99,1.48,9.65,13.98,24.82,14.91,14.66,.9,29.28-9.4,33.94-25.31,1.07-.67,12.64-8.21,12.77-20.8,.12-11.76-9.76-22.94-24.09-25.66,12.21,1.35,21.87-7.48,21.9-15.95,.03-8.7-10.09-17.78-22.63-15.95,3.02,1.97,12.27,7.42,23.36,5.55,14.71-2.48,26.84-16.87,27.74-35.37,18.64-6.73,25.78-16.82,28.47-21.5,14.16-24.71-.23-65.74-40.87-95.7-5.02-7.19-35.74-49.69-91.97-56.86-53.56-6.84-108.5,21.16-137.22,70.73-30.43-53.09-89.49-78.68-138.68-65.19-43.49,11.93-63.81,50.17-67.88,58.25Z"/>
        <path class="cls-23" d="M740.48-155.66c34.08,1.65,60.36,27.2,61.31,56.17,.78,23.98-15.89,46.94-41.6,56.17,14.31,8.68,20.66,24.54,16.06,37.91-4.91,14.27-20.09,19.31-21.9,19.88,.35,2.06,1.29,9.29-3.41,15.26-5.87,7.46-18.22,9.99-29.68,5.09-4.99,5.46-12.29,8.12-18.49,6.47-8.89-2.36-15.24-13.49-11.19-24.97-.11,.37-1.87,6.15-7.79,7.86-4.74,1.37-10.1-.47-13.14-4.62,.56,.87,4.87,7.81,1.95,13.87-3.26,6.77-14.61,10.51-25.79,5.55-7.81,8.66-19.26,12.83-28.71,10.17-13.56-3.82-23.09-21.78-15.57-39.76-1.7,.13-6.01,.22-10.22-2.31-7.46-4.49-7.77-13.11-7.79-13.87,3.26,6.89,2.58,14.77-1.95,20.34-5.91,7.29-17.52,9.56-27.25,4.62-.23,1.63-1.64,10.38-9.73,15.72-7.88,5.19-18.91,5.05-27.74-.46,1.14,1.07,11.58,11.17,9.25,24.04-2.35,12.92-16.63,23.44-34.06,22.65,.68,.88,8.28,11.09,4.38,19.88-4.18,9.43-20.62,15.06-36.98,7.4-4.12,7.81-12.86,12.07-20.92,10.63-9.88-1.76-17.23-11.8-15.08-22.65-6.28,4.92-14.54,6.66-21.53,4.16-9.76-3.48-15.84-14.76-12.77-26.35-.99,1.48-9.65,13.98-24.82,14.91-14.66,.9-29.28-9.4-33.94-25.31-1.07-.67-12.64-8.21-12.77-20.8-.12-11.76,9.76-22.94,24.09-25.66-12.21,1.35-21.87-7.48-21.9-15.95-.03-8.7,10.09-17.78,22.63-15.95-3.02,1.97-12.27,7.42-23.36,5.55-14.71-2.48-26.84-16.87-27.74-35.37-18.64-6.73-25.78-16.82-28.47-21.5-14.16-24.71,.23-65.74,40.87-95.7,5.02-7.19,35.74-49.69,91.97-56.86,53.56-6.84,108.5,21.16,137.22,70.73,30.43-53.09,89.49-78.68,138.68-65.19,43.49,11.93,63.81,50.17,67.88,58.25Z"/>
        <path class="cls-59" d="M2065.85-29.9c-19.81,.38-34.12,13.74-34.31,27.16-.18,12.82,12.58,21.36,13.87,22.19-9.39,6.62-11.11,18.78-5.11,26.35,4.83,6.09,14.12,8.53,22.63,5.55,.03,5.96,1.21,15.55,8.03,23.58,12.17,14.33,37.62,18.21,62.04,7.63,.34,2.04,2.31,12.71,11.68,18.03,10.82,6.14,27.42,2.8,37.95-9.71,.32,3.31,1.5,9.58,6.57,14.56,8.14,8,22.99,9.41,36.49,2.77,6.08,15.24,15.27,20.46,18.98,22.19,20.76,9.71,54.84-3.04,78.1-36.06-3.89-44.84-7.79-89.69-11.68-134.53-81.75,3.43-163.5,6.86-245.24,10.29Z"/>
      </g>
      <g>
        <path class="cls-44" d="M-241.89,725.78c14.38-9.21,33.5-20.92,56.59-33.6,40.17-22.07,60.26-33.11,84.88-40.32,25.85-7.58,35.6-6.13,65.68-17.28,8.64-3.2,23.41-8.74,40.42-18.24,16.5-9.22,52-29.05,71.75-62.41,5.59-9.44,9.19-30.1,16.17-71.05,10.58-62.07,15.96-93.79,20.21-127.69,5.06-40.33,5.17-50.56,5.05-57.61-.34-21.14-.83-51.47-14.15-80.65-10.15-22.24-21.77-30.7-70.74-73.93C-30.09,86.45-14.58,97.08-46.86,70.04-81.3,41.2-125.4,6.96-179.24-28.85c48.5-3.2,97.01-6.4,145.51-9.6C-2.89-20.93,33.36,3.05,70.36,35.48c28.49,24.98,51.46,49.74,69.73,72.01,3.71-59.21,7.41-118.41,11.12-177.62,32.24-2.16,64.47-4.31,96.71-6.47,13.77,164.09,8.64,293.35,1.27,381.68-6.31,75.57-16.98,153.84-8.85,267.08,5.83,81.34,18.97,147.26,29.1,190.1-170.44-12.16-340.88-24.32-511.32-36.48Z"/>
        <g class="cls-21">
          <g class="cls-36">
            <path class="cls-11" d="M252.34,346.5c-4.36-2.61-9.95-1.76-13.92,1.19-1.91,1.42-3.46,3.29-4.32,5.52-1.22,3.15-.16,6.37-.67,9.6-.57,3.65-4,5.29-6.82,7.06-2.26,1.41-4.35,3.11-6.2,5.03-3.71,3.84-6.47,8.52-8.26,13.53-3.55,10.01-3.17,21.63,1.98,31.03,1.48,2.7,3.44,4.99,5.3,7.42,1.12,1.46,2.16,3.02,2.8,4.76,.69,1.88,.95,3.89,1.12,5.87,.3,3.46,.52,6.88,1.33,10.27s1.96,6.5,3.47,9.54c3.19,6.43,7.87,11.49,13.32,16.08,5.51,4.64,11.73,9.69,13.08,17.2,.32,1.79,.28,3.6-.15,5.37-.23,.94,1.22,1.34,1.45,.4,1.6-6.61-1.84-13.05-6.3-17.73-4.88-5.11-10.92-8.92-15.32-14.5s-7.23-11.94-8.52-18.75c-.64-3.41-.63-6.87-1.12-10.29s-1.87-6.41-4.03-9.2c-1.88-2.43-3.82-4.75-5.28-7.47-1.27-2.37-2.22-4.9-2.87-7.5-1.29-5.13-1.41-10.55-.48-15.76s2.87-10.17,5.79-14.55c1.49-2.23,3.25-4.29,5.23-6.1,2.13-1.95,4.55-3.35,6.96-4.92,2.81-1.82,4.89-4.07,5.12-7.55,.13-2.01-.28-4.04-.07-6.05,.15-1.45,.68-2.83,1.45-4.05,3.08-4.84,10.1-7.2,15.18-4.15,.83,.5,1.59-.8,.76-1.3h0Z"/>
          </g>
          <g class="cls-36">
            <path class="cls-54" d="M304.76,247.73c-13.21-1.47-26.51-2.03-39.79-1.61-6.64,.21-13.27,.66-19.88,1.34-4.14,.43-8.35,.98-12.13,2.83-3.45,1.68-6.18,4.62-6.54,8.57-.48,5.33,3.1,10.04,5.24,14.62,4.25,9.11,5.53,19.53,4.1,29.44-1.43,10-5.61,19.68-12.31,27.28-6.69,7.57-16.08,12.87-20.82,22.08-9.51,18.47,3.64,40.89-7.93,58.8-4.86,7.53-12.37,13.39-16.17,21.61-1.55,3.36-2.19,7.04-1.31,10.68,1.1,4.54,4.36,7.94,7.56,11.13,3.35,3.34,6.3,6.75,8.4,11.02,1.99,4.03,3.26,8.39,4.28,12.76,1.98,8.54,2.88,17.34,5.52,25.73,2.39,7.59,6.48,14.54,13.35,18.86,7.23,4.55,15.89,5.95,23.94,8.43,3.98,1.22,7.96,2.71,11.39,5.13,4.34,3.08,7,7.52,8.22,12.66,1.46,6.11,1.54,12.62,1.61,18.88s-.13,12.77-.14,19.16c-.03,11.62,.65,23.33,4.44,34.4,3.11,9.08,7.88,17.48,13.16,25.45,10.71,16.2,24.02,31.17,31.25,49.42,1.7,4.28,3,8.7,3.86,13.22,.18,.95,1.63,.55,1.45-.4-3.57-18.81-15.04-34.51-25.98-49.72-11.92-16.56-23.37-33.48-25.83-54.25-1.45-12.23-.58-24.57-.7-36.85-.09-9.84,.24-22.07-6.75-29.9-5.35-5.99-13.57-8.18-21.03-10.21-8.33-2.26-17.19-4.48-23.31-11-5.91-6.3-8.17-14.98-9.83-23.22s-2.76-17.23-5.88-25.37c-1.37-3.58-3.14-7-5.5-10.03-3.12-4.01-7.42-7.05-10.15-11.38-5.53-8.79,.7-17.34,6.39-24.08,5.9-6.98,11.92-13.62,13.63-22.91,1.83-9.89-.08-19.95-.08-29.9,0-4.98,.47-10.03,2.26-14.71,2-5.24,5.72-9.44,9.78-13.2,3.69-3.42,7.66-6.55,11.1-10.23,3.23-3.46,5.96-7.4,8.11-11.61,4.16-8.16,6.25-17.37,6.08-26.53-.08-4.62-.74-9.25-1.99-13.71-1.31-4.64-3.44-8.75-5.6-13.03-1.45-2.88-2.86-6.15-2.12-9.45,.58-2.58,2.37-4.5,4.61-5.8,4.26-2.47,9.41-2.88,14.2-3.35,12.92-1.26,25.94-1.6,38.91-1.03,6.34,.28,12.66,.78,18.96,1.48,.96,.11,.95-1.39,0-1.5h0Z"/>
          </g>
          <g class="cls-36">
            <path class="cls-55" d="M176.88,78.54c9.12,35.22,7.76,72.83-3.44,107.41-2.81,8.67-6.23,17.14-10.26,25.32-4.08,8.29-8.97,16.03-13.86,23.86-4.86,7.79-9.2,15.9-10.66,25.07-1.58,9.85-.74,20-.46,29.92,.61,21.23,1.22,42.47,1.84,63.7,.3,10.53,.61,21.06,.91,31.6s.93,20.9,.58,31.32-2.54,19.74-6.41,29.21c-3.61,8.83-7.74,17.4-9.99,26.71s-3.18,18.6-5.27,27.81-5.5,17.51-11.11,24.98c-11.1,14.77-27.43,25.82-43.19,35.08-16.29,9.56-33.56,17.31-50.94,24.64-4.4,1.85-8.8,3.68-13.21,5.51-.88,.36-.49,1.82,.4,1.45,34.29-14.22,70.36-28.83,97.89-54.55,6.29-5.87,12-12.54,15.92-20.25,4.22-8.3,6.08-17.48,7.63-26.59,1.63-9.53,3.13-19.03,6.54-28.12,3.41-9.1,8-17.77,10.61-27.16,2.71-9.72,2.85-19.86,2.62-29.88-.25-10.63-.6-21.25-.91-31.88-.63-21.74-1.25-43.49-1.88-65.23-.31-10.61-.69-21.22-.9-31.83s.74-20.86,5.5-30.57c4.13-8.43,9.76-16.01,14.4-24.15,4.44-7.78,8.3-15.89,11.59-24.22,13.22-33.48,16.96-70.68,10.49-106.11-.83-4.52-1.83-9-2.98-13.44-.24-.93-1.69-.54-1.45,.4h0Z"/>
          </g>
          <g class="cls-36">
            <path class="cls-63" d="M212.75,94.89c2.02,20.78,4.04,42.27-.94,62.8-2.53,10.43-7.3,19.5-12.73,28.66-5.17,8.72-9.11,17.3-10.45,27.45-1.46,11.03-1.54,22.08-3.86,33.01-2.18,10.27-5.41,20.28-8.83,30.19-6.76,19.63-14.25,39.19-16.35,60.01-4.34,42.9,11.14,86.31,.87,128.84-2.5,10.38-6.7,20.21-10.21,30.26s-5.76,20.05-6.12,30.66,.63,22.17-.14,33.24c-.76,10.87-3.78,21.04-9.36,30.42-10.66,17.9-27.37,31.94-42.14,46.34-17.01,16.59-34.02,33.17-51.03,49.76-4.18,4.08-8.36,8.15-12.54,12.23-.69,.68,.37,1.74,1.06,1.06,17.15-16.73,34.31-33.45,51.46-50.18,8.65-8.43,17.3-16.87,25.95-25.3,7.02-6.85,14.04-13.74,20.22-21.37,5.82-7.19,10.89-15.05,14.06-23.77,3.61-9.92,4.19-20.49,4.1-30.95-.09-11.53-.91-23.18,1.17-34.6,1.91-10.48,5.96-20.38,9.59-30.34,3.64-9.96,6.49-20.01,7.8-30.55,1.31-10.59,1.33-21.29,.77-31.93-1.13-21.79-4.62-43.43-4.81-65.27-.09-11.16,.77-22.29,3.11-33.22,2.2-10.28,5.44-20.31,8.86-30.24,6.8-19.75,14.39-39.47,16.32-60.43,1.07-11.62,1.11-23.29,6.09-34.09,4.24-9.19,10.46-17.31,14.38-26.67,7.95-18.95,8.04-39.99,6.58-60.16-.38-5.29-.88-10.57-1.39-15.85-.09-.95-1.59-.96-1.5,0h0Z"/>
          </g>
        </g>
      </g>
      <path class="cls-46" d="M277.46,179.01c-5.21-14.44-20.49-23.35-36.01-21.27-14.72,1.97-26.43,13.39-28.22,27.74-12.75,.06-24.43,6.86-30.17,17.57-5.51,10.28-4.76,22.65,1.95,32.36-12.93-5.85-27.57-1.19-33.09,8.32-6.36,10.97-.3,27.91,15.57,33.29-8.43,3.59-13.47,11.54-12.65,19.42,1.09,10.48,12.32,18.81,23.36,16.64,8.55-1.68,15.18-9.3,15.57-18.49,5.73,5.4,13.92,7.55,21.41,5.55,9.11-2.44,13.02-9.9,13.62-11.1,1.05,2.3,4.08,8.05,10.71,11.1,8.94,4.11,20.75,1.62,29.2-6.47,2.96,2.53,8.65,6.56,16.54,7.4,13.01,1.39,26.54-6.48,34.06-19.88,16.13,1.93,31.45-6.7,36.98-20.34,6.17-15.22-1.18-33.36-17.52-41.15,4.96-13.52,2.5-28.24-6.81-37.91-12.68-13.17-36.43-15.28-54.5-2.77Z"/>
      <path class="cls-30" d="M57.67,232.82c-5.21-14.44-20.49-23.35-36.01-21.27-14.72,1.97-26.43,13.39-28.22,27.74-12.75,.06-24.43,6.86-30.17,17.57-5.51,10.28-4.76,22.65,1.95,32.36-12.93-5.85-27.57-1.19-33.09,8.32-6.36,10.97-.3,27.91,15.57,33.29-8.43,3.59-13.47,11.54-12.65,19.42,1.09,10.48,12.32,18.81,23.36,16.64,8.55-1.68,15.18-9.3,15.57-18.49,5.73,5.4,13.92,7.55,21.41,5.55,9.11-2.44,13.02-9.9,13.62-11.1,1.05,2.3,4.08,8.05,10.71,11.1,8.94,4.11,20.75,1.62,29.2-6.47,2.96,2.53,8.65,6.56,16.54,7.4,13.01,1.39,26.54-6.48,34.06-19.88,16.13,1.93,31.45-6.7,36.98-20.34,6.17-15.22-1.18-33.36-17.52-41.15,4.96-13.52,2.5-28.24-6.81-37.91-12.68-13.17-36.43-15.28-54.5-2.77Z"/>
      <path class="cls-45" d="M353.76-54.39c34.08,1.65,60.36,27.2,61.31,56.17,.78,23.98-15.89,46.94-41.6,56.17,14.31,8.68,20.66,24.54,16.06,37.91-4.91,14.27-20.09,19.31-21.9,19.88,.35,2.06,1.29,9.29-3.41,15.26-5.87,7.46-18.22,9.99-29.68,5.09-4.99,5.46-12.29,8.12-18.49,6.47-8.89-2.36-15.24-13.49-11.19-24.97-.11,.37-1.87,6.15-7.79,7.86-4.74,1.37-10.1-.47-13.14-4.62,.56,.87,4.87,7.81,1.95,13.87-3.26,6.77-14.61,10.51-25.79,5.55-7.81,8.66-19.26,12.83-28.71,10.17-13.56-3.82-23.09-21.78-15.57-39.76-1.7,.13-6.01,.22-10.22-2.31-7.46-4.49-7.77-13.11-7.79-13.87,3.26,6.89,2.58,14.77-1.95,20.34-5.91,7.29-17.52,9.56-27.25,4.62-.23,1.63-1.64,10.38-9.73,15.72-7.88,5.19-18.91,5.05-27.74-.46,1.14,1.07,11.58,11.17,9.25,24.04-2.35,12.92-16.63,23.44-34.06,22.65,.68,.88,8.28,11.09,4.38,19.88-4.18,9.43-20.62,15.06-36.98,7.4-4.12,7.81-12.86,12.07-20.92,10.63-9.88-1.76-17.23-11.8-15.08-22.65-6.28,4.92-14.54,6.66-21.53,4.16-9.76-3.48-15.84-14.76-12.77-26.35-.99,1.48-9.65,13.98-24.82,14.91-14.66,.9-29.28-9.4-33.94-25.31-1.07-.67-12.64-8.21-12.77-20.8-.12-11.76,9.76-22.94,24.09-25.66-12.21,1.35-21.87-7.48-21.9-15.95-.03-8.7,10.09-17.78,22.63-15.95-3.02,1.97-12.27,7.42-23.36,5.55-14.71-2.48-26.84-16.87-27.74-35.37-18.64-6.73-25.78-16.82-28.47-21.5-14.16-24.71,.23-65.74,40.87-95.7,5.02-7.19,35.74-49.69,91.97-56.86,53.56-6.84,108.5,21.16,137.22,70.73,30.43-53.09,89.49-78.68,138.68-65.19,43.49,11.93,63.81,50.17,67.88,58.25Z"/>
      <path class="cls-61" d="M120.3-29.17c19.81,.38,34.12,13.74,34.31,27.16,.18,12.82-12.58,21.36-13.87,22.19,9.39,6.62,11.11,18.78,5.11,26.35-4.83,6.09-14.12,8.53-22.63,5.55-.03,5.96-1.21,15.55-8.03,23.58-12.17,14.33-37.62,18.21-62.04,7.63-.34,2.04-2.31,12.71-11.68,18.03-10.82,6.14-27.42,2.8-37.95-9.71-.32,3.31-1.5,9.58-6.57,14.56-8.14,8-22.99,9.41-36.49,2.77-6.08,15.24-15.27,20.46-18.98,22.19-20.76,9.71-54.84-3.04-78.1-36.06,3.89-44.84,7.79-89.69,11.68-134.53,81.75,3.43,163.5,6.86,245.24,10.29Z"/>
    </g>
    <path class="cls-49" d="M1420.04,876.98c225.2-25.94,450.41-51.89,675.61-77.83-78.06,.13-156.13,.25-234.19,.38-70.86-8.46-141.73-16.93-212.59-25.39,100.16-24.56,227.24-46.65,375.16-51.16,160.66-4.9,298.68,12.37,405.53,33.49-3.03,56.08-6.06,112.17-9.09,168.25-333.47-15.92-666.95-31.83-1000.42-47.75Z"/>
    <g>
      <path class="cls-18" d="M1814.78,521.51c-7.12-8.59-14.23-17.18-21.35-25.76-.68-.82-2.33-1.43-2.49-.37,10.37,11.92,19.8,24.66,28.16,38.07l-4.33-11.93Z"/>
      <path class="cls-18" d="M2107.83,518.79c7.12-8.59,14.23-17.18,21.35-25.76,.68-.82,2.33-1.43,2.49-.37-10.37,11.92-19.8,24.66-28.16,38.07l4.33-11.93Z"/>
      <path class="cls-18" d="M2111.04,515.52c-16.34,12.14-37.87,26.83-54.21,38.97-4.28,3.18-8.6,6.39-13.47,8.57-7.43,3.33-13.69,4.11-15.44,4.36-17.75,2.49-35.19,14.91-55.72,19.82-38.19,9.14-77.12-10.04-101.21-21.92-6.69-3.3-11.57-6.21-13.06-7.1-21.31-12.82-35.7-27.73-44.52-38.37-.21,1.1-.42,2.2-.63,3.29,16.99,18.4,32.62,35.18,48.14,51.88,5.71,6.14,12.69,13.69,24.18,20.67,9.83,5.98,20.92,9.49,31.89,12.94,15.46,4.86,30.91,9.73,46.37,14.59,9.46,2.98,19.23,5.99,29.1,5.01,13.01-1.29,24.29-9.32,34.42-17.58,18.45-15.04,35.47-31.84,50.75-50.08l33.4-45.04Z"/>
      <path class="cls-15" d="M2111.07,515.45c-4.81,5.33-12.22,13.2-21.81,22.11-30.61,28.44-65.52,60.87-114,65.07-4.96,.43-24.89,1.85-49.13-4.9-17.57-4.9-29.3-11.83-45.1-21.17-9.2-5.44-26.92-16.6-46.64-34.36-12.06-10.86-21.42-21.08-28.21-29.13,9.54,18.18,20.01,35.87,31.35,52.99,9.3,14.04,19.72,24.74,24.45,29.55,28.49,29,98.69,57.83,164.8,28.11,67.92-30.53,83.94-101.46,85.52-109.03l-1.22,.76Z"/>
      <path class="cls-18" d="M1943.95,607.71c3.41,1.37,8.3,3.08,14.36,4.35,5.46,1.15,16.42,3.34,30.12,.82,5.05-.93,12.5-2.86,20.83-7.3-6.81,2.71-16.78,5.79-29.12,6.62-15.69,1.06-28.38-1.97-36.19-4.5Z"/>
      <path class="cls-18" d="M1897.72,602c4.07,3.84,9.61,8.22,16.78,11.99,15.77,8.29,30.76,9.02,38.92,8.78-8.37-1.01-19.28-3.17-31.34-7.93-10.03-3.96-18.16-8.65-24.36-12.84Z"/>
    </g>
    <path class="cls-18" d="M2117.5,486.77c7.44,1.97,15.38,3.7,23.81,5.05,35.56,5.7,66.99,2.58,91.14-2.46v10.99c-16.04,3.58-37.71,6.72-63.28,5.62-21.26-.91-39.38-4.51-53.49-8.36,.61-3.61,1.21-7.23,1.82-10.84Z"/>
    <path class="cls-51" d="M1596.83-122.32c34.08,1.65,60.36,27.2,61.31,56.17,.78,23.98-15.89,46.94-41.6,56.17,14.31,8.68,20.66,24.54,16.06,37.91-4.91,14.27-20.09,19.31-21.9,19.88,.35,2.06,1.29,9.29-3.41,15.26-5.87,7.46-18.22,9.99-29.68,5.09-4.99,5.46-12.29,8.12-18.49,6.47-8.89-2.36-15.24-13.49-11.19-24.97-.11,.37-1.87,6.15-7.79,7.86-4.74,1.37-10.1-.47-13.14-4.62,.56,.87,4.87,7.81,1.95,13.87-3.26,6.77-14.61,10.51-25.79,5.55-7.81,8.66-19.26,12.83-28.71,10.17-13.56-3.82-23.09-21.78-15.57-39.76-1.7,.13-6.01,.22-10.22-2.31-7.46-4.49-7.77-13.11-7.79-13.87,3.26,6.89,2.58,14.77-1.95,20.34-5.91,7.29-17.52,9.56-27.25,4.62-.23,1.63-1.64,10.38-9.73,15.72-7.88,5.19-18.91,5.05-27.74-.46,1.14,1.07,11.58,11.17,9.25,24.04-2.35,12.92-16.63,23.44-34.06,22.65,.68,.88,8.28,11.09,4.38,19.88-4.18,9.43-20.62,15.06-36.98,7.4-4.12,7.81-12.86,12.07-20.92,10.63-9.88-1.76-17.23-11.8-15.08-22.65-6.28,4.92-14.54,6.66-21.53,4.16-9.76-3.48-15.84-14.76-12.77-26.35-.99,1.48-9.65,13.98-24.82,14.91-14.66,.9-29.28-9.4-33.94-25.31-1.07-.67-12.64-8.21-12.77-20.8-.12-11.76,9.76-22.94,24.09-25.66-12.21,1.35-21.87-7.48-21.9-15.95-.03-8.7,10.09-17.78,22.63-15.95-3.02,1.97-12.27,7.42-23.36,5.55-14.71-2.48-26.84-16.87-27.74-35.37-18.64-6.73-25.78-16.82-28.47-21.5-14.16-24.71,.23-65.74,40.87-95.7,5.02-7.19,35.74-49.69,91.97-56.86,53.56-6.84,108.5,21.16,137.22,70.73,30.43-53.09,89.49-78.68,138.68-65.19,43.49,11.93,63.81,50.17,67.88,58.25Z"/>
    <path class="cls-27" d="M1894.46,919.26c-34.08-1.65-60.36-27.2-61.31-56.17-.78-23.98,15.89-46.94,41.6-56.17-14.31-8.68-20.66-24.54-16.06-37.91,4.91-14.27,20.09-19.31,21.9-19.88-.35-2.06-1.29-9.29,3.41-15.26,5.87-7.46,18.22-9.99,29.68-5.09,4.99-5.46,12.29-8.12,18.49-6.47,8.89,2.36,15.24,13.49,11.19,24.97,.11-.37,1.87-6.15,7.79-7.86,4.74-1.37,10.1,.47,13.14,4.62-.56-.87-4.87-7.81-1.95-13.87,3.26-6.77,14.61-10.51,25.79-5.55,7.81-8.66,19.26-12.83,28.71-10.17,13.56,3.82,23.09,21.78,15.57,39.76,1.7-.13,6.01-.22,10.22,2.31,7.46,4.49,7.77,13.11,7.79,13.87-3.26-6.89-2.58-14.77,1.95-20.34,5.91-7.29,17.52-9.56,27.25-4.62,.23-1.63,1.64-10.38,9.73-15.72,7.88-5.19,18.91-5.05,27.74,.46-1.14-1.07-11.58-11.17-9.25-24.04,2.35-12.92,16.63-23.44,34.06-22.65-.68-.88-8.28-11.09-4.38-19.88,4.18-9.43,20.62-15.06,36.98-7.4,4.12-7.81,12.86-12.07,20.92-10.63,9.88,1.76,17.23,11.8,15.08,22.65,6.28-4.92,14.54-6.66,21.53-4.16,9.76,3.48,15.84,14.76,12.77,26.35,.99-1.48,9.65-13.98,24.82-14.91,14.66-.9,29.28,9.4,33.94,25.31,1.07,.67,12.64,8.21,12.77,20.8,.12,11.76-9.76,22.94-24.09,25.66,12.21-1.35,21.87,7.48,21.9,15.95,.03,8.7-10.09,17.78-22.63,15.95,3.02-1.97,12.27-7.42,23.36-5.55,14.71,2.48,26.84,16.87,27.74,35.37,18.64,6.73,25.78,16.82,28.47,21.5,14.16,24.71-.23,65.74-40.87,95.7-5.02,7.19-35.74,49.69-91.97,56.86-53.56,6.84-108.5-21.16-137.22-70.73-30.43,53.09-89.49,78.68-138.68,65.19-43.49-11.93-63.81-50.17-67.88-58.25Z"/>
    <path class="cls-52" d="M1767.14,977.85c-34.08-1.65-60.36-27.2-61.31-56.17-.78-23.98,15.89-46.94,41.6-56.17-14.31-8.68-20.66-24.54-16.06-37.91,4.91-14.27,20.09-19.31,21.9-19.88-.35-2.06-1.29-9.29,3.41-15.26,5.87-7.46,18.22-9.99,29.68-5.09,4.99-5.46,12.29-8.12,18.49-6.47,8.89,2.36,15.24,13.49,11.19,24.97,.11-.37,1.87-6.15,7.79-7.86,4.74-1.37,10.1,.47,13.14,4.62-.56-.87-4.87-7.81-1.95-13.87,3.26-6.77,14.61-10.51,25.79-5.55,7.81-8.66,19.26-12.83,28.71-10.17,13.56,3.82,23.09,21.78,15.57,39.76,1.7-.13,6.01-.22,10.22,2.31,7.46,4.49,7.77,13.11,7.79,13.87-3.26-6.89-2.58-14.77,1.95-20.34,5.91-7.29,17.52-9.56,27.25-4.62,.23-1.63,1.64-10.38,9.73-15.72,7.88-5.19,18.91-5.05,27.74,.46-1.14-1.07-11.58-11.17-9.25-24.04,2.35-12.92,16.63-23.44,34.06-22.65-.68-.88-8.28-11.09-4.38-19.88,4.18-9.43,20.62-15.06,36.98-7.4,4.12-7.81,12.86-12.07,20.92-10.63,9.88,1.76,17.23,11.8,15.08,22.65,6.28-4.92,14.54-6.66,21.53-4.16,9.76,3.48,15.84,14.76,12.77,26.35,.99-1.48,9.65-13.98,24.82-14.91,14.66-.9,29.28,9.4,33.94,25.31,1.07,.67,12.64,8.21,12.77,20.8,.12,11.76-9.76,22.94-24.09,25.66,12.21-1.35,21.87,7.48,21.9,15.95,.03,8.7-10.09,17.78-22.63,15.95,3.02-1.97,12.27-7.42,23.36-5.55,14.71,2.48,26.84,16.87,27.74,35.37,18.64,6.73,25.78,16.82,28.47,21.5,14.16,24.71-.23,65.74-40.87,95.7-5.02,7.19-35.74,49.69-91.97,56.86-53.56,6.84-108.5-21.16-137.22-70.73-30.43,53.09-89.49,78.68-138.68,65.19-43.49-11.93-63.81-50.17-67.88-58.25Z"/>
    <path class="cls-24" d="M33.96,847.49c-2.97,22.03,10.68,43.7,32,51.42,20.22,7.32,42.91,.5,54.82-16.73,16.42,8.46,35.96,7.55,50.51-2.36,13.95-9.51,21.27-25.91,19.17-42.86,6.34,8.09,14.99,13.08,23.74,14.99,11.43,2.5,21.13-2.17,24.32-3.53,42.05-17.82,129.31-2.95,133.69-21.62,2.72-11.61-28.25-29.23-46.99-36.38-15.97-6.09-30.22-7.3-39.46-7.37-1.18-22.17-16.63-39.25-34.55-41.28-17.78-2.01-30.79,11.61-32.38,13.32-3.74-10.77-12.82-19.02-23.78-21.46-13.33-2.97-23.35,4-24.93,5.13,.2-3.66,.15-13.07-6.32-21.42-8.73-11.26-25.55-15.98-41.83-11.24-2.11-5.23-6.72-14.21-16.29-20.58-15.78-10.49-38.42-9.46-57.05,2.72-19.42-13.29-44.87-12.46-61.11,1.36-18.11,15.41-20.83,43.63-5.05,64.57-15.42,14.04-22.12,34.59-16.63,53.24,7.47,25.4,36.56,44.02,68.13,40.05Z"/>
    <path class="cls-34" d="M171.17,858.69c19.81-.38,34.12-13.74,34.31-27.16,.18-12.82-12.58-21.36-13.87-22.19,9.39-6.62,11.11-18.78,5.11-26.35-4.83-6.09-14.12-8.53-22.63-5.55-.03-5.96-1.21-15.55-8.03-23.58-12.17-14.33-37.62-18.21-62.04-7.63-.34-2.04-2.31-12.71-11.68-18.03-10.82-6.14-27.42-2.8-37.95,9.71-.32-3.31-1.5-9.58-6.57-14.56-8.14-8-22.99-9.41-36.49-2.77-6.08-15.24-15.27-20.46-18.98-22.19-20.76-9.71-54.84,3.04-78.1,36.06,3.89,44.84,7.79,89.69,11.68,134.53,81.75-3.43,163.5-6.86,245.24-10.29Z"/>
    <path class="cls-18" d="M1668.83,485.88c21.84,6.8,54.76,13.86,94.36,10.48,18.03-1.54,33.88-4.93,47.15-8.79,.26,1.75,.51,3.49,.77,5.24-12.71,3.51-27.42,6.52-43.87,8.09-40.77,3.89-75.04-2.73-98.53-9.6,.04-1.81,.08-3.62,.13-5.43Z"/>
  </g>
</svg>