<?xml version="1.0" encoding="utf-8"?>
<!-- Generator: Adobe Illustrator 26.5.0, SVG Export Plug-In . SVG Version: 6.00 Build 0)  -->
<svg version="1.1" id="Слой_1" xmlns="http://www.w3.org/2000/svg" xmlns:xlink="http://www.w3.org/1999/xlink" x="0px" y="0px"
	 viewBox="0 0 2229.8 814.7" style="enable-background:new 0 0 2229.8 814.7;" xml:space="preserve">
<style type="text/css">
	.st0{clip-path:url(#SVGID_00000163788014197737698160000002983426099748461995_);}
	.st1{fill:url(#SVGID_00000091695282060746304700000010754072659343651736_);}
	.st2{clip-path:url(#SVGID_00000134963048747345027600000002551535985559440531_);}
	.st3{opacity:0.35;fill-rule:evenodd;clip-rule:evenodd;fill:#F6F8E2;enable-background:new    ;}
	.st4{fill:url(#SVGID_00000154396954696417696740000006294273325695909293_);}
	.st5{fill:url(#SVGID_00000021115860836537171950000017343924081991716493_);}
	.st6{clip-path:url(#SVGID_00000031913020447850541010000002932357540418480546_);}
	.st7{opacity:0.43;fill-rule:evenodd;clip-rule:evenodd;fill:#07ADC7;}
	
		.st8{opacity:0.15;fill-rule:evenodd;clip-rule:evenodd;fill:url(#SVGID_00000057121432824767998070000003489573745422962336_);enable-background:new    ;}
	
		.st9{opacity:0.1;fill-rule:evenodd;clip-rule:evenodd;fill:url(#SVGID_00000013180535115659385680000011927510968995561650_);enable-background:new    ;}
	.st10{fill:#FDEFFB;}
	.st11{fill:url(#SVGID_00000094582394786608497920000001147183169246222781_);}
	.st12{fill:url(#SVGID_00000156553353909975216880000011468034297352281262_);}
	.st13{fill:url(#SVGID_00000180357481502606851580000013749797624966985138_);}
	.st14{fill:url(#SVGID_00000017494981947841621500000007413383068071569598_);}
	.st15{fill-rule:evenodd;clip-rule:evenodd;fill:url(#SVGID_00000130632466244989803210000017342006644491156877_);}
	.st16{fill-rule:evenodd;clip-rule:evenodd;fill:url(#SVGID_00000057868041293172573680000014541069332251085966_);}
	.st17{fill-rule:evenodd;clip-rule:evenodd;fill:url(#SVGID_00000094613169583855659020000010887231427426209674_);}
	.st18{fill-rule:evenodd;clip-rule:evenodd;fill:url(#SVGID_00000023251314944840365970000000395319146546185395_);}
	.st19{fill-rule:evenodd;clip-rule:evenodd;fill:url(#SVGID_00000070107800475402996780000014162744831412480179_);}
	.st20{fill:url(#SVGID_00000071529644858803547060000011784240984556626837_);}
	.st21{clip-path:url(#SVGID_00000029747679626606134220000004025925999269145223_);}
	.st22{opacity:0.15;}
	.st23{fill:url(#SVGID_00000035491538130959617420000006449854990655695277_);}
	.st24{fill:url(#SVGID_00000171715116303105732400000012880922061352166809_);}
	.st25{fill:url(#SVGID_00000075860508630860739230000006705566311269604737_);}
	.st26{fill:url(#SVGID_00000016059985320135582170000011329951683935586465_);}
	.st27{fill:url(#SVGID_00000147179175974122514540000003845462533716102801_);}
	.st28{fill-rule:evenodd;clip-rule:evenodd;fill:url(#SVGID_00000011000566016325323000000013759051468842529679_);}
	.st29{fill-rule:evenodd;clip-rule:evenodd;fill:url(#SVGID_00000111877534819159070740000001882038382671308181_);}
	.st30{fill-rule:evenodd;clip-rule:evenodd;fill:url(#SVGID_00000018936368464876375800000011055989087414887560_);}
	.st31{fill-rule:evenodd;clip-rule:evenodd;fill:url(#SVGID_00000091716915930580174100000003007234102334096515_);}
	.st32{fill-rule:evenodd;clip-rule:evenodd;fill:url(#SVGID_00000108303692747053937760000007461960893041430159_);}
	.st33{fill:url(#SVGID_00000150073026797305397410000007730865806786529696_);}
	.st34{clip-path:url(#SVGID_00000054968460867585238910000013091651055865699475_);}
	.st35{fill:url(#SVGID_00000141449647963458760980000012645571701898446509_);}
	.st36{fill:url(#SVGID_00000099623378246663149770000016070876633511634309_);}
	.st37{fill:url(#SVGID_00000044873250760648335400000011043559498436875697_);}
	.st38{fill:url(#SVGID_00000018929061673581121020000018287506212481391777_);}
	.st39{fill:url(#SVGID_00000080894698871975468870000009089606236046171044_);}
	.st40{fill:url(#SVGID_00000124853072509338330210000000262373146993410948_);}
	.st41{fill:url(#SVGID_00000011752382449447917460000010887538365693548472_);}
	.st42{fill:url(#SVGID_00000097496619965949554610000009377403385732807574_);}
	.st43{fill:url(#SVGID_00000043434775649874669860000003919632873734938011_);}
	.st44{fill-rule:evenodd;clip-rule:evenodd;fill:#FFFFFF;}
	.st45{fill-rule:evenodd;clip-rule:evenodd;fill:url(#SVGID_00000018229130032002199000000015496506511314011543_);}
	.st46{fill-rule:evenodd;clip-rule:evenodd;fill:url(#SVGID_00000007415083681384872630000015720719472384500872_);}
	.st47{fill-rule:evenodd;clip-rule:evenodd;fill:url(#SVGID_00000124882191688303806390000005284456095777142445_);}
	.st48{fill-rule:evenodd;clip-rule:evenodd;fill:url(#SVGID_00000113352114674796864700000013651312662748856202_);}
	.st49{fill-rule:evenodd;clip-rule:evenodd;fill:url(#SVGID_00000173879055580573679620000013748714944758449087_);}
	.st50{fill:#FD681A;}
	.st51{fill:#8B8993;}
	.st52{fill:#6E6D72;}
	.st53{fill:url(#SVGID_00000151525307642310170310000006638279489646577827_);}
	.st54{fill:url(#SVGID_00000073690611352957498920000017683391092340700848_);}
	.st55{fill:url(#SVGID_00000160151735987975082970000002714710345696807828_);}
	.st56{fill:url(#SVGID_00000148646203743129326970000002527319434613039264_);}
	.st57{fill:url(#SVGID_00000055672635253763951400000017046719721535976338_);}
	.st58{fill:url(#SVGID_00000058582724843350767330000005318295050949560220_);}
	.st59{fill:url(#SVGID_00000155107275603191618240000017668606014456641174_);}
	.st60{fill:url(#SVGID_00000057146910521331221510000010810539857355573929_);}
	.st61{fill:url(#SVGID_00000016061952994177596970000007460124573543683210_);}
</style>
<g>
	<g id="_Слой_1">
		<g>
			<defs>
				<rect id="SVGID_1_" width="2229.8" height="814.7"/>
			</defs>
			<clipPath id="SVGID_00000153690292880980077790000004240364923130670764_">
				<use xlink:href="#SVGID_1_"  style="overflow:visible;"/>
			</clipPath>
			<g style="clip-path:url(#SVGID_00000153690292880980077790000004240364923130670764_);">
				<g>
					
						<linearGradient id="SVGID_00000183965129325171530770000008135423401140130493_" gradientUnits="userSpaceOnUse" x1="1102.2288" y1="87.72" x2="1129.5088" y2="774.3701" gradientTransform="matrix(1 0 0 -1 0 814)">
						<stop  offset="0" style="stop-color:#1791F5"/>
						<stop  offset="1" style="stop-color:#C2F8D1"/>
					</linearGradient>
					<rect style="fill:url(#SVGID_00000183965129325171530770000008135423401140130493_);" width="2229.8" height="814.7"/>
					<g>
						<defs>
							<rect id="SVGID_00000136409920238319880840000009727351219076892313_" width="2229.8" height="814.7"/>
						</defs>
						<clipPath id="SVGID_00000045588805364573342190000012030008489842889895_">
							<use xlink:href="#SVGID_00000136409920238319880840000009727351219076892313_"  style="overflow:visible;"/>
						</clipPath>
						<g style="clip-path:url(#SVGID_00000045588805364573342190000012030008489842889895_);">
							<path class="st3" d="M-195.9,113.5c0,0,64.3-59.2,89.7-67.7s25.4,33.8,67.7,33.8S12.2,37.3,63,45.8
								c14.9,2.5,50.1,24.8,75.6,33.3c14.4,4.8,51.1-9.5,62.6,0c41.3,34.4,60.2,34.4,60.2,34.4L-195.9,113.5L-195.9,113.5z"/>
							<path class="st3" d="M-195.9,114.6c0,0,64.3-48.3,89.7-55.2C-80.8,52.5-80.8,87-38.5,87S12.2,52.5,63,59.4
								c14.9,2,50.1,20.2,75.6,27.2c14.4,3.9,51.1-7.8,62.6,0c41.3,28.1,60.2,28.1,60.2,28.1L-195.9,114.6L-195.9,114.6z"/>
							
								<linearGradient id="SVGID_00000054951856779348905630000001037606705400659356_" gradientUnits="userSpaceOnUse" x1="182.9151" y1="338.213" x2="194.5249" y2="630.527" gradientTransform="matrix(1 0 0 -1 0 814)">
								<stop  offset="0" style="stop-color:#DD3E0B"/>
								<stop  offset="1" style="stop-color:#FC691A"/>
							</linearGradient>
							<circle style="fill:url(#SVGID_00000054951856779348905630000001037606705400659356_);" cx="188.7" cy="329.6" r="146.3"/>
							<path class="st3" d="M-801,372.5c422.9-159.5,572.1-149.7,626.9-106.1c15.6,12.4,43,43.1,88.6,48.9
								c52.7,6.7,88.9-25,172.9-12c6.6,1,6.1,1.3,17,3.2c24.8,4.3,74.8,10.6,194.5,13c150.7,3,266.3-2,376.5-6.5
								c189.5-7.7,284.2-11.5,321.3-12.1c236.7-4,255.6,13.7,539.8,17.7c284,4,270.8-31.1,437.1,0c288.6,53.9,420.6,53.9,420.6,53.9
								L-801,372.5L-801,372.5z"/>
							<path class="st3" d="M1776.5,119.7c0,0,64.3-48.3,89.7-55.2c25.4-6.9,25.4,27.6,67.7,27.6s50.8-34.5,101.5-27.6
								c14.9,2,50.1,20.2,75.6,27.2c14.4,3.9,51.1-7.8,62.6,0c41.3,28.1,60.2,28.1,60.2,28.1L1776.5,119.7L1776.5,119.7z"/>
							<path class="st3" d="M1458.2,268.9c0,0,36.1-31.1,50-35.8c13.9-4.6,13.9,18.5,37,18.5s27.7-23.1,55.5-18.5
								c8.2,1.4,45.2,35.2,45.2,35.2L1458.2,268.9L1458.2,268.9z"/>
						</g>
					</g>
				</g>
				<g>
					
						<linearGradient id="SVGID_00000145050648963052631640000007187479607631667073_" gradientUnits="userSpaceOnUse" x1="291.03" y1="239.565" x2="2520.8301" y2="239.565" gradientTransform="matrix(1 0 0 -1 0 814)">
						<stop  offset="0" style="stop-color:#0F76C8"/>
						<stop  offset="1" style="stop-color:#01D4C8"/>
					</linearGradient>
					
						<rect y="334.2" style="fill:url(#SVGID_00000145050648963052631640000007187479607631667073_);" width="2229.8" height="480.5"/>
					<g>
						<defs>
							<rect id="SVGID_00000175317326335767663710000018197381206869491629_" y="334.2" width="2229.8" height="480.5"/>
						</defs>
						<clipPath id="SVGID_00000150787043791198107590000018160028729356917898_">
							<use xlink:href="#SVGID_00000175317326335767663710000018197381206869491629_"  style="overflow:visible;"/>
						</clipPath>
						<g style="clip-path:url(#SVGID_00000150787043791198107590000018160028729356917898_);">
							<polygon class="st7" points="-1218.5,324.1 254.8,324.1 -67.9,301.5 1571.2,301.5 472,324.1 577.7,337.4 254.8,352.5 
								1801.7,352.5 940.4,327 2747.9,301.5 2747.9,454.5 -1101.8,454.5 1209.4,403.5 -1219.4,378 							"/>
							
								<linearGradient id="SVGID_00000001631186999677114780000003896600256288846746_" gradientUnits="userSpaceOnUse" x1="804.36" y1="228.95" x2="804.36" y2="553.35" gradientTransform="matrix(1 0 0 -1 0 814)">
								<stop  offset="0" style="stop-color:#3058D7"/>
								<stop  offset="0.58" style="stop-color:#2E38DB"/>
								<stop  offset="1" style="stop-color:#2E27DE"/>
							</linearGradient>
							
								<polygon style="opacity:0.15;fill-rule:evenodd;clip-rule:evenodd;fill:url(#SVGID_00000001631186999677114780000003896600256288846746_);enable-background:new    ;" points="
								-1184.2,260.6 1862.8,345.4 150.3,413.2 2793.7,413.2 1954.1,345.4 2793.7,311.2 2785.7,541 -1184.6,456.6 1609.1,571.8 
								-1184.9,585 							"/>
							
								<linearGradient id="SVGID_00000026153645886025631450000010871409286175562680_" gradientUnits="userSpaceOnUse" x1="78.325" y1="109.93" x2="78.325" y2="238.34" gradientTransform="matrix(1 0 0 -1 0 814)">
								<stop  offset="0" style="stop-color:#3058D7"/>
								<stop  offset="0.58" style="stop-color:#2E38DB"/>
								<stop  offset="1" style="stop-color:#2E27DE"/>
							</linearGradient>
							
								<polygon style="opacity:0.1;fill-rule:evenodd;clip-rule:evenodd;fill:url(#SVGID_00000026153645886025631450000010871409286175562680_);enable-background:new    ;" points="
								-1161.9,575.7 1318.9,680.3 -1162.2,704.1 							"/>
						</g>
					</g>
				</g>
				<path class="st10" d="M-44.2,979.2c28.9-35.4,57.8-70.7,86.7-106.1c58.8-38.8,109.9-55.8,146.6-64c44.9-10,53.7-3.8,89.8-17.9
					c49.9-19.4,65.3-43.8,114.9-51.8c22.7-3.7,27.7,0.2,55.7-0.5c60.4-1.3,102.1-20.5,136.4-33.3c98.5-36.8,96.9-6,237-46
					c80.4-22.9,125.1-45.6,179.9-45.3c7.6,0,34.8,0.7,70.8-5c26.5-4.1,45-9.8,56.5-12.9c80.9-22.2,92.6,1.7,160.2-20.2
					c22.3-7.2,56-21.1,81.9-16.7c3.9,0.7,13.3,2.7,25.7,1.1c11.7-1.5,13.3-4.7,28.3-7.9c7.8-1.7,9.2-1.2,30.1-3.5
					c17.8-2,19.2-2.5,27.8-3.4c24.2-2.4,27.2,0.9,48.1-0.4c30.8-1.8,28.7-9.2,56.5-9.5c12.9-0.1,21.4,1.4,38.7-0.8
					c11.3-1.4,19.1-3.5,23.5-4.5c28.6-6.8,55.1-1.9,67.5-2.9c67.7-5.4,320.7-23.3,469.9-28.9c82.1-3.1,149.6-4.6,194-5.4
					c-27.6,165-55.3,329.9-82.9,494.9C1518.1,985.2,736.9,982.2-44.2,979.2L-44.2,979.2z"/>
				
					<linearGradient id="SVGID_00000029027167556971827850000003153649084067291810_" gradientUnits="userSpaceOnUse" x1="373.15" y1="50.8818" x2="2510.4099" y2="75.1418" gradientTransform="matrix(1 0 0 -1 0 814)">
					<stop  offset="0" style="stop-color:#FFD180"/>
					<stop  offset="1" style="stop-color:#FFB455"/>
				</linearGradient>
				<path style="fill:url(#SVGID_00000029027167556971827850000003153649084067291810_);" d="M-44.2,979.2
					c28.9-35.4,57.8-70.7,86.7-106.1c426.7-134.5,936.1-257.2,1516.6-325.1c292.4-34.2,567.8-50.5,823.1-54.6
					c-27.6,165-55.3,329.9-82.9,494.9C1518.1,985.2,736.9,982.2-44.2,979.2L-44.2,979.2z"/>
				
					<linearGradient id="SVGID_00000093175935716700919940000014425779903646430864_" gradientUnits="userSpaceOnUse" x1="474.1498" y1="-10.3039" x2="2611.4099" y2="13.9461" gradientTransform="matrix(1 0 0 -1 0 814)">
					<stop  offset="0" style="stop-color:#FFB455"/>
					<stop  offset="1" style="stop-color:#FFD180"/>
				</linearGradient>
				<path style="fill:url(#SVGID_00000093175935716700919940000014425779903646430864_);" d="M57.1,1070.1
					c28.9-35.4,57.8-70.7,86.7-106.1c93-54.1,238.2-131.1,425.4-199.3c243.1-88.6,274.3-59.5,1048.9-188
					c188.7-31.3,356-61.1,588.4-39.6c116.4,10.7,211.8,30.9,276.9,47.2c-27.6,165-55.3,329.9-82.9,494.9
					C1619.4,1076.1,838.3,1073.1,57.1,1070.1L57.1,1070.1z"/>
				
					<linearGradient id="SVGID_00000157304664303808529140000015889707448599104163_" gradientUnits="userSpaceOnUse" x1="555.9999" y1="-99.7441" x2="2693.26" y2="-75.4941" gradientTransform="matrix(1 0 0 -1 0 814)">
					<stop  offset="0" style="stop-color:#FFD180"/>
					<stop  offset="1" style="stop-color:#FFB455"/>
				</linearGradient>
				<path style="fill:url(#SVGID_00000157304664303808529140000015889707448599104163_);" d="M139,1159.5
					c28.9-35.4,57.8-70.7,86.7-106.1c93-54.1,238.2-131.1,425.4-199.3c243.1-88.6,274.3-59.5,1048.9-188
					c188.7-31.3,356.1-61.1,588.4-39.6c116.4,10.7,211.8,30.9,276.9,47.2c-27.6,165-55.3,329.9-82.9,494.9
					C1701.3,1165.6,920.1,1162.6,139,1159.5L139,1159.5z"/>
				
					<linearGradient id="SVGID_00000176735279996760682900000012573989915908754078_" gradientUnits="userSpaceOnUse" x1="644.5999" y1="-193.1391" x2="2781.8604" y2="-168.8891" gradientTransform="matrix(1 0 0 -1 0 814)">
					<stop  offset="0" style="stop-color:#FFB455"/>
					<stop  offset="1" style="stop-color:#FFD180"/>
				</linearGradient>
				<path style="fill:url(#SVGID_00000176735279996760682900000012573989915908754078_);" d="M227.7,1259.6
					c28.9-35.4,57.8-70.7,86.7-106.1c93-54.1,238.2-131.1,425.4-199.3c53-19.3,95.9-33,138.7-44c289-74.2,644.4-186.8,910.2-143.9
					c47.3,7.6,151.9,29.6,264.5-12.9c37.9-14.3,44.4-23.7,83.2-35c82.1-23.8,148.1-9.3,240.7,8.2c60.8,11.5,154.2,28.4,276.9,47.2
					c-27.6,165-55.3,329.9-82.9,494.9C1789.9,1265.6,1008.8,1262.6,227.7,1259.6L227.7,1259.6z"/>
				<g>
					
						<linearGradient id="SVGID_00000134948466460074328290000001114310516688954773_" gradientUnits="userSpaceOnUse" x1="2403.5029" y1="494.2393" x2="2526.3159" y2="494.2393" gradientTransform="matrix(0.9847 0.1745 0.1745 -0.9847 -417.4568 324.4855)">
						<stop  offset="0" style="stop-color:#33431C"/>
						<stop  offset="1" style="stop-color:#437A03"/>
					</linearGradient>
					<path style="fill-rule:evenodd;clip-rule:evenodd;fill:url(#SVGID_00000134948466460074328290000001114310516688954773_);" d="
						M2069.5,280.6l15.9-25.6l-9.1,29c3.1,4.8,6.5,9.3,10.1,13.5c25,28.8,59.3,41.5,59.3,41.5c1.7-22.5-1.1-42.7-5.4-59.4l-24.5-6.8
						l22.5-0.4c-3.6-12.2-7.9-22.1-11.4-29.2c-3.9-7.8-6.8-12.2-6.8-12.2l-23.2,0.8l23.4-8.3l1.2-0.4c-0.5-0.3-1.1-0.5-1.7-0.8
						c-24.6-11.9-65.8-24-65.8-24l-9.1,5.6c0,1.3,0,2.6,0,3.8C2045.4,250.4,2069.5,280.6,2069.5,280.6L2069.5,280.6z"/>
					
						<linearGradient id="SVGID_00000024721400197039882190000016529813538459706249_" gradientUnits="userSpaceOnUse" x1="1680.5109" y1="705.4075" x2="1715.8583" y2="705.4075" gradientTransform="matrix(0.9934 -0.1149 -0.1149 -0.9934 421.1283 1034.7007)">
						<stop  offset="0" style="stop-color:#33431C"/>
						<stop  offset="1" style="stop-color:#437A03"/>
					</linearGradient>
					<path style="fill-rule:evenodd;clip-rule:evenodd;fill:url(#SVGID_00000024721400197039882190000016529813538459706249_);" d="
						M2053.9,217.9c0,0-33.9-43-41.3-60.2c-7.4-17.2-2.5-99.2-2.5-99.2l8.5,35.7l-6.4,11.3l7.2-4.8c0,0,8.9,17,16.2,41.3
						S2053.9,217.9,2053.9,217.9L2053.9,217.9z"/>
					
						<linearGradient id="SVGID_00000096772155634055297520000009116794657509083279_" gradientUnits="userSpaceOnUse" x1="2377.0117" y1="475.2226" x2="2430.6843" y2="475.2226" gradientTransform="matrix(0.9847 0.1745 0.1745 -0.9847 -417.4568 324.4855)">
						<stop  offset="0" style="stop-color:#33431C"/>
						<stop  offset="1" style="stop-color:#437A03"/>
					</linearGradient>
					<path style="fill-rule:evenodd;clip-rule:evenodd;fill:url(#SVGID_00000096772155634055297520000009116794657509083279_);" d="
						M2038.9,196.8c0,0-26.3,45.5-31.8,68.6c-5.5,23.2,19.3,90,19.3,90s19.4-22,26.1-45.3l-15-20l17,15.1l0.5-18.1l-15.7-6.2
						l16.2,2.2c0,0,9.8-24.9-4.2-77.4L2038.9,196.8L2038.9,196.8z"/>
					
						<linearGradient id="SVGID_00000024699159155416309520000014458874872021970058_" gradientUnits="userSpaceOnUse" x1="2301.5786" y1="467.3172" x2="2410.177" y2="467.3172" gradientTransform="matrix(0.9847 0.1745 0.1745 -0.9847 -417.4568 324.4855)">
						<stop  offset="0" style="stop-color:#33431C"/>
						<stop  offset="1" style="stop-color:#437A03"/>
					</linearGradient>
					<path style="fill-rule:evenodd;clip-rule:evenodd;fill:url(#SVGID_00000024699159155416309520000014458874872021970058_);" d="
						M2051.3,205.8l-54.3,35.4l-24.2-15.7l20.3,21c0,0-42.5,57.5-45.4,107.9c0,0-28.1-56.4-8.7-133.2l109.5-19.4L2051.3,205.8z"/>
					
						<linearGradient id="SVGID_00000065772915748467583390000003363464613899691911_" gradientUnits="userSpaceOnUse" x1="2396.8831" y1="577.4188" x2="2431.6467" y2="577.4188" gradientTransform="matrix(0.9847 0.1745 0.1745 -0.9847 -417.4568 324.4855)">
						<stop  offset="0" style="stop-color:#33431C"/>
						<stop  offset="1" style="stop-color:#437A03"/>
					</linearGradient>
					<path style="fill-rule:evenodd;clip-rule:evenodd;fill:url(#SVGID_00000065772915748467583390000003363464613899691911_);" d="
						M2048.3,209.9l-3.4-6c0,0-8-42.9,11.7-62.2l22.4,30.9L2048.3,209.9z"/>
					<g>
						
							<linearGradient id="SVGID_00000001662318166024915850000015645430655790311834_" gradientUnits="userSpaceOnUse" x1="2403.4644" y1="233.927" x2="2897.8667" y2="233.927" gradientTransform="matrix(0.9847 0.1745 0.1745 -0.9847 -417.4568 324.4855)">
							<stop  offset="0" style="stop-color:#563114"/>
							<stop  offset="1" style="stop-color:#744D30"/>
						</linearGradient>
						<path style="fill:url(#SVGID_00000001662318166024915850000015645430655790311834_);" d="M2043.9,208.9
							c0,0,50.9,50.8,118.4,162.2c69.4,114.2,156.2,292.2,223.7,544.1l41.5-37.7c-20.8-139.2-76.7-360.9-244.7-561.8
							c-38.9-46.5-79-86.3-118.2-120.2C2057.8,199.9,2050.9,204.4,2043.9,208.9L2043.9,208.9z"/>
						<g>
							<defs>
								<path id="SVGID_00000156557063731268644430000014329280322466115258_" d="M2043.9,208.9c0,0,50.9,50.8,118.4,162.2
									c69.4,114.2,156.2,292.2,223.7,544.1l41.5-37.7c-20.8-139.2-76.7-360.9-244.7-561.8c-38.9-46.5-79-86.3-118.2-120.2
									C2057.8,199.9,2050.9,204.4,2043.9,208.9L2043.9,208.9z"/>
							</defs>
							<clipPath id="SVGID_00000067196556442777732470000003813130381757813126_">
								<use xlink:href="#SVGID_00000156557063731268644430000014329280322466115258_"  style="overflow:visible;"/>
							</clipPath>
							<g style="clip-path:url(#SVGID_00000067196556442777732470000003813130381757813126_);">
								<g class="st22">
									
										<linearGradient id="SVGID_00000130635328742458776440000003437868350340660126_" gradientUnits="userSpaceOnUse" x1="2083.1899" y1="526.0948" x2="2154.1201" y2="526.0948" gradientTransform="matrix(1 0 0 -1 0 814)">
										<stop  offset="0" style="stop-color:#F8B958"/>
										<stop  offset="1" style="stop-color:#472816"/>
									</linearGradient>
									<path style="fill:url(#SVGID_00000130635328742458776440000003437868350340660126_);" d="M2154.1,257.4
										c-13.6-0.1-27.1,3.8-38.6,10.9c-11.1,6.9-20.2,16.9-26.1,28.6c-3.3,6.5-5.6,13.4-6.8,20.6c-0.2,0.9,1.3,1.4,1.4,0.4
										c2.1-12.5,7.6-24.3,15.7-34c8.4-10,19.7-17.5,32.2-21.5c7.1-2.3,14.6-3.5,22.1-3.4C2155.1,258.9,2155.1,257.4,2154.1,257.4
										L2154.1,257.4L2154.1,257.4z"/>
								</g>
								<g class="st22">
									
										<linearGradient id="SVGID_00000141447426850441278530000017159889012801223317_" gradientUnits="userSpaceOnUse" x1="2119.53" y1="499.2234" x2="2174.3101" y2="499.2234" gradientTransform="matrix(1 0 0 -1 0 814)">
										<stop  offset="0" style="stop-color:#F8B958"/>
										<stop  offset="1" style="stop-color:#472816"/>
									</linearGradient>
									<path style="fill:url(#SVGID_00000141447426850441278530000017159889012801223317_);" d="M2174,278.1
										c-12,3.9-22.8,10.8-31.6,19.8c-8.8,9-15.6,20-19.6,32c-2.2,6.7-3.5,13.8-3.8,20.8c0,1,1.5,1,1.5,0
										c0.5-12.4,4.2-24.5,10.4-35.2c6.1-10.6,14.7-20,24.9-26.9c5.8-3.9,12-7,18.7-9.1C2175.3,279.3,2174.9,277.8,2174,278.1
										L2174,278.1z"/>
								</g>
								<g class="st22">
									
										<linearGradient id="SVGID_00000180364774846857989280000010274116448415079323_" gradientUnits="userSpaceOnUse" x1="2120" y1="462.2603" x2="2203.8301" y2="462.2603" gradientTransform="matrix(1 0 0 -1 0 814)">
										<stop  offset="0" style="stop-color:#F8B958"/>
										<stop  offset="1" style="stop-color:#472816"/>
									</linearGradient>
									<path style="fill:url(#SVGID_00000180364774846857989280000010274116448415079323_);" d="M2203.1,309.4
										c-13.7,10.9-29.6,18.5-44.3,27.9c-13,8.4-25.3,18.7-32.9,32.5c-4,7.3-6.4,15.4-6.4,23.7c0,1,1.5,1,1.5,0
										c0.1-15.3,8.4-28.9,18.9-39.5c11.7-11.7,26.3-19.6,40.5-27.8c8.2-4.8,16.4-9.8,23.8-15.8
										C2205,309.9,2203.9,308.8,2203.1,309.4L2203.1,309.4L2203.1,309.4z"/>
								</g>
								<g class="st22">
									
										<linearGradient id="SVGID_00000170978435593884138480000013886252882596964516_" gradientUnits="userSpaceOnUse" x1="2113.8899" y1="409.2227" x2="2262.9199" y2="409.2227" gradientTransform="matrix(1 0 0 -1 0 814)">
										<stop  offset="0" style="stop-color:#F8B958"/>
										<stop  offset="1" style="stop-color:#472816"/>
									</linearGradient>
									<path style="fill:url(#SVGID_00000170978435593884138480000013886252882596964516_);" d="M2262.7,335.7
										c-13.4,3.1-26.4,7.7-38.9,13.5c-12.5,5.9-24.4,13-35.5,21.2c-11.1,8.2-21.4,17.4-30.7,27.5c-9.3,10.1-17.6,21.2-24.8,32.9
										c-7.1,11.7-13.1,24.2-17.7,37.2c-0.6,1.6-1.1,3.2-1.6,4.9c-0.3,0.9,1.1,1.3,1.4,0.4c4.2-13,9.9-25.6,16.7-37.4
										c6.8-11.9,14.9-23,23.9-33.3c9-10.3,19-19.7,29.8-28s22.3-15.6,34.5-21.7c12.2-6.1,25.1-11,38.3-14.5
										c1.7-0.4,3.3-0.8,5-1.2C2264,337,2263.6,335.5,2262.7,335.7L2262.7,335.7L2262.7,335.7z"/>
								</g>
								<g class="st22">
									
										<linearGradient id="SVGID_00000134943606642784071030000005840930373343249819_" gradientUnits="userSpaceOnUse" x1="1965.65" y1="563.631" x2="2114.0901" y2="563.631" gradientTransform="matrix(1 0 0 -1 0 814)">
										<stop  offset="0" style="stop-color:#F8B958"/>
										<stop  offset="1" style="stop-color:#472816"/>
									</linearGradient>
									<path style="fill:url(#SVGID_00000134943606642784071030000005840930373343249819_);" d="M2113.8,215.9
										c-22.7,7.1-45.4,14.2-68.1,21.3c-11.3,3.5-22.5,7.1-33.8,10.6c-10.1,3.2-20.4,6.4-29.2,12.3c-8.3,5.6-15.4,13.8-17.5,23.8
										c-0.2,0.9,1.2,1.3,1.4,0.4c1.9-9,8-16.6,15.4-21.9c8.5-6.1,18.7-9.5,28.6-12.6c22-6.9,44-13.8,66-20.7
										c12.5-3.9,25.1-7.9,37.6-11.8C2115.1,217.1,2114.8,215.6,2113.8,215.9L2113.8,215.9L2113.8,215.9z"/>
								</g>
							</g>
						</g>
					</g>
					
						<linearGradient id="SVGID_00000130612409896299769440000016557332437698849685_" gradientUnits="userSpaceOnUse" x1="2411.4548" y1="589.6707" x2="2616.7361" y2="589.6707" gradientTransform="matrix(0.9847 0.1745 0.1745 -0.9847 -417.4568 324.4855)">
						<stop  offset="0" style="stop-color:#33431C"/>
						<stop  offset="1" style="stop-color:#437A03"/>
					</linearGradient>
					<path style="fill-rule:evenodd;clip-rule:evenodd;fill:url(#SVGID_00000130612409896299769440000016557332437698849685_);" d="
						M2053.9,198.3l30.6-61.4c0,0,85.3-3.2,182.9,32.9l-141.2,16.1l-20-31.1l15.5,34.3l-26.3,3.8l-11.5-30.3l4.6,34.4l-30.2,7.6
						L2053.9,198.3L2053.9,198.3z"/>
					
						<linearGradient id="SVGID_00000169527977221183538350000008798011952022076317_" gradientUnits="userSpaceOnUse" x1="2180.3513" y1="550.6098" x2="2409.4097" y2="550.6098" gradientTransform="matrix(0.9847 0.1745 0.1745 -0.9847 -417.4568 324.4855)">
						<stop  offset="0" style="stop-color:#33431C"/>
						<stop  offset="1" style="stop-color:#437A03"/>
					</linearGradient>
					<path style="fill-rule:evenodd;clip-rule:evenodd;fill:url(#SVGID_00000169527977221183538350000008798011952022076317_);" d="
						M2050.8,204.6c-10.9-13.6-23.2-23.1-34.1-36.7c-15.8-3.1-37.5-6.3-63.4-6.5c-71.4-0.5-132.6,21.9-131.9,25.4
						c0.2,1,5.2,0.1,17.8,0.4c20.3,0.5,37,3.6,48.5,6.4c2.3-5.7,4.7-11.4,7.1-17.2c-1.1,5.9-2.2,11.9-3.4,17.8l27.1,7.2l4.9-24.6
						l-0.1,23.8c11.7,6.6,35.7,18,67.8,18.8C2017,220,2038.9,209.4,2050.8,204.6L2050.8,204.6z"/>
					
						<linearGradient id="SVGID_00000114773288865421150440000007895916046729594755_" gradientUnits="userSpaceOnUse" x1="2379.4048" y1="609.9808" x2="2573.4121" y2="609.9808" gradientTransform="matrix(0.9847 0.1745 0.1745 -0.9847 -417.4568 324.4855)">
						<stop  offset="0" style="stop-color:#33431C"/>
						<stop  offset="1" style="stop-color:#437A03"/>
					</linearGradient>
					<path style="fill-rule:evenodd;clip-rule:evenodd;fill:url(#SVGID_00000114773288865421150440000007895916046729594755_);" d="
						M2032.8,133.6c0,0,61.4-32.3,88.9-35.1c27.5-2.8,112,13.2,112,13.2l-79,39.2l-13.4-12l-2.9,13.1l-68.8,24.3l-21.4-20.5
						l16.4,27.7l-10.3,22.6l-5.9-4.6L2032.8,133.6L2032.8,133.6z"/>
					
						<linearGradient id="SVGID_00000112632961147210009070000001270442448770679472_" gradientUnits="userSpaceOnUse" x1="362.6004" y1="638.7202" x2="490.8335" y2="638.7202" gradientTransform="matrix(-0.9857 0.1687 -0.1687 -0.9857 2637.4824 763.0063)">
						<stop  offset="0" style="stop-color:#33431C"/>
						<stop  offset="1" style="stop-color:#437A03"/>
					</linearGradient>
					<path style="fill-rule:evenodd;clip-rule:evenodd;fill:url(#SVGID_00000112632961147210009070000001270442448770679472_);" d="
						M2044.8,207.7c-1.2-2.6-0.9-4.3-0.6-5.4c4.2-12.4,54.3-9.1,90.9-0.3l40.4,10.9l0,0l-34.3,0.7l-6.4-7.2l3.8,6.5l-17.7,0.1
						l-5.6-7.9l1.5,7.5l-2.9,0l-1.9-8.9v8.5c-7.3-1.4-15.1-2.5-23.3-3.4C2072.6,207.1,2057.8,207,2044.8,207.7L2044.8,207.7z"/>
				</g>
				<g>
					
						<linearGradient id="SVGID_00000026868783636067859050000017878669762694706049_" gradientUnits="userSpaceOnUse" x1="1736.8599" y1="788.79" x2="1840.1899" y2="788.79" gradientTransform="matrix(1 0 0 -1 0 814)">
						<stop  offset="0" style="stop-color:#33431C"/>
						<stop  offset="1" style="stop-color:#437A03"/>
					</linearGradient>
					<path style="fill-rule:evenodd;clip-rule:evenodd;fill:url(#SVGID_00000026868783636067859050000017878669762694706049_);" d="
						M1804.8,4.8l-25.2,8.6l26.9-2.1c3.6,3.6,6.8,7.5,9.6,11.4c19.9,27.3,24.1,59.4,24.1,59.4c-19.7-3-36.6-9.4-50.2-16.4l-1-22.5
						l-4.8,19.4c-9.8-5.6-17.6-11.2-23-15.7c-6-4.9-9.2-8.2-9.2-8.2l5.3-19.9l-11.8,18.6l-0.6,0.9c-0.1-0.5-0.2-1-0.4-1.6
						c-5.4-23.6-7.7-61.6-7.7-61.6l6.6-6.7c1.1,0.2,2.2,0.5,3.3,0.8C1783.5-22.1,1804.8,4.8,1804.8,4.8L1804.8,4.8z"/>
					<g>
						
							<linearGradient id="SVGID_00000168798742927166056880000010554135651028967050_" gradientUnits="userSpaceOnUse" x1="1692.3391" y1="452.3566" x2="1810.803" y2="452.3566" gradientTransform="matrix(1 0 0 -1 0 814)">
							<stop  offset="0" style="stop-color:#563114"/>
							<stop  offset="1" style="stop-color:#744D30"/>
						</linearGradient>
						<path style="fill:url(#SVGID_00000168798742927166056880000010554135651028967050_);" d="M1793.8,731.3
							c0,0,16-666.3-32.4-752.9l-20.5-10.8c7.1,153.6,6.9,321.6-5,501.6c-6.1,92-14.9,180.1-25.5,264c-10.7,2.6-18.1,5.4-18,8.1
							c0.4,10.8,114.3,22.2,118.3,6.6C1811.8,743.7,1804.4,737.6,1793.8,731.3L1793.8,731.3z"/>
						<g>
							<defs>
								<path id="SVGID_00000114044183085290275640000003743766484323782814_" d="M1793.8,731.3c0,0,16-666.3-32.4-752.9l-20.5-10.8
									c7.1,153.6,6.9,321.6-5,501.6c-6.1,92-14.9,180.1-25.5,264c-10.7,2.6-18.1,5.4-18,8.1c0.4,10.8,114.3,22.2,118.3,6.6
									C1811.8,743.7,1804.4,737.6,1793.8,731.3L1793.8,731.3z"/>
							</defs>
							<clipPath id="SVGID_00000039129119690111858790000018258388152206426507_">
								<use xlink:href="#SVGID_00000114044183085290275640000003743766484323782814_"  style="overflow:visible;"/>
							</clipPath>
							<g style="clip-path:url(#SVGID_00000039129119690111858790000018258388152206426507_);">
								<g class="st22">
									
										<linearGradient id="SVGID_00000128478836734791355260000012531719262951137195_" gradientUnits="userSpaceOnUse" x1="1701.5699" y1="721.3703" x2="1837.89" y2="721.3703" gradientTransform="matrix(1 0 0 -1 0 814)">
										<stop  offset="0" style="stop-color:#F8B958"/>
										<stop  offset="1" style="stop-color:#472816"/>
									</linearGradient>
									<path style="fill:url(#SVGID_00000128478836734791355260000012531719262951137195_);" d="M1702.3,102.4
										c7.7-6.5,16.8-10.9,26.1-14.5c9.8-3.7,19.9-6.6,30.2-8.1c19.1-2.7,38.9-0.6,56.1,8.7c8.7,4.7,16.5,11.2,22.4,19.3
										c0.6,0.8,1.9,0,1.3-0.8c-10.7-14.7-27.3-24.1-44.8-27.9c-20.8-4.5-42.5-1.1-62.3,6.1c-10.7,3.8-21.2,8.7-30,16.1
										C1700.5,101.9,1701.5,103,1702.3,102.4L1702.3,102.4L1702.3,102.4z"/>
								</g>
								<g class="st22">
									
										<linearGradient id="SVGID_00000121972937131272672340000005289542985513060753_" gradientUnits="userSpaceOnUse" x1="1729.5601" y1="674.7108" x2="1809.1899" y2="674.7108" gradientTransform="matrix(1 0 0 -1 0 814)">
										<stop  offset="0" style="stop-color:#F8B958"/>
										<stop  offset="1" style="stop-color:#472816"/>
									</linearGradient>
									<path style="fill:url(#SVGID_00000121972937131272672340000005289542985513060753_);" d="M1730.1,143.4
										c18.9-10.2,41.9-12,62.3-5.2c5.7,1.9,11.2,4.5,16.3,7.7c0.8,0.5,1.6-0.8,0.8-1.3c-18.6-11.6-41.9-14.8-63-9.2
										c-6,1.6-11.7,3.9-17.1,6.8C1728.4,142.6,1729.2,143.9,1730.1,143.4L1730.1,143.4z"/>
								</g>
								<g class="st22">
									
										<linearGradient id="SVGID_00000002373857671108337470000017055312812667051650_" gradientUnits="userSpaceOnUse" x1="1730.59" y1="611.9827" x2="1820.37" y2="611.9827" gradientTransform="matrix(1 0 0 -1 0 814)">
										<stop  offset="0" style="stop-color:#F8B958"/>
										<stop  offset="1" style="stop-color:#472816"/>
									</linearGradient>
									<path style="fill:url(#SVGID_00000002373857671108337470000017055312812667051650_);" d="M1730.8,191.3
										c13.2-3.2,27-3.9,40.5-2c6.7,0.9,13.2,2.5,19.6,4.7c5.9,2,11.7,4.4,16.9,7.8c5.4,3.5,10.3,8.4,11.5,14.9
										c0.2,0.9,1.6,0.6,1.4-0.4c-2.3-12.3-15.7-18.6-26.2-22.6c-13-4.9-27.1-7.3-41-7c-7.8,0.2-15.6,1.2-23.2,3.1
										C1729.5,190.1,1729.9,191.5,1730.8,191.3L1730.8,191.3L1730.8,191.3z"/>
								</g>
								<g class="st22">
									
										<linearGradient id="SVGID_00000094591141114867031390000010004305180608202425_" gradientUnits="userSpaceOnUse" x1="1717.12" y1="533.4936" x2="1828.3199" y2="533.4936" gradientTransform="matrix(1 0 0 -1 0 814)">
										<stop  offset="0" style="stop-color:#F8B958"/>
										<stop  offset="1" style="stop-color:#472816"/>
									</linearGradient>
									<path style="fill:url(#SVGID_00000094591141114867031390000010004305180608202425_);" d="M1717.4,270
										c14.9-2.6,30.2-2.9,45.2-0.8c14.9,2,29.6,6.3,43.2,12.7c7.7,3.6,15,7.8,22,12.7c0.8,0.5,1.5-0.8,0.8-1.3
										c-12.5-8.8-26.4-15.5-41-20c-14.5-4.5-29.7-6.9-44.9-6.9c-8.6,0-17.2,0.7-25.7,2.2C1716,268.7,1716.4,270.2,1717.4,270
										L1717.4,270L1717.4,270z"/>
								</g>
								<g class="st22">
									
										<linearGradient id="SVGID_00000019640651829236219990000002738088059646054046_" gradientUnits="userSpaceOnUse" x1="1721.3" y1="474.2381" x2="1828.5" y2="474.2381" gradientTransform="matrix(1 0 0 -1 0 814)">
										<stop  offset="0" style="stop-color:#F8B958"/>
										<stop  offset="1" style="stop-color:#472816"/>
									</linearGradient>
									<path style="fill:url(#SVGID_00000019640651829236219990000002738088059646054046_);" d="M1721.6,325.1
										c14.8-4.1,30.5-4.5,45.6-1.6c15,2.9,29.4,9,41.8,18c7,5.1,13.4,11,18.8,17.8c0.6,0.8,1.7-0.3,1.1-1.1
										c-9.8-12.1-22.5-21.7-36.6-28.2c-14.1-6.5-29.7-10-45.2-9.9c-8.7,0-17.4,1.2-25.8,3.5
										C1720.2,323.9,1720.6,325.3,1721.6,325.1L1721.6,325.1L1721.6,325.1z"/>
								</g>
								<g class="st22">
									
										<linearGradient id="SVGID_00000098192195634707270000000013701022713386488725_" gradientUnits="userSpaceOnUse" x1="1706.5699" y1="401.6503" x2="1847.52" y2="401.6503" gradientTransform="matrix(1 0 0 -1 0 814)">
										<stop  offset="0" style="stop-color:#F8B958"/>
										<stop  offset="1" style="stop-color:#472816"/>
									</linearGradient>
									<path style="fill:url(#SVGID_00000098192195634707270000000013701022713386488725_);" d="M1707.1,399.8
										c9.4-5,19.3-9.1,29.9-10.9s20.9-1.5,31.2,0.3c20.1,3.6,38.6,13.1,54.5,25.8c8.7,7,16.7,14.8,24.1,23.2
										c0.6,0.7,1.7-0.3,1.1-1.1c-13.3-15.1-28.8-28.7-46.8-38.1c-18.5-9.7-39.9-14.7-60.8-12.1c-12.1,1.5-23.3,5.9-34,11.6
										C1705.5,399,1706.2,400.3,1707.1,399.8L1707.1,399.8L1707.1,399.8z"/>
								</g>
								<g class="st22">
									
										<linearGradient id="SVGID_00000020379118859012430060000001312989038774590136_" gradientUnits="userSpaceOnUse" x1="1715.41" y1="288.7512" x2="1865.63" y2="288.7512" gradientTransform="matrix(1 0 0 -1 0 814)">
										<stop  offset="0" style="stop-color:#F8B958"/>
										<stop  offset="1" style="stop-color:#472816"/>
									</linearGradient>
									<path style="fill:url(#SVGID_00000020379118859012430060000001312989038774590136_);" d="M1715.9,485.1
										c12-5.3,26-5.9,39-4.8c12.6,1.1,25,4.3,36.6,9.3c22.5,9.6,41.5,25.9,55.3,46c7.6,11,13.6,23.1,17.9,35.8
										c0.3,0.9,1.8,0.5,1.4-0.4c-7.8-23-21.2-44.2-39.3-60.5c-18.8-16.9-42.6-28.1-67.7-31.2c-7.2-0.9-14.5-1.1-21.8-0.6
										c-7.6,0.5-15.2,2-22.2,5.1C1714.3,484.2,1715,485.5,1715.9,485.1L1715.9,485.1L1715.9,485.1z"/>
								</g>
								<g class="st22">
									
										<linearGradient id="SVGID_00000118378782015230477750000015092399091754128046_" gradientUnits="userSpaceOnUse" x1="1701.29" y1="196.1453" x2="1894.1899" y2="196.1453" gradientTransform="matrix(1 0 0 -1 0 814)">
										<stop  offset="0" style="stop-color:#F8B958"/>
										<stop  offset="1" style="stop-color:#472816"/>
									</linearGradient>
									<path style="fill:url(#SVGID_00000118378782015230477750000015092399091754128046_);" d="M1701.6,585
										c27.9-9.5,58.2-6,85.6,3.3c13.8,4.7,27.2,11,40.1,17.8c11.7,6.2,23.3,12.7,34.1,20.4c12.2,8.6,23.3,18.7,31.9,31
										c0.6,0.8,1.8,0,1.3-0.8c-15.5-22.1-38.8-36.9-62.1-49.5c-25.7-13.9-53.2-25.9-82.6-28.7c-16.4-1.6-33.1-0.2-48.8,5.1
										C1700.3,583.9,1700.6,585.3,1701.6,585L1701.6,585L1701.6,585z"/>
								</g>
								<g class="st22">
									
										<linearGradient id="SVGID_00000062150203028871501480000012973415564419150993_" gradientUnits="userSpaceOnUse" x1="1688.04" y1="123.8497" x2="1895.14" y2="123.8497" gradientTransform="matrix(1 0 0 -1 0 814)">
										<stop  offset="0" style="stop-color:#F8B958"/>
										<stop  offset="1" style="stop-color:#472816"/>
									</linearGradient>
									<path style="fill:url(#SVGID_00000062150203028871501480000012973415564419150993_);" d="M1688.5,662.6
										c7.5-3.4,15.7-4.8,23.8-5.9c8.2-1.1,16.5-1.9,24.8-2.3c16.3-0.8,32.8-0.1,49,2.7c15.1,2.6,30,6.9,43.9,13.3
										c12.5,5.7,24.3,13.1,34.8,21.9c10.5,8.8,19.7,19.2,26.9,30.9c0.9,1.4,1.7,2.9,2.6,4.3c0.5,0.8,1.8,0.1,1.3-0.8
										c-6.8-12.1-15.7-22.9-26-32.2c-10.3-9.3-22-17.2-34.5-23.4c-13.7-6.8-28.2-11.6-43.2-14.5c-16.3-3.2-32.9-4.4-49.5-4
										c-8.4,0.2-16.7,0.9-25,1.9c-8.1,1-16.4,2-24.2,4.6c-1.9,0.6-3.7,1.4-5.5,2.2C1686.9,661.7,1687.7,663,1688.5,662.6
										L1688.5,662.6L1688.5,662.6z"/>
								</g>
							</g>
						</g>
					</g>
					<path class="st44" d="M1736.8-19c0,0-140.8,16.9-252.3,72.6c0,0,82.8-98.6,174-122.9L1736.8-19L1736.8-19z"/>
					
						<linearGradient id="SVGID_00000147196624187172536710000005217038688065747841_" gradientUnits="userSpaceOnUse" x1="1742.6599" y1="816.0464" x2="2020.4301" y2="816.0464" gradientTransform="matrix(1 0 0 -1 0 814)">
						<stop  offset="0" style="stop-color:#33431C"/>
						<stop  offset="1" style="stop-color:#437A03"/>
					</linearGradient>
					<path style="fill-rule:evenodd;clip-rule:evenodd;fill:url(#SVGID_00000147196624187172536710000005217038688065747841_);" d="
						M1742.7-18.4c0,0,201.1,25.8,277.8,70.2l-46-52.5c0,0-140.6-62.5-218.2-54.4L1742.7-18.4L1742.7-18.4z"/>
					
						<linearGradient id="SVGID_00000023282648321837578550000016973317196036772028_" gradientUnits="userSpaceOnUse" x1="1644.9589" y1="744.65" x2="1731.53" y2="744.65" gradientTransform="matrix(1 0 0 -1 0 814)">
						<stop  offset="0" style="stop-color:#33431C"/>
						<stop  offset="1" style="stop-color:#437A03"/>
					</linearGradient>
					<path style="fill-rule:evenodd;clip-rule:evenodd;fill:url(#SVGID_00000023282648321837578550000016973317196036772028_);" d="
						M1731.5-39.2c0,0-60.8,40.3-75.3,86.1l53.2,8.4l-54.2-2.5l-1,6.8l55.2,2.6l-59,7.9c0,0-11.1,52.7-1.5,107.8
						c0,0,68.5-43.9,82.7-73.7l-19.6-25.7l19.5,12.6L1731.5-39.2L1731.5-39.2z"/>
					
						<linearGradient id="SVGID_00000124138701409533064620000015593518427936015277_" gradientUnits="userSpaceOnUse" x1="-378.64" y1="821.815" x2="-120.52" y2="821.815" gradientTransform="matrix(1 0 0 -1 1863.1801 814)">
						<stop  offset="0" style="stop-color:#33431C"/>
						<stop  offset="1" style="stop-color:#437A03"/>
					</linearGradient>
					<path style="fill-rule:evenodd;clip-rule:evenodd;fill:url(#SVGID_00000124138701409533064620000015593518427936015277_);" d="
						M1740.9-32.3l-82.3-36.9c0,0-111.1,7.6-174,122.9l83.7-13.6L1579.7,2l-2.3,37.7l6.2-3.1l1.5-50.6l3.8,49.9l77.3-23.7l-16.7-59
						l25.6,59.3l19.6-8.7l-6.4-26.7l12.1,26.6l42.3-24.1L1740.9-32.3z"/>
					
						<linearGradient id="SVGID_00000109009149879125651980000005381263068797150851_" gradientUnits="userSpaceOnUse" x1="-137.66" y1="813.7266" x2="157.2399" y2="813.7266" gradientTransform="matrix(1 0 0 -1 1863.1801 814)">
						<stop  offset="0" style="stop-color:#33431C"/>
						<stop  offset="1" style="stop-color:#437A03"/>
					</linearGradient>
					<path style="fill-rule:evenodd;clip-rule:evenodd;fill:url(#SVGID_00000109009149879125651980000005381263068797150851_);" d="
						M1725.5-39.2l31.4-10.5c0,0,112-20.1,217.6,49l46,52.5h-34.2L1968.3,4l5.1,49l-23.5-6.2v-57.5l-5.9,62.8
						c0,0-35.5-4.9-117.9-30.3l4.2-64.7l-10.2,62.2l-20.6-4.5l11.6-59.7l-13.4,53.3c0,0-38.8-12.4-55.1-27
						C1742.7-18.5,1725.5-39.2,1725.5-39.2z"/>
					
						<linearGradient id="SVGID_00000150074886550399757310000016767625438035884192_" gradientUnits="userSpaceOnUse" x1="-128.2687" y1="687.56" x2="-128.2687" y2="848.58" gradientTransform="matrix(1 0 0 -1 1863.1801 814)">
						<stop  offset="0" style="stop-color:#33431C"/>
						<stop  offset="1" style="stop-color:#437A03"/>
					</linearGradient>
					<path style="fill-rule:evenodd;clip-rule:evenodd;fill:url(#SVGID_00000150074886550399757310000016767625438035884192_);" d="
						M1760.3,83.6l-23.4-16l23.4,20.2l-2.4,5.6L1736.8,71l20.2,28.2l-15.3,27.2l-25.3-33.1l17.2-23.5l-18.1,17.8
						c-15.4-29.7-7.1-62.2-7.1-62.2l14.8-9.8l-14.8,4.9v-9.8l33.3-45.2C1775.3,10.9,1760.3,83.6,1760.3,83.6L1760.3,83.6z"/>
				</g>
				<g>
					<path class="st50" d="M1826.3,491.8c-9.3-4.8-18.8-13.6-28.1-18.4c-0.9-0.5-2.8-0.5-2.7,0.4c13.5,6.5,26.2,18,37.9,26.3
						L1826.3,491.8L1826.3,491.8z"/>
					<path class="st50" d="M2170.7,425.9c8.4-13,16.8-26,25.1-39c0.8-1.2,2.8-2.2,2.9-0.6c-12.2,18-23.3,37.3-33.2,57.6
						L2170.7,425.9L2170.7,425.9z"/>
					<path class="st50" d="M2174.4,421c-19.2,18.4-44.6,40.6-63.8,59c-9.4,9-13.4,11.2-15.9,13c0,0-35.9,26.6-90.6,35.5
						c-48.3,7.8-120.9-4.8-194.4-47.7c25,26.7,47.5,39.7,63.9,46.7c7.4,3.2,17.6,6.8,34.8,14.9c18.9,8.9,18.8,12,37.6,19.6
						c18.2,7.4,36.4,14.7,54.6,22.1c11.1,4.5,22.7,9.1,34.3,7.6c15.3-2,28.6-14.1,40.5-26.6c21.7-22.8,41.8-48.2,59.8-75.8
						c9.6-14,19.2-29.6,28.5-46.8C2167.5,435.1,2171.1,428,2174.4,421L2174.4,421z"/>
					<path class="st51" d="M2174.5,420.9c-5.1,11.5-14.5,30.3-30.3,50.5c-12.5,16-59.2,75.7-129.6,81.5c-19,1.6-32.2-1.4-57.8-7.4
						c-37-8.7-86.3-25.5-140.4-60.2c11,19.1,33.6,52.3,74,77.8c14.6,9.2,86,54.3,163.5,28.1C2120.5,568.6,2168.2,501,2174.5,420.9
						L2174.5,420.9z"/>
					<path class="st52" d="M2067.1,560.5c8-2.4,22.3-7.8,36.2-20.2c13.3-11.9,20.3-24.8,23.7-32.3c-5.7,8.6-14.3,19.7-26.8,30.6
						C2088.1,549.1,2076.2,556.1,2067.1,560.5L2067.1,560.5z"/>
					<path class="st52" d="M1928.9,560.4c7.4,5.5,18.9,12.7,34.1,17.8c16.9,5.7,31.7,6.5,41.4,6.3c-10-1.2-21.6-3.4-34.1-7.1
						C1953.7,572.6,1939.8,566.3,1928.9,560.4L1928.9,560.4z"/>
					<path class="st50" d="M2179.2,399.6c5.1-2.4,12.5-6.7,19.5-14c10.6-11.1,14.7-23.3,16.2-29.5c0.5,0.1,3,0.9,4.4,3.4
						c1.1,2,1,3.9,0.9,4.5c-1.8,6.2-5.6,16.6-14.1,26.9c-7.8,9.4-16.2,14.9-21.6,17.9c-0.5-0.2-4-1.6-5.1-5.2
						C2178.9,401.9,2179.1,400.4,2179.2,399.6L2179.2,399.6z"/>
					<path class="st50" d="M1734.9,469.7c1.8,1.7,19.4,17.6,41.5,12.5c9.6-2.2,16.2-7.5,19.7-10.9c0.5,1.1,1,2.5,1.2,4.4
						c0.4,3.6-0.6,6.5-1.2,7.9c-1.6,0.8-3.9,1.8-6.7,2.9c0,0-5.4,2.3-10.4,3.3c-18.2,3.9-33.4-2.7-43.9-9.6
						C1735.2,478.4,1734.9,471.5,1734.9,469.7L1734.9,469.7z"/>
				</g>
			</g>
		</g>
		<g>
			
				<linearGradient id="SVGID_00000057852671190136735180000013329795475168365207_" gradientUnits="userSpaceOnUse" x1="2016.6702" y1="147.559" x2="2047.3102" y2="147.909" gradientTransform="matrix(1 0 0 -1 0 814)">
				<stop  offset="0" style="stop-color:#FFB455"/>
				<stop  offset="1" style="stop-color:#FFD180"/>
			</linearGradient>
			
				<ellipse style="fill:url(#SVGID_00000057852671190136735180000013329795475168365207_);" cx="2098.2" cy="665.5" rx="17.4" ry="4.2"/>
			
				<linearGradient id="SVGID_00000065059228112380499950000001887979826794695096_" gradientUnits="userSpaceOnUse" x1="2085.26" y1="56.6244" x2="2358.25" y2="59.7244" gradientTransform="matrix(1 0 0 -1 0 814)">
				<stop  offset="0" style="stop-color:#FFB455"/>
				<stop  offset="1" style="stop-color:#FFD180"/>
			</linearGradient>
			
				<ellipse style="fill:url(#SVGID_00000065059228112380499950000001887979826794695096_);" cx="2166.8" cy="756.5" rx="17.4" ry="4.2"/>
			
				<linearGradient id="SVGID_00000034051053888259500250000001349192114908252316_" gradientUnits="userSpaceOnUse" x1="2136.0901" y1="39.0962" x2="2210.8101" y2="39.9462" gradientTransform="matrix(1 0 0 -1 0 814)">
				<stop  offset="0" style="stop-color:#FFB455"/>
				<stop  offset="1" style="stop-color:#FFD180"/>
			</linearGradient>
			
				<ellipse style="fill:url(#SVGID_00000034051053888259500250000001349192114908252316_);" cx="2158.4" cy="774.7" rx="4.8" ry="1.1"/>
			
				<linearGradient id="SVGID_00000082348391357666041460000000373994242208456835_" gradientUnits="userSpaceOnUse" x1="1970.6499" y1="104.3539" x2="1977.1499" y2="104.4239" gradientTransform="matrix(1 0 0 -1 0 814)">
				<stop  offset="0" style="stop-color:#FFB455"/>
				<stop  offset="1" style="stop-color:#FFD180"/>
			</linearGradient>
			
				<ellipse style="fill:url(#SVGID_00000082348391357666041460000000373994242208456835_);" cx="1987.9" cy="709.5" rx="3.7" ry="0.9"/>
			
				<linearGradient id="SVGID_00000013882850375953044510000001811238636475643048_" gradientUnits="userSpaceOnUse" x1="1941.7198" y1="144.1438" x2="1948.2198" y2="144.2138" gradientTransform="matrix(1 0 0 -1 0 814)">
				<stop  offset="0" style="stop-color:#FFB455"/>
				<stop  offset="1" style="stop-color:#FFD180"/>
			</linearGradient>
			
				<ellipse style="fill:url(#SVGID_00000013882850375953044510000001811238636475643048_);" cx="1959" cy="669.7" rx="3.7" ry="0.9"/>
			
				<linearGradient id="SVGID_00000059995172844120426170000013337456406141897363_" gradientUnits="userSpaceOnUse" x1="1892.0599" y1="90.1639" x2="1898.5599" y2="90.2339" gradientTransform="matrix(1 0 0 -1 0 814)">
				<stop  offset="0" style="stop-color:#FFB455"/>
				<stop  offset="1" style="stop-color:#FFD180"/>
			</linearGradient>
			
				<ellipse style="fill:url(#SVGID_00000059995172844120426170000013337456406141897363_);" cx="1909.3" cy="723.7" rx="3.7" ry="0.9"/>
			
				<linearGradient id="SVGID_00000117675581026283149390000006266241437783733415_" gradientUnits="userSpaceOnUse" x1="2094.97" y1="138.9676" x2="2107.5" y2="139.1076" gradientTransform="matrix(1 0 0 -1 0 814)">
				<stop  offset="0" style="stop-color:#FFB455"/>
				<stop  offset="1" style="stop-color:#FFD180"/>
			</linearGradient>
			
				<ellipse style="fill:url(#SVGID_00000117675581026283149390000006266241437783733415_);" cx="2128.3" cy="674.7" rx="7.1" ry="1.7"/>
			
				<linearGradient id="SVGID_00000070834071455622319370000005434777823190495161_" gradientUnits="userSpaceOnUse" x1="2007.8103" y1="167.2308" x2="2020.3402" y2="167.3808" gradientTransform="matrix(1 0 0 -1 0 814)">
				<stop  offset="0" style="stop-color:#FFB455"/>
				<stop  offset="1" style="stop-color:#FFD180"/>
			</linearGradient>
			
				<ellipse style="fill:url(#SVGID_00000070834071455622319370000005434777823190495161_);" cx="2041.2" cy="646.4" rx="7.1" ry="1.7"/>
			
				<linearGradient id="SVGID_00000022525572977260755000000003404142943356771200_" gradientUnits="userSpaceOnUse" x1="2054.53" y1="95.0076" x2="2067.0701" y2="95.1477" gradientTransform="matrix(1 0 0 -1 0 814)">
				<stop  offset="0" style="stop-color:#FFB455"/>
				<stop  offset="1" style="stop-color:#FFD180"/>
			</linearGradient>
			
				<ellipse style="fill:url(#SVGID_00000022525572977260755000000003404142943356771200_);" cx="2087.9" cy="718.6" rx="7.1" ry="1.7"/>
		</g>
	</g>
</g>
</svg>
