<?xml version="1.0" encoding="utf-8"?>
<!-- Generator: Adobe Illustrator 26.5.0, SVG Export Plug-In . SVG Version: 6.00 Build 0)  -->
<svg version="1.1" id="Слой_1" xmlns="http://www.w3.org/2000/svg" xmlns:xlink="http://www.w3.org/1999/xlink" x="0px" y="0px"
	 viewBox="0 0 2704 1520" style="enable-background:new 0 0 2704 1520;" xml:space="preserve">
<style type="text/css">
	.st0{clip-path:url(#SVGID_00000062176528089503860820000002206241829034066055_);}
	.st1{fill:url(#SVGID_00000054959117901186117890000006527523701549128607_);}
	.st2{clip-path:url(#SVGID_00000007401624046418801030000008200812174377093028_);}
	.st3{opacity:0.35;fill-rule:evenodd;clip-rule:evenodd;fill:#F6F8E2;enable-background:new    ;}
	.st4{fill:url(#SVGID_00000013181000333860697040000007473851502389139351_);}
	.st5{fill:url(#SVGID_00000078041596902398275470000000923640782981173677_);}
	.st6{clip-path:url(#SVGID_00000000932911478531246060000008650238050274290574_);}
	.st7{opacity:0.1;fill-rule:evenodd;clip-rule:evenodd;fill:url(#SVGID_00000050646436047446261160000003374676479028152969_);}
	
		.st8{opacity:8.000000e-02;fill-rule:evenodd;clip-rule:evenodd;fill:url(#SVGID_00000031203312180587350340000013845630806987122356_);enable-background:new    ;}
	
		.st9{opacity:0.14;fill-rule:evenodd;clip-rule:evenodd;fill:url(#SVGID_00000161628180689848781290000011948797688069939860_);enable-background:new    ;}
	.st10{fill:#FDEFFB;}
	.st11{fill:url(#SVGID_00000102518505134372079710000011078127943779788219_);}
	.st12{fill:url(#SVGID_00000004529405236186627130000013476719575492228482_);}
	.st13{fill:url(#SVGID_00000086652673638325356170000015472175846142051989_);}
	.st14{fill:url(#SVGID_00000058571215328844042240000000740882685800532410_);}
	.st15{fill-rule:evenodd;clip-rule:evenodd;fill:url(#SVGID_00000028284643689085520030000013016649921429660045_);}
	.st16{fill-rule:evenodd;clip-rule:evenodd;fill:url(#SVGID_00000181068575815664418540000014634671204835677590_);}
	.st17{fill-rule:evenodd;clip-rule:evenodd;fill:url(#SVGID_00000133527020673853463640000003934263278027215265_);}
	.st18{fill-rule:evenodd;clip-rule:evenodd;fill:url(#SVGID_00000083784128163827584650000014750786274075176852_);}
	.st19{fill-rule:evenodd;clip-rule:evenodd;fill:url(#SVGID_00000131358067998872487330000000594303799422481578_);}
	.st20{fill:url(#SVGID_00000088110817732408567210000010286685394126589583_);}
	.st21{clip-path:url(#SVGID_00000137832244880997485000000005117256663006900413_);}
	.st22{opacity:0.15;}
	.st23{fill:url(#SVGID_00000013910246560008057140000016492402442856823464_);}
	.st24{fill:url(#SVGID_00000004512489905846771610000005138286035714739607_);}
	.st25{fill:url(#SVGID_00000033328568573547478440000005286205534589853107_);}
	.st26{fill:url(#SVGID_00000082336381438405165450000003830540549813733053_);}
	.st27{fill:url(#SVGID_00000022556994473650237220000015699598123298600322_);}
	.st28{fill-rule:evenodd;clip-rule:evenodd;fill:url(#SVGID_00000088840815660818576960000017854133495582612876_);}
	.st29{fill-rule:evenodd;clip-rule:evenodd;fill:url(#SVGID_00000023964819178593733320000006647488213985317527_);}
	.st30{fill-rule:evenodd;clip-rule:evenodd;fill:url(#SVGID_00000121969530087414307720000014600164359711396246_);}
	.st31{fill-rule:evenodd;clip-rule:evenodd;fill:url(#SVGID_00000009574294671266751270000003423099012180619705_);}
	.st32{fill-rule:evenodd;clip-rule:evenodd;fill:url(#SVGID_00000157285168445391770400000010132949024484569003_);}
	.st33{fill:url(#SVGID_00000010278235172983310390000010822484284323133348_);}
	.st34{clip-path:url(#SVGID_00000120544789644948181810000008069947459023444140_);}
	.st35{fill:url(#SVGID_00000079454748260569256430000013798989440453300363_);}
	.st36{fill:url(#SVGID_00000121981258884092165120000004616403915882786434_);}
	.st37{fill:url(#SVGID_00000006684390088852896990000005272172008410750124_);}
	.st38{fill:url(#SVGID_00000142142774359697771580000012271776420973054646_);}
	.st39{fill:url(#SVGID_00000005966086522287788820000008031506394990203838_);}
	.st40{fill:url(#SVGID_00000049936455021190343050000002215292869265460881_);}
	.st41{fill:url(#SVGID_00000148634649164992833990000005385885538381356222_);}
	.st42{fill:url(#SVGID_00000006683762774894400380000001392525626558704818_);}
	.st43{fill:url(#SVGID_00000032637111845562878420000003520427497555654791_);}
	.st44{fill-rule:evenodd;clip-rule:evenodd;fill:#FFFFFF;}
	.st45{fill-rule:evenodd;clip-rule:evenodd;fill:url(#SVGID_00000104682403955263861350000011376117158181494184_);}
	.st46{fill-rule:evenodd;clip-rule:evenodd;fill:url(#SVGID_00000083085301452274840400000000770961456535987621_);}
	.st47{fill-rule:evenodd;clip-rule:evenodd;fill:url(#SVGID_00000103259965572058037520000002550709356415918262_);}
	.st48{fill-rule:evenodd;clip-rule:evenodd;fill:url(#SVGID_00000093898865406054560660000010411740522675018430_);}
	.st49{fill-rule:evenodd;clip-rule:evenodd;fill:url(#SVGID_00000042715403085189300990000011336132809857015218_);}
	.st50{fill:#FD681A;}
	.st51{fill:#8B8993;}
	.st52{fill:#6E6D72;}
	.st53{fill:url(#SVGID_00000176006159170233225600000001027604899541728156_);}
	.st54{fill:url(#SVGID_00000080204499005901634640000008247770426653895053_);}
	.st55{fill:url(#SVGID_00000048482741288628230150000015431445846420239000_);}
	.st56{fill:url(#SVGID_00000008149917428849980660000007260795421465410718_);}
	.st57{fill:url(#SVGID_00000061429444533815193910000015167189923375824319_);}
	.st58{fill:url(#SVGID_00000137811969498902407370000002357394580533555115_);}
	.st59{fill:url(#SVGID_00000118393768151461079760000004097059675752738966_);}
	.st60{fill:url(#SVGID_00000083782430905942669910000013105966140386081199_);}
	.st61{fill:url(#SVGID_00000026886226291381175550000018139248027466723513_);}
</style>
<g>
	<g id="_Слой_1">
		<g>
			<defs>
				<rect id="SVGID_1_" width="2704" height="1520"/>
			</defs>
			<clipPath id="SVGID_00000134213387157095640690000002103934247166714764_">
				<use xlink:href="#SVGID_1_"  style="overflow:visible;"/>
			</clipPath>
			<g style="clip-path:url(#SVGID_00000134213387157095640690000002103934247166714764_);">
				<g>
					
						<linearGradient id="SVGID_00000173867464895320415160000001909585402848946313_" gradientUnits="userSpaceOnUse" x1="600.2274" y1="164.9302" x2="651.1274" y2="1446.0601" gradientTransform="matrix(1 0 0 -1 0 1520)">
						<stop  offset="0" style="stop-color:#1791F5"/>
						<stop  offset="1" style="stop-color:#C2F8D1"/>
					</linearGradient>
					
						<rect x="-1456.3" style="fill:url(#SVGID_00000173867464895320415160000001909585402848946313_);" width="4160.3" height="1520"/>
					<g>
						<defs>
							<rect id="SVGID_00000031894963641570001320000008141882605927596453_" x="-1456.3" width="4160.3" height="1520"/>
						</defs>
						<clipPath id="SVGID_00000161602310323308341350000013223354541338309303_">
							<use xlink:href="#SVGID_00000031894963641570001320000008141882605927596453_"  style="overflow:visible;"/>
						</clipPath>
						<g style="clip-path:url(#SVGID_00000161602310323308341350000013223354541338309303_);">
							<path class="st3" d="M-303,217.8c0,0,120-110.5,167.4-126.3s47.4,63.1,126.3,63.1s94.7-78.9,189.4-63.1
								c27.9,4.6,93.5,46.3,141.1,62.1c26.9,8.9,95.4-17.8,116.7,0c77.1,64.2,112.3,64.2,112.3,64.2H-303z"/>
							<path class="st3" d="M-303,219.8c0,0,120-90.1,167.4-103s47.4,51.5,126.3,51.5s94.7-64.4,189.4-51.5
								c27.9,3.8,93.5,37.8,141.1,50.7c26.9,7.3,95.4-14.5,116.7,0c77.1,52.4,112.3,52.4,112.3,52.4L-303,219.8L-303,219.8z"/>
							
								<linearGradient id="SVGID_00000152955288096347832130000013939054301848266681_" gradientUnits="userSpaceOnUse" x1="340.1201" y1="650.4813" x2="361.7999" y2="1195.8787" gradientTransform="matrix(1 0 0 -1 0 1520)">
								<stop  offset="0" style="stop-color:#DD3E0B"/>
								<stop  offset="1" style="stop-color:#FC691A"/>
							</linearGradient>
							<circle style="fill:url(#SVGID_00000152955288096347832130000013939054301848266681_);" cx="351" cy="596.8" r="272.9"/>
							<path class="st3" d="M-2950.8,694.9c788.9-297.6,1067.4-279.4,1169.6-198c29.1,23.2,80.2,80.4,165.2,91.2
								c98.3,12.5,165.9-46.7,322.6-22.3c12.4,1.9,11.4,2.4,31.7,5.9c46.3,8,139.5,19.7,362.9,24.2c281.1,5.6,496.8-3.7,702.5-12
								c353.5-14.3,530.3-21.5,599.5-22.6c441.7-7.4,477,25.5,1007.1,33c529.9,7.5,505.3-58,815.6,0
								c538.4,100.6,784.8,100.6,784.8,100.6L-2950.8,694.9L-2950.8,694.9z"/>
							<path class="st3" d="M1858.3,223.4c0,0,120-90.1,167.4-103c47.4-12.9,47.4,51.5,126.3,51.5s94.7-64.4,189.4-51.5
								c27.9,3.8,93.5,37.8,141.1,50.7c26.9,7.3,95.4-14.5,116.7,0c77.1,52.4,112.3,52.4,112.3,52.4L1858.3,223.4L1858.3,223.4z"/>
							<path class="st3" d="M1264.3,501.6c0,0,67.4-58.1,93.3-66.7c25.9-8.6,25.9,34.5,69,34.5s51.8-43.1,103.5-34.5
								c15.2,2.5,84.3,65.6,84.3,65.6L1264.3,501.6L1264.3,501.6z"/>
						</g>
					</g>
				</g>
				<g>
					
						<linearGradient id="SVGID_00000000936828783009197300000004071050808076877451_" gradientUnits="userSpaceOnUse" x1="-913.26" y1="448.25" x2="3246.9998" y2="448.25" gradientTransform="matrix(1 0 0 -1 0 1520)">
						<stop  offset="0" style="stop-color:#0F76C8"/>
						<stop  offset="1" style="stop-color:#01D4C8"/>
					</linearGradient>
					
						<rect x="-1456.3" y="623.5" style="fill:url(#SVGID_00000000936828783009197300000004071050808076877451_);" width="4160.3" height="896.5"/>
					<g>
						<defs>
							
								<rect id="SVGID_00000158010867757584906540000002266354276337805205_" x="-1456.3" y="623.5" width="4160.3" height="896.5"/>
						</defs>
						<clipPath id="SVGID_00000083784097643046788000000015143020569909347732_">
							<use xlink:href="#SVGID_00000158010867757584906540000002266354276337805205_"  style="overflow:visible;"/>
						</clipPath>
						<g style="clip-path:url(#SVGID_00000083784097643046788000000015143020569909347732_);">
							
								<linearGradient id="SVGID_00000049930665180110632950000014005944701926730685_" gradientUnits="userSpaceOnUse" x1="-30.3301" y1="672.07" x2="-30.3301" y2="957.39" gradientTransform="matrix(1 0 0 -1 0 1520)">
								<stop  offset="0" style="stop-color:#FFFFFF"/>
								<stop  offset="0.99" style="stop-color:#FFFFFF"/>
							</linearGradient>
							
								<polygon style="opacity:0.1;fill-rule:evenodd;clip-rule:evenodd;fill:url(#SVGID_00000049930665180110632950000014005944701926730685_);" points="
								-3729.6,604.8 -981,604.8 -1583,562.6 1475.2,562.6 -575.7,604.8 -378.4,629.4 -981,657.6 1905.2,657.6 298.2,610.1 
								3670.7,562.6 3670.7,847.9 -3511.9,847.9 800.1,752.8 -3731.3,705.3 							"/>
							
								<linearGradient id="SVGID_00000054243302120825270380000011833072689072680836_" gradientUnits="userSpaceOnUse" x1="44.485" y1="428.4399" x2="44.485" y2="1033.6799" gradientTransform="matrix(1 0 0 -1 0 1520)">
								<stop  offset="0" style="stop-color:#3058D7"/>
								<stop  offset="0.58" style="stop-color:#2E38DB"/>
								<stop  offset="1" style="stop-color:#2E27DE"/>
							</linearGradient>
							
								<polygon style="opacity:8.000000e-02;fill-rule:evenodd;clip-rule:evenodd;fill:url(#SVGID_00000054243302120825270380000011833072689072680836_);enable-background:new    ;" points="
								-3665.6,486.3 2019.2,644.5 -1175.9,770.9 3756.1,770.9 2189.6,644.5 3756.1,580.6 3741.1,1009.4 -3666.5,852 1545.9,1066.9 
								-3667.1,1091.6 							"/>
							
								<linearGradient id="SVGID_00000003062899436093953190000003289661076357295802_" gradientUnits="userSpaceOnUse" x1="-1310.125" y1="206.37" x2="-1310.125" y2="445.96" gradientTransform="matrix(1 0 0 -1 0 1520)">
								<stop  offset="0" style="stop-color:#213993"/>
								<stop  offset="0.34" style="stop-color:#132156"/>
								<stop  offset="0.64" style="stop-color:#080F27"/>
								<stop  offset="0.87" style="stop-color:#02040A"/>
								<stop  offset="1" style="stop-color:#000000"/>
							</linearGradient>
							
								<polygon style="opacity:0.14;fill-rule:evenodd;clip-rule:evenodd;fill:url(#SVGID_00000003062899436093953190000003289661076357295802_);enable-background:new    ;" points="
								-3624.1,1074 1004.4,1269.3 -3624.7,1313.6 							"/>
						</g>
					</g>
				</g>
				<path class="st10" d="M-1538.7,1826.8c53.9-66,107.9-132,161.8-198c109.7-72.5,205.1-104.1,273.6-119.4
					c83.7-18.7,100.2-7.1,167.6-33.3c93.1-36.2,121.8-81.8,214.3-96.7c42.4-6.8,51.6,0.3,103.8-0.9c112.7-2.5,190.5-38.3,254.5-62.2
					c183.8-68.6,180.7-11.2,442.1-85.8c150-42.8,233.4-85.1,335.6-84.5c14.2,0.1,64.9,1.2,132.2-9.3c49.4-7.7,84-18.2,105.3-24
					c151-41.3,172.7,3.1,298.8-37.7c41.6-13.4,104.4-39.4,152.8-31.2c7.3,1.2,24.8,5,48,2c21.9-2.9,24.9-8.7,52.8-14.8
					c14.5-3.2,17.1-2.3,56.2-6.6c33.2-3.7,35.7-4.8,51.8-6.4c45.1-4.5,50.8,1.6,89.8-0.7c57.5-3.4,53.5-17.2,105.3-17.7
					c24-0.2,39.9,2.6,72.1-1.4c21.1-2.6,35.5-6.5,43.8-8.5c53.4-12.7,102.8-3.5,126-5.3c126.3-10.1,598.3-43.4,876.6-53.9
					c153.2-5.8,279.1-8.6,361.9-10c-51.6,307.8-103.1,615.6-154.7,923.4C1376.1,1838.1-81.3,1832.5-1538.7,1826.8L-1538.7,1826.8z"
					/>
				
					<linearGradient id="SVGID_00000065753343739347748330000005758809275639545267_" gradientUnits="userSpaceOnUse" x1="-760.0601" y1="96.2187" x2="3227.55" y2="141.4687" gradientTransform="matrix(1 0 0 -1 0 1520)">
					<stop  offset="0" style="stop-color:#FFD180"/>
					<stop  offset="1" style="stop-color:#FFB455"/>
				</linearGradient>
				<path style="fill:url(#SVGID_00000065753343739347748330000005758809275639545267_);" d="M-1538.7,1826.8
					c53.9-66,107.9-132,161.8-198c796.2-250.9,1746.4-479.8,2829.5-606.6C1998.1,958.4,2512,928,2988.2,920.4
					c-51.6,307.8-103.1,615.6-154.7,923.4C1376.1,1838.2-81.3,1832.5-1538.7,1826.8L-1538.7,1826.8z"/>
				
					<linearGradient id="SVGID_00000021809443122694007190000004259808621843673482_" gradientUnits="userSpaceOnUse" x1="-571.61" y1="-17.9754" x2="3415.9902" y2="27.2746" gradientTransform="matrix(1 0 0 -1 0 1520)">
					<stop  offset="0" style="stop-color:#FFB455"/>
					<stop  offset="1" style="stop-color:#FFD180"/>
				</linearGradient>
				<path style="fill:url(#SVGID_00000021809443122694007190000004259808621843673482_);" d="M-1349.7,1996.5
					c53.9-66,107.9-132,161.8-198c173.5-100.9,444.4-244.5,793.7-371.9c453.5-165.4,511.8-111,1957-350.7
					c352-58.4,664.3-114,1097.9-74c217.2,20,395.1,57.6,516.6,88.1c-51.6,307.8-103.1,615.6-154.7,923.4
					C1565.2,2007.8,107.8,2002.2-1349.7,1996.5L-1349.7,1996.5z"/>
				
					<linearGradient id="SVGID_00000100384419169621713450000013221177622433481870_" gradientUnits="userSpaceOnUse" x1="-418.8999" y1="-184.8453" x2="3568.71" y2="-139.5953" gradientTransform="matrix(1 0 0 -1 0 1520)">
					<stop  offset="0" style="stop-color:#FFD180"/>
					<stop  offset="1" style="stop-color:#FFB455"/>
				</linearGradient>
				<path style="fill:url(#SVGID_00000100384419169621713450000013221177622433481870_);" d="M-1196.9,2163.4
					c53.9-66,107.9-132,161.8-198c173.5-100.9,444.4-244.5,793.7-371.9c453.5-165.4,511.8-111,1957-350.7
					c352-58.4,664.3-114,1097.9-74c217.2,20,395.1,57.7,516.6,88.1c-51.6,307.8-103.1,615.6-154.7,923.4
					C1717.9,2174.7,260.5,2169.1-1196.9,2163.4L-1196.9,2163.4z"/>
				
					<linearGradient id="SVGID_00000100355742497311726990000011800802979459604907_" gradientUnits="userSpaceOnUse" x1="-253.5898" y1="-359.1046" x2="3734.0103" y2="-313.8546" gradientTransform="matrix(1 0 0 -1 0 1520)">
					<stop  offset="0" style="stop-color:#FFB455"/>
					<stop  offset="1" style="stop-color:#FFD180"/>
				</linearGradient>
				<path style="fill:url(#SVGID_00000100355742497311726990000011800802979459604907_);" d="M-1031.5,2350.1
					c53.9-66,107.9-132,161.8-198c173.5-100.9,444.4-244.5,793.7-371.9c98.9-36.1,179-61.7,258.7-82.2
					C721.8,1559.5,1385,1349.6,1881,1429.5c88.2,14.2,283.4,55.2,493.5-24c70.7-26.7,82.8-44.2,155.3-65.2
					c153.1-44.3,276.4-17.4,449,15.3c113.4,21.5,287.6,53,516.6,88.1c-51.6,307.8-103.1,615.6-154.7,923.4
					C1883.3,2361.4,425.9,2355.7-1031.5,2350.1L-1031.5,2350.1z"/>
				<g>
					
						<linearGradient id="SVGID_00000122697428605603982760000017012978811877968257_" gradientUnits="userSpaceOnUse" x1="2919.9744" y1="958.9902" x2="3149.1328" y2="958.9902" gradientTransform="matrix(0.9847 0.1745 0.1745 -0.9847 -701.2114 914.7007)">
						<stop  offset="0" style="stop-color:#33431C"/>
						<stop  offset="1" style="stop-color:#437A03"/>
					</linearGradient>
					<path style="fill-rule:evenodd;clip-rule:evenodd;fill:url(#SVGID_00000122697428605603982760000017012978811877968257_);" d="
						M2405,523.5l29.6-47.8l-17.1,54.1c5.8,9,12.1,17.4,18.9,25.1c46.6,53.7,110.6,77.5,110.6,77.5c3.2-41.9-2.1-79.6-10.1-110.9
						l-45.8-12.7l42-0.7c-6.8-22.8-14.8-41.3-21.3-54.6c-7.2-14.6-12.6-22.7-12.6-22.7l-43.3,1.5l43.6-15.4l2.2-0.8
						c-1-0.5-2-1-3.1-1.5c-45.9-22.1-122.7-44.8-122.7-44.8l-16.9,10.5c-0.1,2.4-0.1,4.8,0,7.1C2359.9,467.1,2405,523.6,2405,523.5
						L2405,523.5z"/>
					
						<linearGradient id="SVGID_00000137116248983272799240000013462265672681710246_" gradientUnits="userSpaceOnUse" x1="1840.4006" y1="1323.498" x2="1906.3346" y2="1323.498" gradientTransform="matrix(0.9934 -0.1149 -0.1149 -0.9934 616.7418 1789.0013)">
						<stop  offset="0" style="stop-color:#33431C"/>
						<stop  offset="1" style="stop-color:#437A03"/>
					</linearGradient>
					<path style="fill-rule:evenodd;clip-rule:evenodd;fill:url(#SVGID_00000137116248983272799240000013462265672681710246_);" d="
						M2375.8,406.6c0,0-63.3-80.3-77.1-112.4c-13.8-32.1-4.6-185.2-4.6-185.2l15.9,66.5l-11.9,21.1l13.4-9c0,0,16.7,31.8,30.3,77.1
						C2355.5,310.2,2375.8,406.6,2375.8,406.6L2375.8,406.6z"/>
					
						<linearGradient id="SVGID_00000080205199401424953680000007199315013344241561_" gradientUnits="userSpaceOnUse" x1="2870.5574" y1="923.5013" x2="2970.6941" y2="923.5013" gradientTransform="matrix(0.9847 0.1745 0.1745 -0.9847 -701.2114 914.7007)">
						<stop  offset="0" style="stop-color:#33431C"/>
						<stop  offset="1" style="stop-color:#437A03"/>
					</linearGradient>
					<path style="fill-rule:evenodd;clip-rule:evenodd;fill:url(#SVGID_00000080205199401424953680000007199315013344241561_);" d="
						M2347.8,367.1c0,0-49.1,84.9-59.3,128.1c-10.2,43.2,36.1,167.8,36.1,167.8s36.3-41.1,48.6-84.5l-27.9-37.2l31.7,28.1l1-33.7
						l-29.4-11.6l30.3,4.1c0,0,18.2-46.5-7.9-144.3L2347.8,367.1L2347.8,367.1z"/>
					
						<linearGradient id="SVGID_00000098931426191377821990000000026948382376312453_" gradientUnits="userSpaceOnUse" x1="2729.8325" y1="908.7524" x2="2932.4536" y2="908.7524" gradientTransform="matrix(0.9847 0.1745 0.1745 -0.9847 -701.2114 914.7007)">
						<stop  offset="0" style="stop-color:#33431C"/>
						<stop  offset="1" style="stop-color:#437A03"/>
					</linearGradient>
					<path style="fill-rule:evenodd;clip-rule:evenodd;fill:url(#SVGID_00000098931426191377821990000000026948382376312453_);" d="
						M2371,383.9L2269.6,450l-45.1-29.4l37.8,39.1c0,0-79.4,107.4-84.7,201.3c0,0-52.4-105.2-16.3-248.6l204.2-36.3L2371,383.9z"/>
					
						<linearGradient id="SVGID_00000063591353296072128490000017170255097668056707_" gradientUnits="userSpaceOnUse" x1="2907.6306" y1="1114.1902" x2="2972.4951" y2="1114.1902" gradientTransform="matrix(0.9847 0.1745 0.1745 -0.9847 -701.2114 914.7007)">
						<stop  offset="0" style="stop-color:#33431C"/>
						<stop  offset="1" style="stop-color:#437A03"/>
					</linearGradient>
					<path style="fill-rule:evenodd;clip-rule:evenodd;fill:url(#SVGID_00000063591353296072128490000017170255097668056707_);" d="
						M2365.4,391.7l-6.4-11.2c0,0-14.9-80,21.8-116.1l41.9,57.6L2365.4,391.7z"/>
					<g>
						
							<linearGradient id="SVGID_00000016791947269329438500000001470460424933177516_" gradientUnits="userSpaceOnUse" x1="2919.9023" y1="473.2997" x2="3842.3218" y2="473.2997" gradientTransform="matrix(0.9847 0.1745 0.1745 -0.9847 -701.2114 914.7007)">
							<stop  offset="0" style="stop-color:#563114"/>
							<stop  offset="1" style="stop-color:#744D30"/>
						</linearGradient>
						<path style="fill:url(#SVGID_00000016791947269329438500000001470460424933177516_);" d="M2357.2,389.7
							c0,0,94.9,94.9,220.9,302.5c129.4,213.1,291.5,545.1,417.4,1015.2l77.4-70.4c-38.8-259.8-143.1-673.3-456.5-1048.2
							c-72.5-86.8-147.4-160.9-220.5-224.2C2383,373,2370.1,381.4,2357.2,389.7L2357.2,389.7z"/>
						<g>
							<defs>
								<path id="SVGID_00000085934074243822045050000010746313318099826828_" d="M2357.2,389.7c0,0,94.9,94.9,220.9,302.5
									c129.4,213.1,291.5,545.1,417.4,1015.2l77.4-70.4c-38.8-259.8-143.1-673.3-456.5-1048.2c-72.5-86.8-147.4-160.9-220.5-224.2
									C2383,373,2370.1,381.4,2357.2,389.7L2357.2,389.7z"/>
							</defs>
							<clipPath id="SVGID_00000046330492279931706140000001564653481890595236_">
								<use xlink:href="#SVGID_00000085934074243822045050000010746313318099826828_"  style="overflow:visible;"/>
							</clipPath>
							<g style="clip-path:url(#SVGID_00000046330492279931706140000001564653481890595236_);">
								<g class="st22">
									
										<linearGradient id="SVGID_00000093873551406055032940000001478016988824214916_" gradientUnits="userSpaceOnUse" x1="2430.6799" y1="982.8248" x2="2562.8101" y2="982.8248" gradientTransform="matrix(1 0 0 -1 0 1520)">
										<stop  offset="0" style="stop-color:#F8B958"/>
										<stop  offset="1" style="stop-color:#472816"/>
									</linearGradient>
									<path style="fill:url(#SVGID_00000093873551406055032940000001478016988824214916_);" d="M2562.8,480.9
										c-25.1-0.1-50.2,7-71.6,20.2c-20.7,12.8-37.4,31.4-48.4,53c-6.1,12.1-10.4,25-12.6,38.3c-0.2,0.9,1.3,1.3,1.4,0.4
										c3.9-23.4,14.2-45.6,29.5-63.8c15.8-18.8,36.9-32.8,60.3-40.3c13.4-4.3,27.4-6.5,41.4-6.4
										C2563.8,482.4,2563.8,480.9,2562.8,480.9L2562.8,480.9L2562.8,480.9z"/>
								</g>
								<g class="st22">
									
										<linearGradient id="SVGID_00000046301364011881009670000015937767204816562074_" gradientUnits="userSpaceOnUse" x1="2498.49" y1="932.6984" x2="2600.3999" y2="932.6984" gradientTransform="matrix(1 0 0 -1 0 1520)">
										<stop  offset="0" style="stop-color:#F8B958"/>
										<stop  offset="1" style="stop-color:#472816"/>
									</linearGradient>
									<path style="fill:url(#SVGID_00000046301364011881009670000015937767204816562074_);" d="M2600.1,519.5
										c-22.3,7.2-42.4,20.2-58.8,36.8c-16.4,16.7-28.9,37.1-36.3,59.3c-4.1,12.5-6.6,25.6-7.1,38.8c0,1,1.5,1,1.5,0
										c0.9-23.2,7.9-45.9,19.4-66c11.5-20,27.6-37.5,46.8-50.4c10.8-7.3,22.5-13.1,34.9-17.1
										C2601.5,520.7,2601.1,519.2,2600.1,519.5L2600.1,519.5L2600.1,519.5z"/>
								</g>
								<g class="st22">
									
										<linearGradient id="SVGID_00000043442037561641939530000000688355116751044776_" gradientUnits="userSpaceOnUse" x1="2499.3501" y1="863.7703" x2="2655.3999" y2="863.7703" gradientTransform="matrix(1 0 0 -1 0 1520)">
										<stop  offset="0" style="stop-color:#F8B958"/>
										<stop  offset="1" style="stop-color:#472816"/>
									</linearGradient>
									<path style="fill:url(#SVGID_00000043442037561641939530000000688355116751044776_);" d="M2654.7,577.7
										c-12.7,10.1-26.5,18.7-40.5,27c-13.9,8.2-28,16-41.6,24.7c-12.6,8-24.7,16.9-35.5,27.2c-10.2,9.8-19.3,20.8-26.1,33.2
										s-11.1,25.4-12,39.2c-0.1,1.7-0.2,3.5-0.2,5.2c0,1,1.5,1,1.5,0c0.1-13.9,3.8-27.5,10-39.9c6.4-12.6,15.1-23.9,25-33.9
										c10.5-10.5,22.3-19.5,34.7-27.6c13.4-8.7,27.3-16.5,41.1-24.6c13.8-8,27.4-16.3,40.1-25.9c1.5-1.2,3-2.3,4.5-3.5
										C2656.5,578.2,2655.5,577.1,2654.7,577.7L2654.7,577.7L2654.7,577.7z"/>
								</g>
								<g class="st22">
									
										<linearGradient id="SVGID_00000181058847599857691400000016608018366425187230_" gradientUnits="userSpaceOnUse" x1="2487.95" y1="764.8027" x2="2765.74" y2="764.8027" gradientTransform="matrix(1 0 0 -1 0 1520)">
										<stop  offset="0" style="stop-color:#F8B958"/>
										<stop  offset="1" style="stop-color:#472816"/>
									</linearGradient>
									<path style="fill:url(#SVGID_00000181058847599857691400000016608018366425187230_);" d="M2765.5,627
										c-25,5.8-49.4,14.4-72.6,25.3c-23.2,10.9-45.3,24.1-65.9,39.3c-20.7,15.3-39.9,32.5-57.3,51.5
										c-17.3,18.8-32.8,39.3-46.1,61.2c-13.4,21.9-24.5,45.2-33.1,69.4c-1,2.9-2,5.9-3,8.9c-0.3,0.9,1.1,1.3,1.4,0.4
										c7.9-24.3,18.4-47.8,31.2-69.9c12.8-22.2,27.8-43,44.6-62.2c16.8-19.2,35.5-36.8,55.7-52.4s41.9-29.4,64.8-40.8
										c22.9-11.4,46.9-20.5,71.6-27c3-0.8,6.1-1.5,9.1-2.2C2766.8,628.2,2766.4,626.8,2765.5,627L2765.5,627L2765.5,627z"/>
								</g>
								<g class="st22">
									
										<linearGradient id="SVGID_00000037657626222067818390000011045896910537395877_" gradientUnits="userSpaceOnUse" x1="2211.3701" y1="1052.8611" x2="2488.05" y2="1052.8611" gradientTransform="matrix(1 0 0 -1 0 1520)">
										<stop  offset="0" style="stop-color:#F8B958"/>
										<stop  offset="1" style="stop-color:#472816"/>
									</linearGradient>
									<path style="fill:url(#SVGID_00000037657626222067818390000011045896910537395877_);" d="M2487.8,403.5
										c-21.1,6.6-42.1,13.2-63.2,19.8c-21.1,6.6-42.1,13.2-63.2,19.8c-21,6.6-41.9,13.1-62.9,19.7c-18.8,5.9-38,11.8-54.6,22.7
										c-13.9,9.1-26.1,22.2-31.4,38.2c-0.7,2-1.2,4.1-1.6,6.2c-0.2,0.9,1.2,1.3,1.4,0.4c3.6-16.9,15-31,28.8-41
										c15.8-11.4,34.6-17.7,52.9-23.5c20.6-6.5,41.3-13,61.9-19.4c20.7-6.5,41.4-13,62.1-19.5c20.8-6.5,41.6-13,62.4-19.5
										c2.5-0.8,5.1-1.6,7.6-2.4C2489.1,404.7,2488.7,403.2,2487.8,403.5L2487.8,403.5L2487.8,403.5z"/>
								</g>
							</g>
						</g>
					</g>
					
						<linearGradient id="SVGID_00000012461475051159623650000017152673370909023907_" gradientUnits="userSpaceOnUse" x1="2934.8394" y1="1137.0457" x2="3317.8269" y2="1137.0457" gradientTransform="matrix(0.9847 0.1745 0.1745 -0.9847 -701.2114 914.7007)">
						<stop  offset="0" style="stop-color:#33431C"/>
						<stop  offset="1" style="stop-color:#437A03"/>
					</linearGradient>
					<path style="fill-rule:evenodd;clip-rule:evenodd;fill:url(#SVGID_00000012461475051159623650000017152673370909023907_);" d="
						M2375.9,370l57.1-114.6c0,0,159.1-6,341.3,61.3l-263.4,30.1l-37.3-58l28.9,64l-49.1,7l-21.5-56.5l8.5,64.1l-56.3,14.3
						L2375.9,370L2375.9,370z"/>
					
						<linearGradient id="SVGID_00000170965443901279839290000008189956782897833919_" gradientUnits="userSpaceOnUse" x1="2503.6333" y1="1064.1801" x2="2931.0112" y2="1064.1801" gradientTransform="matrix(0.9847 0.1745 0.1745 -0.9847 -701.2114 914.7007)">
						<stop  offset="0" style="stop-color:#33431C"/>
						<stop  offset="1" style="stop-color:#437A03"/>
					</linearGradient>
					<path style="fill-rule:evenodd;clip-rule:evenodd;fill:url(#SVGID_00000170965443901279839290000008189956782897833919_);" d="
						M2369.9,381.7c-20.3-25.4-43.3-43.1-63.6-68.5c-29.4-5.8-69.9-11.8-118.3-12.1c-133.2-1-247.4,40.8-246.2,47.3
						c0.3,1.9,9.8,0.1,33.2,0.7c37.9,0.9,69,6.8,90.5,12c4.4-10.7,8.8-21.4,13.2-32.1c-2.1,11.1-4.2,22.1-6.3,33.2l50.5,13.4
						l9.1-45.9l-0.2,44.4c21.9,12.3,66.5,33.5,126.5,35C2307,410.5,2347.9,390.6,2369.9,381.7L2369.9,381.7z"/>
					
						<linearGradient id="SVGID_00000152975065398281361190000005696925082795593889_" gradientUnits="userSpaceOnUse" x1="2875.0176" y1="1174.9417" x2="3236.9988" y2="1174.9417" gradientTransform="matrix(0.9847 0.1745 0.1745 -0.9847 -701.2114 914.7007)">
						<stop  offset="0" style="stop-color:#33431C"/>
						<stop  offset="1" style="stop-color:#437A03"/>
					</linearGradient>
					<path style="fill-rule:evenodd;clip-rule:evenodd;fill:url(#SVGID_00000152975065398281361190000005696925082795593889_);" d="
						M2336.5,249.3c0,0,114.5-60.3,165.9-65.5s209,24.7,209,24.7l-147.5,73.2l-25.1-22.3l-5.4,24.5L2405,329.2l-39.8-38.3l30.6,51.6
						l-19.3,42.2l-11-8.5L2336.5,249.3L2336.5,249.3z"/>
					
						<linearGradient id="SVGID_00000161597470749919982030000009874605505721712772_" gradientUnits="userSpaceOnUse" x1="1161.0409" y1="1208.0911" x2="1400.2799" y2="1208.0911" gradientTransform="matrix(-0.9857 0.1687 -0.1687 -0.9857 3944.9749 1358.0365)">
						<stop  offset="0" style="stop-color:#33431C"/>
						<stop  offset="1" style="stop-color:#437A03"/>
					</linearGradient>
					<path style="fill-rule:evenodd;clip-rule:evenodd;fill:url(#SVGID_00000161597470749919982030000009874605505721712772_);" d="
						M2358.9,387.6c-2.1-4.8-1.8-8-1.1-10c7.8-23.2,101.2-17,169.6-0.6l75.3,20.4l0,0l-64,1.3l-11.9-13.5l7.2,12.1l-33.1,0.1
						l-10.4-14.7l2.8,14l-5.5,0l-3.6-16.6l0,15.8c-13.6-2.5-28.1-4.7-43.5-6.3C2410.6,386.5,2383.1,386.3,2358.9,387.6L2358.9,387.6
						z"/>
				</g>
				<g>
					
						<linearGradient id="SVGID_00000159435202541007771550000012179024905244544681_" gradientUnits="userSpaceOnUse" x1="1784.2501" y1="1472.9449" x2="1977.08" y2="1472.9449" gradientTransform="matrix(1 0 0 -1 0 1520)">
						<stop  offset="0" style="stop-color:#33431C"/>
						<stop  offset="1" style="stop-color:#437A03"/>
					</linearGradient>
					<path style="fill-rule:evenodd;clip-rule:evenodd;fill:url(#SVGID_00000159435202541007771550000012179024905244544681_);" d="
						M1911.1,9L1864,25.1l50.1-4c6.7,6.8,12.6,13.9,18,21.3c37.1,50.9,45,110.8,45,110.8c-36.8-5.5-68.4-17.6-93.7-30.7l-1.9-42.1
						l-8.9,36.2c-18.3-10.4-32.8-21-42.9-29.2c-11.2-9.1-17.1-15.4-17.1-15.4l9.9-37.1l-22,34.6l-1.1,1.7c-0.2-1-0.5-2-0.7-3
						c-10-44-14.3-114.9-14.3-114.9l12.4-12.6c2.1,0.4,4.1,0.9,6.2,1.4C1871.3-41.2,1911.1,9,1911.1,9L1911.1,9z"/>
					<g>
						
							<linearGradient id="SVGID_00000132068995279109363760000006811556011980717992_" gradientUnits="userSpaceOnUse" x1="1701.2382" y1="845.2657" x2="1922.2593" y2="845.2657" gradientTransform="matrix(1 0 0 -1 0 1520)">
							<stop  offset="0" style="stop-color:#563114"/>
							<stop  offset="1" style="stop-color:#744D30"/>
						</linearGradient>
						<path style="fill:url(#SVGID_00000132068995279109363760000006811556011980717992_);" d="M1890.4,1364.4
							c0,0,29.8-1243.2-60.4-1404.7l-38.2-20.1c13.3,286.6,13,600-9.4,935.8c-11.4,171.6-27.7,336-47.6,492.6
							c-20,4.8-33.7,10-33.6,15.2c0.7,20.2,213.3,41.4,220.8,12.3C1924.1,1387.5,1910.2,1376.1,1890.4,1364.4L1890.4,1364.4z"/>
						<g>
							<defs>
								<path id="SVGID_00000109003643005335935930000008414756689237958030_" d="M1890.4,1364.4c0,0,29.8-1243.2-60.4-1404.7
									l-38.2-20.1c13.3,286.6,13,600-9.4,935.8c-11.4,171.6-27.7,336-47.6,492.6c-20,4.8-33.7,10-33.6,15.2
									c0.7,20.2,213.3,41.4,220.8,12.3C1924.1,1387.5,1910.2,1376.1,1890.4,1364.4L1890.4,1364.4z"/>
							</defs>
							<clipPath id="SVGID_00000119796599496351768070000017231348219469810356_">
								<use xlink:href="#SVGID_00000109003643005335935930000008414756689237958030_"  style="overflow:visible;"/>
							</clipPath>
							<g style="clip-path:url(#SVGID_00000119796599496351768070000017231348219469810356_);">
								<g class="st22">
									
										<linearGradient id="SVGID_00000042706037905728882460000016905739395945752725_" gradientUnits="userSpaceOnUse" x1="1718.59" y1="1347.1396" x2="1972.62" y2="1347.1396" gradientTransform="matrix(1 0 0 -1 0 1520)">
										<stop  offset="0" style="stop-color:#F8B958"/>
										<stop  offset="1" style="stop-color:#472816"/>
									</linearGradient>
									<path style="fill:url(#SVGID_00000042706037905728882460000016905739395945752725_);" d="M1719.3,190.5
										c14.4-12.1,31.4-20.5,48.9-27.2c18.3-7,37.4-12.4,56.9-15.1c19.2-2.7,38.9-2.9,58,0.4c16.3,2.8,32.2,8.2,46.8,16.1
										c14.5,7.9,27.6,18.3,38.1,31.1c1.3,1.6,2.6,3.3,3.9,5c0.6,0.8,1.9,0,1.3-0.8c-9.8-13.5-22.5-24.8-36.8-33.4
										c-14.4-8.7-30.3-14.8-46.7-18.3c-18.8-4-38.2-4.5-57.2-2.5c-19.9,2.1-39.4,7-58.2,13.7c-17.8,6.4-35.4,14.2-50.6,25.7
										c-1.8,1.4-3.6,2.8-5.4,4.3C1717.5,190.1,1718.6,191.2,1719.3,190.5L1719.3,190.5L1719.3,190.5z"/>
								</g>
								<g class="st22">
									
										<linearGradient id="SVGID_00000060731541584385153100000002303621490509611168_" gradientUnits="userSpaceOnUse" x1="1770.77" y1="1260.1271" x2="1919.13" y2="1260.1271" gradientTransform="matrix(1 0 0 -1 0 1520)">
										<stop  offset="0" style="stop-color:#F8B958"/>
										<stop  offset="1" style="stop-color:#472816"/>
									</linearGradient>
									<path style="fill:url(#SVGID_00000060731541584385153100000002303621490509611168_);" d="M1771.3,267
										c17.7-9.6,37.5-15.3,57.6-16.9s40.1,0.8,59.1,7c10.8,3.5,21.1,8.4,30.7,14.4c0.8,0.5,1.6-0.8,0.8-1.3
										c-17.3-10.8-36.8-17.7-57-20.6c-20-2.8-40.6-1.7-60.2,3.5c-11,2.9-21.7,7.1-31.7,12.6
										C1769.7,266.1,1770.4,267.5,1771.3,267L1771.3,267L1771.3,267z"/>
								</g>
								<g class="st22">
									
										<linearGradient id="SVGID_00000053521043952183543320000010944172613674896801_" gradientUnits="userSpaceOnUse" x1="1772.65" y1="1143.078" x2="1939.89" y2="1143.078" gradientTransform="matrix(1 0 0 -1 0 1520)">
										<stop  offset="0" style="stop-color:#F8B958"/>
										<stop  offset="1" style="stop-color:#472816"/>
									</linearGradient>
									<path style="fill:url(#SVGID_00000053521043952183543320000010944172613674896801_);" d="M1772.9,356.3
										c24.8-6.1,50.7-7.3,75.9-3.7c12.5,1.8,24.8,4.7,36.7,8.8c11.2,3.9,22.5,8.5,32.4,15.1c9.9,6.5,18.8,15.6,21,27.7
										c0.2,1,1.6,0.5,1.4-0.4c-1.9-10.6-9-19.1-17.4-25.5c-9.3-7.1-20.3-12-31.3-16.2c-24.2-9.1-50.1-13.5-75.9-13
										c-14.6,0.3-29.1,2.2-43.2,5.7C1771.6,355.1,1772,356.5,1772.9,356.3L1772.9,356.3L1772.9,356.3z"/>
								</g>
								<g class="st22">
									
										<linearGradient id="SVGID_00000105422139197675014650000001439164564733416840_" gradientUnits="userSpaceOnUse" x1="1747.5" y1="996.6264" x2="1954.8199" y2="996.6264" gradientTransform="matrix(1 0 0 -1 0 1520)">
										<stop  offset="0" style="stop-color:#F8B958"/>
										<stop  offset="1" style="stop-color:#472816"/>
									</linearGradient>
									<path style="fill:url(#SVGID_00000105422139197675014650000001439164564733416840_);" d="M1747.7,503.1
										c14-2.5,28.1-3.8,42.3-4s28.2,0.6,42.2,2.5s27.8,4.9,41.4,8.8s26.8,8.9,39.6,14.9c12.8,6,25.1,12.9,36.8,20.8
										c1.4,1,2.9,2,4.3,3c0.8,0.6,1.5-0.7,0.8-1.3c-11.7-8.2-24-15.4-36.8-21.7c-12.7-6.2-25.9-11.5-39.5-15.7
										s-27.5-7.5-41.6-9.6c-14-2.1-28.2-3.2-42.4-3.2s-28.2,1.1-42.1,3.2c-1.8,0.3-3.6,0.6-5.3,0.9
										C1746.4,501.9,1746.8,503.3,1747.7,503.1L1747.7,503.1L1747.7,503.1z"/>
								</g>
								<g class="st22">
									
										<linearGradient id="SVGID_00000159449256460363422330000007017078269001898419_" gradientUnits="userSpaceOnUse" x1="1755.33" y1="886.1232" x2="1955.1" y2="886.1232" gradientTransform="matrix(1 0 0 -1 0 1520)">
										<stop  offset="0" style="stop-color:#F8B958"/>
										<stop  offset="1" style="stop-color:#472816"/>
									</linearGradient>
									<path style="fill:url(#SVGID_00000159449256460363422330000007017078269001898419_);" d="M1755.6,605.9
										c13.8-3.8,28.1-6,42.5-6.5s28.7,0.7,42.8,3.4c14.1,2.7,27.9,6.9,41.2,12.6c13.1,5.6,25.7,12.7,37.3,21.1s22.3,18.1,31.6,29
										c1.2,1.3,2.3,2.7,3.4,4.1c0.6,0.8,1.7-0.3,1.1-1.1c-9.1-11.2-19.5-21.3-30.9-30.1c-11.5-8.8-24-16.3-37.2-22.3
										c-13.1-6-26.9-10.7-41-13.8c-14.1-3.1-28.5-4.7-42.9-4.6s-29,1.8-43,5.2c-1.7,0.4-3.5,0.9-5.2,1.4
										C1754.3,604.7,1754.7,606.1,1755.6,605.9L1755.6,605.9L1755.6,605.9z"/>
								</g>
								<g class="st22">
									
										<linearGradient id="SVGID_00000140732899597140762070000012730548704861354922_" gradientUnits="userSpaceOnUse" x1="1727.89" y1="750.6695" x2="1990.59" y2="750.6695" gradientTransform="matrix(1 0 0 -1 0 1520)">
										<stop  offset="0" style="stop-color:#F8B958"/>
										<stop  offset="1" style="stop-color:#472816"/>
									</linearGradient>
									<path style="fill:url(#SVGID_00000140732899597140762070000012730548704861354922_);" d="M1728.4,745.4
										c17.7-9.5,36.5-17.1,56.4-20.4s39-2.8,58.2,0.6s37.7,9.7,55.2,18.3c16.6,8.2,32.2,18.4,46.7,29.9
										c14.5,11.6,28,24.5,40.5,38.2c1.5,1.7,3.1,3.4,4.6,5.1c0.6,0.7,1.7-0.3,1.1-1.1c-12.5-14.2-25.9-27.5-40.4-39.6
										c-14.3-11.9-29.8-22.5-46.3-31.2c-17.2-9.1-35.6-15.9-54.7-20c-19.1-4-38.9-5.2-58.3-2.8c-19.9,2.5-38.8,9-56.7,18
										c-2.3,1.2-4.6,2.3-6.9,3.6C1726.8,744.6,1727.5,745.8,1728.4,745.4L1728.4,745.4L1728.4,745.4z"/>
								</g>
								<g class="st22">
									
										<linearGradient id="SVGID_00000060752548779263788120000006860329760456273852_" gradientUnits="userSpaceOnUse" x1="1744.36" y1="539.997" x2="2024.34" y2="539.997" gradientTransform="matrix(1 0 0 -1 0 1520)">
										<stop  offset="0" style="stop-color:#F8B958"/>
										<stop  offset="1" style="stop-color:#472816"/>
									</linearGradient>
									<path style="fill:url(#SVGID_00000060752548779263788120000006860329760456273852_);" d="M1744.8,904.6
										c11.8-5.3,24.7-7.9,37.5-9c11.8-1,23.8-1,35.6,0c23.5,2,46.7,8,68.4,17.4c21.3,9.1,41.2,21.5,58.8,36.5
										c17,14.4,32,31.2,44.6,49.6c12.7,18.4,23,38.4,30.8,59.4c0.9,2.5,1.8,5.1,2.7,7.7c0.3,0.9,1.8,0.5,1.4-0.4
										c-7.3-21.4-17.1-42-29.4-61c-12.2-18.8-26.7-36.2-43.4-51.2c-17.3-15.7-37-28.8-58.2-38.7c-21.4-10-44.4-16.8-67.9-19.7
										c-11.8-1.5-23.7-2-35.5-1.4c-12.8,0.6-25.6,2.3-37.8,6.4c-2.9,1-5.8,2.1-8.6,3.3C1743.2,903.7,1744,905,1744.8,904.6
										L1744.8,904.6L1744.8,904.6z"/>
								</g>
								<g class="st22">
									
										<linearGradient id="SVGID_00000112597325842574573050000004742657274957081732_" gradientUnits="userSpaceOnUse" x1="1717.99" y1="367.2101" x2="2077.6499" y2="367.2101" gradientTransform="matrix(1 0 0 -1 0 1520)">
										<stop  offset="0" style="stop-color:#F8B958"/>
										<stop  offset="1" style="stop-color:#472816"/>
									</linearGradient>
									<path style="fill:url(#SVGID_00000112597325842574573050000004742657274957081732_);" d="M1718.3,1090.9
										c25.7-8.8,53.1-11.7,80.2-10.2c27.4,1.5,54.3,7.6,80.2,16.5s50.7,20.5,74.9,33.2c22,11.6,43.8,23.9,64.1,38.4
										c20,14.2,38.6,30.7,53.7,50.1c1.9,2.5,3.7,5,5.5,7.5c0.6,0.8,1.9,0,1.3-0.8c-14.1-20.1-31.9-37.2-51.3-52
										c-19.9-15.1-41.5-27.8-63.4-39.7c-24.2-13.1-49.1-25.2-74.9-34.8c-25.7-9.5-52.4-16.5-79.7-19.1c-27.1-2.6-54.8-1-81.1,6.4
										c-3.3,0.9-6.5,1.9-9.7,3C1717,1089.8,1717.4,1091.2,1718.3,1090.9L1718.3,1090.9L1718.3,1090.9z"/>
								</g>
								<g class="st22">
									
										<linearGradient id="SVGID_00000153682450462412324150000014777061191368162483_" gradientUnits="userSpaceOnUse" x1="1693.3101" y1="232.3322" x2="2079.4099" y2="232.3322" gradientTransform="matrix(1 0 0 -1 0 1520)">
										<stop  offset="0" style="stop-color:#F8B958"/>
										<stop  offset="1" style="stop-color:#472816"/>
									</linearGradient>
									<path style="fill:url(#SVGID_00000153682450462412324150000014777061191368162483_);" d="M1693.8,1235.7
										c13.9-6.4,29-8.9,44-11c15.4-2.2,31-3.7,46.6-4.4c30.7-1.5,61.6-0.2,91.9,5c28.3,4.8,56.1,12.9,82.2,24.9
										c23.4,10.7,45.4,24.5,65.1,41c19.5,16.5,36.7,35.8,50.2,57.5c1.7,2.7,3.3,5.4,4.9,8.2c0.5,0.8,1.8,0.1,1.3-0.8
										c-12.7-22.6-29.3-42.8-48.6-60.2c-19.2-17.3-40.8-31.8-64-43.3c-25.4-12.6-52.6-21.5-80.5-27.1c-30.3-6-61.2-8.2-92.1-7.3
										c-15.7,0.4-31.3,1.6-46.9,3.5s-30.5,3.8-44.9,8.6c-3.4,1.1-6.7,2.4-9.9,3.9C1692.2,1234.8,1692.9,1236.1,1693.8,1235.7
										L1693.8,1235.7L1693.8,1235.7z"/>
								</g>
							</g>
						</g>
					</g>
					<path class="st44" d="M1784.3-35.4c0,0-262.7,31.5-470.7,135.5c0,0,154.5-184,324.7-229.4
						C1638.2-129.3,1784.3-35.4,1784.3-35.4z"/>
					
						<linearGradient id="SVGID_00000170268899143401666730000000995589564991431306_" gradientUnits="userSpaceOnUse" x1="1795.1" y1="1523.8281" x2="2313.3599" y2="1523.8281" gradientTransform="matrix(1 0 0 -1 0 1520)">
						<stop  offset="0" style="stop-color:#33431C"/>
						<stop  offset="1" style="stop-color:#437A03"/>
					</linearGradient>
					<path style="fill-rule:evenodd;clip-rule:evenodd;fill:url(#SVGID_00000170268899143401666730000000995589564991431306_);" d="
						M1795.1-34.4c0,0,375.2,48.2,518.2,131l-85.8-98c0,0-262.3-116.6-407-101.4L1795.1-34.4L1795.1-34.4z"/>
					
						<linearGradient id="SVGID_00000078729318875626846310000013975285964874896282_" gradientUnits="userSpaceOnUse" x1="1612.8392" y1="1390.585" x2="1774.3601" y2="1390.585" gradientTransform="matrix(1 0 0 -1 0 1520)">
						<stop  offset="0" style="stop-color:#33431C"/>
						<stop  offset="1" style="stop-color:#437A03"/>
					</linearGradient>
					<path style="fill-rule:evenodd;clip-rule:evenodd;fill:url(#SVGID_00000078729318875626846310000013975285964874896282_);" d="
						M1774.3-73.1c0,0-113.5,75.3-140.5,160.6l99.2,15.6l-101.2-4.7l-1.8,12.6l103,4.8l-110.1,14.8c0,0-20.6,98.4-2.8,201.2
						c0,0,127.8-82,154.3-137.4l-36.6-47.9l36.4,23.5L1774.3-73.1L1774.3-73.1z"/>
					
						<linearGradient id="SVGID_00000013914716661296281930000011899821720205857456_" gradientUnits="userSpaceOnUse" x1="-549.65" y1="1534.58" x2="-68.0701" y2="1534.58" gradientTransform="matrix(1 0 0 -1 1863.1801 1520)">
						<stop  offset="0" style="stop-color:#33431C"/>
						<stop  offset="1" style="stop-color:#437A03"/>
					</linearGradient>
					<path style="fill-rule:evenodd;clip-rule:evenodd;fill:url(#SVGID_00000013914716661296281930000011899821720205857456_);" d="
						M1791.8-60.3l-153.6-68.9c0,0-207.3,14.1-324.7,229.4l156.2-25.4L1491,3.6l-4.2,70.3l11.6-5.7l2.8-94.3l7.2,93l144.2-44.3
						l-31.2-110.1l47.7,110.7L1705.6,7l-12-49.7L1716.1,7l79-45L1791.8-60.3L1791.8-60.3z"/>
					
						<linearGradient id="SVGID_00000142854548257297551430000012172567158742697383_" gradientUnits="userSpaceOnUse" x1="-100.04" y1="1519.4755" x2="450.1801" y2="1519.4755" gradientTransform="matrix(1 0 0 -1 1863.1801 1520)">
						<stop  offset="0" style="stop-color:#33431C"/>
						<stop  offset="1" style="stop-color:#437A03"/>
					</linearGradient>
					<path style="fill-rule:evenodd;clip-rule:evenodd;fill:url(#SVGID_00000142854548257297551430000012172567158742697383_);" d="
						M1763.1-73.2l58.5-19.7c0,0,208.9-37.5,405.9,91.5l85.8,98h-63.9l-33.3-89l9.5,91.4l-43.9-11.5V-19.7l-10.9,117.3
						c0,0-66.3-9.2-219.9-56.5l7.7-120.8l-19.1,116l-38.4-8.5l21.7-111.4l-25,99.4c0,0-72.4-23.2-102.8-50.3L1763.1-73.2
						L1763.1-73.2z"/>
					
						<linearGradient id="SVGID_00000092449959181039286730000004542296354899192231_" gradientUnits="userSpaceOnUse" x1="-82.4926" y1="1284.09" x2="-82.4926" y2="1584.52" gradientTransform="matrix(1 0 0 -1 1863.1801 1520)">
						<stop  offset="0" style="stop-color:#33431C"/>
						<stop  offset="1" style="stop-color:#437A03"/>
					</linearGradient>
					<path style="fill-rule:evenodd;clip-rule:evenodd;fill:url(#SVGID_00000092449959181039286730000004542296354899192231_);" d="
						M1828,155.9l-43.6-29.9l43.6,37.6l-4.4,10.4l-39.4-41.5l37.7,52.7l-28.5,50.7l-47.2-61.8l32.1-43.9l-33.7,33.1
						c-28.8-55.5-13.3-116-13.3-116l27.7-18.2l-27.7,9.1V19.8l62.1-84.3C1856,20.4,1828,156,1828,155.9L1828,155.9z"/>
				</g>
				<g>
					<path class="st50" d="M1951.1,917.5c-17.4-9-35-25.3-52.4-34.3c-1.7-0.9-5.1-0.9-5,0.8c25.1,12.2,48.9,33.5,70.8,49
						L1951.1,917.5L1951.1,917.5z"/>
					<path class="st50" d="M2593.6,794.7c15.6-24.2,31.3-48.5,46.9-72.8c1.5-2.3,5.1-4,5.5-1.1c-22.8,33.7-43.5,69.7-61.9,107.5
						L2593.6,794.7L2593.6,794.7z"/>
					<path class="st50" d="M2600.7,785.5c-35.9,34.3-83.2,75.8-119.1,110c-17.5,16.8-25,20.8-29.6,24.2c0,0-67.1,49.7-169.1,66.2
						c-90.1,14.6-225.6-8.9-362.7-89c46.6,49.8,88.5,74.1,119.2,87.1c13.8,5.9,32.8,12.6,64.8,27.8c35.2,16.7,35.1,22.4,70.1,36.5
						c34,13.7,67.9,27.5,101.9,41.2c20.8,8.4,42.3,16.9,63.9,14.1c28.6-3.7,53.4-26.3,75.6-49.6c40.5-42.5,77.9-89.9,111.5-141.4
						c17.9-26.1,35.9-55.2,53.2-87.3C2587.8,811.8,2594.5,798.5,2600.7,785.5L2600.7,785.5z"/>
					<path class="st51" d="M2600.8,785.3c-9.6,21.5-27.1,56.5-56.6,94.2c-23.3,29.8-110.4,141.2-241.9,152
						c-35.4,2.9-60.1-2.6-107.9-13.8c-69-16.3-161.1-47.6-262-112.3c20.5,35.6,62.6,97.5,138.1,145.2
						c27.2,17.2,160.5,101.4,305,52.5C2500.1,1060.9,2589,934.7,2600.8,785.3L2600.8,785.3z"/>
					<path class="st52" d="M2400.4,1045.8c14.9-4.5,41.6-14.6,67.5-37.7c24.9-22.2,37.9-46.3,44.2-60.3c-10.6,16-26.7,36.7-50,57
						C2439.6,1024.6,2417.5,1037.5,2400.4,1045.8z"/>
					<path class="st52" d="M2142.6,1045.6c13.9,10.3,35.2,23.7,63.6,33.2c31.5,10.6,59.1,12.2,77.3,11.8
						c-18.7-2.3-40.2-6.4-63.7-13.3C2188.9,1068.2,2163,1056.5,2142.6,1045.6L2142.6,1045.6z"/>
					<path class="st50" d="M2609.7,745.5c9.5-4.5,23.3-12.5,36.3-26.2c19.9-20.8,27.4-43.5,30.3-55.1c1,0.3,5.5,1.7,8.2,6.3
						c2.1,3.7,1.9,7.3,1.8,8.5c-3.3,11.5-10.4,30.9-26.4,50.2c-14.5,17.6-30.2,27.8-40.4,33.4c-1-0.4-7.5-3-9.6-9.8
						C2609,749.8,2609.3,747,2609.7,745.5L2609.7,745.5z"/>
					<path class="st50" d="M1780.7,876.4c3.4,3.2,36.3,32.8,77.4,23.3c18-4.1,30.3-14.1,36.7-20.3c0.9,2,1.9,4.7,2.3,8.1
						c0.8,6.7-1.1,12.1-2.3,14.7c-3,1.5-7.2,3.4-12.4,5.4c0,0-10.2,4.2-19.4,6.2c-33.9,7.3-62.4-5.1-81.9-17.9
						C1781.1,892.5,1780.6,879.8,1780.7,876.4L1780.7,876.4z"/>
				</g>
			</g>
		</g>
		<g>
			
				<linearGradient id="SVGID_00000115503536050260491310000018417431078033865381_" gradientUnits="userSpaceOnUse" x1="2306.3499" y1="276.6274" x2="2363.5198" y2="277.2675" gradientTransform="matrix(1 0 0 -1 0 1520)">
				<stop  offset="0" style="stop-color:#FFB455"/>
				<stop  offset="1" style="stop-color:#FFD180"/>
			</linearGradient>
			
				<ellipse style="fill:url(#SVGID_00000115503536050260491310000018417431078033865381_);" cx="2458.4" cy="1241.7" rx="32.5" ry="7.8"/>
			
				<linearGradient id="SVGID_00000016034377845643931280000012081672083827943352_" gradientUnits="userSpaceOnUse" x1="2434.3201" y1="106.9242" x2="2943.6499" y2="112.7041" gradientTransform="matrix(1 0 0 -1 0 1520)">
				<stop  offset="0" style="stop-color:#FFB455"/>
				<stop  offset="1" style="stop-color:#FFD180"/>
			</linearGradient>
			
				<ellipse style="fill:url(#SVGID_00000016034377845643931280000012081672083827943352_);" cx="2586.4" cy="1411.3" rx="32.5" ry="7.8"/>
			
				<linearGradient id="SVGID_00000051383191072632910820000014285519095099162498_" gradientUnits="userSpaceOnUse" x1="2529.1699" y1="74.2282" x2="2668.5801" y2="75.8083" gradientTransform="matrix(1 0 0 -1 0 1520)">
				<stop  offset="0" style="stop-color:#FFB455"/>
				<stop  offset="1" style="stop-color:#FFD180"/>
			</linearGradient>
			
				<ellipse style="fill:url(#SVGID_00000051383191072632910820000014285519095099162498_);" cx="2570.8" cy="1445.3" rx="8.9" ry="2.1"/>
			
				<linearGradient id="SVGID_00000162324658903035173720000007811767617737043847_" gradientUnits="userSpaceOnUse" x1="2220.49" y1="195.9476" x2="2232.6201" y2="196.0876" gradientTransform="matrix(1 0 0 -1 0 1520)">
				<stop  offset="0" style="stop-color:#FFB455"/>
				<stop  offset="1" style="stop-color:#FFD180"/>
			</linearGradient>
			
				<ellipse style="fill:url(#SVGID_00000162324658903035173720000007811767617737043847_);" cx="2252.8" cy="1323.7" rx="6.9" ry="1.7"/>
			
				<linearGradient id="SVGID_00000152229921159313226410000016495122916767843512_" gradientUnits="userSpaceOnUse" x1="2166.5203" y1="270.1777" x2="2178.6501" y2="270.3177" gradientTransform="matrix(1 0 0 -1 0 1520)">
				<stop  offset="0" style="stop-color:#FFB455"/>
				<stop  offset="1" style="stop-color:#FFD180"/>
			</linearGradient>
			
				<ellipse style="fill:url(#SVGID_00000152229921159313226410000016495122916767843512_);" cx="2198.8" cy="1249.4" rx="6.9" ry="1.7"/>
			
				<linearGradient id="SVGID_00000093162789713942899150000010312976407284761016_" gradientUnits="userSpaceOnUse" x1="2073.8601" y1="169.4676" x2="2085.99" y2="169.6076" gradientTransform="matrix(1 0 0 -1 0 1520)">
				<stop  offset="0" style="stop-color:#FFB455"/>
				<stop  offset="1" style="stop-color:#FFD180"/>
			</linearGradient>
			
				<ellipse style="fill:url(#SVGID_00000093162789713942899150000010312976407284761016_);" cx="2106.1" cy="1350.2" rx="6.9" ry="1.7"/>
			
				<linearGradient id="SVGID_00000086655654643052628390000000412542275905221814_" gradientUnits="userSpaceOnUse" x1="2452.4299" y1="260.5483" x2="2475.8201" y2="260.8083" gradientTransform="matrix(1 0 0 -1 0 1520)">
				<stop  offset="0" style="stop-color:#FFB455"/>
				<stop  offset="1" style="stop-color:#FFD180"/>
			</linearGradient>
			
				<ellipse style="fill:url(#SVGID_00000086655654643052628390000000412542275905221814_);" cx="2514.6" cy="1258.8" rx="13.3" ry="3.2"/>
			
				<linearGradient id="SVGID_00000039813420844260994520000012587290518709890947_" gradientUnits="userSpaceOnUse" x1="2289.8201" y1="313.3219" x2="2313.21" y2="313.5919" gradientTransform="matrix(1 0 0 -1 0 1520)">
				<stop  offset="0" style="stop-color:#FFB455"/>
				<stop  offset="1" style="stop-color:#FFD180"/>
			</linearGradient>
			
				<ellipse style="fill:url(#SVGID_00000039813420844260994520000012587290518709890947_);" cx="2352" cy="1206" rx="13.3" ry="3.2"/>
			
				<linearGradient id="SVGID_00000151529223589526845870000012773106210669900427_" gradientUnits="userSpaceOnUse" x1="2377" y1="178.5115" x2="2400.3799" y2="178.7815" gradientTransform="matrix(1 0 0 -1 0 1520)">
				<stop  offset="0" style="stop-color:#FFB455"/>
				<stop  offset="1" style="stop-color:#FFD180"/>
			</linearGradient>
			
				<ellipse style="fill:url(#SVGID_00000151529223589526845870000012773106210669900427_);" cx="2439.2" cy="1340.8" rx="13.3" ry="3.2"/>
		</g>
	</g>
</g>
</svg>
