<?xml version="1.0" encoding="UTF-8"?>
<svg id="_Слой_1" data-name="Слой 1" xmlns="http://www.w3.org/2000/svg" xmlns:xlink="http://www.w3.org/1999/xlink" viewBox="0 0 2704 1520">
  <defs>
    <style>
      .cls-1 {
        fill: url(#_Безымянный_градиент_23-5);
      }

      .cls-2 {
        fill: url(#_Безымянный_градиент_17-15);
      }

      .cls-3 {
        fill: url(#_Безымянный_градиент_14-8);
      }

      .cls-4 {
        clip-path: url(#clippath-11);
      }

      .cls-5 {
        fill: url(#_Безымянный_градиент_14-16);
      }

      .cls-6 {
        fill: url(#_Безымянный_градиент_16-18);
      }

      .cls-7 {
        fill: url(#_Безымянный_градиент_20-2);
      }

      .cls-8 {
        fill: url(#_Безымянный_градиент_16-14);
      }

      .cls-9 {
        fill: url(#_Безымянный_градиент_17);
      }

      .cls-10 {
        clip-path: url(#clippath-2);
      }

      .cls-11 {
        fill: url(#_Безымянный_градиент_14-13);
      }

      .cls-12 {
        fill: url(#_Безымянный_градиент_17-26);
      }

      .cls-13 {
        fill: url(#_Безымянный_градиент_14-19);
      }

      .cls-14 {
        fill: url(#_Безымянный_градиент_17-20);
      }

      .cls-15 {
        fill: url(#_Безымянный_градиент_12-9);
      }

      .cls-16 {
        fill: url(#_Безымянный_градиент_12-8);
      }

      .cls-17 {
        fill: url(#_Безымянный_градиент_12-7);
      }

      .cls-18 {
        fill: #9b903d;
      }

      .cls-19 {
        fill: url(#_Безымянный_градиент_14-15);
      }

      .cls-20 {
        clip-path: url(#clippath-6);
      }

      .cls-21 {
        fill: url(#_Безымянный_градиент_12-2);
      }

      .cls-22 {
        fill: url(#_Безымянный_градиент_12-6);
      }

      .cls-23 {
        fill: url(#_Безымянный_градиент_16-9);
      }

      .cls-24 {
        fill: url(#_Безымянный_градиент_17-27);
      }

      .cls-25 {
        fill: url(#_Безымянный_градиент_17-17);
      }

      .cls-26 {
        fill: url(#_Безымянный_градиент_12-4);
      }

      .cls-27 {
        fill: url(#_Безымянный_градиент_12-3);
      }

      .cls-28 {
        fill: url(#_Безымянный_градиент_16-13);
      }

      .cls-29 {
        fill: url(#_Безымянный_градиент_14-17);
      }

      .cls-30 {
        clip-path: url(#clippath-7);
      }

      .cls-31 {
        fill: url(#_Безымянный_градиент_23-3);
      }

      .cls-32 {
        fill: #806337;
      }

      .cls-33 {
        clip-path: url(#clippath-4);
      }

      .cls-34 {
        fill: url(#_Безымянный_градиент_23-2);
      }

      .cls-35 {
        fill: url(#_Безымянный_градиент_20-4);
      }

      .cls-36 {
        opacity: .15;
      }

      .cls-37 {
        fill: url(#_Безымянный_градиент_16-2);
      }

      .cls-38 {
        fill: url(#_Безымянный_градиент_16-6);
      }

      .cls-39 {
        fill: url(#_Безымянный_градиент_23);
      }

      .cls-40 {
        fill: #010873;
      }

      .cls-41 {
        fill: url(#_Безымянный_градиент_14-14);
      }

      .cls-42 {
        fill: url(#_Безымянный_градиент_17-22);
      }

      .cls-43 {
        fill: url(#_Безымянный_градиент_17-10);
      }

      .cls-44 {
        fill: url(#_Безымянный_градиент_17-12);
      }

      .cls-45 {
        fill: url(#_Безымянный_градиент_14-2);
      }

      .cls-46 {
        fill: url(#_Безымянный_градиент_17-9);
      }

      .cls-47 {
        fill: url(#_Безымянный_градиент_17-8);
      }

      .cls-48 {
        clip-path: url(#clippath-9);
      }

      .cls-49 {
        fill: url(#_Безымянный_градиент_16-19);
      }

      .cls-50 {
        clip-path: url(#clippath);
      }

      .cls-51 {
        fill: url(#_Безымянный_градиент_14);
      }

      .cls-52 {
        fill: url(#_Безымянный_градиент_17-18);
      }

      .cls-53 {
        fill: url(#_Безымянный_градиент_17-23);
      }

      .cls-54 {
        fill: url(#_Безымянный_градиент_17-5);
      }

      .cls-55 {
        fill: url(#_Безымянный_градиент_17-21);
      }

      .cls-56 {
        fill: url(#_Безымянный_градиент_14-5);
      }

      .cls-57 {
        fill: url(#_Безымянный_градиент_17-19);
      }

      .cls-58 {
        fill: url(#_Безымянный_градиент_4);
      }

      .cls-59 {
        fill: none;
      }

      .cls-60 {
        fill: url(#_Безымянный_градиент_16-4);
      }

      .cls-61 {
        clip-path: url(#clippath-3);
      }

      .cls-62 {
        fill: #020b60;
      }

      .cls-63 {
        fill: url(#_Безымянный_градиент_16-16);
      }

      .cls-64 {
        fill: url(#_Безымянный_градиент_17-25);
      }

      .cls-65 {
        clip-path: url(#clippath-8);
      }

      .cls-66 {
        fill: url(#_Безымянный_градиент_14-6);
      }

      .cls-67 {
        fill: url(#_Безымянный_градиент_14-7);
      }

      .cls-68 {
        fill: url(#_Безымянный_градиент_17-24);
      }

      .cls-69 {
        fill: url(#_Безымянный_градиент_14-11);
      }

      .cls-70 {
        fill: url(#_Безымянный_градиент_12);
      }

      .cls-71 {
        fill: url(#_Безымянный_градиент_17-2);
      }

      .cls-72 {
        fill: url(#_Безымянный_градиент_12-5);
      }

      .cls-73 {
        fill: url(#_Безымянный_градиент_23-4);
      }

      .cls-74 {
        fill: url(#_Безымянный_градиент_17-29);
      }

      .cls-75 {
        fill: url(#_Безымянный_градиент_5);
      }

      .cls-76 {
        clip-path: url(#clippath-5);
      }

      .cls-77 {
        fill: url(#_Безымянный_градиент_16-7);
      }

      .cls-78 {
        fill: url(#_Безымянный_градиент_16-11);
      }

      .cls-79 {
        fill: url(#_Безымянный_градиент_14-3);
      }

      .cls-80 {
        fill: url(#_Безымянный_градиент_16-17);
      }

      .cls-81 {
        fill: url(#_Безымянный_градиент_17-28);
      }

      .cls-82 {
        fill: url(#_Безымянный_градиент_17-3);
      }

      .cls-83 {
        fill: url(#_Безымянный_градиент_14-10);
      }

      .cls-84 {
        fill: url(#_Безымянный_градиент_17-16);
      }

      .cls-85 {
        fill: url(#_Безымянный_градиент_16-15);
      }

      .cls-86 {
        fill: url(#_Безымянный_градиент_14-4);
      }

      .cls-87 {
        clip-path: url(#clippath-10);
      }

      .cls-88 {
        fill: url(#_Безымянный_градиент_17-4);
      }

      .cls-89 {
        fill: url(#_Безымянный_градиент_17-13);
      }

      .cls-90 {
        fill: url(#_Безымянный_градиент_17-11);
      }

      .cls-91 {
        fill: url(#_Безымянный_градиент_16-3);
      }

      .cls-92 {
        fill: url(#_Безымянный_градиент_14-20);
      }

      .cls-93 {
        fill: url(#_Безымянный_градиент_16-5);
      }

      .cls-94 {
        fill: url(#_Безымянный_градиент_14-9);
      }

      .cls-95 {
        fill: url(#_Безымянный_градиент_16);
      }

      .cls-96 {
        fill: url(#_Безымянный_градиент_14-18);
      }

      .cls-97 {
        fill: url(#_Безымянный_градиент_17-14);
      }

      .cls-98 {
        fill: url(#_Безымянный_градиент_17-6);
      }

      .cls-99 {
        fill: url(#_Безымянный_градиент_16-8);
      }

      .cls-100 {
        fill: url(#_Безымянный_градиент_16-12);
      }

      .cls-101 {
        fill: url(#_Безымянный_градиент_17-7);
      }

      .cls-102 {
        fill: url(#_Безымянный_градиент_20-3);
      }

      .cls-103 {
        fill: url(#_Безымянный_градиент_16-10);
      }

      .cls-104 {
        fill: url(#_Безымянный_градиент_14-12);
      }

      .cls-105 {
        fill: url(#_Безымянный_градиент_20);
        opacity: .43;
      }
    </style>
    <clipPath id="clippath">
      <rect class="cls-59" width="2704" height="1520"/>
    </clipPath>
    <linearGradient id="_Безымянный_градиент_4" data-name="Безымянный градиент 4" x1="646.42" y1="1355.07" x2="697.33" y2="73.94" gradientUnits="userSpaceOnUse">
      <stop offset="0" stop-color="#fbf69b"/>
      <stop offset="1" stop-color="#93d3c3"/>
    </linearGradient>
    <linearGradient id="_Безымянный_градиент_5" data-name="Безымянный градиент 5" x1="-867.07" y1="760" x2="3293.19" y2="760" gradientUnits="userSpaceOnUse">
      <stop offset="0" stop-color="#33431c"/>
      <stop offset="1" stop-color="#fcee5a"/>
    </linearGradient>
    <clipPath id="clippath-2">
      <rect class="cls-75" x="-1410.06" width="4160.26" height="1520"/>
    </clipPath>
    <linearGradient id="_Безымянный_градиент_20" data-name="Безымянный градиент 20" x1="-424.47" y1="99.61" x2="3001.22" y2="99.61" gradientUnits="userSpaceOnUse">
      <stop offset=".66" stop-color="#33431c"/>
      <stop offset="1" stop-color="#fcee5a"/>
    </linearGradient>
    <linearGradient id="_Безымянный_градиент_20-2" data-name="Безымянный градиент 20" x1="664.21" y1="2213.4" x2="672.38" y2="718.52" xlink:href="#_Безымянный_градиент_20"/>
    <clipPath id="clippath-3">
      <path class="cls-32" d="M598.02,1766.39h144.82c11.76-66.79,23.52-133.59,35.27-200.38-12.41-62.61-24.82-125.23-37.23-187.84,0-109.34,0-218.68,0-328.02v-238.3c-.02-129.1-.06-125.55,0-142.98,.48-143.91,2.21-175.47,1.96-269.14-.23-84.73-1.86-136.49-2.94-187.84-2.19-104.09-3.15-256.49,2.94-459.79-48.27,0-96.55,0-144.82,0,5.16,80.7,11.21,198.8,13.04,342.74,.65,51.3,.44,93.78,0,178.73-.19,36.27-1,179.44-6.66,472.96-2.28,118.38-2.53,114.68-3.63,183.08-2.27,141.28-2.84,256.84-2.94,334.33-6.37,100.23-12.74,200.46-19.11,300.68,6.43,67.26,12.86,134.52,19.29,201.78Z"/>
    </clipPath>
    <linearGradient id="_Безымянный_градиент_17" data-name="Безымянный градиент 17" x1="586.45" y1="682.51" x2="646.62" y2="682.51" gradientUnits="userSpaceOnUse">
      <stop offset="0" stop-color="#f8b958"/>
      <stop offset="1" stop-color="#472816"/>
    </linearGradient>
    <linearGradient id="_Безымянный_градиент_17-2" data-name="Безымянный градиент 17" x1="700.64" y1="687.97" x2="747.09" y2="687.97" xlink:href="#_Безымянный_градиент_17"/>
    <linearGradient id="_Безымянный_градиент_17-3" data-name="Безымянный градиент 17" x1="641.01" y1="667.42" x2="688.44" y2="667.42" xlink:href="#_Безымянный_градиент_17"/>
    <clipPath id="clippath-4">
      <path class="cls-32" d="M941.63,1766.39h144.82c11.76-66.79,23.52-133.59,35.27-200.38-12.41-62.61-24.82-125.23-37.23-187.84,0-109.34,0-218.68,0-328.02v-238.3c-.02-129.1-.06-125.55,0-142.98,.48-143.91,2.21-175.47,1.96-269.14-.23-84.73-1.86-136.49-2.94-187.84-2.19-104.09-3.15-256.49,2.94-459.79-48.27,0-96.55,0-144.82,0,5.16,80.7,11.21,198.8,13.04,342.74,.65,51.3,.44,93.78,0,178.73-.19,36.27-1,179.44-6.66,472.96-2.28,118.38-2.53,114.68-3.63,183.08-2.27,141.28-2.84,256.84-2.94,334.33-6.37,100.23-12.74,200.46-19.11,300.68,6.43,67.26,12.86,134.52,19.29,201.78Z"/>
    </clipPath>
    <linearGradient id="_Безымянный_градиент_17-4" data-name="Безымянный градиент 17" x1="859.14" y1="701.86" x2="1000.74" y2="701.86" xlink:href="#_Безымянный_градиент_17"/>
    <linearGradient id="_Безымянный_градиент_17-5" data-name="Безымянный градиент 17" x1="996.58" y1="728.49" x2="1061.04" y2="728.49" xlink:href="#_Безымянный_градиент_17"/>
    <linearGradient id="_Безымянный_градиент_17-6" data-name="Безымянный градиент 17" x1="1052.73" y1="814.61" x2="1127.45" y2="814.61" xlink:href="#_Безымянный_градиент_17"/>
    <clipPath id="clippath-5">
      <path class="cls-32" d="M115.83,1795.33h144.82c11.76-66.79,23.52-133.59,35.27-200.38-12.41-62.61-24.82-125.23-37.23-187.84,0-109.34,0-218.68,0-328.02v-238.3c-.02-129.1-.06-125.55,0-142.98,.48-143.91,2.21-175.47,1.96-269.14-.23-84.73-1.86-136.49-2.94-187.84-2.19-104.09-3.15-256.49,2.94-459.79-48.27,0-96.55,0-144.82,0,5.16,80.7,11.21,198.8,13.04,342.74,.65,51.3,.44,93.78,0,178.73-.19,36.27-1,179.44-6.66,472.96-2.28,118.38-2.53,114.68-3.63,183.08-2.27,141.28-2.84,256.84-2.94,334.33-6.37,100.23-12.74,200.46-19.11,300.68,6.43,67.26,12.86,134.52,19.29,201.78Z"/>
    </clipPath>
    <linearGradient id="_Безымянный_градиент_17-7" data-name="Безымянный градиент 17" x1="207.35" y1="461.77" x2="269.99" y2="461.77" xlink:href="#_Безымянный_градиент_17"/>
    <linearGradient id="_Безымянный_градиент_17-8" data-name="Безымянный градиент 17" x1="165.93" y1="543.25" x2="307.96" y2="543.25" xlink:href="#_Безымянный_градиент_17"/>
    <linearGradient id="_Безымянный_градиент_17-9" data-name="Безымянный градиент 17" x1="118.85" y1="1151.63" x2="247.69" y2="1151.63" xlink:href="#_Безымянный_градиент_17"/>
    <clipPath id="clippath-6">
      <path class="cls-32" d="M2021.45,1741.22h144.82c11.76-66.79,23.52-133.59,35.27-200.38-12.41-62.61-24.82-125.23-37.23-187.84,0-109.34,0-218.68,0-328.02v-238.3c-.02-129.1-.06-125.55,0-142.98,.48-143.91,2.21-175.47,1.96-269.14-.23-84.73-1.86-136.49-2.94-187.84-2.19-104.09-3.15-256.49,2.94-459.79-48.27,0-96.55,0-144.82,0,5.16,80.7,11.21,198.8,13.04,342.74,.65,51.3,.44,93.78,0,178.73-.19,36.27-1,179.44-6.66,472.96-2.28,118.38-2.53,114.68-3.63,183.08-2.27,141.28-2.84,256.84-2.94,334.33-6.37,100.23-12.74,200.46-19.11,300.68,6.43,67.26,12.86,134.52,19.29,201.78Z"/>
    </clipPath>
    <linearGradient id="_Безымянный_градиент_17-10" data-name="Безымянный градиент 17" x1="2060.79" y1="837.79" x2="2247.54" y2="837.79" xlink:href="#_Безымянный_градиент_17"/>
    <linearGradient id="_Безымянный_градиент_17-11" data-name="Безымянный градиент 17" x1="1776.26" y1="797.83" x2="2093.76" y2="797.83" xlink:href="#_Безымянный_градиент_17"/>
    <linearGradient id="_Безымянный_градиент_17-12" data-name="Безымянный градиент 17" x1="2043.84" y1="778.36" x2="2117.12" y2="778.36" xlink:href="#_Безымянный_градиент_17"/>
    <linearGradient id="_Безымянный_градиент_20-3" data-name="Безымянный градиент 20" x1="683.19" y1="2394.39" x2="691.36" y2="899.52" xlink:href="#_Безымянный_градиент_20"/>
    <linearGradient id="_Безымянный_градиент_23" data-name="Безымянный градиент 23" x1="2220.09" y1="1305.26" x2="2220.48" y2="1233.16" gradientUnits="userSpaceOnUse">
      <stop offset="0" stop-color="#3a5b01"/>
      <stop offset="1" stop-color="#4a5723"/>
    </linearGradient>
    <linearGradient id="_Безымянный_градиент_23-2" data-name="Безымянный градиент 23" x1="2122.71" y1="1371.61" x2="2123.47" y2="1232.55" gradientTransform="translate(4122.4) rotate(-180) scale(1 -1)" xlink:href="#_Безымянный_градиент_23"/>
    <linearGradient id="_Безымянный_градиент_23-3" data-name="Безымянный градиент 23" x1="3851.58" y1="1353.88" x2="3852.34" y2="1214.82" gradientTransform="translate(4122.4) rotate(-180) scale(1 -1)" xlink:href="#_Безымянный_градиент_23"/>
    <linearGradient id="_Безымянный_градиент_23-4" data-name="Безымянный градиент 23" x1="3401.26" y1="1420.15" x2="3402.02" y2="1281.09" gradientTransform="translate(4122.4) rotate(-180) scale(1 -1)" xlink:href="#_Безымянный_градиент_23"/>
    <linearGradient id="_Безымянный_градиент_23-5" data-name="Безымянный градиент 23" x1="1824.3" y1="1364.01" x2="1824.52" y2="1322.52" gradientTransform="translate(4122.4) rotate(-180) scale(1 -1)" xlink:href="#_Безымянный_градиент_23"/>
    <linearGradient id="_Безымянный_градиент_12" data-name="Безымянный градиент 12" x1="791.54" y1="4475.14" x2="826.46" y2="-1915.41" gradientTransform="translate(1227.82) rotate(-180) scale(1 -1)" gradientUnits="userSpaceOnUse">
      <stop offset="0" stop-color="#563114"/>
      <stop offset="1" stop-color="#744d30"/>
    </linearGradient>
    <clipPath id="clippath-7">
      <path class="cls-70" d="M305.35,1766.39h207.2c16.82-66.79,33.64-133.59,50.46-200.38-17.76-62.61-35.51-125.23-53.27-187.84,0-109.34,0-218.68,0-328.02v-238.3c-.03-129.1-.08-125.55,0-142.98,.68-143.91,3.17-175.47,2.8-269.14-.33-84.73-2.66-136.49-4.21-187.84-3.13-104.09-4.51-256.49,4.21-459.79-69.07,0-138.13,0-207.2,0,7.38,80.7,16.04,198.8,18.66,342.74,.93,51.3,.62,93.78,0,178.73-.27,36.27-1.44,179.44-9.53,472.96-3.26,118.38-3.61,114.68-5.19,183.08-3.25,141.28-4.06,256.84-4.21,334.33-9.11,100.23-18.22,200.46-27.34,300.68,9.2,67.26,18.4,134.52,27.6,201.78Z"/>
    </clipPath>
    <linearGradient id="_Безымянный_градиент_17-13" data-name="Безымянный градиент 17" x1="217.24" y1="776.67" x2="376.57" y2="776.67" xlink:href="#_Безымянный_градиент_17"/>
    <linearGradient id="_Безымянный_градиент_17-14" data-name="Безымянный градиент 17" x1="437.23" y1="793.84" x2="493.28" y2="793.84" xlink:href="#_Безымянный_градиент_17"/>
    <linearGradient id="_Безымянный_градиент_17-15" data-name="Безымянный градиент 17" x1="368.55" y1="764.12" x2="418.39" y2="764.12" xlink:href="#_Безымянный_градиент_17"/>
    <linearGradient id="_Безымянный_градиент_17-16" data-name="Безымянный градиент 17" x1="487.59" y1="782.38" x2="647.66" y2="782.38" xlink:href="#_Безымянный_градиент_17"/>
    <linearGradient id="_Безымянный_градиент_12-2" data-name="Безымянный градиент 12" x1="2698.45" y1="4378.22" x2="2733.68" y2="-2068.22" gradientTransform="matrix(1, 0, 0, 1, 0, 0)" xlink:href="#_Безымянный_градиент_12"/>
    <linearGradient id="_Безымянный_градиент_12-3" data-name="Безымянный градиент 12" x1="2698.45" y1="4378.22" x2="2733.68" y2="-2068.22" gradientTransform="matrix(1, 0, 0, 1, 0, 0)" xlink:href="#_Безымянный_градиент_12"/>
    <clipPath id="clippath-8">
      <path class="cls-27" d="M2830.53,1645.77h-209.01c-16.97-67.38-33.94-134.76-50.91-202.13,17.91-63.16,35.82-126.32,53.73-189.48V682.89c.03-130.23,.08-126.65,0-144.23-.69-145.17-3.19-177.01-2.83-271.5,.33-85.47,2.69-137.69,4.24-189.48,3.16-105,4.55-258.74-4.24-463.81h209.01c-7.44,81.41-16.18,200.54-18.82,345.73-.94,51.75-.63,94.6,0,180.29,.27,36.59,1.45,181.01,9.61,477.09,3.29,119.42,3.65,115.68,5.23,184.68,3.28,142.52,4.09,259.09,4.24,337.25,9.19,101.1,18.38,202.21,27.57,303.31-9.28,67.85-18.56,135.7-27.84,203.55Z"/>
    </clipPath>
    <linearGradient id="_Безымянный_градиент_17-17" data-name="Безымянный градиент 17" x1="2642.72" y1="608.82" x2="2697" y2="608.82" xlink:href="#_Безымянный_градиент_17"/>
    <linearGradient id="_Безымянный_градиент_17-18" data-name="Безымянный градиент 17" x1="2704.43" y1="671.46" x2="2758.17" y2="671.46" xlink:href="#_Безымянный_градиент_17"/>
    <linearGradient id="_Безымянный_градиент_17-19" data-name="Безымянный градиент 17" x1="2529.63" y1="772" x2="2649.76" y2="772" xlink:href="#_Безымянный_градиент_17"/>
    <linearGradient id="_Безымянный_градиент_12-4" data-name="Безымянный градиент 12" x1="1773.16" y1="4459.73" x2="1808.39" y2="-1988.32" gradientTransform="matrix(1, 0, 0, 1, 0, 0)" xlink:href="#_Безымянный_градиент_12"/>
    <linearGradient id="_Безымянный_градиент_12-5" data-name="Безымянный градиент 12" x1="1773.16" y1="4459.73" x2="1808.39" y2="-1988.32" gradientTransform="matrix(1, 0, 0, 1, 0, 0)" xlink:href="#_Безымянный_градиент_12"/>
    <clipPath id="clippath-9">
      <path class="cls-72" d="M1956.96,1726.38h-302.18c-24.53-67.38-49.07-134.76-73.6-202.13,25.9-63.16,51.79-126.32,77.69-189.48V763.49c.05-130.23,.12-126.65,0-144.23-.99-145.17-4.62-177.01-4.09-271.5,.48-85.47,3.88-137.69,6.13-189.48,4.56-105,6.57-258.74-6.13-463.81h302.18c-10.76,81.41-23.39,200.54-27.21,345.73-1.36,51.75-.91,94.6,0,180.29,.39,36.59,2.1,181.01,13.9,477.09,4.76,119.42,5.27,115.68,7.57,184.68,4.74,142.52,5.92,259.09,6.13,337.25,13.29,101.1,26.58,202.21,39.87,303.31-13.42,67.85-26.84,135.7-40.26,203.55Z"/>
    </clipPath>
    <linearGradient id="_Безымянный_градиент_17-20" data-name="Безымянный градиент 17" x1="1809.21" y1="726.39" x2="1889.93" y2="726.39" xlink:href="#_Безымянный_градиент_17"/>
    <linearGradient id="_Безымянный_градиент_17-21" data-name="Безымянный градиент 17" x1="1661.12" y1="752.82" x2="1765.02" y2="752.82" xlink:href="#_Безымянный_градиент_17"/>
    <linearGradient id="_Безымянный_градиент_17-22" data-name="Безымянный градиент 17" x1="1488.14" y1="806.26" x2="1717.28" y2="806.26" xlink:href="#_Безымянный_градиент_17"/>
    <linearGradient id="_Безымянный_градиент_17-23" data-name="Безымянный градиент 17" x1="1756.6" y1="716.73" x2="1852.36" y2="716.73" xlink:href="#_Безымянный_градиент_17"/>
    <linearGradient id="_Безымянный_градиент_12-6" data-name="Безымянный градиент 12" x1="1387.63" y1="4441.85" x2="1422.86" y2="-2004.59" gradientTransform="matrix(1, 0, 0, 1, 0, 0)" xlink:href="#_Безымянный_градиент_12"/>
    <linearGradient id="_Безымянный_градиент_12-7" data-name="Безымянный градиент 12" x1="1387.63" y1="4441.85" x2="1422.86" y2="-2004.59" gradientTransform="matrix(1, 0, 0, 1, 0, 0)" xlink:href="#_Безымянный_градиент_12"/>
    <clipPath id="clippath-10">
      <path class="cls-17" d="M1519.71,1709.41h-209.01c-16.97-67.38-33.94-134.76-50.91-202.13,17.91-63.16,35.82-126.32,53.73-189.48V746.52c.03-130.23,.08-126.65,0-144.23-.69-145.17-3.19-177.01-2.83-271.5,.33-85.47,2.69-137.69,4.24-189.48,3.16-105,4.55-258.74-4.24-463.81h209.01c-7.44,81.41-16.18,200.54-18.82,345.73-.94,51.75-.63,94.6,0,180.29,.27,36.59,1.45,181.01,9.61,477.09,3.29,119.42,3.65,115.68,5.23,184.68,3.28,142.52,4.09,259.09,4.24,337.25,9.19,101.1,18.38,202.21,27.57,303.31-9.28,67.85-18.56,135.7-27.84,203.55Z"/>
    </clipPath>
    <linearGradient id="_Безымянный_градиент_17-24" data-name="Безымянный градиент 17" x1="1296.36" y1="725.35" x2="1368.08" y2="725.35" xlink:href="#_Безымянный_градиент_17"/>
    <linearGradient id="_Безымянный_градиент_17-25" data-name="Безымянный градиент 17" x1="1460.42" y1="756.1" x2="1571.54" y2="756.1" xlink:href="#_Безымянный_градиент_17"/>
    <linearGradient id="_Безымянный_градиент_17-26" data-name="Безымянный градиент 17" x1="1382.79" y1="704.85" x2="1447.54" y2="704.85" xlink:href="#_Безымянный_градиент_17"/>
    <linearGradient id="_Безымянный_градиент_12-8" data-name="Безымянный градиент 12" x1="-29.74" y1="5452.5" x2="17.93" y2="-3271.25" gradientTransform="matrix(1, 0, 0, 1, 0, 0)" xlink:href="#_Безымянный_градиент_12"/>
    <linearGradient id="_Безымянный_градиент_12-9" data-name="Безымянный градиент 12" x1="-29.74" y1="5452.5" x2="17.93" y2="-3271.25" gradientTransform="matrix(1, 0, 0, 1, 0, 0)" xlink:href="#_Безымянный_градиент_12"/>
    <clipPath id="clippath-11">
      <path class="cls-15" d="M148.99,1754.78H-133.85c-22.96-91.18-45.93-182.36-68.89-273.54,24.24-85.47,48.48-170.95,72.72-256.42V451.73c.04-176.23,.11-171.39,0-195.19-.93-196.45-4.32-239.54-3.83-367.41,.45-115.66,3.63-186.33,5.74-256.42,4.27-142.09,6.15-350.14-5.74-627.65H148.99c-10.07,110.16-21.89,271.38-25.47,467.87-1.28,70.03-.85,128.02,0,243.98,.36,49.51,1.96,244.95,13.01,645.63,4.46,161.61,4.93,156.55,7.08,249.92,4.44,192.86,5.54,350.62,5.74,456.39,12.44,136.82,24.88,273.64,37.32,410.46-12.56,91.82-25.12,183.64-37.68,275.45Z"/>
    </clipPath>
    <linearGradient id="_Безымянный_градиент_17-27" data-name="Безымянный градиент 17" x1="4.77" y1="841.19" x2="96.65" y2="841.19" xlink:href="#_Безымянный_градиент_17"/>
    <linearGradient id="_Безымянный_градиент_17-28" data-name="Безымянный градиент 17" x1="63.51" y1="722.45" x2="166.58" y2="722.45" xlink:href="#_Безымянный_градиент_17"/>
    <linearGradient id="_Безымянный_градиент_17-29" data-name="Безымянный градиент 17" x1="-147.07" y1="784.8" x2="33.68" y2="784.8" xlink:href="#_Безымянный_градиент_17"/>
    <linearGradient id="_Безымянный_градиент_20-4" data-name="Безымянный градиент 20" x1="79.99" y1="2229.98" x2="86.37" y2="1063.28" xlink:href="#_Безымянный_градиент_20"/>
    <linearGradient id="_Безымянный_градиент_16" data-name="Безымянный градиент 16" x1="2433.97" y1="1323.06" x2="2733.31" y2="1323.06" gradientUnits="userSpaceOnUse">
      <stop offset="0" stop-color="#437a03"/>
      <stop offset="1" stop-color="#33431c"/>
    </linearGradient>
    <linearGradient id="_Безымянный_градиент_16-2" data-name="Безымянный градиент 16" x1="2458.69" y1="942.02" x2="2743.38" y2="1296.47" xlink:href="#_Безымянный_градиент_16"/>
    <linearGradient id="_Безымянный_градиент_16-3" data-name="Безымянный градиент 16" x1="2416.91" y1="975.57" x2="2701.61" y2="1330.03" xlink:href="#_Безымянный_градиент_16"/>
    <linearGradient id="_Безымянный_градиент_16-4" data-name="Безымянный градиент 16" x1="2377.48" y1="1007.24" x2="2662.17" y2="1361.7" xlink:href="#_Безымянный_градиент_16"/>
    <linearGradient id="_Безымянный_градиент_16-5" data-name="Безымянный градиент 16" x1="2335.51" y1="1040.95" x2="2620.2" y2="1395.41" xlink:href="#_Безымянный_градиент_16"/>
    <linearGradient id="_Безымянный_градиент_16-6" data-name="Безымянный градиент 16" x1="2261.9" y1="1100.07" x2="2546.6" y2="1454.53" xlink:href="#_Безымянный_градиент_16"/>
    <linearGradient id="_Безымянный_градиент_16-7" data-name="Безымянный градиент 16" x1="2464.25" y1="937.55" x2="2748.94" y2="1292" xlink:href="#_Безымянный_градиент_16"/>
    <linearGradient id="_Безымянный_градиент_16-8" data-name="Безымянный градиент 16" x1="2457.43" y1="943.03" x2="2742.13" y2="1297.48" xlink:href="#_Безымянный_градиент_16"/>
    <linearGradient id="_Безымянный_градиент_16-9" data-name="Безымянный градиент 16" x1="2278.68" y1="1086.6" x2="2563.37" y2="1441.06" xlink:href="#_Безымянный_градиент_16"/>
    <linearGradient id="_Безымянный_градиент_16-10" data-name="Безымянный градиент 16" x1="2292.04" y1="1075.87" x2="2576.73" y2="1430.32" xlink:href="#_Безымянный_градиент_16"/>
    <linearGradient id="_Безымянный_градиент_16-11" data-name="Безымянный градиент 16" x1="2315.95" y1="1056.66" x2="2600.64" y2="1411.12" xlink:href="#_Безымянный_градиент_16"/>
    <linearGradient id="_Безымянный_градиент_16-12" data-name="Безымянный градиент 16" x1="2322.26" y1="1051.59" x2="2606.96" y2="1406.05" xlink:href="#_Безымянный_градиент_16"/>
    <linearGradient id="_Безымянный_градиент_16-13" data-name="Безымянный градиент 16" x1="2331.32" y1="1044.32" x2="2616.02" y2="1398.77" xlink:href="#_Безымянный_градиент_16"/>
    <linearGradient id="_Безымянный_градиент_16-14" data-name="Безымянный градиент 16" x1="2353.63" y1="1026.4" x2="2638.33" y2="1380.85" xlink:href="#_Безымянный_градиент_16"/>
    <linearGradient id="_Безымянный_градиент_16-15" data-name="Безымянный градиент 16" x1="2342.79" y1="1035.11" x2="2627.48" y2="1389.56" xlink:href="#_Безымянный_градиент_16"/>
    <linearGradient id="_Безымянный_градиент_16-16" data-name="Безымянный градиент 16" x1="2418.06" y1="974.65" x2="2702.75" y2="1329.1" xlink:href="#_Безымянный_градиент_16"/>
    <linearGradient id="_Безымянный_градиент_16-17" data-name="Безымянный градиент 16" x1="2366.1" y1="1016.39" x2="2650.79" y2="1370.84" xlink:href="#_Безымянный_градиент_16"/>
    <linearGradient id="_Безымянный_градиент_14" data-name="Безымянный градиент 14" x1="3577.32" y1="1482.48" x2="3368.04" y2="1278.86" gradientTransform="translate(-544.52 -560.53) rotate(12.23)" gradientUnits="userSpaceOnUse">
      <stop offset="0" stop-color="#33431c"/>
      <stop offset="1" stop-color="#437a03"/>
    </linearGradient>
    <linearGradient id="_Безымянный_градиент_14-2" data-name="Безымянный градиент 14" x1="3499.38" y1="1562.58" x2="3290.1" y2="1358.96" xlink:href="#_Безымянный_градиент_14"/>
    <linearGradient id="_Безымянный_градиент_14-3" data-name="Безымянный градиент 14" x1="3521" y1="1540.37" x2="3311.72" y2="1336.74" xlink:href="#_Безымянный_градиент_14"/>
    <linearGradient id="_Безымянный_градиент_14-4" data-name="Безымянный градиент 14" x1="3541.75" y1="1519.04" x2="3332.47" y2="1315.42" xlink:href="#_Безымянный_градиент_14"/>
    <linearGradient id="_Безымянный_градиент_14-5" data-name="Безымянный градиент 14" x1="3665.12" y1="1392.24" x2="3455.84" y2="1188.62" xlink:href="#_Безымянный_градиент_14"/>
    <linearGradient id="_Безымянный_градиент_14-6" data-name="Безымянный градиент 14" x1="3656.87" y1="1400.72" x2="3447.59" y2="1197.1" xlink:href="#_Безымянный_градиент_14"/>
    <linearGradient id="_Безымянный_градиент_14-7" data-name="Безымянный градиент 14" x1="3649.91" y1="1407.87" x2="3440.63" y2="1204.25" xlink:href="#_Безымянный_градиент_14"/>
    <linearGradient id="_Безымянный_градиент_14-8" data-name="Безымянный градиент 14" x1="3637.32" y1="1420.81" x2="3428.05" y2="1217.19" xlink:href="#_Безымянный_градиент_14"/>
    <linearGradient id="_Безымянный_градиент_14-9" data-name="Безымянный градиент 14" x1="3621.04" y1="1437.55" x2="3411.76" y2="1233.93" xlink:href="#_Безымянный_градиент_14"/>
    <linearGradient id="_Безымянный_градиент_14-10" data-name="Безымянный градиент 14" x1="3604.67" y1="1454.37" x2="3395.39" y2="1250.75" xlink:href="#_Безымянный_градиент_14"/>
    <linearGradient id="_Безымянный_градиент_14-11" data-name="Безымянный градиент 14" x1="3585.52" y1="1474.05" x2="3376.24" y2="1270.43" xlink:href="#_Безымянный_градиент_14"/>
    <linearGradient id="_Безымянный_градиент_14-12" data-name="Безымянный градиент 14" x1="3564.12" y1="1496.05" x2="3354.84" y2="1292.43" xlink:href="#_Безымянный_градиент_14"/>
    <linearGradient id="_Безымянный_градиент_14-13" data-name="Безымянный градиент 14" x1="3595.82" y1="1463.46" x2="3386.55" y2="1259.84" xlink:href="#_Безымянный_градиент_14"/>
    <linearGradient id="_Безымянный_градиент_14-14" data-name="Безымянный градиент 14" x1="3496.5" y1="1565.55" x2="3287.22" y2="1361.93" xlink:href="#_Безымянный_градиент_14"/>
    <linearGradient id="_Безымянный_градиент_14-15" data-name="Безымянный градиент 14" x1="3528.86" y1="1565.77" x2="3319.58" y2="1362.15" xlink:href="#_Безымянный_градиент_14"/>
    <linearGradient id="_Безымянный_градиент_14-16" data-name="Безымянный градиент 14" x1="3506.07" y1="1555.71" x2="3296.79" y2="1352.08" xlink:href="#_Безымянный_градиент_14"/>
    <linearGradient id="_Безымянный_градиент_14-17" data-name="Безымянный градиент 14" x1="3529.15" y1="1531.99" x2="3319.87" y2="1328.36" xlink:href="#_Безымянный_градиент_14"/>
    <linearGradient id="_Безымянный_градиент_14-18" data-name="Безымянный градиент 14" x1="3544.19" y1="1516.53" x2="3334.92" y2="1312.9" xlink:href="#_Безымянный_градиент_14"/>
    <linearGradient id="_Безымянный_градиент_14-19" data-name="Безымянный градиент 14" x1="3558.5" y1="1501.83" x2="3349.22" y2="1298.2" xlink:href="#_Безымянный_градиент_14"/>
    <linearGradient id="_Безымянный_градиент_14-20" data-name="Безымянный градиент 14" x1="3574.01" y1="1485.88" x2="3364.73" y2="1282.26" xlink:href="#_Безымянный_градиент_14"/>
    <linearGradient id="_Безымянный_градиент_16-18" data-name="Безымянный градиент 16" x1="373.88" y1="1522.86" x2="374.66" y2="1379.95" xlink:href="#_Безымянный_градиент_16"/>
    <linearGradient id="_Безымянный_градиент_16-19" data-name="Безымянный градиент 16" x1="2071.76" y1="1476.1" x2="2072.44" y2="1351.26" xlink:href="#_Безымянный_градиент_16"/>
  </defs>
  <g class="cls-50">
    <rect class="cls-58" x="-1410.06" width="4160.26" height="1520"/>
    <g>
      <rect class="cls-75" x="-1410.06" width="4160.26" height="1520"/>
      <g class="cls-10">
        <path class="cls-105" d="M-424.47-21.65c68.72,42.44,137.43,84.88,206.15,127.33,32.34,22.23,64.67,44.46,97.01,66.69C-64.72,150.14-8.13,127.91,48.46,105.67c54.57,38.4,109.14,76.8,163.71,115.2,92.86-30.92,185.73-61.85,278.59-92.77,54.33-24.1,108.66-48.19,162.99-72.29,9.45,32.79,18.9,65.57,28.35,98.36,50.01-14.15,100.02-28.29,150.03-42.44,36.34,23.27,72.69,46.54,109.03,69.8,34.91-26.8,69.82-53.61,104.73-80.41,52.29,35.62,104.59,71.24,156.88,106.86,99.37-1.49,198.75-2.98,298.12-4.47,79.73-32.62,159.46-65.23,239.19-97.85,139.37-17.09,278.75-34.19,418.12-51.28,61.22,32.76,122.43,65.51,183.65,98.27,33.85-15.66,67.71-31.33,101.56-46.99,59.99,15.57,119.99,31.15,179.98,46.72,125.94-47.91,251.89-95.82,377.83-143.73C1859.32-1.44,717.43-11.55-424.47-21.65Z"/>
      </g>
    </g>
    <g>
      <path class="cls-18" d="M2416.71,1718.6h101.68c8.25-66.79,16.51-133.59,24.76-200.38-8.71-62.61-17.43-125.23-26.14-187.84,0-109.34,0-218.68,0-328.02v-238.3c-.02-129.1-.04-125.55,0-142.98,.33-143.91,1.55-175.47,1.38-269.14-.16-84.73-1.31-136.49-2.06-187.84-1.54-104.09-2.21-256.49,2.06-459.79-33.89,0-67.79,0-101.68,0,3.62,80.7,7.87,198.8,9.16,342.74,.46,51.3,.31,93.78,0,178.73-.13,36.27-.71,179.44-4.68,472.96-1.6,118.38-1.77,114.68-2.55,183.08-1.6,141.28-1.99,256.84-2.06,334.33-4.47,100.23-8.94,200.46-13.41,300.68,4.52,67.26,9.03,134.52,13.55,201.78Z"/>
      <path class="cls-18" d="M2204.61,1724.25h101.68c8.25-66.79,16.51-133.59,24.76-200.38-8.71-62.61-17.43-125.23-26.14-187.84,0-109.34,0-218.68,0-328.02v-238.3c-.02-129.1-.04-125.55,0-142.98,.33-143.91,1.55-175.47,1.38-269.14-.16-84.73-1.31-136.49-2.06-187.84-1.54-104.09-2.21-256.49,2.06-459.79h-101.68c3.62,80.7,7.87,198.8,9.16,342.74,.46,51.3,.31,93.78,0,178.73-.13,36.27-.71,179.44-4.68,472.96-1.6,118.38-1.77,114.68-2.55,183.08-1.6,141.28-1.99,256.84-2.06,334.33-4.47,100.23-8.94,200.46-13.41,300.68,4.52,67.26,9.03,134.52,13.55,201.78Z"/>
      <path class="cls-18" d="M232.46,1826.54h101.68c8.25-66.79,16.51-133.59,24.76-200.38-8.71-62.61-17.43-125.23-26.14-187.84,0-109.34,0-218.68,0-328.02v-238.3c-.02-129.1-.04-125.55,0-142.98,.33-143.91,1.55-175.47,1.38-269.14-.16-84.73-1.31-136.49-2.06-187.84-1.54-104.09-2.21-256.49,2.06-459.79h-101.68c3.62,80.7,7.87,198.8,9.16,342.74,.46,51.3,.31,93.78,0,178.73-.13,36.27-.71,179.44-4.68,472.96-1.6,118.38-1.77,114.68-2.55,183.08-1.6,141.28-1.99,256.84-2.06,334.33-4.47,100.23-8.94,200.46-13.41,300.68,4.52,67.26,9.03,134.52,13.55,201.78Z"/>
      <path class="cls-18" d="M1051.2,1860.47h101.68c8.25-66.79,16.51-133.59,24.76-200.38-8.71-62.61-17.43-125.23-26.14-187.84,0-109.34,0-218.68,0-328.02v-238.3c-.02-129.1-.04-125.55,0-142.98,.33-143.91,1.55-175.47,1.38-269.14-.16-84.73-1.31-136.49-2.06-187.84-1.54-104.09-2.21-256.49,2.06-459.79-33.89,0-67.79,0-101.68,0,3.62,80.7,7.87,198.8,9.16,342.74,.46,51.3,.31,93.78,0,178.73-.13,36.27-.71,179.44-4.68,472.96-1.6,118.38-1.77,114.68-2.55,183.08-1.6,141.28-1.99,256.84-2.06,334.33-4.47,100.23-8.94,200.46-13.41,300.68,4.52,67.26,9.03,134.52,13.55,201.78Z"/>
      <path class="cls-18" d="M486.99,1826.54h101.68c8.25-66.79,16.51-133.59,24.76-200.38-8.71-62.61-17.43-125.23-26.14-187.84,0-109.34,0-218.68,0-328.02v-238.3c-.02-129.1-.04-125.55,0-142.98,.33-143.91,1.55-175.47,1.38-269.14-.16-84.73-1.31-136.49-2.06-187.84-1.54-104.09-2.21-256.49,2.06-459.79h-101.68c3.62,80.7,7.87,198.8,9.16,342.74,.46,51.3,.31,93.78,0,178.73-.13,36.27-.71,179.44-4.68,472.96-1.6,118.38-1.77,114.68-2.55,183.08-1.6,141.28-1.99,256.84-2.06,334.33-4.47,100.23-8.94,200.46-13.41,300.68,4.52,67.26,9.03,134.52,13.55,201.78Z"/>
    </g>
    <path class="cls-7" d="M-1492.54,1568.08c-18.5-136.18-37-272.37-55.5-408.55,1042.26-28.63,2084.53-43.28,3126.8-43.94,436.48-.28,872.95,1.9,1309.41,6.52-2.83,154.31-5.66,308.63-8.48,462.94-1457.41-5.66-2914.82-11.31-4372.23-16.97Z"/>
    <g>
      <path class="cls-32" d="M598.02,1766.39h144.82c11.76-66.79,23.52-133.59,35.27-200.38-12.41-62.61-24.82-125.23-37.23-187.84,0-109.34,0-218.68,0-328.02v-238.3c-.02-129.1-.06-125.55,0-142.98,.48-143.91,2.21-175.47,1.96-269.14-.23-84.73-1.86-136.49-2.94-187.84-2.19-104.09-3.15-256.49,2.94-459.79-48.27,0-96.55,0-144.82,0,5.16,80.7,11.21,198.8,13.04,342.74,.65,51.3,.44,93.78,0,178.73-.19,36.27-1,179.44-6.66,472.96-2.28,118.38-2.53,114.68-3.63,183.08-2.27,141.28-2.84,256.84-2.94,334.33-6.37,100.23-12.74,200.46-19.11,300.68,6.43,67.26,12.86,134.52,19.29,201.78Z"/>
      <g class="cls-61">
        <g class="cls-36">
          <path class="cls-9" d="M625.11-37.56c-4.79,46.35,14.83,90.1,19.21,135.64,2.29,23.8,1.19,47.76-.39,71.56-1.64,24.64-3.45,49.26-5.19,73.89-6.91,98.08-15.11,196.16-20.48,294.34-1.33,24.38-2.08,48.82-1.36,73.23s2.75,48.25,3.92,72.38c2.34,48.28-.77,96.45-5.12,144.53-4.3,47.56-9.58,95.09-10.94,142.86-.68,23.96-.37,47.97,1.56,71.87s6.23,46.96,9.33,70.47,3.54,45.91,.87,69.02-7.47,44.66-12.53,66.71c-9.34,40.71-19.99,82.17-17.77,124.3,.52,9.94,1.84,19.78,3.88,29.52,.2,.94,1.64,.54,1.45-.4-18.13-86.91,30.1-169.71,28.36-256.25-.47-23.24-4.77-46.14-8.13-69.08-3.61-24.64-5.45-49.45-5.78-74.35-.64-47.71,3.76-95.29,8.24-142.73s9.12-95.25,8.99-143.08c-.13-48.01-5.99-95.73-4.88-143.78,1.14-49.12,5.6-98.19,9.05-147.18,3.44-48.92,6.89-97.84,10.33-146.75,3.42-48.54,8.68-97.37,9.35-146.04,.32-23.1-1.83-45.74-6.59-68.34-4.79-22.76-11.15-45.28-13.67-68.46-1.23-11.28-1.38-22.58-.21-33.87,.1-.96-1.4-.95-1.5,0h0Z"/>
        </g>
        <g class="cls-36">
          <path class="cls-71" d="M733.27-44.61c-28.43,91.14-27.1,187.58-27.18,282.04-.04,49.99-.08,99.98-.12,149.97s-2.66,97.47,3.7,145.41c3.03,22.89,9.25,44.58,17.39,66.14,8.09,21.43,17.08,43.16,18.76,66.26,1.77,24.3-6.31,47.31-13.4,70.15-6.83,22.02-11.36,44.46-14.09,67.35-5.8,48.75-6.31,98.25-8.57,147.26-2.3,49.87-4.6,99.75-6.9,149.62-1.14,24.76-2.92,49.6-2.7,74.4,.2,23.37,3.59,45.89,10.27,68.29,6.76,22.67,15.03,44.8,20.15,67.94,5.38,24.32,8.2,49.21,8.42,74.12,.11,12.03-.44,24.05-1.5,36.03-.09,.96,1.42,.96,1.5,0,4.14-46.68-.68-93.71-14.37-138.54-6.83-22.38-15.35-44.35-19.54-67.44-4.54-24.97-3.66-50.47-2.52-75.7,4.5-99.55,7.63-199.31,13.99-298.76,1.55-24.29,3.95-48.58,8.95-72.43,4.84-23.09,13.75-45.01,18.86-68,4.66-20.95,3.63-41.34-2.16-61.95-6.07-21.6-15.7-41.99-22.25-63.44-14.24-46.65-12.55-96.27-12.51-144.5,.04-49.99,.08-99.98,.12-149.97,.08-96.27-4.29-195.03,17.77-289.46,2.7-11.58,5.85-23.05,9.4-34.4,.29-.92-1.16-1.32-1.45-.4h0Z"/>
        </g>
        <g class="cls-36">
          <path class="cls-82" d="M658.58-54.11c22.88,94.07,35.61,191.62,25.12,288.34-5.26,48.46-13.69,96.2-16.15,144.98-2.48,49.28-1.99,98.67-1.9,148s.47,98.15,2.6,147.18c1.07,24.73,2.58,49.44,4.72,74.1,2.09,24.17,5.53,48.21,7.43,72.39,1.88,23.82,1.02,47.41-6.09,70.38-6.62,21.39-16.32,41.71-20.64,63.8-8.35,42.69-.27,86.25,6.48,128.56,3.73,23.37,7.23,46.88,7.73,70.58,.49,23.59-2.42,47.06-6.52,70.25-7.7,43.48-19.67,86.6-20.75,130.98-.27,11.29,.25,22.55,1.59,33.76,.11,.95,1.61,.96,1.5,0-5.53-46.29,4.74-91.97,13.86-137.1,4.36-21.57,8.5-43.25,10.54-65.19s1.31-45.43-1.39-68.1c-5.31-44.61-16.72-88.94-14.92-134.14,.94-23.59,6.76-45.48,14.93-67.49,7.71-20.78,14.67-41.23,15.86-63.55,1.27-23.77-2.12-47.45-4.75-71.01-2.75-24.6-4.79-49.28-6.31-73.98-3.03-49.45-3.96-99-4.26-148.53s-.72-98.84,.56-148.21c1.29-49.82,6.8-98.67,13.63-147.98,6.55-47.24,8.99-94.55,6.27-142.2-2.7-47.39-9.74-94.48-19.62-140.88-2.52-11.82-5.23-23.59-8.09-35.33-.23-.94-1.67-.54-1.45,.4h0Z"/>
        </g>
      </g>
    </g>
    <g>
      <path class="cls-32" d="M941.63,1766.39h144.82c11.76-66.79,23.52-133.59,35.27-200.38-12.41-62.61-24.82-125.23-37.23-187.84,0-109.34,0-218.68,0-328.02v-238.3c-.02-129.1-.06-125.55,0-142.98,.48-143.91,2.21-175.47,1.96-269.14-.23-84.73-1.86-136.49-2.94-187.84-2.19-104.09-3.15-256.49,2.94-459.79-48.27,0-96.55,0-144.82,0,5.16,80.7,11.21,198.8,13.04,342.74,.65,51.3,.44,93.78,0,178.73-.19,36.27-1,179.44-6.66,472.96-2.28,118.38-2.53,114.68-3.63,183.08-2.27,141.28-2.84,256.84-2.94,334.33-6.37,100.23-12.74,200.46-19.11,300.68,6.43,67.26,12.86,134.52,19.29,201.78Z"/>
      <g class="cls-33">
        <g class="cls-36">
          <path class="cls-88" d="M973.2-47.56c2.29,107.49,28.13,213.67,22.98,321.44-1.32,27.55-5.15,54.7-10.74,81.69-5.22,25.19-11.27,50.26-14.42,75.82-6.28,50.86,.72,101.97,4.17,152.76,3.44,50.6,3.05,102.61-18.02,149.75-19.01,42.53-50.77,77.46-76.28,115.98-11.38,17.18-26.6,36.84-20.26,58.49,3.17,10.85,8.54,21.24,13.09,31.56,5.02,11.39,10.15,22.73,15.58,33.92,10.81,22.28,22.86,44.05,37.5,64.07,14.19,19.4,31.61,36.18,45.56,55.76,31.26,43.88,28.36,100.3,27.19,151.71-1.26,55.38-6.19,110.68-14.77,165.4-2.11,13.46-4.45,26.88-6.98,40.26-.18,.94,1.27,1.35,1.45,.4,10.05-53.14,16.78-106.87,19.96-160.86,1.6-27.2,2.32-54.45,2.15-81.69-.16-24.38-.81-49.17-7.17-72.86-5.95-22.15-17.81-40.86-32.38-58.33-16.15-19.36-32.84-37.76-46.33-59.19-13.47-21.4-24.62-44.15-35.02-67.17-5.41-11.97-10.93-23.98-15.82-36.18-5.83-14.54-4.77-26.43,2.7-40.14,22.45-41.23,55.05-75.82,78.68-116.32,24.39-41.81,32.89-87.71,32.37-135.71-.54-50.92-8.9-101.45-8.36-152.41,.57-53.14,17.16-103.32,24.04-155.61,14.17-107.74-10.42-215.2-17.57-322.46-.89-13.35-1.5-26.72-1.78-40.1-.02-.96-1.52-.97-1.5,0h0Z"/>
        </g>
        <g class="cls-36">
          <path class="cls-54" d="M1057.07-32.63c-1.83,104.26-3.66,208.51-5.49,312.77-.46,26.32-.92,52.63-1.39,78.95-.45,25.86-.11,51.91-2.03,77.71s-10.6,49.59-15.78,74.85c-4.83,23.51-3.31,47.54-3.02,71.37,.31,25.36-2.35,49.23-11.4,73.03-7.7,20.24-17.42,39.96-20.53,61.61-3.46,24.11,.36,48.45,5.33,72.06,5.14,24.38,10.85,48.6,15.21,73.14,9.09,51.1,13.63,102.76,10.32,154.63-1.61,25.24-4.26,50.48-3.55,75.81,.68,24.01,4.96,47.67,10.3,71.04s11.85,47.2,16.44,71.1c4.72,24.61,7.48,49.58,8.3,74.63,1.59,48.76-4.16,97.75-17.11,144.79-3.21,11.67-6.89,23.19-10.95,34.59-.32,.91,1.12,1.3,1.45,.4,32.1-90.2,36.06-186.93,14.35-279.94-5.64-24.14-12.15-48.1-16.5-72.52-4.63-26.02-5.56-51.9-4.08-78.25,1.44-25.69,4.07-51.27,4.09-77.03,.02-24.89-1.75-49.77-4.77-74.47-2.98-24.35-7.16-48.53-12.08-72.56-5.25-25.66-12.34-51.13-15.32-77.19-2.93-25.5,.24-49.36,9.36-73.3,8.27-21.72,18.19-42.56,21.15-65.87,3.01-23.71,.71-47.64,1.06-71.45,.19-12.79,1.24-25.52,4.02-38.03,2.72-12.2,6.66-24.08,9.66-36.21,5.92-23.9,6.45-48.45,6.88-72.94,.46-26.32,.92-52.63,1.39-78.95,1.84-104.76,3.68-209.53,5.52-314.29,.23-13.16,.46-26.32,.69-39.48,.02-.97-1.48-.97-1.5,0h0Z"/>
        </g>
        <g class="cls-36">
          <path class="cls-98" d="M1112.69,556.41c-29.81,18.94-39.81,55.33-43.47,88.38-2.29,20.68-3.16,41.45-6.11,62.06-2.89,20.2-6.73,40.26-9,60.54-2.13,19.03-2.69,38.21-.06,57.22,2.26,16.31,6.55,32.27,11.87,47.82,10.84,31.68,25.84,61.69,38.39,92.68s22.38,61.97,22.13,94.87c-.03,4.09-.23,8.17-.57,12.24-.08,.96,1.42,.96,1.5,0,2.69-32.02-5.01-63.5-16.09-93.33s-26.36-60.55-38.26-91.36c-5.9-15.29-11.08-30.9-14.59-46.92-3.89-17.8-5.31-35.86-4.41-54.06,1.01-20.38,4.43-40.53,7.66-60.65,3.17-19.73,5.54-39.41,7.09-59.33,2.77-35.53,6.87-75.65,34.77-101.29,3.07-2.82,6.38-5.34,9.9-7.57,.81-.52,.06-1.81-.76-1.3h0Z"/>
        </g>
      </g>
    </g>
    <g>
      <path class="cls-32" d="M115.83,1795.33h144.82c11.76-66.79,23.52-133.59,35.27-200.38-12.41-62.61-24.82-125.23-37.23-187.84,0-109.34,0-218.68,0-328.02v-238.3c-.02-129.1-.06-125.55,0-142.98,.48-143.91,2.21-175.47,1.96-269.14-.23-84.73-1.86-136.49-2.94-187.84-2.19-104.09-3.15-256.49,2.94-459.79-48.27,0-96.55,0-144.82,0,5.16,80.7,11.21,198.8,13.04,342.74,.65,51.3,.44,93.78,0,178.73-.19,36.27-1,179.44-6.66,472.96-2.28,118.38-2.53,114.68-3.63,183.08-2.27,141.28-2.84,256.84-2.94,334.33-6.37,100.23-12.74,200.46-19.11,300.68,6.43,67.26,12.86,134.52,19.29,201.78Z"/>
      <g class="cls-76">
        <g class="cls-36">
          <path class="cls-101" d="M230.07-17.15c7.76,29.75,.3,59.91-7.84,88.73s-16.77,57.16-15.15,87.18c1.77,32.62,12.46,63.92,18.41,95.86,6.3,33.8,8.91,68.29,7.82,102.65-.54,16.97-2.1,33.83-4.31,50.66s-4.41,32.89-2.3,49.34c1.97,15.31,7.91,29.65,12.87,44.15,5.25,15.35,8.44,30.66,7.43,46.95-1.91,30.87-14.43,60.31-13.79,91.45s15.16,58.19,24.95,86.48c10.61,30.66,12.06,62.22,9.66,94.34-2.41,32.22-7.77,64.25-7.85,96.63-.02,7.89,.31,15.76,1.01,23.62,.09,.95,1.59,.96,1.5,0-5.7-63.56,17.04-127.34,4.01-190.54-6.25-30.3-22.11-57.52-28.87-87.66-3.64-16.23-3.47-32.43-.84-48.8,2.5-15.47,6.59-30.63,9.29-46.07,2.44-13.95,3.7-28.22,1.48-42.29-2.44-15.42-8.7-29.84-13.56-44.58-5.4-16.37-7.45-32.56-6.15-49.77s4.29-33.87,5.66-50.89c2.71-33.73,1.82-67.74-2.63-101.28-4.36-32.87-14.2-64.48-19.65-97.11-2.75-16.48-3.8-33.14-1.79-49.76,1.85-15.33,5.79-30.32,9.96-45.16,7.74-27.56,17.21-55.87,15.31-84.9-.44-6.64-1.53-13.19-3.21-19.63-.24-.93-1.69-.54-1.45,.4h0Z"/>
        </g>
        <g class="cls-36">
          <path class="cls-47" d="M167.63-23.53c-1.39,77.4-2.13,154.81-2.2,232.23-.03,38.9,.1,77.79,.4,116.69,.3,38.35-.18,76.88,2.52,115.16,2.58,36.5,10.62,71.91,18.26,107.6,8.03,37.51,13.24,75.34,15.9,113.61,5.22,75.17,2.44,150.59,6.01,225.82,1.58,33.33,2.43,68.92,16.08,99.95,6.96,15.82,18.09,29.1,26.71,43.97,9.02,15.56,14.46,33.09,15.86,51.02,.71,9.12,.33,18.26-.99,27.31-.14,.93,1.14,1.34,1.45,.4,30.74-93.63,44.34-192.45,40.03-290.9-4.32-98.68-24.64-195.61-38.16-293.22-7.77-56.06-13.22-112.54-12.2-169.18,.02-.97-1.48-.97-1.5,0-1.78,98.4,16.08,195.51,31.18,292.34,7.69,49.29,14.69,98.76,17.99,148.57,3.25,49.1,2.48,98.38-2.94,147.3-6.2,55.97-18.29,111.21-35.85,164.7l1.45,.4c4.83-33.1-4.22-63.98-22.6-91.46-10.16-15.2-19.57-29.93-24.79-47.65-4.98-16.91-6.97-34.53-8.31-52.06-5.74-75.39-2.87-151.09-6.19-226.57-1.62-37.01-4.73-74-10.98-110.54s-16.38-72.82-21.62-109.78-5.15-77.45-5.53-116.18c-.39-38.89-.61-77.79-.66-116.68-.11-77.79,.46-155.58,1.69-233.36,.16-9.82,.32-19.63,.5-29.45,.02-.97-1.48-.97-1.5,0h0Z"/>
        </g>
        <g class="cls-36">
          <path class="cls-46" d="M119.56,642.57c-3.97,65.16,2.55,130.44,15.22,194.36s31.7,127.9,52.37,190.41c10.46,31.63,21.57,63.11,29.61,95.47,8.2,33.02,12.12,66.74,14.12,100.66,4.03,68.27,5.22,136.78,7.63,205.13,2.43,68.92,4.86,137.84,7.28,206.76,.3,8.45,.6,16.89,.89,25.34,.03,.96,1.53,.97,1.5,0-2.43-68.92-4.86-137.84-7.28-206.76-2.41-68.31-4.46-136.65-7.27-204.95-1.34-32.73-3.44-65.54-9.24-97.83-5.9-32.86-16-64.74-26.51-96.36-20.91-62.9-41.24-125.99-55.81-190.71s-23.58-130.91-22.04-197.33c.19-8.07,.54-16.13,1.03-24.19,.06-.96-1.44-.96-1.5,0h0Z"/>
        </g>
      </g>
    </g>
    <path class="cls-32" d="M1573.91,1784.12h144.82c11.76-66.79,23.52-133.59,35.27-200.38-12.41-62.61-24.82-125.23-37.23-187.84,0-109.34,0-218.68,0-328.02v-238.3c-.02-129.1-.06-125.55,0-142.98,.48-143.91,2.21-175.47,1.96-269.14-.23-84.73-1.86-136.49-2.94-187.84-2.19-104.09-3.15-256.49,2.94-459.79h-144.82c5.16,80.7,11.21,198.8,13.04,342.74,.65,51.3,.44,93.78,0,178.73-.19,36.27-1,179.44-6.66,472.96-2.28,118.38-2.53,114.68-3.63,183.08-2.27,141.28-2.84,256.84-2.94,334.33-6.37,100.23-12.74,200.46-19.11,300.68,6.43,67.26,12.86,134.52,19.29,201.78Z"/>
    <g>
      <path class="cls-32" d="M2021.45,1741.22h144.82c11.76-66.79,23.52-133.59,35.27-200.38-12.41-62.61-24.82-125.23-37.23-187.84,0-109.34,0-218.68,0-328.02v-238.3c-.02-129.1-.06-125.55,0-142.98,.48-143.91,2.21-175.47,1.96-269.14-.23-84.73-1.86-136.49-2.94-187.84-2.19-104.09-3.15-256.49,2.94-459.79-48.27,0-96.55,0-144.82,0,5.16,80.7,11.21,198.8,13.04,342.74,.65,51.3,.44,93.78,0,178.73-.19,36.27-1,179.44-6.66,472.96-2.28,118.38-2.53,114.68-3.63,183.08-2.27,141.28-2.84,256.84-2.94,334.33-6.37,100.23-12.74,200.46-19.11,300.68,6.43,67.26,12.86,134.52,19.29,201.78Z"/>
      <g class="cls-20">
        <g class="cls-36">
          <path class="cls-43" d="M2122.86-63.39c5.59,127.54,11.26,255.75,35.48,381.39,12.14,62.98,31.3,123.38,50.02,184.58,19.38,63.35,30.08,127.79,34.21,193.88,4.12,65.85,3.69,131.97,3.89,197.92,.2,67.79-.02,135.59-.36,203.38-.09,16.8-.18,33.6-.28,50.39-.09,16.18,1.8,33.86-.8,49.85-3.04,18.7-22.21,17.79-36.98,17.05-11.52-.57-22.8,.12-33.99,3.08-44.1,11.64-77.6,50.2-94.15,91.31-22.92,56.91-16.31,121.03-12.44,180.68,4.32,66.47,3.96,133.11-1.87,199.48-1.45,16.5-3.24,32.96-5.3,49.38-.12,.96,1.38,.95,1.5,0,8.34-66.32,11.64-133.21,9.59-200.02-1.98-64.52-13.35-130.82-.12-194.79,10.59-51.24,42.61-102.73,93.64-121.57,12.23-4.52,25.24-6.68,38.27-6.27,10.19,.32,21.53,2.18,31.25-1.87,7.71-3.21,11.48-9.61,12.36-17.74,1.72-15.89,.46-32.58,.55-48.55,.78-134.38,3.14-269.08-1.04-403.42-1.98-63.68-7.1-127.63-21.87-189.76-14.77-62.17-38.21-121.88-53.12-184.05-30.34-126.51-38.79-256.89-44.79-386.45-.74-15.96-1.44-31.91-2.14-47.87-.04-.96-1.54-.97-1.5,0h0Z"/>
        </g>
        <g class="cls-36">
          <path class="cls-90" d="M2063.24-101.04c8.39,130.69,16.77,261.37,25.16,392.06,2.02,31.49,5.29,63.25,4.18,94.83-1.13,32.05-9.87,60.29-22.84,89.35-10.91,24.46-21.95,48.91-24.37,75.91-2.62,29.29,3.02,58.46,7.19,87.33,4.66,32.27,5.84,63.33-1.37,95.35-6.37,28.32-16.77,55.51-25.06,83.28-17.62,58.96-18.47,119.99-21.83,180.94-6.64,120.22-33.48,238.92-79.84,350.08-22.74,54.51-51.41,105.67-79.66,157.42-26.47,48.5-51.87,98.73-63.43,153.17-2.67,12.55-4.5,25.23-5.6,38.01-.08,.96,1.42,.96,1.5,0,9.99-116.64,87.72-213.25,134.87-316.65,48.54-106.46,79.24-221.01,90.36-337.49,5.93-62.1,3.61-125.21,15.52-186.66,11.06-57.03,40.47-110.66,40.33-169.69-.07-30.59-7-60.57-10.35-90.86-3.37-30.45-1.33-59.44,9.68-88.22,10.18-26.64,24.59-51.7,31.2-79.64,6.88-29.06,5.86-59.21,4.08-88.79-7.87-130.49-16.73-260.93-25.1-391.39-1.03-16.11-2.07-32.22-3.1-48.34-.06-.96-1.56-.97-1.5,0h0Z"/>
        </g>
        <g class="cls-36">
          <path class="cls-44" d="M2092.65-12.81c5.67,209.21,11.34,418.41,17,627.62,1.42,52.56,2.85,105.13,4.27,157.69,1.4,51.77,3.6,103.65,1.08,155.42-4.99,102.56-38.69,200.47-52.9,301.74-15.79,112.55-17.3,226.43-18.78,339.88-.01,.97,1.49,.97,1.5,0,1.33-102.2,2.68-204.65,14.48-306.28,6.01-51.77,15.45-102.8,27.07-153.59,10.95-47.88,22.45-95.77,27.41-144.74,5.2-51.4,4.05-103.15,2.67-154.71-1.41-52.53-2.85-105.05-4.27-157.58-2.82-104.08-5.64-208.16-8.46-312.23-3.19-117.74-6.38-235.49-9.57-353.23-.03-.96-1.53-.97-1.5,0h0Z"/>
        </g>
      </g>
    </g>
    <path class="cls-102" d="M-1473.56,1749.08c-18.5-136.18-37-272.37-55.5-408.55,1042.26-28.63,2084.53-43.28,3126.8-43.94,436.48-.28,872.95,1.9,1309.41,6.52-2.83,154.31-5.66,308.63-8.48,462.94-1457.41-5.66-2914.82-11.31-4372.23-16.97Z"/>
    <g>
      <path class="cls-39" d="M2241.81,1305.38c-10.07-7.28-23.73-15.59-40.97-22.23-28.03-10.79-53.11-12.36-69.29-12.02,20.36-20.63,50.68-26.42,74.94-14.85,29.34,13.99,34.87,46.23,35.31,49.1-.58-2.48-1.15-4.96-1.73-7.44-1.12-7.03-4.64-23.15-17.56-38.6-12.82-15.34-27.93-21.67-34.64-24.04,17.41-5.56,36.15-.58,47.37,12.49,13.55,15.79,9.51,35.64,9,37.95,.84-2.38,6.93-18.64,24.46-25.22,21.1-7.93,39.21,5.52,40.3,6.36-9.27,2.56-20.81,6.66-33.23,13.43-15.01,8.19-26.22,17.52-33.97,25.06Z"/>
      <path class="cls-34" d="M1957.78,1371.84c19.42-14.04,45.76-30.08,79.02-42.87,54.06-20.8,102.42-23.84,133.63-23.18-39.26-39.79-97.74-50.96-144.54-28.64-56.58,26.98-67.25,89.16-68.11,94.69,1.11-4.78,2.23-9.56,3.34-14.34,2.15-13.56,8.96-44.65,33.86-74.44,24.73-29.58,53.86-41.8,66.82-46.36-33.58-10.73-69.72-1.12-91.36,24.09-26.13,30.44-18.35,68.74-17.36,73.19-1.63-4.58-13.37-35.94-47.18-48.65-40.7-15.29-75.61,10.65-77.73,12.27,17.87,4.93,40.14,12.84,64.09,25.91,28.95,15.8,50.56,33.79,65.52,48.33Z"/>
      <path class="cls-31" d="M228.92,1354.11c19.42-14.04,45.76-30.08,79.02-42.87,54.06-20.8,102.42-23.84,133.63-23.18-39.26-39.79-97.74-50.96-144.54-28.64-56.58,26.98-67.25,89.16-68.11,94.69,1.11-4.78,2.23-9.56,3.34-14.34,2.15-13.56,8.96-44.65,33.86-74.44,24.73-29.58,53.86-41.8,66.82-46.36-33.58-10.73-69.72-1.12-91.36,24.09-26.13,30.44-18.35,68.74-17.36,73.19-1.63-4.58-13.37-35.94-47.18-48.65-40.7-15.29-75.61,10.65-77.73,12.27,17.87,4.93,40.14,12.84,64.09,25.91,28.95,15.8,50.56,33.79,65.52,48.33Z"/>
      <path class="cls-73" d="M679.23,1420.38c19.42-14.04,45.76-30.08,79.02-42.87,54.06-20.8,102.42-23.84,133.63-23.18-39.26-39.79-97.74-50.96-144.54-28.64-56.58,26.98-67.25,89.16-68.11,94.69,1.11-4.78,2.23-9.56,3.34-14.34,2.15-13.56,8.96-44.65,33.86-74.44,24.73-29.58,53.86-41.8,66.82-46.36-33.58-10.73-69.72-1.12-91.36,24.09-26.13,30.44-18.35,68.74-17.36,73.19-1.63-4.58-13.37-35.94-47.18-48.65-40.7-15.29-75.61,10.65-77.73,12.27,17.87,4.93,40.14,12.84,64.09,25.91,28.95,15.8,50.56,33.79,65.52,48.33Z"/>
      <path class="cls-1" d="M2302.89,1363.98c5.48-5,13.41-11.07,23.99-15.94,19.84-9.13,38.12-9.05,47.72-8.28-13.89-15.35-35.61-19.2-51.61-10.22-18.66,10.47-20.04,33.05-20.1,34.44,.19-4.03-.06-10.66-3.3-17.68-8.78-19.01-31.08-22.67-33.94-23.1-24.9-3.69-42.62,14.9-44.31,16.73,9.74-1.6,30.79-3.64,53.92,6.15,12.52,5.3,21.64,12.36,27.62,17.89Z"/>
    </g>
    <g>
      <path class="cls-70" d="M305.35,1766.39h207.2c16.82-66.79,33.64-133.59,50.46-200.38-17.76-62.61-35.51-125.23-53.27-187.84,0-109.34,0-218.68,0-328.02v-238.3c-.03-129.1-.08-125.55,0-142.98,.68-143.91,3.17-175.47,2.8-269.14-.33-84.73-2.66-136.49-4.21-187.84-3.13-104.09-4.51-256.49,4.21-459.79-69.07,0-138.13,0-207.2,0,7.38,80.7,16.04,198.8,18.66,342.74,.93,51.3,.62,93.78,0,178.73-.27,36.27-1.44,179.44-9.53,472.96-3.26,118.38-3.61,114.68-5.19,183.08-3.25,141.28-4.06,256.84-4.21,334.33-9.11,100.23-18.22,200.46-27.34,300.68,9.2,67.26,18.4,134.52,27.6,201.78Z"/>
      <g class="cls-30">
        <g class="cls-36">
          <path class="cls-89" d="M321.5-32.36c10.47,55.1,17.56,110.82,21.03,166.81,3.41,54.97,3.12,110.08,1.95,165.11-2.32,109.16-8.13,218.97,5.79,327.63,3.37,26.33,8.26,52.34,13.58,78.33,5.52,26.94,10.85,54.06,11.62,81.64,1.49,53.72-12.65,106.1-22.19,158.54-4.5,24.74-8.04,49.73-8.57,74.91-.59,27.55,2.02,55.02,2.35,82.55s-2.71,54.23-10.41,80.72c-7.09,24.42-16.28,48.32-20.57,73.47s-3.98,52.56-5.34,78.87c-1.35,26.17-5.5,51.89-12.68,77.1-14.04,49.29-37.66,95.2-62.68,139.69-6.12,10.88-12.34,21.69-18.57,32.5-.48,.84,.81,1.59,1.3,.76,24.94-43.26,49.9-86.83,68.13-133.44,9.16-23.41,16.54-47.57,21.05-72.32,4.63-25.42,5.18-51.07,6.17-76.81,1.07-27.99,4.74-54.77,12.87-81.62,7.55-24.93,16.58-49.49,20.03-75.44,7.09-53.3-3.87-107.12,2.27-160.6,6.06-52.83,21.38-104.16,26.66-157.11,2.56-25.73,2.16-51.34-1.45-76.94-3.8-26.92-10.25-53.37-15.15-80.1-20.2-110.3-16.46-222.97-13.61-334.52,2.83-110.5,2.38-220.36-15.06-329.81-2.15-13.47-4.52-26.91-7.06-40.31-.18-.95-1.63-.55-1.45,.4h0Z"/>
        </g>
        <g class="cls-36">
          <path class="cls-97" d="M492.32-70.05c-12.45,53.99-19.82,109.07-21.73,164.46-.95,27.64-.57,55.33,1.17,82.93s5.46,57.53,6.92,86.39c2.93,58.3-10.16,114.09-20.62,171.01-10.09,54.9-16,110.5-18.93,166.22-5.97,113.5,.34,227.13,7.61,340.42,1.87,29.07,3.62,58.18,3.34,87.33s-3.61,57.21-6.67,85.8-4.37,54.92-1.43,82.51c2.82,26.51,8.59,52.6,14.58,78.55,12.97,56.17,22.92,112.24,27.56,169.77,4.57,56.68,5.45,113.58,5.6,170.41,.04,13.93,.03,27.86,.02,41.8,0,.97,1.5,.97,1.5,0,.08-111.77,.12-224.62-22.49-334.58-11.23-54.64-28.23-108.78-27.01-165.13,.6-27.91,4.88-55.54,7.49-83.29s2.8-57.94,1.59-86.95c-2.35-56.85-7.12-113.58-9.65-170.43-2.53-56.98-3.77-114.04-2.3-171.07,1.48-57.32,5.69-114.62,14.07-171.36,8-54.16,22.76-107.5,26.85-162.19,4.24-56.72-6.76-113.36-8-170.03-1.25-57.45,3.29-115.02,13.57-171.55,2.47-13.61,5.3-27.14,8.41-40.62,.22-.94-1.23-1.34-1.45-.4h0Z"/>
        </g>
        <g class="cls-36">
          <path class="cls-2" d="M408.85-67.22c2.43,110.55,4.85,221.1,7.28,331.65,1.19,54.43,2.6,108.97-1.25,163.33-3.8,53.76-16.59,106.27-20.93,159.92-4.17,51.58,4.39,102.36,12.53,153.12,8.77,54.69,14.22,108.16,5.35,163.23-4.22,26.15-10.19,51.97-14.94,78.03s-7.77,51.18-9.87,76.99c-4.41,54.28-5.18,108.86-6.93,163.27-3.57,110.56-7.13,221.12-10.7,331.69-.45,13.82-.89,27.64-1.34,41.46-.03,.97,1.47,.96,1.5,0,3.57-110.56,7.13-221.12,10.7-331.69,1.77-54.77,2.92-109.6,5.67-164.34,1.35-26.94,3.33-53.86,6.76-80.62,3.52-27.45,9.19-54.47,14.58-81.6,4.96-24.94,9.48-50.07,10.84-75.5,1.4-25.96-.52-51.97-3.76-77.73-6.57-52.23-18.62-103.91-20.01-156.7-1.42-53.7,11.45-105.98,18.11-158.94,6.79-54.04,6.98-108.62,6.03-162.99-1.92-110.38-4.79-220.75-7.22-331.12-.3-13.82-.61-27.64-.91-41.46-.02-.96-1.52-.97-1.5,0h0Z"/>
        </g>
        <g class="cls-36">
          <path class="cls-84" d="M500.89-30.65c-2.62,58.3,8.4,115.74,19.38,172.71,11.36,58.9,20.7,118.06,26.61,177.78,11.68,118,11.61,237.16-.26,355.15-1.53,15.21-3.26,30.39-5.18,45.56-1.76,13.91-3.48,28.02-8.11,41.33-4.67,13.42-13.32,23.08-21.32,34.47-6.44,9.17-9.66,19.22-10.93,30.3-3.29,28.73-2.3,58.42-3.18,87.32-.94,30.81-1.89,61.63-2.83,92.44-1.86,60.55-3.71,121.09-5.57,181.64-.91,29.76-2.42,59.57-2.42,89.35,0,26.53,2.25,53.14,11.12,78.32,28.55,81.01,106.58,131.53,139.13,210.31,3.96,9.59,7.07,19.47,9.35,29.59,.21,.94,1.66,.54,1.45-.4-18.9-83.71-94.54-136.3-134.39-208.78-11.86-21.57-19.81-44.63-22.95-69.09-3.77-29.4-1.94-59.24-1.04-88.76,1.86-60.55,3.71-121.09,5.57-181.64,1.86-60.55,3.71-121.09,5.57-181.64,.44-14.51,0-29.44,2.42-43.8,2.37-14.08,9.76-24.13,18.22-35.17,15.49-20.21,18.73-44.35,21.8-68.94,14.71-117.66,17.61-236.8,8.74-355.04-4.34-57.87-11.48-115.54-21.44-172.72-10.21-58.66-24.52-116.91-27.97-176.53-.84-14.58-.95-29.17-.29-43.76,.04-.97-1.46-.96-1.5,0h0Z"/>
        </g>
      </g>
    </g>
    <g>
      <path class="cls-21" d="M2830.53,1645.77h-209.01c-16.97-67.38-33.94-134.76-50.91-202.13,17.91-63.16,35.82-126.32,53.73-189.48V682.89c.03-130.23,.08-126.65,0-144.23-.69-145.17-3.19-177.01-2.83-271.5,.33-85.47,2.69-137.69,4.24-189.48,3.16-105,4.55-258.74-4.24-463.81h209.01c-7.44,81.41-16.18,200.54-18.82,345.73-.94,51.75-.63,94.6,0,180.29,.27,36.59,1.45,181.01,9.61,477.09,3.29,119.42,3.65,115.68,5.23,184.68,3.28,142.52,4.09,259.09,4.24,337.25,9.19,101.1,18.38,202.21,27.57,303.31-9.28,67.85-18.56,135.7-27.84,203.55Z"/>
      <g class="cls-65">
        <g class="cls-36">
          <path class="cls-25" d="M2649.87-69.42c19.99,46.94,25.58,98.03,26.84,148.61,.61,24.56,.03,49.11,.08,73.67,.02,12.44,.48,24.95,2.87,37.19,2.32,11.88,6.77,23.13,10.44,34.63,8.54,26.77,5.83,52.51-.71,79.41-6.2,25.48-12.75,50.78-17.65,76.57-9.59,50.48-15.06,101.74-16.37,153.1-.67,26.29-.25,52.62,1.27,78.88,.77,13.34,1.82,26.67,3.16,39.97,.6,6.01,1.27,12.01,1.99,18,.69,5.75,.62,12.62,2.36,18.16,.94,2.98,2.9,5.6,4.27,8.39,3.11,6.31,5.43,13.06,7.19,19.86,3.08,11.87,4.29,24.17,3.97,36.41-.37,14.32-3.88,27.85-5.78,41.93-3.77,27.94-.36,56.46,3.06,84.25,4.63,37.66,9.75,75.22,11.61,113.15,4.28,87.18-7.53,174.28-33.64,257.52-3.9,12.44-8.13,24.78-12.6,37.03-.33,.91,1.12,1.3,1.45,.4,30.48-83.47,47.45-171.52,47.2-260.49-.12-40.84-4.12-81.41-9.26-121.89-3.88-30.57-8.84-61.51-7.76-92.42,.44-12.56,2.88-24.52,4.98-36.84,3.21-18.87,3.26-38.39-1.18-57.06-1.47-6.2-3.43-12.29-5.91-18.16-1.6-3.8-4.08-7.26-5.6-11.05-2.4-5.97-2.24-14.03-3-20.47-.81-6.85-1.55-13.71-2.21-20.58-2.57-26.61-4-53.33-4.3-80.06-.6-53.4,3.29-106.85,11.67-159.59,4.2-26.4,9.51-52.63,15.94-78.58,5.98-24.14,13.78-48.55,13.24-73.69-.53-24.93-13.08-46.71-17.05-70.94-4.22-25.74-1.85-52.61-1.88-78.59-.06-48.8-2.12-98.4-15.91-145.54-3.18-10.87-7.03-21.51-11.46-31.92-.38-.89-1.67-.12-1.3,.76h0Z"/>
        </g>
        <g class="cls-36">
          <path class="cls-52" d="M2730.32-66.99c-13.89,99.18-8.38,199.65-4.9,299.34,3.53,101.15,7.06,202.3,10.59,303.45,.87,24.95,1.48,49.94,3.58,74.83,2,23.57,6.29,46.52,10.96,69.68,9.49,47.15,6.96,93.09-2.42,140.06-8.95,44.82-22.18,88.69-30.17,133.72-8.16,45.99-7.47,91.27-2.13,137.55s13.92,96.91,9.98,145.7c-3.81,47.22-20.48,92.64-21.8,140.14-.3,10.87,.34,21.68,1.94,32.43,.14,.95,1.59,.55,1.45-.4-7.2-48.57,8.3-95.96,16.24-143.4,7.87-47.04,3.67-93.82-2.18-140.83-5.9-47.4-11.83-94.72-6.27-142.47,5.34-45.82,18.18-90.29,28.54-135.12,9.83-42.55,17.69-86.28,14.01-130.12-1.91-22.81-7.7-44.95-11.66-67.44-4.38-24.87-6.08-50.1-7.16-75.29-4.28-100.45-7.07-200.98-10.58-301.46-3.48-99.69-10.28-200.26-1.23-299.83,1.22-13.42,2.77-26.81,4.64-40.16,.13-.94-1.31-1.35-1.45-.4h0Z"/>
        </g>
        <g class="cls-36">
          <path class="cls-57" d="M2625.5-54.78c26.04,105.16,25.95,214.05,19.77,321.55-6.2,107.8-18.27,215.48-16.15,323.61,1.09,55.54,7.85,110.63,11.19,166.03,3.42,56.89,3.59,113.9,3.99,170.87,.4,56.74,.8,113.49,1.2,170.23,.4,56.93,1.66,113.93,.91,170.86-.72,54.97-7.89,108.18-27.2,159.86-18.05,48.34-43.47,93.52-70.03,137.61-6.6,10.96-13.29,21.87-19.99,32.77-.51,.82,.79,1.58,1.3,.76,53.58-87.24,106.3-176.85,115.19-281.07,4.79-56.22,2.08-113.2,1.68-169.56-.41-57.85-.82-115.69-1.23-173.54-.41-57.61-.27-115.27-2.21-172.85-1.91-56.8-8.47-113.18-11.71-169.88-6.24-109.02,4.72-217.98,12.09-326.66,7.27-107.04,11.32-215.6-8.73-321.59-2.5-13.21-5.4-26.34-8.63-39.39-.23-.94-1.68-.54-1.45,.4h0Z"/>
        </g>
      </g>
    </g>
    <g>
      <path class="cls-26" d="M1956.96,1726.38h-302.18c-24.53-67.38-49.07-134.76-73.6-202.13,25.9-63.16,51.79-126.32,77.69-189.48V763.49c.05-130.23,.12-126.65,0-144.23-.99-145.17-4.62-177.01-4.09-271.5,.48-85.47,3.88-137.69,6.13-189.48,4.56-105,6.57-258.74-6.13-463.81h302.18c-10.76,81.41-23.39,200.54-27.21,345.73-1.36,51.75-.91,94.6,0,180.29,.39,36.59,2.1,181.01,13.9,477.09,4.76,119.42,5.27,115.68,7.57,184.68,4.74,142.52,5.92,259.09,6.13,337.25,13.29,101.1,26.58,202.21,39.87,303.31-13.42,67.85-26.84,135.7-40.26,203.55Z"/>
      <g class="cls-48">
        <g class="cls-36">
          <path class="cls-14" d="M1808.78-120.3c25.7,52.1,52.36,106.5,56.83,165.34,4.18,55.1-17.17,105.41-33.21,156.89-7.5,24.07-13.74,48.82-14.7,74.13-.93,24.54,3.65,48.73,11.06,72.04,15.84,49.81,43.28,95.54,54.29,146.95,24.78,115.68-34.35,225.96-42.3,339.81-1.99,28.53,1.69,55.43,10.94,82.45,9.16,26.75,18.99,52.71,24.11,80.65,10.54,57.43,6.71,116.35-.29,173.95-6.98,57.41-17.34,114.43-21.79,172.14-4.73,61.34-1.98,122.92,2.25,184.2,1.04,15.09,2.18,30.17,3.31,45.25,.07,.96,1.57,.96,1.5,0-4.61-61.38-9.24-122.91-7.79-184.51,1.43-60.7,10.85-120.53,19.21-180.55,7.8-55.99,14.54-112.71,10.31-169.31-2.04-27.39-6.73-54.62-14.89-80.87-8.83-28.4-21.7-55.42-24.97-85.29-3.27-29.89,1.22-60.22,6.69-89.58,5.3-28.45,12.22-56.55,18.88-84.7,12.93-54.66,25.51-110.75,21.44-167.29-3.85-53.43-26.86-100.37-46.74-149.18-9.87-24.23-18.66-49.17-22.19-75.21-3.71-27.34-.41-54.6,6.39-81.2,12.83-50.15,36.46-97.91,40.13-150.15,3.87-55.04-15.58-108.25-38.26-157.43-6.09-13.19-12.48-26.24-18.91-39.27-.43-.87-1.72-.11-1.3,.76h0Z"/>
        </g>
        <g class="cls-36">
          <path class="cls-55" d="M1710.92-91.86c67.79,87.99,53.12,205.19,47.02,308.6-1.68,28.55-2.56,57.12-1.25,85.7,1.34,29.09,4.36,58.07,6.07,87.14,1.71,29.06,1.64,58.01-1.46,86.98-3.09,28.85-8.24,57.43-11.97,86.2-7.53,57.95-5.42,116.19-5.62,174.46-.1,29.09-.89,58.22-4.1,87.14-3.25,29.29-9.27,58.15-14.49,87.12-4.82,26.76-9.02,53.77-9.54,81.01-.49,25.44,2.94,50.49,8.77,75.22,12.18,51.7,33.45,101.59,37.72,154.96,4.62,57.75-14.55,114.3-31.51,168.67-17.37,55.68-36.36,110.83-55.67,165.85-4.74,13.5-9.49,26.99-14.25,40.48-.32,.91,1.13,1.3,1.45,.4,19.57-55.52,39.14-111.05,57.38-167.03s37.72-108.65,43.51-164.91c5.5-53.38-10-103.85-25.02-154.4-7.45-25.08-14.61-50.37-18.3-76.32-4.28-30.05-2.71-60.34,1.48-90.3,3.94-28.11,9.91-55.88,14.67-83.86,4.76-27.99,7.63-56.12,8.69-84.49,2.19-58.77-1.67-117.67,2.51-176.38,4.16-58.48,18.76-115.79,18.52-174.64-.24-58.84-9.47-117.11-7.62-176.04,3.24-103.18,25.04-215.1-25.52-311.02-5.8-11.01-12.57-21.44-20.16-31.29-.58-.75-1.88,0-1.3,.76h0Z"/>
        </g>
        <g class="cls-36">
          <path class="cls-42" d="M1691.2-32.58c-12.8,116.4-25.6,232.79-38.39,349.19-6.4,58.23-14.63,116.74-14.77,175.42-.13,56.95,9.49,113.33,10.7,170.22,1.12,52.57-4.72,106.13,7.19,157.9,5.73,24.91,16.67,47.59,27.55,70.55,12.02,25.36,21.32,51.09,26.22,78.79,4.89,27.66,6.23,55.82,6.52,83.86,.28,27.15,.32,54.43-1.01,81.56-1.41,28.88-5.64,57.25-15.11,84.64-9.14,26.44-21.68,51.58-33.87,76.71-50.72,104.55-104.46,207.59-158.52,310.43-6.66,12.67-13.33,25.35-20,38.02-.45,.85,.85,1.61,1.3,.76,54.36-103.31,108.73-206.64,160.37-311.35,23.9-48.45,52.22-97.94,62.17-151.62,4.95-26.71,5.74-53.97,6.02-81.06,.29-27.31,.62-54.67-.88-81.95-1.43-25.98-4.62-51.98-11.52-77.12-6.9-25.11-18.56-48.03-29.46-71.54-12.26-26.43-20.35-53.35-23.49-82.36-2.93-27.04-2.49-54.3-2.09-81.46,.41-27.92,.22-55.71-1.81-83.58-2.08-28.62-5.27-57.15-7.17-85.78-3.89-58.51,1.65-116.34,8.04-174.47,12.92-117.5,25.84-235.01,38.76-352.51,1.58-14.41,3.17-28.82,4.75-43.23,.11-.96-1.4-.95-1.5,0h0Z"/>
        </g>
        <g class="cls-36">
          <path class="cls-53" d="M1756.62-38.16c-5.37,96.36,37.74,186.67,41.24,282.22,1.86,50.86-7.94,101.23-13.93,151.53-5.92,49.72-9.53,100.01-5.61,150.03,3.74,47.77,16.38,92.87,32.48,137.8,15.98,44.59,33.6,89.35,38.89,136.77,5.76,51.69-4.53,103.25-14.54,153.75-9.86,49.75-18.41,99.73-25.13,150.01-13.69,102.48-20.46,205.88-20.19,309.27,.03,12.8,.18,25.6,.42,38.4,.02,.96,1.52,.97,1.5,0-1.94-103.38,3.01-206.86,15-309.57,6.1-52.26,14-104.31,23.7-156.02,9.22-49.18,21.38-98.38,22.35-148.65,1.86-96.24-52.63-179.45-68.2-272.41-8.42-50.28-7.56-101.63-3.06-152.25,4.48-50.47,14.24-100.45,17.27-151.04,2.88-48.04-4.66-94.79-15.05-141.54-10.51-47.27-23.07-94.53-25.67-143.1-.63-11.73-.61-23.47,.05-35.21,.05-.96-1.45-.96-1.5,0h0Z"/>
        </g>
      </g>
    </g>
    <g>
      <path class="cls-22" d="M1519.71,1709.41h-209.01c-16.97-67.38-33.94-134.76-50.91-202.13,17.91-63.16,35.82-126.32,53.73-189.48V746.52c.03-130.23,.08-126.65,0-144.23-.69-145.17-3.19-177.01-2.83-271.5,.33-85.47,2.69-137.69,4.24-189.48,3.16-105,4.55-258.74-4.24-463.81h209.01c-7.44,81.41-16.18,200.54-18.82,345.73-.94,51.75-.63,94.6,0,180.29,.27,36.59,1.45,181.01,9.61,477.09,3.29,119.42,3.65,115.68,5.23,184.68,3.28,142.52,4.09,259.09,4.24,337.25,9.19,101.1,18.38,202.21,27.57,303.31-9.28,67.85-18.56,135.7-27.84,203.55Z"/>
      <g class="cls-87">
        <g class="cls-36">
          <path class="cls-68" d="M1340.64-46.7c2.72,53.79,5.44,107.59,8.17,161.38,2.62,51.69,9.67,106.28-2.92,157.16-2.9,11.72-7.14,23.08-9.68,34.9-2.51,11.71-2.58,23.43-1.2,35.31,3.04,26.18,7.85,52.06,10.3,78.34,4.96,53.36,5.68,106.99,5.79,160.55,.11,53.97,.46,108.01-2.21,161.92-1.33,26.85-3.73,53.57-6.78,80.27-2.86,25.04-5.43,50.46-1.51,75.53,4.05,25.85,13.39,50.51,17.42,76.4,4.14,26.64,5.02,53.65,6.15,80.55,1.96,46.56,3.55,93.17,2.66,139.77-1.79,92.79-13.48,187.79-54.85,272.02-4.95,10.08-10.33,19.94-16.06,29.61-.49,.83,.8,1.59,1.3,.76,46.65-78.77,64.48-169.76,69.55-260.22,2.61-46.61,2.05-93.33,.5-139.97-1.64-49.55-1.06-100.78-13.11-149.15-6.6-26.5-14.3-51.8-14.08-79.42,.21-26.91,4.78-53.63,7.17-80.39,4.81-53.86,5.3-107.99,5.36-162.03,.05-54.13,.34-108.33-2.61-162.41-1.46-26.74-3.73-53.45-7.26-80-3.52-26.51-10.76-53.11-4.47-79.74,2.89-12.26,7.29-24.1,10.05-36.39,2.52-11.26,4.06-22.71,4.92-34.21,1.95-25.99,.46-52.07-.85-78.05-2.72-53.79-5.44-107.59-8.17-161.38-.69-13.7-1.39-27.4-2.08-41.11-.05-.96-1.55-.97-1.5,0h0Z"/>
        </g>
        <g class="cls-36">
          <path class="cls-64" d="M1551.24-53.14c1.95,23.23,3.48,47.13-1.53,70.09-2.42,11.08-6.48,21.91-12.92,31.3-7.24,10.55-17.26,17.86-27.13,25.73-18.26,14.55-27.49,32.75-31.81,55.5-4.76,25.07-6.46,50.92-9.08,76.28-5.95,57.53-10.44,115.41-8.32,173.28,1.03,27.95,3.75,55.76,8.22,83.37,4.44,27.42,10.16,54.62,14.06,82.13,4.08,28.8,5.76,57.69,2.87,86.68-2.85,28.6-9.01,56.72-13.84,85.01-4.5,26.33-7.48,52.74-6.74,79.49,.78,28.46,4.73,56.71,8.5,84.9,15.49,115.89,14.8,232.44,13.05,349.11-.43,28.79-.87,57.59-1.05,86.38-.15,24.69-1.84,51.05,9.07,73.96,5.26,11.05,12.82,20.79,19.93,30.68,7.3,10.15,14.04,20.67,20.07,31.62,12.74,23.1,22.44,47.87,28.83,73.47,3.24,13,5.57,26.19,7.11,39.5,.11,.95,1.61,.96,1.5,0-5.64-48.63-22.59-95.62-49.9-136.3-6.85-10.2-14.64-19.77-21.05-30.26-7.95-13-12.05-27-13.38-42.13-2.42-27.65-.61-56.01-.25-83.72,1.5-116.04,5.08-232.49-7.05-348.12-6.02-57.33-18.24-114.54-12.27-172.41,5.6-54.34,22.27-107.17,20.39-162.23-1.94-56.81-18.11-111.94-23.7-168.36-5.71-57.57-3.51-115.59,1.38-173.14,2.43-28.62,5.54-57.18,8.71-85.73,2.8-25.17,4.66-53.53,21.25-74.09,7.68-9.52,18.1-16.12,27.34-23.95,7.98-6.77,14.58-14.66,19.4-23.98,9.58-18.51,11.73-39.99,11.63-60.52-.06-11.2-.84-22.38-1.78-33.54-.08-.95-1.58-.96-1.5,0h0Z"/>
        </g>
        <g class="cls-36">
          <path class="cls-12" d="M1412.35-75.33c-20.19,100.09-12.19,202.46-3.86,303.38,4.28,51.88,8.65,103.81,9.35,155.89,.71,52.62-3.38,105.07-7.42,157.5-4.05,52.56-7.89,105.28-5.98,158.03,1.75,48.45,9.77,98.68-4.19,146.11-3.49,11.84-9.04,22.82-13.17,34.41-4.01,11.26-5.31,22.8-4.54,34.7,1.64,25.25,8.54,50.5,13.43,75.28,10.31,52.27,20.62,104.54,30.93,156.81,10.24,51.93,22.5,104.71,19.05,158-3.18,49.19-19.47,96.71-20.43,146.13-.22,11.43,.51,22.81,2.22,34.11,.14,.95,1.59,.55,1.45-.4-7.62-50.55,7.46-100.1,14.91-149.71,7.49-49.88,1.66-98.64-7.75-147.82-9.89-51.69-20.33-103.27-30.51-154.9-5.2-26.39-10.41-52.78-15.61-79.17-2.6-13.16-5.56-26.39-6.26-39.82-.72-13.85,1.96-26.72,7.16-39.5,8.78-21.58,15.46-42.47,17.51-65.84,2.09-23.76,.78-47.65-.67-71.41-3.16-51.88-2.5-103.29,1.04-155.14,3.56-52.17,8.7-104.25,10.1-156.54,1.38-51.66-1.66-103.26-5.68-154.74-7.88-100.98-19.64-202.98-6.43-304.04,1.79-13.72,4.09-27.36,6.83-40.93,.19-.94-1.26-1.35-1.45-.4h0Z"/>
        </g>
      </g>
    </g>
    <g>
      <path class="cls-16" d="M148.99,1754.78H-133.85c-22.96-91.18-45.93-182.36-68.89-273.54,24.24-85.47,48.48-170.95,72.72-256.42V451.73c.04-176.23,.11-171.39,0-195.19-.93-196.45-4.32-239.54-3.83-367.41,.45-115.66,3.63-186.33,5.74-256.42,4.27-142.09,6.15-350.14-5.74-627.65H148.99c-10.07,110.16-21.89,271.38-25.47,467.87-1.28,70.03-.85,128.02,0,243.98,.36,49.51,1.96,244.95,13.01,645.63,4.46,161.61,4.93,156.55,7.08,249.92,4.44,192.86,5.54,350.62,5.74,456.39,12.44,136.82,24.88,273.64,37.32,410.46-12.56,91.82-25.12,183.64-37.68,275.45Z"/>
      <g class="cls-4">
        <g class="cls-36">
          <path class="cls-24" d="M44.5-61.64C57.52,52.24,26.04,164.11,11.33,276.19c-7.25,55.21-10.43,111.44-1.9,166.7,9.12,59.11,31.91,114.98,44.51,173.31,25.57,118.35,19.27,240.35,12.34,360.33-3.48,60.17-7.2,120.37-7.45,180.66-.25,60.29,4.31,120.16,11.42,179.99,14.25,120.1,36.24,241.98,19.44,363.02-2.03,14.64-4.68,29.18-7.85,43.62-.21,.94,1.24,1.34,1.45,.4,25.84-117.45,9.91-237.81-5.12-355.56-7.71-60.37-15.17-120.85-17.15-181.74-1.96-60.18,.6-120.39,3.92-180.47,6.56-118.77,16.53-238.67-.06-357.08-4.18-29.82-10.11-59.35-17.97-88.42-7.88-29.16-17.29-57.89-25-87.1-15.13-57.36-18.7-115.31-13.78-174.32C17.59,205.95,52.17,94.79,48.98-19.87c-.39-13.97-1.39-27.89-2.98-41.77-.11-.95-1.61-.96-1.5,0h0Z"/>
        </g>
        <g class="cls-36">
          <path class="cls-81" d="M113.31-74.61C90.62-32.99,70.91,11.48,64.86,58.91c-3.16,24.73-1.78,49.34,2.87,73.79,4.91,25.79,12.24,51.05,16.85,76.91,18.96,106.33,5.81,214.64,6.7,321.83,.43,51.73,5.28,102.92,14.19,153.87,8.99,51.45,21.05,102.3,31.95,153.36,11.21,52.54,21.16,105.45,25.33,159.07,4.14,53.19,3.23,106.64,.5,159.88-5.5,107.14-18.45,214.28-12.66,321.69,.72,13.31,1.75,26.6,3.07,39.87,.09,.95,1.6,.96,1.5,0-10.54-106.1,.11-212.48,7.04-318.44,3.48-53.25,6.02-106.65,4.36-160.03s-8.01-101.92-17.52-152.26c-19.56-103.5-49.25-205.44-54.91-311.12-5.65-105.52,8.4-211.27-1.26-316.67-2.32-25.33-6.08-50.5-11.66-75.32-5.93-26.41-13.46-52.62-15.87-79.67-4.54-50.87,10.84-100.9,32.34-146.43,5.29-11.21,11-22.21,16.94-33.09,.46-.85-.83-1.61-1.3-.76h0Z"/>
        </g>
        <g class="cls-36">
          <path class="cls-74" d="M-8.84-81.46c-.8,126.14-10.35,251.77-26.63,376.82-6.06,46.53-11.02,93.11-10.99,140.1,.03,43.83,5.58,87.01,12.96,130.14,21.5,125.7,43.31,251.42,56.35,378.36,6.54,63.71,10.85,127.81,9.64,191.89-1.08,56.84-6.2,114.46-22.18,169.23-7.02,24.04-16.28,47.55-28.84,69.26-10.59,18.29-23.13,35.43-34.05,53.54-35.49,58.9-63.9,122.09-84.62,187.66-3.7,11.7-7.13,23.49-10.35,35.33-.25,.93,1.19,1.33,1.45,.4,17.16-63.2,41.25-124.45,71.98-182.29,13.68-25.75,28.7-50.73,44.87-74.99,11.5-17.27,21.44-35.14,29.24-54.41,20.07-49.6,28.32-103.51,31.99-156.62,4.36-63.06,1.98-126.49-3.06-189.43C18.56,864.56-1.84,736.01-24.41,608.69c-8.16-46.05-16.97-92.16-19.6-138.94s.28-93.69,5.74-140.13c6.69-56.91,14.61-113.58,19.62-170.69C-12.69,90.93-9.04,22.72-7.78-45.54c.22-11.97,.36-23.95,.44-35.92,0-.97-1.49-.97-1.5,0h0Z"/>
        </g>
      </g>
    </g>
    <path class="cls-35" d="M-2751.85,1661.68c428.5-63.96,857-127.92,1285.5-191.88,562.64-45.82,1276.54-87.03,2107.51-95.45,902.53-9.14,1677.9,23.08,2278.11,62.49-17.03,104.64-34.06,209.28-51.09,313.92-1873.34-29.69-3746.69-59.39-5620.03-89.08Z"/>
    <g>
      <path class="cls-62" d="M1994.4,965.92c-14.36-13.34-26.9-33.79-41.26-47.12-1.38-1.28-4.71-2.23-5.02-.58,20.93,18.51,38.13,45.41,55.01,66.23l-8.74-18.53Z"/>
      <path class="cls-62" d="M2585.68,961.7c14.36-13.34,28.72-26.67,43.07-40.01,1.38-1.28,4.71-2.23,5.02-.58-20.93,18.51-39.95,38.3-56.83,59.12l8.74-18.53Z"/>
      <path class="cls-62" d="M2592.15,956.63c-32.96,18.86-76.42,41.66-109.38,60.52-8.63,4.94-17.36,9.92-27.17,13.3-15,5.17-27.63,6.38-31.15,6.76-35.81,3.87-71.01,23.15-112.43,30.78-77.05,14.2-155.6-15.6-204.21-34.04-13.5-5.12-23.34-9.64-26.35-11.03-43-19.91-72.03-43.07-89.83-59.59-.42,1.7-.85,3.41-1.27,5.11,34.27,28.58,65.82,54.64,97.14,80.56,11.52,9.54,25.61,21.26,48.78,32.1,19.83,9.28,42.21,14.73,64.35,20.09,31.19,7.55,62.38,15.11,93.56,22.66,19.08,4.62,38.81,9.3,58.72,7.78,26.26-2.01,49-14.47,69.46-27.3,37.22-23.36,71.56-49.44,102.41-77.78l67.39-69.94Z"/>
      <path class="cls-40" d="M2592.22,956.52c-9.71,8.27-24.65,20.49-44.01,34.34-61.76,44.16-132.2,94.52-230.02,101.05-10.01,.67-50.22,2.88-99.12-7.61-35.44-7.6-59.11-18.36-91-32.87-18.57-8.45-54.31-25.78-94.1-53.36-24.34-16.87-43.11-35.1-56.82-47.59,6.88,10.36,17.12,25.36,30.22,42.94,32.95,44.26,61.99,75.44,67.28,80.93,41.75,43.3,190.31,131.21,340.42,70.94,122.39-49.14,168.57-165.76,177.16-188.76Z"/>
      <path class="cls-62" d="M2255.03,1099.79c6.88,2.13,16.75,4.79,28.97,6.76,11.03,1.78,33.13,5.18,60.78,1.28,10.2-1.44,25.23-4.45,42.03-11.33-13.75,4.21-33.86,8.99-58.76,10.28-31.65,1.64-57.27-3.06-73.01-6.99Z"/>
      <path class="cls-62" d="M2161.75,1090.91c8.22,5.96,19.39,12.77,33.86,18.62,31.81,12.87,62.06,14.01,78.52,13.63-16.88-1.57-38.89-4.92-63.24-12.31-20.23-6.15-36.63-13.43-49.14-19.94Z"/>
      <path class="cls-62" d="M2624.7,908.07c5.76,2.99,13.79,6.62,23.76,9.54,14.13,4.14,25.37,4.74,32.04,5.23,28.51,2.06,53.88-2.91,74.65-9.82v20.5c-9.39,3.34-20.42,6.48-32.85,8.52-17.14,2.82-31.56,2.61-41.23,1.97-23.24-1.55-42.55-7.38-56.72-13.14-.71-2.66-1.38-6.22-1.41-10.43-.04-5.15,.88-9.4,1.77-12.37Z"/>
      <path class="cls-62" d="M1657.85,897.11c43.13,14.41,111.12,30.61,193.72,23.33,39.1-3.45,73-11.41,100.64-20.16,.58,3,1.07,6.21,1.44,9.6,.84,7.74,.84,14.79,.43,20.93-37.49,9.21-88.42,17.81-148.95,16.97-59.87-.83-110.06-10.65-147.06-20.74,.37-6.29,.5-13.03,.28-20.15-.1-3.36-.28-6.62-.51-9.78Z"/>
    </g>
    <g>
      <g>
        <path class="cls-95" d="M2731.71,1424.04c-5.22-8.86-10.78-17.66-16.52-26.14-16.04-23.7-33.63-45.26-55.35-67.84-50.3-52.28-75.53-78.52-111.59-92.92-34.17-13.64-72.5-16.73-113.94-9.18l-.34-1.84c41.79-7.62,80.47-4.49,114.97,9.28,36.43,14.55,61.76,40.88,112.22,93.34,21.81,22.67,39.46,44.31,55.56,68.1,5.76,8.51,11.34,17.34,16.58,26.24l-1.61,.95Z"/>
        <path class="cls-37" d="M2610.28,1278.63c33.26-22.12,53.11-46.91,63.86-62.66,15.31-22.44,32.26-47.06,31.38-81.23-.61-23.64-9.14-41.82-14.77-51.69-18.87,20.61-46.96,56.79-64.61,108.92-11.43,33.77-15.03,64.04-15.86,86.65Z"/>
        <path class="cls-91" d="M2554.14,1083.06c26.49,9.83,35.61,24.91,38.77,31.38,8.37,17.16,5.24,34.36-1.85,68.31-3.36,16.09-9.11,38.72-19.42,65.16-14.97-13.11-21.83-26.19-24.89-37.47-6.32-23.31,3.08-39.1,7.38-75.69,2.59-22.01,1.34-40.22,0-51.69Z"/>
        <path class="cls-60" d="M2458.14,1095.98c11.34,1.45,32.13,5.94,49.84,22.15,27.93,25.56,36.48,69.52,22.16,111.93-19.05-6.72-29.36-16.36-35.08-23.32-13.13-15.97-13.15-31.28-24-70.15-4.98-17.85-9.84-32.01-12.92-40.61Z"/>
        <path class="cls-93" d="M2371.37,1121.83c8.33-1.5,28.77-4.01,51.69,5.54,23.6,9.83,35.93,26.65,40.61,33.23,14.96,20.98,25.48,52.92,26.15,62.46-26.57,3.67-48.03-13.47-55.69-20-13.37-11.4-11.5-26.14-24-46.15-11.32-18.14-27.09-28.84-38.77-35.08Z"/>
        <path class="cls-38" d="M2286.15,1220.29c11.36-8.82,31.83-21.86,59.38-24.61,46.58-4.66,90.65,22.35,88.61,31.38-1.83,8.12-41.86,5.74-71.07,4-32.52-1.94-59.04-6.79-76.92-10.77Z"/>
        <path class="cls-77" d="M2645.34,1313.67c4.25-16.78,16.83-56.98,54.02-91.54,30.38-28.24,62.7-39.26,79.38-43.69-6.93,18.41-19.79,45.63-43.69,72.61-32.69,36.92-69.38,54.6-89.71,62.62Z"/>
        <path class="cls-99" d="M2678.17,1348.59c4.13-12.8,12.21-31.34,28.58-48.31,42.06-43.59,102.37-39.03,112-38.15-11.42,16.34-35.04,45.3-75.07,65.84-25.36,13.02-48.86,18.31-65.5,20.62Z"/>
        <path class="cls-23" d="M2489.83,1223.06c-20.32,2.12-52.98,8.17-88.1,27.38-26.3,14.39-45.13,31.31-57.43,44.31,13.66-.01,30.25-1.52,48.41-6.56,51.67-14.36,83.46-48.33,97.12-65.12Z"/>
        <path class="cls-103" d="M2371.37,1316.9c14.71-15.34,36.28-34.59,65.64-51.69,36.13-21.04,69.83-30.54,93.13-35.14-7.45,10.84-16.97,22.4-29.13,33.5-47.05,42.95-103.37,51.31-129.64,53.33Z"/>
        <path class="cls-78" d="M2571.64,1247.91c-14.1-.38-32.76,.89-53.4,7.45-51.15,16.28-79.43,54-89.43,68.92,16.03-.46,41.99-3.29,70.56-16.41,39.43-18.1,62.2-45.87,72.27-59.96Z"/>
        <path class="cls-100" d="M2610.28,1278.63c-10.72-1.59-22.62-2.23-35.42-1.12-64.49,5.59-107.02,51.66-121.43,68.92,19.62,.26,56.7-1.94,96.82-22.15,28.62-14.42,48.21-32.67,60.04-45.65Z"/>
        <path class="cls-28" d="M2646.96,1315.35c-13.27-.16-29.58,1.14-47.49,6.06-49.97,13.74-80.42,46.93-93.12,62.77,7.94,2.92,41.39,14.18,78.77-1.23,45.22-18.64,59.82-61.31,61.85-67.6Z"/>
        <path class="cls-8" d="M2678.17,1348.59c-12.23,3.49-25.11,7.65-38.5,12.61-22.83,8.47-43.19,17.84-61.03,27.2,19.92,14.3,45.81,16.52,66.78,5.62,26.63-13.84,32.14-42,32.76-45.43Z"/>
        <path class="cls-85" d="M2770.44,1440.02c-.39-13.46-38.07-24.51-64.36-26.96-19.61-1.83-68.47-2.2-128.72,44.36,76.15,27.06,127.58,16.68,153.94,7.83,10.28-3.45,39.49-13.26,39.14-25.22Z"/>
        <path class="cls-63" d="M2791.77,1453.46c11.37-7.22,1.61-45.25-9.71-69.1-8.45-17.79-33.1-59.98-103.9-87.98,15.65,79.28,50.86,118.19,71.93,136.32,8.22,7.08,31.57,27.17,41.68,20.75Z"/>
        <path class="cls-80" d="M2781.34,1521.56c11.42-7.16,3.54-45.63-9.71-69.1-36.16-64.04-140.18-65.64-164.69-65.49,56.01,50.67,100.98,88.2,132.72,113.84,14.64,11.82,32.86,26.28,41.68,20.75Z"/>
      </g>
      <g>
        <path class="cls-51" d="M2726.23,1613.2c-12.61-26.7-29.36-50.07-49.78-69.46-18.35-17.42-44.13-36.94-138.01-66.98-50.46-16.15-102.79-29.58-155.54-39.91l.36-1.83c52.82,10.35,105.22,23.8,155.75,39.97,94.26,30.16,120.22,49.84,138.73,67.41,20.59,19.55,37.48,43.1,50.19,70.01l-1.69,.8Z"/>
        <path class="cls-45" d="M2394.23,1436.14c2.2-6.63-19.19-19.77-32-25.88-21.14-10.09-41.2-11.68-54.34-11.5,4.74,8.73,15.28,24.94,34.91,34.31,21.62,10.32,49.16,9.91,51.43,3.07Z"/>
        <path class="cls-79" d="M2405.84,1440.67c.5-3.47,3.3-25.37-12.23-43.79-18.81-22.29-47.44-19.29-49.61-19.02,20.62,20.94,41.23,41.87,61.85,62.81Z"/>
        <path class="cls-86" d="M2431.97,1443.95c2.79-3.33,6.72-9.02,8.29-16.8,4.56-22.5-14.99-40.7-17.53-43.07-20.47-19.06-48.16-15.05-52.16-14.41,20.47,24.76,40.93,49.52,61.4,74.28Z"/>
        <path class="cls-56" d="M2718.83,1596.85c5.37-12.27,14.86-38.67,10.49-71.91-6.89-52.32-42.99-82.68-51.62-89.55,13.71,53.82,27.42,107.64,41.13,161.46Z"/>
        <path class="cls-66" d="M2698.46,1566.47c2.46-10.8,8.11-42.1-6.94-76.81-18.21-42.01-53.92-59.47-62.8-63.51,23.25,46.77,46.49,93.55,69.74,140.32Z"/>
        <path class="cls-67" d="M2657.58,1527.1c4.32-7.79,11.47-23.44,10.37-43.53-2.3-41.88-38.38-65.2-42.49-67.77,10.71,37.1,21.42,74.2,32.12,111.3Z"/>
        <path class="cls-3" d="M2633.35,1514.21c1.12-2.87,15.02-40.48-8.08-72.21-14.89-20.44-36.34-26.36-42.87-27.89,16.98,33.37,33.96,66.74,50.95,100.1Z"/>
        <path class="cls-94" d="M2593.19,1495.91c1.12-2.87,15.02-40.48-8.08-72.21-14.89-20.44-36.34-26.36-42.87-27.89,16.98,33.37,33.96,66.74,50.95,100.1Z"/>
        <path class="cls-83" d="M2556.85,1483.57c1.12-2.87,15.02-40.48-8.08-72.21-14.89-20.44-36.34-26.36-42.87-27.89,16.98,33.37,33.96,66.74,50.95,100.1Z"/>
        <path class="cls-69" d="M2514.33,1469.16c1.12-2.87,15.02-40.48-8.08-72.21-14.89-20.44-36.34-26.36-42.87-27.89,16.98,33.37,33.96,66.74,50.95,100.1Z"/>
        <path class="cls-104" d="M2469.95,1457.76c1.12-2.87,15.02-40.48-8.08-72.21-14.89-20.44-36.34-26.36-42.87-27.89,16.98,33.37,33.96,66.74,50.95,100.1Z"/>
        <path class="cls-11" d="M2553.9,1558.41c-1.16-4.19-2.38-10.99-.59-18.73,5.17-22.37,30.49-30.84,33.79-31.94,26.53-8.87,50.07,6.24,53.45,8.48-28.88,14.06-57.76,28.12-86.65,42.19Z"/>
        <path class="cls-41" d="M2324.2,1444.36c3,3.31,14.11,14.79,32.04,16.7,27.32,2.91,45.09-19.12,46.26-20.62-26.1,1.31-52.2,2.61-78.3,3.92Z"/>
        <path class="cls-19" d="M2355.78,1451.43c3,3.31,14.11,14.79,32.04,16.7,27.32,2.91,45.09-19.12,46.26-20.62-26.1,1.31-52.2,2.61-78.3,3.92Z"/>
        <path class="cls-5" d="M2367.98,1532.46c.97-6.6,6.6-40.24,37.25-62.38,21.76-15.72,44.36-17.14,53.08-17.24-30.11,26.54-60.22,53.08-90.33,79.62Z"/>
        <path class="cls-29" d="M2412.12,1532.43c.17-3.07,3.09-43.07,37.26-62.38,22.02-12.45,43.99-8.95,50.57-7.64-29.27,23.34-58.55,46.68-87.82,70.02Z"/>
        <path class="cls-96" d="M2445.8,1544.19c.17-3.07,3.09-43.07,37.26-62.38,22.02-12.45,43.99-8.95,50.57-7.64-29.27,23.34-58.55,46.68-87.82,70.02Z"/>
        <path class="cls-13" d="M2478.29,1556.06c.17-3.07,3.09-43.07,37.26-62.38,22.02-12.45,43.99-8.95,50.57-7.64-29.27,23.34-58.55,46.68-87.82,70.02Z"/>
        <path class="cls-92" d="M2512.68,1567.67c.17-3.07,3.09-43.07,37.26-62.38,22.02-12.45,43.99-8.95,50.57-7.64-29.27,23.34-58.55,46.68-87.82,70.02Z"/>
      </g>
    </g>
    <g>
      <path class="cls-6" d="M380.08,1431.19c-22.3,15.16-41.76,24.93-55.62,31.11-35.56,15.86-63.59,21.19-74.71,45.45-2.64,5.76-3.6,11.01-4.01,14.41-2.82-8.76-6.84-25.78-.94-44.31,10.12-31.77,42.29-45.66,59.99-53.31,21.17-9.14,40.26-11.28,52.19-11.74-19.64-5.5-39.28-11-58.92-16.5,3.72-3.28,15.68-13,32.99-13.2,24.01-.28,39.18,17.97,41.63,20.91,2.77,3.33,4.7,6.46,5.98,8.78,7.34-6.76,16.82-13.92,28.75-19.8,42.38-20.88,84.84-10.46,99.45-6.13-21.6,5.06-45.86,12.38-71.64,23.1-12.72,5.29-24.51,10.86-35.35,16.5,2.12-1.27,29.05-16.82,57.5-3.3,21.23,10.08,34.73,32.26,34.41,56.56-14.35-10.31-33.52-22.08-57.5-32.05-20.21-8.4-38.78-13.42-54.2-16.5Z"/>
      <path class="cls-49" d="M2083.44,1398.89c-18.24,9.84-36.79,20.2-55.62,31.11-26.06,15.11-50.96,30.3-74.71,45.45,.5-11.03,3.36-38.92,24.31-61.5,11.32-12.21,23.71-18.31,30.74-21.7,21.33-10.27,40.97-11.75,52.19-11.74h21.68c-12.51-11.77-12.18-17.72-11.28-20.3,4.61-13.15,48.56-7.9,55.15-7.07-3.93,2.01-8.66,4.94-13.43,9.19-9.01,8.04-13.8,16.94-16.26,22.62,3.26-1.25,36.05-13.23,64.54,5.92,25.18,16.92,36.32,50.97,25.96,83.16-20.74-13.24-42.29-28.03-64.34-44.54-13.68-10.25-26.65-20.48-38.92-30.61Z"/>
    </g>
  </g>
</svg>