<?xml version="1.0" encoding="UTF-8"?>
<svg id="_Слой_1" data-name="Слой 1" xmlns="http://www.w3.org/2000/svg" xmlns:xlink="http://www.w3.org/1999/xlink" viewBox="0 0 2229.8 814.68">
  <defs>
    <style>
      .cls-1 {
        fill: url(#_Безымянный_градиент_23-5);
      }

      .cls-2 {
        fill: url(#_Безымянный_градиент_17-15);
      }

      .cls-3 {
        fill: url(#_Безымянный_градиент_14-8);
      }

      .cls-4 {
        clip-path: url(#clippath-11);
      }

      .cls-5 {
        fill: url(#_Безымянный_градиент_17-32);
      }

      .cls-6 {
        fill: url(#_Безымянный_градиент_14-21);
      }

      .cls-7 {
        fill: url(#_Безымянный_градиент_14-16);
      }

      .cls-8 {
        fill: url(#_Безымянный_градиент_16-18);
      }

      .cls-9 {
        fill: url(#_Безымянный_градиент_20-2);
      }

      .cls-10 {
        fill: url(#_Безымянный_градиент_16-14);
      }

      .cls-11 {
        fill: url(#_Безымянный_градиент_17);
      }

      .cls-12 {
        clip-path: url(#clippath-2);
      }

      .cls-13 {
        fill: url(#_Безымянный_градиент_14-13);
      }

      .cls-14 {
        fill: url(#_Безымянный_градиент_17-26);
      }

      .cls-15 {
        fill: url(#_Безымянный_градиент_14-19);
      }

      .cls-16 {
        fill: url(#_Безымянный_градиент_17-20);
      }

      .cls-17 {
        fill: url(#_Безымянный_градиент_12-9);
      }

      .cls-18 {
        fill: url(#_Безымянный_градиент_12-8);
      }

      .cls-19 {
        fill: url(#_Безымянный_градиент_12-7);
      }

      .cls-20 {
        fill: #9b903d;
      }

      .cls-21 {
        fill: url(#_Безымянный_градиент_14-15);
      }

      .cls-22 {
        clip-path: url(#clippath-6);
      }

      .cls-23 {
        fill: url(#_Безымянный_градиент_12-2);
      }

      .cls-24 {
        fill: #635818;
      }

      .cls-25 {
        fill: url(#_Безымянный_градиент_12-6);
      }

      .cls-26 {
        fill: url(#_Безымянный_градиент_16-9);
      }

      .cls-27 {
        fill: url(#_Безымянный_градиент_17-27);
      }

      .cls-28 {
        fill: url(#_Безымянный_градиент_17-17);
      }

      .cls-29 {
        fill: url(#_Безымянный_градиент_12-4);
      }

      .cls-30 {
        fill: url(#_Безымянный_градиент_12-3);
      }

      .cls-31 {
        fill: url(#_Безымянный_градиент_16-13);
      }

      .cls-32 {
        fill: url(#_Безымянный_градиент_14-17);
      }

      .cls-33 {
        clip-path: url(#clippath-7);
      }

      .cls-34 {
        fill: url(#_Безымянный_градиент_23-3);
      }

      .cls-35 {
        fill: #806337;
      }

      .cls-36 {
        clip-path: url(#clippath-1);
      }

      .cls-37 {
        clip-path: url(#clippath-4);
      }

      .cls-38 {
        fill: url(#_Безымянный_градиент_23-2);
      }

      .cls-39 {
        fill: url(#_Безымянный_градиент_20-4);
      }

      .cls-40 {
        opacity: .15;
      }

      .cls-41 {
        fill: url(#_Безымянный_градиент_16-2);
      }

      .cls-42 {
        fill: url(#_Безымянный_градиент_16-6);
      }

      .cls-43 {
        fill: url(#_Безымянный_градиент_23);
      }

      .cls-44 {
        fill: url(#_Безымянный_градиент_17-30);
      }

      .cls-45 {
        fill: #010873;
      }

      .cls-46 {
        fill: url(#_Безымянный_градиент_14-14);
      }

      .cls-47 {
        fill: url(#_Безымянный_градиент_17-22);
      }

      .cls-48 {
        fill: url(#_Безымянный_градиент_17-10);
      }

      .cls-49 {
        fill: url(#_Безымянный_градиент_17-12);
      }

      .cls-50 {
        fill: url(#_Безымянный_градиент_14-2);
      }

      .cls-51 {
        fill: url(#_Безымянный_градиент_17-9);
      }

      .cls-52 {
        fill: url(#_Безымянный_градиент_17-8);
      }

      .cls-53 {
        clip-path: url(#clippath-9);
      }

      .cls-54 {
        fill: url(#_Безымянный_градиент_16-19);
      }

      .cls-55 {
        clip-path: url(#clippath);
      }

      .cls-56 {
        fill: url(#_Безымянный_градиент_14);
      }

      .cls-57 {
        fill: url(#_Безымянный_градиент_17-18);
      }

      .cls-58 {
        fill: url(#_Безымянный_градиент_17-31);
      }

      .cls-59 {
        fill: url(#_Безымянный_градиент_17-23);
      }

      .cls-60 {
        fill: url(#_Безымянный_градиент_17-5);
      }

      .cls-61 {
        fill: url(#_Безымянный_градиент_17-21);
      }

      .cls-62 {
        fill: url(#_Безымянный_градиент_14-5);
      }

      .cls-63 {
        fill: url(#_Безымянный_градиент_17-19);
      }

      .cls-64 {
        fill: none;
      }

      .cls-65 {
        fill: url(#_Безымянный_градиент_16-4);
      }

      .cls-66 {
        clip-path: url(#clippath-3);
      }

      .cls-67 {
        fill: #020b60;
      }

      .cls-68 {
        fill: url(#_Безымянный_градиент_16-16);
      }

      .cls-69 {
        fill: url(#_Безымянный_градиент_17-25);
      }

      .cls-70 {
        clip-path: url(#clippath-8);
      }

      .cls-71 {
        fill: url(#_Безымянный_градиент_14-6);
      }

      .cls-72 {
        fill: url(#_Безымянный_градиент_14-7);
      }

      .cls-73 {
        fill: url(#_Безымянный_градиент_17-24);
      }

      .cls-74 {
        fill: url(#_Безымянный_градиент_14-11);
      }

      .cls-75 {
        fill: url(#_Безымянный_градиент_12);
      }

      .cls-76 {
        fill: url(#_Безымянный_градиент_17-33);
      }

      .cls-77 {
        fill: url(#_Безымянный_градиент_17-2);
      }

      .cls-78 {
        fill: url(#_Безымянный_градиент_12-5);
      }

      .cls-79 {
        fill: url(#_Безымянный_градиент_23-4);
      }

      .cls-80 {
        fill: url(#_Безымянный_градиент_17-29);
      }

      .cls-81 {
        fill: url(#_Безымянный_градиент_5);
      }

      .cls-82 {
        clip-path: url(#clippath-5);
      }

      .cls-83 {
        fill: url(#_Безымянный_градиент_16-7);
      }

      .cls-84 {
        fill: url(#_Безымянный_градиент_16-11);
      }

      .cls-85 {
        fill: url(#_Безымянный_градиент_14-3);
      }

      .cls-86 {
        fill: url(#_Безымянный_градиент_16-17);
      }

      .cls-87 {
        fill: url(#_Безымянный_градиент_17-28);
      }

      .cls-88 {
        fill: url(#_Безымянный_градиент_17-3);
      }

      .cls-89 {
        fill: url(#_Безымянный_градиент_14-10);
      }

      .cls-90 {
        fill: url(#_Безымянный_градиент_17-16);
      }

      .cls-91 {
        fill: url(#_Безымянный_градиент_16-15);
      }

      .cls-92 {
        fill: url(#_Безымянный_градиент_14-4);
      }

      .cls-93 {
        clip-path: url(#clippath-10);
      }

      .cls-94 {
        fill: url(#_Безымянный_градиент_16-20);
      }

      .cls-95 {
        fill: url(#_Безымянный_градиент_17-4);
      }

      .cls-96 {
        fill: url(#_Безымянный_градиент_17-13);
      }

      .cls-97 {
        fill: url(#_Безымянный_градиент_17-11);
      }

      .cls-98 {
        fill: url(#_Безымянный_градиент_16-3);
      }

      .cls-99 {
        fill: url(#_Безымянный_градиент_14-20);
      }

      .cls-100 {
        fill: url(#_Безымянный_градиент_16-5);
      }

      .cls-101 {
        fill: url(#_Безымянный_градиент_14-9);
      }

      .cls-102 {
        fill: url(#_Безымянный_градиент_16);
      }

      .cls-103 {
        fill: url(#_Безымянный_градиент_14-18);
      }

      .cls-104 {
        fill: url(#_Безымянный_градиент_17-14);
      }

      .cls-105 {
        fill: url(#_Безымянный_градиент_17-6);
      }

      .cls-106 {
        fill: url(#_Безымянный_градиент_16-8);
      }

      .cls-107 {
        fill: url(#_Безымянный_градиент_16-12);
      }

      .cls-108 {
        fill: url(#_Безымянный_градиент_17-7);
      }

      .cls-109 {
        fill: url(#_Безымянный_градиент_20-3);
      }

      .cls-110 {
        fill: url(#_Безымянный_градиент_16-10);
      }

      .cls-111 {
        fill: url(#_Безымянный_градиент_14-12);
      }

      .cls-112 {
        fill: url(#_Безымянный_градиент_20);
        opacity: .43;
      }
    </style>
    <clipPath id="clippath">
      <rect class="cls-64" x="0" width="2229.8" height="814.68"/>
    </clipPath>
    <linearGradient id="_Безымянный_градиент_5" data-name="Безымянный градиент 5" x1="291.03" y1="407.34" x2="2520.83" y2="407.34" gradientUnits="userSpaceOnUse">
      <stop offset="0" stop-color="#33431c"/>
      <stop offset="1" stop-color="#fcee5a"/>
    </linearGradient>
    <clipPath id="clippath-1">
      <rect class="cls-81" x="0" width="2229.8" height="814.68"/>
    </clipPath>
    <linearGradient id="_Безымянный_градиент_20" data-name="Безымянный градиент 20" x1="-640.38" y1="88.62" x2="2785.3" y2="88.62" gradientUnits="userSpaceOnUse">
      <stop offset=".66" stop-color="#33431c"/>
      <stop offset="1" stop-color="#fcee5a"/>
    </linearGradient>
    <clipPath id="clippath-2">
      <path class="cls-35" d="M665.99,947.15h77.62c6.3-35.8,12.6-71.6,18.91-107.4-6.65-33.56-13.3-67.12-19.96-100.68v-175.81s0-127.73,0-127.73c-.01-69.19-.03-67.29,0-76.64,.25-77.13,1.19-94.05,1.05-144.25-.12-45.41-1-73.16-1.58-100.68-1.17-55.79-1.69-137.48,1.58-246.43-25.87,0-51.75,0-77.62,0,2.76,43.25,6.01,106.55,6.99,183.7,.35,27.5,.23,50.26,0,95.79-.1,19.44-.54,96.17-3.57,253.49-1.22,63.45-1.35,61.47-1.94,98.13-1.22,75.72-1.52,137.66-1.58,179.19-3.41,53.72-6.83,107.44-10.24,161.16,3.45,36.05,6.89,72.1,10.34,108.15Z"/>
    </clipPath>
    <linearGradient id="_Безымянный_градиент_17" data-name="Безымянный градиент 17" x1="621.72" y1="376.59" x2="697.85" y2="376.59" gradientUnits="userSpaceOnUse">
      <stop offset="0" stop-color="#f8b958"/>
      <stop offset="1" stop-color="#472816"/>
    </linearGradient>
    <linearGradient id="_Безымянный_градиент_17-2" data-name="Безымянный градиент 17" x1="695.32" y1="390.86" x2="730.1" y2="390.86" xlink:href="#_Безымянный_градиент_17"/>
    <linearGradient id="_Безымянный_градиент_17-3" data-name="Безымянный градиент 17" x1="725.42" y1="437.01" x2="765.7" y2="437.01" xlink:href="#_Безымянный_градиент_17"/>
    <linearGradient id="_Безымянный_градиент_20-2" data-name="Безымянный градиент 20" x1="1111.76" y1="1186.33" x2="1116.14" y2="385.11" xlink:href="#_Безымянный_градиент_20"/>
    <clipPath id="clippath-3">
      <path class="cls-35" d="M481.82,947.15h77.62c6.3-35.8,12.6-71.6,18.91-107.4-6.65-33.56-13.3-67.12-19.96-100.68v-175.81s0-127.73,0-127.73c-.01-69.19-.03-67.29,0-76.64,.25-77.13,1.19-94.05,1.05-144.25-.12-45.41-1-73.16-1.58-100.68-1.17-55.79-1.69-137.48,1.58-246.43-25.87,0-51.75,0-77.62,0,2.76,43.25,6.01,106.55,6.99,183.7,.35,27.5,.23,50.26,0,95.79-.1,19.44-.54,96.17-3.57,253.49-1.22,63.45-1.35,61.47-1.94,98.13-1.22,75.72-1.52,137.66-1.58,179.19-3.41,53.72-6.83,107.44-10.24,161.16,3.45,36.05,6.89,72.1,10.34,108.15Z"/>
    </clipPath>
    <linearGradient id="_Безымянный_градиент_17-4" data-name="Безымянный градиент 17" x1="475.5" y1="366.22" x2="507.99" y2="366.22" xlink:href="#_Безымянный_градиент_17"/>
    <linearGradient id="_Безымянный_градиент_17-5" data-name="Безымянный градиент 17" x1="536.71" y1="369.14" x2="561.84" y2="369.14" xlink:href="#_Безымянный_градиент_17"/>
    <linearGradient id="_Безымянный_градиент_17-6" data-name="Безымянный градиент 17" x1="504.75" y1="358.13" x2="530.4" y2="358.13" xlink:href="#_Безымянный_градиент_17"/>
    <clipPath id="clippath-4">
      <path class="cls-35" d="M223.38,962.66h77.62c6.3-35.8,12.6-71.6,18.91-107.4-6.65-33.56-13.3-67.12-19.96-100.68v-175.81s0-127.73,0-127.73c-.01-69.19-.03-67.29,0-76.64,.25-77.13,1.19-94.05,1.05-144.25-.12-45.41-1-73.16-1.58-100.68-1.17-55.79-1.69-137.48,1.58-246.43-25.87,0-51.75,0-77.62,0,2.76,43.25,6.01,106.55,6.99,183.7,.35,27.5,.23,50.26,0,95.79-.1,19.44-.54,96.17-3.57,253.49-1.22,63.45-1.35,61.47-1.94,98.13-1.22,75.72-1.52,137.66-1.58,179.19-3.41,53.72-6.83,107.44-10.24,161.16,3.45,36.05,6.89,72.1,10.34,108.15Z"/>
    </clipPath>
    <linearGradient id="_Безымянный_градиент_17-7" data-name="Безымянный градиент 17" x1="272.31" y1="247.9" x2="306.12" y2="247.9" xlink:href="#_Безымянный_градиент_17"/>
    <linearGradient id="_Безымянный_градиент_17-8" data-name="Безымянный градиент 17" x1="250.11" y1="291.58" x2="326.47" y2="291.58" xlink:href="#_Безымянный_градиент_17"/>
    <linearGradient id="_Безымянный_градиент_17-9" data-name="Безымянный градиент 17" x1="224.88" y1="617.66" x2="294.16" y2="617.66" xlink:href="#_Безымянный_градиент_17"/>
    <clipPath id="clippath-5">
      <path class="cls-35" d="M1136.64,933.25h77.62c6.3-35.8,12.6-71.6,18.91-107.4-6.65-33.56-13.3-67.12-19.96-100.68,0-58.6,0-117.21,0-175.81v-127.73c-.01-69.19-.03-67.29,0-76.64,.25-77.13,1.19-94.05,1.05-144.25-.12-45.41-1-73.16-1.58-100.68-1.17-55.79-1.69-137.48,1.58-246.43-25.87,0-51.75,0-77.62,0,2.76,43.25,6.01,106.55,6.99,183.7,.35,27.5,.23,50.26,0,95.79-.1,19.44-.54,96.17-3.57,253.49-1.22,63.45-1.35,61.47-1.94,98.13-1.22,75.72-1.52,137.66-1.58,179.19-3.41,53.72-6.83,107.44-10.24,161.16,3.45,36.05,6.89,72.1,10.34,108.15Z"/>
    </clipPath>
    <linearGradient id="_Безымянный_градиент_17-10" data-name="Безымянный градиент 17" x1="1081.75" y1="376.94" x2="1166.83" y2="376.94" xlink:href="#_Безымянный_градиент_17"/>
    <linearGradient id="_Безымянный_градиент_17-11" data-name="Безымянный градиент 17" x1="1161.1" y1="382.99" x2="1181.03" y2="382.99" xlink:href="#_Безымянный_градиент_17"/>
    <linearGradient id="_Безымянный_градиент_17-12" data-name="Безымянный градиент 17" x1="1191.34" y1="401.39" x2="1224.4" y2="401.39" xlink:href="#_Безымянный_градиент_17"/>
    <clipPath id="clippath-6">
      <path class="cls-35" d="M1839.21,933.25h77.62c6.3-35.8,12.6-71.6,18.91-107.4-6.65-33.56-13.3-67.12-19.96-100.68,0-58.6,0-117.21,0-175.81v-127.73c-.01-69.19-.03-67.29,0-76.64,.25-77.13,1.19-94.05,1.05-144.25-.12-45.41-1-73.16-1.58-100.68-1.17-55.79-1.69-137.48,1.58-246.43-25.87,0-51.75,0-77.62,0,2.76,43.25,6.01,106.55,6.99,183.7,.35,27.5,.23,50.26,0,95.79-.1,19.44-.54,96.17-3.57,253.49-1.22,63.45-1.35,61.47-1.94,98.13-1.22,75.72-1.52,137.66-1.58,179.19-3.41,53.72-6.83,107.44-10.24,161.16,3.45,36.05,6.89,72.1,10.34,108.15Z"/>
    </clipPath>
    <linearGradient id="_Безымянный_градиент_17-13" data-name="Безымянный градиент 17" x1="1860.18" y1="449.03" x2="1960.5" y2="449.03" xlink:href="#_Безымянный_градиент_17"/>
    <linearGradient id="_Безымянный_градиент_17-14" data-name="Безымянный градиент 17" x1="1707.68" y1="427.62" x2="1878.08" y2="427.62" xlink:href="#_Безымянный_градиент_17"/>
    <linearGradient id="_Безымянный_градиент_17-15" data-name="Безымянный градиент 17" x1="1851.09" y1="417.19" x2="1890.6" y2="417.19" xlink:href="#_Безымянный_градиент_17"/>
    <linearGradient id="_Безымянный_градиент_20-3" data-name="Безымянный градиент 20" x1="1121.93" y1="1283.34" x2="1126.31" y2="482.12" xlink:href="#_Безымянный_градиент_20"/>
    <linearGradient id="_Безымянный_градиент_16" data-name="Безымянный градиент 16" x1="38.26" y1="729.47" x2="38.38" y2="708.28" gradientUnits="userSpaceOnUse">
      <stop offset="0" stop-color="#437a03"/>
      <stop offset="1" stop-color="#33431c"/>
    </linearGradient>
    <linearGradient id="_Безымянный_градиент_23" data-name="Безымянный градиент 23" x1="1945.67" y1="699.59" x2="1945.88" y2="660.94" gradientUnits="userSpaceOnUse">
      <stop offset="0" stop-color="#3a5b01"/>
      <stop offset="1" stop-color="#4a5723"/>
    </linearGradient>
    <linearGradient id="_Безымянный_градиент_23-2" data-name="Безымянный градиент 23" x1="1735.77" y1="735.15" x2="1736.18" y2="660.62" gradientTransform="translate(3563.32) rotate(-180) scale(1 -1)" xlink:href="#_Безымянный_градиент_23"/>
    <linearGradient id="_Безымянный_градиент_23-3" data-name="Безымянный градиент 23" x1="3256.87" y1="726.06" x2="3257.27" y2="651.52" gradientTransform="translate(3563.32) rotate(-180) scale(1 -1)" xlink:href="#_Безымянный_градиент_23"/>
    <linearGradient id="_Безымянный_градиент_23-4" data-name="Безымянный градиент 23" x1="3556.99" y1="695.36" x2="3557.4" y2="620.83" gradientTransform="translate(3563.32) rotate(-180) scale(1 -1)" xlink:href="#_Безымянный_градиент_23"/>
    <linearGradient id="_Безымянный_градиент_23-5" data-name="Безымянный градиент 23" x1="1575.83" y1="731.08" x2="1575.95" y2="708.84" gradientTransform="translate(3563.32) rotate(-180) scale(1 -1)" xlink:href="#_Безымянный_градиент_23"/>
    <linearGradient id="_Безымянный_градиент_12" data-name="Безымянный градиент 12" x1="268.25" y1="2398.98" x2="286.96" y2="-1026.21" gradientTransform="translate(668.74) rotate(-180) scale(1 -1)" gradientUnits="userSpaceOnUse">
      <stop offset="0" stop-color="#563114"/>
      <stop offset="1" stop-color="#744d30"/>
    </linearGradient>
    <clipPath id="clippath-7">
      <path class="cls-75" d="M330.32,947.15h111.05c9.02-35.8,18.03-71.6,27.05-107.4-9.52-33.56-19.03-67.12-28.55-100.68,0-58.6,0-117.21,0-175.81v-127.73c-.02-69.19-.04-67.29,0-76.64,.36-77.13,1.7-94.05,1.5-144.25-.18-45.41-1.43-73.16-2.25-100.68-1.68-55.79-2.42-137.48,2.25-246.43-37.02,0-74.04,0-111.05,0,3.96,43.25,8.6,106.55,10,183.7,.5,27.5,.33,50.26,0,95.79-.14,19.44-.77,96.17-5.11,253.49-1.75,63.45-1.94,61.47-2.78,98.13-1.74,75.72-2.17,137.66-2.25,179.19-4.88,53.72-9.77,107.44-14.65,161.16,4.93,36.05,9.86,72.1,14.79,108.15Z"/>
    </clipPath>
    <linearGradient id="_Безымянный_градиент_17-16" data-name="Безымянный градиент 17" x1="282.99" y1="416.69" x2="368.6" y2="416.69" xlink:href="#_Безымянный_градиент_17"/>
    <linearGradient id="_Безымянный_градиент_17-17" data-name="Безымянный градиент 17" x1="400.88" y1="425.89" x2="431.16" y2="425.89" xlink:href="#_Безымянный_градиент_17"/>
    <linearGradient id="_Безымянный_градиент_17-18" data-name="Безымянный градиент 17" x1="364.07" y1="409.96" x2="391.02" y2="409.96" xlink:href="#_Безымянный_градиент_17"/>
    <linearGradient id="_Безымянный_градиент_17-19" data-name="Безымянный градиент 17" x1="427.88" y1="419.75" x2="513.9" y2="419.75" xlink:href="#_Безымянный_градиент_17"/>
    <linearGradient id="_Безымянный_градиент_12-2" data-name="Безымянный градиент 12" x1="2202.07" y1="2346.62" x2="2220.95" y2="-1108.52" gradientTransform="matrix(1, 0, 0, 1, 0, 0)" xlink:href="#_Безымянный_градиент_12"/>
    <linearGradient id="_Безымянный_градиент_12-3" data-name="Безымянный градиент 12" x1="2202.07" y1="2346.62" x2="2220.95" y2="-1108.52" gradientTransform="matrix(1, 0, 0, 1, 0, 0)" xlink:href="#_Безымянный_градиент_12"/>
    <clipPath id="clippath-8">
      <path class="cls-30" d="M2272.86,882.1h-112.02c-9.09-36.11-18.19-72.23-27.28-108.34,9.6-33.85,19.2-67.71,28.8-101.56V366.01c.02-69.8,.04-67.88,0-77.31-.37-77.81-1.71-94.87-1.52-145.52,.18-45.81,1.44-73.8,2.27-101.56,1.69-56.28,2.44-138.68-2.27-248.59h112.02c-3.99,43.63-8.67,107.48-10.09,185.31-.51,27.74-.34,50.7,0,96.63,.14,19.61,.78,97.02,5.15,255.71,1.76,64.01,1.95,62,2.81,98.99,1.76,76.39,2.19,138.87,2.27,180.76,4.93,54.19,9.85,108.38,14.78,162.57-4.97,36.37-9.95,72.73-14.92,109.1Z"/>
    </clipPath>
    <linearGradient id="_Безымянный_градиент_17-20" data-name="Безымянный градиент 17" x1="2172.09" y1="326.3" x2="2201.4" y2="326.3" xlink:href="#_Безымянный_градиент_17"/>
    <linearGradient id="_Безымянный_градиент_17-21" data-name="Безымянный градиент 17" x1="2205.16" y1="359.89" x2="2234.19" y2="359.89" xlink:href="#_Безымянный_градиент_17"/>
    <linearGradient id="_Безымянный_градиент_17-22" data-name="Безымянный градиент 17" x1="2111.48" y1="413.77" x2="2176.09" y2="413.77" xlink:href="#_Безымянный_градиент_17"/>
    <linearGradient id="_Безымянный_градиент_12-4" data-name="Безымянный градиент 12" x1="1706.13" y1="2390.31" x2="1725.02" y2="-1065.7" gradientTransform="matrix(1, 0, 0, 1, 0, 0)" xlink:href="#_Безымянный_градиент_12"/>
    <linearGradient id="_Безымянный_градиент_12-5" data-name="Безымянный градиент 12" x1="1706.13" y1="2390.31" x2="1725.02" y2="-1065.7" gradientTransform="matrix(1, 0, 0, 1, 0, 0)" xlink:href="#_Безымянный_градиент_12"/>
    <clipPath id="clippath-9">
      <path class="cls-78" d="M1804.65,925.3h-161.96c-13.15-36.11-26.3-72.23-39.45-108.34,13.88-33.85,27.76-67.71,41.64-101.56V409.21c.02-69.8,.06-67.88,0-77.31-.53-77.81-2.47-94.87-2.19-145.52,.26-45.81,2.08-73.8,3.29-101.56,2.45-56.28,3.52-138.68-3.29-248.59h161.96c-5.77,43.63-12.54,107.48-14.58,185.31-.73,27.74-.49,50.7,0,96.63,.21,19.61,1.12,97.02,7.45,255.71,2.55,64.01,2.83,62,4.06,98.99,2.54,76.39,3.17,138.87,3.29,180.76,7.12,54.19,14.24,108.38,21.37,162.57-7.19,36.37-14.38,72.73-21.58,109.1Z"/>
    </clipPath>
    <linearGradient id="_Безымянный_градиент_17-23" data-name="Безымянный градиент 17" x1="1725.35" y1="389.32" x2="1768.84" y2="389.32" xlink:href="#_Безымянный_градиент_17"/>
    <linearGradient id="_Безымянный_градиент_17-24" data-name="Безымянный градиент 17" x1="1645.97" y1="403.5" x2="1701.88" y2="403.5" xlink:href="#_Безымянный_градиент_17"/>
    <linearGradient id="_Безымянный_градиент_17-25" data-name="Безымянный градиент 17" x1="1553.27" y1="432.15" x2="1676.3" y2="432.15" xlink:href="#_Безымянный_градиент_17"/>
    <linearGradient id="_Безымянный_градиент_17-26" data-name="Безымянный градиент 17" x1="1697.14" y1="384.15" x2="1748.7" y2="384.15" xlink:href="#_Безымянный_градиент_17"/>
    <linearGradient id="_Безымянный_градиент_12-6" data-name="Безымянный градиент 12" x1="1499.5" y1="2380.73" x2="1518.38" y2="-1074.41" gradientTransform="matrix(1, 0, 0, 1, 0, 0)" xlink:href="#_Безымянный_градиент_12"/>
    <linearGradient id="_Безымянный_градиент_12-7" data-name="Безымянный градиент 12" x1="1499.5" y1="2380.73" x2="1518.38" y2="-1074.41" gradientTransform="matrix(1, 0, 0, 1, 0, 0)" xlink:href="#_Безымянный_градиент_12"/>
    <clipPath id="clippath-10">
      <path class="cls-19" d="M1570.29,916.2h-112.02c-9.09-36.11-18.19-72.23-27.28-108.34,9.6-33.85,19.2-67.71,28.8-101.56V400.12c.02-69.8,.04-67.88,0-77.31-.37-77.81-1.71-94.87-1.52-145.52,.18-45.81,1.44-73.8,2.27-101.56,1.69-56.28,2.44-138.68-2.27-248.59h112.02c-3.99,43.63-8.67,107.48-10.09,185.31-.51,27.74-.34,50.7,0,96.63,.14,19.61,.78,97.02,5.15,255.71,1.76,64.01,1.95,62,2.81,98.99,1.76,76.39,2.19,138.87,2.27,180.76,4.93,54.19,9.85,108.38,14.78,162.57-4.97,36.37-9.95,72.73-14.92,109.1Z"/>
    </clipPath>
    <linearGradient id="_Безымянный_градиент_17-27" data-name="Безымянный градиент 17" x1="1450.48" y1="388.78" x2="1489.13" y2="388.78" xlink:href="#_Безымянный_градиент_17"/>
    <linearGradient id="_Безымянный_градиент_17-28" data-name="Безымянный градиент 17" x1="1538.39" y1="405.25" x2="1598.18" y2="405.25" xlink:href="#_Безымянный_градиент_17"/>
    <linearGradient id="_Безымянный_градиент_17-29" data-name="Безымянный градиент 17" x1="1496.79" y1="377.78" x2="1531.72" y2="377.78" xlink:href="#_Безымянный_градиент_17"/>
    <linearGradient id="_Безымянный_градиент_12-8" data-name="Безымянный градиент 12" x1="145.36" y1="2922.82" x2="170.91" y2="-1752.9" gradientTransform="matrix(1, 0, 0, 1, 0, 0)" xlink:href="#_Безымянный_градиент_12"/>
    <linearGradient id="_Безымянный_градиент_12-9" data-name="Безымянный градиент 12" x1="145.36" y1="2922.82" x2="170.91" y2="-1752.9" gradientTransform="matrix(1, 0, 0, 1, 0, 0)" xlink:href="#_Безымянный_градиент_12"/>
    <clipPath id="clippath-11">
      <path class="cls-17" d="M241.15,940.93H89.55c-12.31-48.87-24.62-97.74-36.92-146.61,12.99-45.81,25.98-91.62,38.97-137.43V242.53c.02-94.46,.06-91.86,0-104.61-.5-105.29-2.32-128.39-2.05-196.92,.24-61.99,1.95-99.87,3.08-137.43,2.29-76.16,3.3-187.67-3.08-336.41H241.15c-5.4,59.05-11.73,145.45-13.65,250.77-.68,37.54-.46,68.61,0,130.77,.19,26.54,1.05,131.29,6.97,346.04,2.39,86.62,2.64,83.91,3.8,133.95,2.38,103.37,2.97,187.92,3.08,244.61,6.67,73.33,13.33,146.67,20,220-6.73,49.21-13.46,98.42-20.2,147.64Z"/>
    </clipPath>
    <linearGradient id="_Безымянный_градиент_17-30" data-name="Безымянный градиент 17" x1="50.56" y1="452.85" x2="131.59" y2="452.85" xlink:href="#_Безымянный_градиент_17"/>
    <linearGradient id="_Безымянный_градиент_17-31" data-name="Безымянный градиент 17" x1="163.74" y1="451.27" x2="213.21" y2="451.27" xlink:href="#_Безымянный_градиент_17"/>
    <linearGradient id="_Безымянный_градиент_17-32" data-name="Безымянный градиент 17" x1="195.22" y1="387.62" x2="250.69" y2="387.62" xlink:href="#_Безымянный_градиент_17"/>
    <linearGradient id="_Безымянный_градиент_17-33" data-name="Безымянный градиент 17" x1="82.35" y1="421.05" x2="179.46" y2="421.05" xlink:href="#_Безымянный_градиент_17"/>
    <linearGradient id="_Безымянный_градиент_20-4" data-name="Безымянный градиент 20" x1="798.63" y1="1195.22" x2="802.05" y2="569.89" xlink:href="#_Безымянный_градиент_20"/>
    <linearGradient id="_Безымянный_градиент_16-2" data-name="Безымянный градиент 16" x1="2060.31" y1="709.13" x2="2220.75" y2="709.13" xlink:href="#_Безымянный_градиент_16"/>
    <linearGradient id="_Безымянный_градиент_16-3" data-name="Безымянный градиент 16" x1="2073.56" y1="504.9" x2="2226.15" y2="694.88" xlink:href="#_Безымянный_градиент_16"/>
    <linearGradient id="_Безымянный_градиент_16-4" data-name="Безымянный градиент 16" x1="2051.17" y1="522.88" x2="2203.76" y2="712.86" xlink:href="#_Безымянный_градиент_16"/>
    <linearGradient id="_Безымянный_градиент_16-5" data-name="Безымянный градиент 16" x1="2030.03" y1="539.86" x2="2182.62" y2="729.84" xlink:href="#_Безымянный_градиент_16"/>
    <linearGradient id="_Безымянный_градиент_16-6" data-name="Безымянный градиент 16" x1="2007.54" y1="557.93" x2="2160.13" y2="747.91" xlink:href="#_Безымянный_градиент_16"/>
    <linearGradient id="_Безымянный_градиент_16-7" data-name="Безымянный градиент 16" x1="1968.09" y1="589.61" x2="2120.67" y2="779.59" xlink:href="#_Безымянный_градиент_16"/>
    <linearGradient id="_Безымянный_градиент_16-8" data-name="Безымянный градиент 16" x1="2076.54" y1="502.5" x2="2229.13" y2="692.48" xlink:href="#_Безымянный_градиент_16"/>
    <linearGradient id="_Безымянный_градиент_16-9" data-name="Безымянный градиент 16" x1="2072.89" y1="505.44" x2="2225.47" y2="695.42" xlink:href="#_Безымянный_градиент_16"/>
    <linearGradient id="_Безымянный_градиент_16-10" data-name="Безымянный градиент 16" x1="1977.08" y1="582.39" x2="2129.67" y2="772.37" xlink:href="#_Безымянный_градиент_16"/>
    <linearGradient id="_Безымянный_градиент_16-11" data-name="Безымянный градиент 16" x1="1984.24" y1="576.64" x2="2136.83" y2="766.62" xlink:href="#_Безымянный_градиент_16"/>
    <linearGradient id="_Безымянный_градиент_16-12" data-name="Безымянный градиент 16" x1="1997.05" y1="566.35" x2="2149.64" y2="756.33" xlink:href="#_Безымянный_градиент_16"/>
    <linearGradient id="_Безымянный_градиент_16-13" data-name="Безымянный градиент 16" x1="2000.44" y1="563.63" x2="2153.03" y2="753.61" xlink:href="#_Безымянный_градиент_16"/>
    <linearGradient id="_Безымянный_градиент_16-14" data-name="Безымянный градиент 16" x1="2005.29" y1="559.73" x2="2157.88" y2="749.71" xlink:href="#_Безымянный_градиент_16"/>
    <linearGradient id="_Безымянный_градиент_16-15" data-name="Безымянный градиент 16" x1="2017.25" y1="550.12" x2="2169.84" y2="740.1" xlink:href="#_Безымянный_градиент_16"/>
    <linearGradient id="_Безымянный_градиент_16-16" data-name="Безымянный градиент 16" x1="2011.44" y1="554.79" x2="2164.03" y2="744.77" xlink:href="#_Безымянный_градиент_16"/>
    <linearGradient id="_Безымянный_градиент_16-17" data-name="Безымянный градиент 16" x1="2051.78" y1="522.39" x2="2204.37" y2="712.37" xlink:href="#_Безымянный_градиент_16"/>
    <linearGradient id="_Безымянный_градиент_16-18" data-name="Безымянный градиент 16" x1="2023.93" y1="544.76" x2="2176.52" y2="734.74" xlink:href="#_Безымянный_градиент_16"/>
    <linearGradient id="_Безымянный_градиент_14" data-name="Безымянный градиент 14" x1="2672.37" y1="805.84" x2="2560.2" y2="696.71" gradientTransform="translate(-271.58 -471.39) rotate(12.23)" gradientUnits="userSpaceOnUse">
      <stop offset="0" stop-color="#33431c"/>
      <stop offset="1" stop-color="#437a03"/>
    </linearGradient>
    <linearGradient id="_Безымянный_градиент_14-2" data-name="Безымянный градиент 14" x1="2630.6" y1="848.78" x2="2518.43" y2="739.64" xlink:href="#_Безымянный_градиент_14"/>
    <linearGradient id="_Безымянный_градиент_14-3" data-name="Безымянный градиент 14" x1="2642.19" y1="836.87" x2="2530.02" y2="727.73" xlink:href="#_Безымянный_градиент_14"/>
    <linearGradient id="_Безымянный_градиент_14-4" data-name="Безымянный градиент 14" x1="2653.31" y1="825.44" x2="2541.14" y2="716.3" xlink:href="#_Безымянный_градиент_14"/>
    <linearGradient id="_Безымянный_градиент_14-5" data-name="Безымянный градиент 14" x1="2723.47" y1="753.33" x2="2611.3" y2="644.19" xlink:href="#_Безымянный_градиент_14"/>
    <linearGradient id="_Безымянный_градиент_14-6" data-name="Безымянный градиент 14" x1="2719.43" y1="757.48" x2="2607.26" y2="648.34" xlink:href="#_Безымянный_градиент_14"/>
    <linearGradient id="_Безымянный_градиент_14-7" data-name="Безымянный градиент 14" x1="2715.01" y1="762.02" x2="2602.84" y2="652.89" xlink:href="#_Безымянный_градиент_14"/>
    <linearGradient id="_Безымянный_градиент_14-8" data-name="Безымянный градиент 14" x1="2711.28" y1="765.86" x2="2599.11" y2="656.72" xlink:href="#_Безымянный_градиент_14"/>
    <linearGradient id="_Безымянный_градиент_14-9" data-name="Безымянный градиент 14" x1="2704.53" y1="772.79" x2="2592.37" y2="663.65" xlink:href="#_Безымянный_градиент_14"/>
    <linearGradient id="_Безымянный_градиент_14-10" data-name="Безымянный градиент 14" x1="2695.8" y1="781.76" x2="2583.64" y2="672.62" xlink:href="#_Безымянный_градиент_14"/>
    <linearGradient id="_Безымянный_градиент_14-11" data-name="Безымянный градиент 14" x1="2687.03" y1="790.78" x2="2574.86" y2="681.64" xlink:href="#_Безымянный_градиент_14"/>
    <linearGradient id="_Безымянный_градиент_14-12" data-name="Безымянный градиент 14" x1="2676.77" y1="801.33" x2="2564.6" y2="692.19" xlink:href="#_Безымянный_градиент_14"/>
    <linearGradient id="_Безымянный_градиент_14-13" data-name="Безымянный градиент 14" x1="2665.3" y1="813.12" x2="2553.13" y2="703.98" xlink:href="#_Безымянный_градиент_14"/>
    <linearGradient id="_Безымянный_градиент_14-14" data-name="Безымянный градиент 14" x1="2682.29" y1="795.65" x2="2570.12" y2="686.51" xlink:href="#_Безымянный_градиент_14"/>
    <linearGradient id="_Безымянный_градиент_14-15" data-name="Безымянный градиент 14" x1="2629.05" y1="850.37" x2="2516.89" y2="741.23" xlink:href="#_Безымянный_градиент_14"/>
    <linearGradient id="_Безымянный_градиент_14-16" data-name="Безымянный градиент 14" x1="2646.4" y1="850.48" x2="2534.23" y2="741.35" xlink:href="#_Безымянный_градиент_14"/>
    <linearGradient id="_Безымянный_градиент_14-17" data-name="Безымянный градиент 14" x1="2634.19" y1="845.09" x2="2522.02" y2="735.95" xlink:href="#_Безымянный_градиент_14"/>
    <linearGradient id="_Безымянный_градиент_14-18" data-name="Безымянный градиент 14" x1="2646.56" y1="832.38" x2="2534.39" y2="723.24" xlink:href="#_Безымянный_градиент_14"/>
    <linearGradient id="_Безымянный_градиент_14-19" data-name="Безымянный градиент 14" x1="2654.62" y1="824.09" x2="2542.45" y2="714.95" xlink:href="#_Безымянный_градиент_14"/>
    <linearGradient id="_Безымянный_градиент_14-20" data-name="Безымянный градиент 14" x1="2662.28" y1="816.21" x2="2550.12" y2="707.08" xlink:href="#_Безымянный_градиент_14"/>
    <linearGradient id="_Безымянный_градиент_14-21" data-name="Безымянный градиент 14" x1="2670.6" y1="807.67" x2="2558.43" y2="698.53" xlink:href="#_Безымянный_градиент_14"/>
    <linearGradient id="_Безымянный_градиент_16-19" data-name="Безымянный градиент 16" x1="361.69" y1="816.63" x2="362.1" y2="740.03" xlink:href="#_Безымянный_градиент_16"/>
    <linearGradient id="_Безымянный_градиент_16-20" data-name="Безымянный градиент 16" x1="1866.17" y1="791.15" x2="1866.54" y2="724.24" xlink:href="#_Безымянный_градиент_16"/>
  </defs>
  <g class="cls-55">
    <g>
      <rect class="cls-81" x="0" width="2229.8" height="814.68"/>
      <g class="cls-36">
        <path class="cls-112" d="M-640.38-47.8c68.72,42.44,137.43,84.88,206.15,127.33,32.34,22.23,64.67,44.46,97.01,66.69,56.59-22.23,113.18-44.46,169.77-66.69C-112.89,117.93-58.32,156.33-3.75,194.73c92.86-30.92,185.73-61.85,278.59-92.77,54.33-24.1,108.66-48.19,162.99-72.29,17.05,13.59,34.1,27.17,51.16,40.76,61.33-6.4,122.66-12.8,183.99-19.2,17.78,13.94,35.57,27.89,53.35,41.83,34.55-6.03,69.09-12.06,103.64-18.09,40.17,15.16,80.34,30.32,120.51,45.47,29.37-8.53,58.75-17.07,88.12-25.6,26.45-5.11,52.89-10.22,79.34-15.33,27.71,7.35,55.42,14.7,83.13,22.05,18.79-19.48,37.57-38.95,56.36-58.43,88.91,12.13,177.83,24.25,266.74,36.38,139.37-17.09,278.75-34.19,418.12-51.28,37.94,8.76,75.89,17.52,113.83,26.28,57.12,8.33,114.25,16.67,171.37,25,52.55,48.51,105.09,97.01,157.64,145.52,133.39-80.84,266.78-161.68,400.17-242.53C1643.41-27.59,501.51-37.69-640.38-47.8Z"/>
      </g>
    </g>
    <g>
      <path class="cls-20" d="M2051.06,921.13h54.5c4.42-35.8,8.85-71.6,13.27-107.4-4.67-33.56-9.34-67.12-14.01-100.68,0-58.6,0-117.21,0-175.81v-127.73c0-69.19-.02-67.29,0-76.64,.18-77.13,.83-94.05,.74-144.25-.09-45.41-.7-73.16-1.11-100.68-.82-55.79-1.19-137.48,1.11-246.43-18.17,0-36.33,0-54.5,0,1.94,43.25,4.22,106.55,4.91,183.7,.25,27.5,.16,50.26,0,95.79-.07,19.44-.38,96.17-2.51,253.49-.86,63.45-.95,61.47-1.36,98.13-.86,75.72-1.07,137.66-1.11,179.19-2.4,53.72-4.79,107.44-7.19,161.16,2.42,36.05,4.84,72.1,7.26,108.15Z"/>
      <path class="cls-20" d="M1937.38,924.16h54.5c4.42-35.8,8.85-71.6,13.27-107.4-4.67-33.56-9.34-67.12-14.01-100.68,0-58.6,0-117.21,0-175.81v-127.73c0-69.19-.02-67.29,0-76.64,.18-77.13,.83-94.05,.74-144.25-.09-45.41-.7-73.16-1.11-100.68-.82-55.79-1.19-137.48,1.11-246.43-18.17,0-36.33,0-54.5,0,1.94,43.25,4.22,106.55,4.91,183.7,.25,27.5,.16,50.26,0,95.79-.07,19.44-.38,96.17-2.51,253.49-.86,63.45-.95,61.47-1.36,98.13-.86,75.72-1.07,137.66-1.11,179.19-2.4,53.72-4.79,107.44-7.19,161.16,2.42,36.05,4.84,72.1,7.26,108.15Z"/>
      <path class="cls-24" d="M-10.93,947.15H43.57c4.42-35.8,8.85-71.6,13.27-107.4-4.67-33.56-9.34-67.12-14.01-100.68,0-58.6,0-117.21,0-175.81v-127.73c0-69.19-.02-67.29,0-76.64,.18-77.13,.83-94.05,.74-144.25-.09-45.41-.7-73.16-1.11-100.68-.82-55.79-1.19-137.48,1.11-246.43-18.17,0-36.33,0-54.5,0C-8.99-89.21-6.71-25.91-6.02,51.23c.25,27.5,.16,50.26,0,95.79-.07,19.44-.38,96.17-2.51,253.49-.86,63.45-.95,61.47-1.36,98.13-.86,75.72-1.07,137.66-1.11,179.19-2.4,53.72-4.79,107.44-7.19,161.16,2.42,36.05,4.84,72.1,7.26,108.15Z"/>
      <path class="cls-20" d="M880.35,978.98h54.5c4.42-35.8,8.85-71.6,13.27-107.4-4.67-33.56-9.34-67.12-14.01-100.68,0-58.6,0-117.21,0-175.81v-127.73c0-69.19-.02-67.29,0-76.64,.18-77.13,.83-94.05,.74-144.25-.09-45.41-.7-73.16-1.11-100.68-.82-55.79-1.19-137.48,1.11-246.43-18.17,0-36.33,0-54.5,0,1.94,43.25,4.22,106.55,4.91,183.7,.25,27.5,.16,50.26,0,95.79-.07,19.44-.38,96.17-2.51,253.49-.86,63.45-.95,61.47-1.36,98.13-.86,75.72-1.07,137.66-1.11,179.19-2.4,53.72-4.79,107.44-7.19,161.16,2.42,36.05,4.84,72.1,7.26,108.15Z"/>
      <path class="cls-20" d="M1319.18,997.17h54.5c4.42-35.8,8.85-71.6,13.27-107.4-4.67-33.56-9.34-67.12-14.01-100.68v-175.81s0-127.73,0-127.73c0-69.19-.02-67.29,0-76.64,.18-77.13,.83-94.05,.74-144.25-.09-45.41-.7-73.16-1.11-100.68-.82-55.79-1.19-137.48,1.11-246.43-18.17,0-36.33,0-54.5,0,1.94,43.25,4.22,106.55,4.91,183.7,.25,27.5,.16,50.26,0,95.79-.07,19.44-.38,96.17-2.51,253.49-.86,63.45-.95,61.47-1.36,98.13-.86,75.72-1.07,137.66-1.11,179.19-2.4,53.72-4.79,107.44-7.19,161.16,2.42,36.05,4.84,72.1,7.26,108.15Z"/>
      <path class="cls-20" d="M1016.78,978.98h54.5c4.42-35.8,8.85-71.6,13.27-107.4-4.67-33.56-9.34-67.12-14.01-100.68v-175.81s0-127.73,0-127.73c0-69.19-.02-67.29,0-76.64,.18-77.13,.83-94.05,.74-144.25-.09-45.41-.7-73.16-1.11-100.68-.82-55.79-1.19-137.48,1.11-246.43-18.17,0-36.33,0-54.5,0,1.94,43.25,4.22,106.55,4.91,183.7,.25,27.5,.16,50.26,0,95.79-.07,19.44-.38,96.17-2.51,253.49-.86,63.45-.95,61.47-1.36,98.13-.86,75.72-1.07,137.66-1.11,179.19-2.4,53.72-4.79,107.44-7.19,161.16,2.42,36.05,4.84,72.1,7.26,108.15Z"/>
      <g>
        <path class="cls-35" d="M665.99,947.15h77.62c6.3-35.8,12.6-71.6,18.91-107.4-6.65-33.56-13.3-67.12-19.96-100.68v-175.81s0-127.73,0-127.73c-.01-69.19-.03-67.29,0-76.64,.25-77.13,1.19-94.05,1.05-144.25-.12-45.41-1-73.16-1.58-100.68-1.17-55.79-1.69-137.48,1.58-246.43-25.87,0-51.75,0-77.62,0,2.76,43.25,6.01,106.55,6.99,183.7,.35,27.5,.23,50.26,0,95.79-.1,19.44-.54,96.17-3.57,253.49-1.22,63.45-1.35,61.47-1.94,98.13-1.22,75.72-1.52,137.66-1.58,179.19-3.41,53.72-6.83,107.44-10.24,161.16,3.45,36.05,6.89,72.1,10.34,108.15Z"/>
        <g class="cls-12">
          <g class="cls-40">
            <path class="cls-11" d="M682.56-25.09c1.23,57.61,15.08,114.52,12.32,172.29-.7,14.73-2.75,29.26-5.74,43.69-2.8,13.53-6.05,27-7.74,40.73-3.37,27.26,.39,54.65,2.24,81.88,1.84,27.05,1.65,54.88-9.61,80.09-10.19,22.79-27.21,41.52-40.88,62.16-6.16,9.3-14.32,19.9-10.9,31.62,1.71,5.84,4.6,11.44,7.05,17,2.69,6.1,5.44,12.18,8.35,18.18,5.8,11.94,12.25,23.61,20.1,34.34,7.6,10.4,16.94,19.39,24.42,29.88,16.72,23.47,15.15,53.64,14.52,81.14-.68,29.65-3.31,59.26-7.9,88.56-1.13,7.21-2.39,14.41-3.74,21.58-.18,.94,1.27,1.35,1.45,.4,5.39-28.51,9-57.34,10.71-86.31,.86-14.58,1.24-29.18,1.15-43.78-.08-13.1-.44-26.42-3.86-39.15-6.78-25.25-28.72-41.62-42.22-63.07-7.22-11.47-13.2-23.66-18.77-36-2.89-6.39-5.83-12.8-8.44-19.31-3.09-7.71-2.55-13.97,1.41-21.24,12.03-22.1,29.51-40.64,42.17-62.35,13.1-22.46,17.67-47.12,17.4-72.91-.29-27.29-4.77-54.38-4.48-81.69,.31-28.48,9.2-55.38,12.88-83.4,7.59-57.75-5.58-115.34-9.42-172.83-.48-7.16-.8-14.32-.95-21.49-.02-.96-1.52-.97-1.5,0h0Z"/>
          </g>
          <g class="cls-40">
            <path class="cls-77" d="M727.51-17.08c-.98,55.88-1.96,111.76-2.94,167.64l-.74,42.32c-.24,13.86-.06,27.82-1.09,41.65-1.04,13.88-5.67,26.52-8.45,40.03-2.59,12.64-1.79,25.54-1.63,38.35,.17,13.56-1.26,26.32-6.1,39.05-4.14,10.88-9.36,21.48-11.02,33.11-1.85,12.96,.2,26.03,2.87,38.71s5.81,26.05,8.15,39.2c4.86,27.36,7.29,55.02,5.52,82.79-.86,13.53-2.28,27.06-1.9,40.63s2.66,25.61,5.53,38.17c2.9,12.71,6.35,25.3,8.81,38.11,2.53,13.16,4,26.51,4.44,39.91,.85,26.11-2.23,52.33-9.16,77.51-1.72,6.25-3.7,12.43-5.87,18.54-.32,.91,1.12,1.3,1.45,.4,17.23-48.4,19.34-100.32,7.69-150.23-3.02-12.94-6.51-25.78-8.84-38.87-2.48-13.91-2.97-27.76-2.18-41.85s2.18-27.48,2.19-41.28c0-13.34-.94-26.67-2.56-39.91s-3.84-26.07-6.49-38.98c-2.81-13.72-6.6-27.34-8.2-41.28s.13-26.39,5-39.2c4.43-11.65,9.73-22.81,11.34-35.3,1.63-12.74,.39-25.6,.58-38.39,.1-6.82,.66-13.62,2.14-20.29s3.57-12.91,5.18-19.41c3.18-12.84,3.47-26.03,3.7-39.19,.25-14.11,.5-28.21,.74-42.32,.99-56.15,1.97-112.3,2.96-168.45,.12-7.05,.25-14.11,.37-21.16,.02-.97-1.48-.97-1.5,0h0Z"/>
          </g>
          <g class="cls-40">
            <path class="cls-88" d="M757.49,298.33c-16.09,10.22-21.49,29.83-23.47,47.67-1.22,11.05-1.68,22.15-3.26,33.17s-3.61,21.64-4.83,32.54c-1.15,10.24-1.44,20.54-.02,30.76,1.21,8.74,3.51,17.29,6.36,25.63,5.81,16.98,13.85,33.06,20.58,49.67,6.54,16.15,11.98,33.15,11.85,50.75-.02,2.19-.12,4.38-.31,6.56-.08,.96,1.42,.96,1.5,0,1.44-17.19-2.69-34.1-8.64-50.11-6.17-16.6-14.13-32.45-20.5-48.97-3.16-8.19-5.94-16.56-7.82-25.15-2.08-9.51-2.83-19.16-2.35-28.88,.54-10.89,2.37-21.66,4.09-32.41s2.98-21.19,3.81-31.89c1.48-18.95,3.65-40.37,18.54-54.04,1.62-1.49,3.38-2.82,5.24-4,.81-.52,.06-1.81-.76-1.3h0Z"/>
          </g>
        </g>
      </g>
    </g>
    <path class="cls-9" d="M-44.21,840.45c-9.92-72.99-19.83-145.98-29.75-218.98,558.63-15.34,1117.26-23.19,1675.89-23.55,233.94-.15,467.88,1.02,701.81,3.49-1.52,82.71-3.03,165.42-4.55,248.13-781.14-3.03-1562.27-6.06-2343.41-9.09Z"/>
    <g>
      <g>
        <path class="cls-35" d="M481.82,947.15h77.62c6.3-35.8,12.6-71.6,18.91-107.4-6.65-33.56-13.3-67.12-19.96-100.68v-175.81s0-127.73,0-127.73c-.01-69.19-.03-67.29,0-76.64,.25-77.13,1.19-94.05,1.05-144.25-.12-45.41-1-73.16-1.58-100.68-1.17-55.79-1.69-137.48,1.58-246.43-25.87,0-51.75,0-77.62,0,2.76,43.25,6.01,106.55,6.99,183.7,.35,27.5,.23,50.26,0,95.79-.1,19.44-.54,96.17-3.57,253.49-1.22,63.45-1.35,61.47-1.94,98.13-1.22,75.72-1.52,137.66-1.58,179.19-3.41,53.72-6.83,107.44-10.24,161.16,3.45,36.05,6.89,72.1,10.34,108.15Z"/>
        <g class="cls-66">
          <g class="cls-40">
            <path class="cls-95" d="M495.99-19.73c-2.57,24.84,7.95,48.29,10.3,72.7,1.23,12.75,.64,25.6-.21,38.35-.88,13.2-1.85,26.4-2.78,39.6-3.7,52.57-8.1,105.14-10.97,157.76-.71,13.07-1.11,26.16-.73,39.25s1.47,25.86,2.1,38.79c1.26,25.88-.41,51.69-2.74,77.46-2.3,25.49-5.13,50.97-5.86,76.57-.37,12.84-.2,25.71,.84,38.52,1.03,12.7,3.34,25.2,5.01,37.82,1.63,12.34,1.89,24.58,.46,36.95-1.39,12.03-4,23.87-6.7,35.66-5.01,21.85-10.73,44.11-9.54,66.71,.28,5.36,.99,10.66,2.09,15.91,.2,.94,1.64,.54,1.45-.4-9.71-46.53,16.15-90.91,15.21-137.25-.25-12.49-2.57-24.79-4.37-37.12-1.93-13.18-2.91-26.44-3.09-39.76-.34-25.57,2.02-51.07,4.41-76.5,2.41-25.5,4.89-51.05,4.82-76.69s-3.21-51.31-2.61-77.06,3-52.63,4.85-78.89c1.85-26.22,3.69-52.44,5.54-78.66,1.83-26.02,4.65-52.19,5.01-78.27,.17-12.41-.99-24.58-3.54-36.72-2.56-12.17-5.97-24.21-7.31-36.6-.66-6.05-.74-12.1-.11-18.16,.1-.96-1.4-.95-1.5,0h0Z"/>
          </g>
          <g class="cls-40">
            <path class="cls-60" d="M553.97-23.6c-15.25,48.88-14.54,100.6-14.58,151.26-.02,26.79-.04,53.59-.07,80.38s-1.42,52.27,1.99,77.98c1.63,12.28,4.96,23.93,9.32,35.49,4.33,11.45,9.14,23.08,10.04,35.42,.94,12.99-3.38,25.29-7.17,37.51-3.67,11.83-6.1,23.89-7.56,36.19-3.11,26.13-3.38,52.66-4.59,78.93s-2.46,53.46-3.7,80.19c-.61,13.27-1.56,26.59-1.45,39.88,.11,12.56,1.93,24.66,5.52,36.69,3.63,12.15,8.05,24.01,10.8,36.41,2.88,13.01,4.38,26.31,4.5,39.63,.06,6.45-.23,12.89-.8,19.31-.09,.96,1.42,.96,1.5,0,2.22-25.05-.37-50.29-7.71-74.35-3.66-11.99-8.22-23.77-10.48-36.15-2.43-13.35-1.95-26.99-1.34-40.48,2.41-53.35,4.09-106.83,7.5-160.13,.83-12.99,2.11-25.98,4.78-38.73,2.59-12.38,7.37-24.12,10.11-36.45,2.51-11.29,1.96-22.28-1.16-33.39-3.25-11.58-8.42-22.51-11.93-34-7.62-24.98-6.72-51.54-6.69-77.35,.02-26.79,.04-53.59,.07-80.38,.04-51.57-2.3-104.47,9.51-155.05,1.45-6.21,3.14-12.35,5.04-18.44,.29-.92-1.16-1.32-1.45-.4h0Z"/>
          </g>
          <g class="cls-40">
            <path class="cls-105" d="M513.94-28.5c12.26,50.39,19.07,102.64,13.45,154.45-2.82,25.97-7.34,51.56-8.66,77.7-1.33,26.41-1.06,52.89-1.02,79.32,.05,26.3,.25,52.61,1.39,78.88,.57,13.25,1.38,26.5,2.53,39.72s2.96,25.84,3.98,38.8c1,12.74,.55,25.34-3.25,37.63-3.55,11.46-8.75,22.36-11.06,34.19-4.49,22.95-.16,46.35,3.47,69.09,1.99,12.5,3.86,25.06,4.13,37.74s-1.29,25.16-3.48,37.56c-4.13,23.34-10.55,46.47-11.13,70.3-.15,6.05,.14,12.08,.85,18.09,.11,.95,1.61,.96,1.5,0-2.96-24.78,2.53-49.23,7.42-73.39,2.34-11.59,4.56-23.24,5.66-35.03s.7-24.35-.74-36.5c-2.85-23.91-8.96-47.67-8-71.9,.5-12.61,3.62-24.31,7.99-36.08,4.15-11.17,7.87-22.16,8.51-34.15,.68-12.74-1.14-25.43-2.55-38.06-1.47-13.19-2.57-26.41-3.38-39.65-1.63-26.5-2.12-53.06-2.28-79.61-.16-26.47-.38-52.98,.3-79.44s3.63-52.82,7.29-79.22,4.83-50.74,3.38-76.31-5.22-50.7-10.53-75.6c-1.35-6.33-2.8-12.64-4.33-18.93-.23-.94-1.67-.54-1.45,.4h0Z"/>
          </g>
        </g>
      </g>
      <g>
        <path class="cls-35" d="M223.38,962.66h77.62c6.3-35.8,12.6-71.6,18.91-107.4-6.65-33.56-13.3-67.12-19.96-100.68v-175.81s0-127.73,0-127.73c-.01-69.19-.03-67.29,0-76.64,.25-77.13,1.19-94.05,1.05-144.25-.12-45.41-1-73.16-1.58-100.68-1.17-55.79-1.69-137.48,1.58-246.43-25.87,0-51.75,0-77.62,0,2.76,43.25,6.01,106.55,6.99,183.7,.35,27.5,.23,50.26,0,95.79-.1,19.44-.54,96.17-3.57,253.49-1.22,63.45-1.35,61.47-1.94,98.13-1.22,75.72-1.52,137.66-1.58,179.19-3.41,53.72-6.83,107.44-10.24,161.16,3.45,36.05,6.89,72.1,10.34,108.15Z"/>
        <g class="cls-37">
          <g class="cls-40">
            <path class="cls-108" d="M284.27-8.69c4.15,15.88,.14,31.99-4.2,47.37-4.33,15.33-9,30.7-8.13,46.82,.95,17.52,6.68,34.32,9.88,51.47,3.37,18.09,4.76,36.54,4.18,54.93-.29,9.09-1.13,18.13-2.31,27.15s-2.36,17.66-1.22,26.49c1.06,8.23,4.24,15.92,6.91,23.71,2.81,8.2,4.51,16.37,3.97,25.07-1.02,16.55-7.73,32.32-7.39,49.01,.34,16.42,8.13,31.25,13.39,46.44,5.68,16.4,6.45,33.28,5.16,50.47s-4.16,34.44-4.21,51.79c-.01,4.23,.16,8.45,.54,12.66,.09,.95,1.59,.96,1.5,0-3.06-34.1,9.13-68.31,2.14-102.22-3.35-16.24-11.85-30.83-15.47-46.98-1.94-8.64-1.85-17.26-.45-25.97,1.34-8.29,3.53-16.42,4.98-24.69,1.32-7.54,2-15.25,.79-22.85-1.31-8.26-4.66-15.99-7.27-23.89-2.89-8.75-3.98-17.39-3.29-26.58s2.3-18.15,3.03-27.27c1.45-18.08,.97-36.31-1.41-54.28-2.34-17.65-7.62-34.62-10.55-52.14-1.47-8.8-2.02-17.7-.95-26.58,.99-8.18,3.1-16.19,5.33-24.11,4.16-14.8,9.24-30.01,8.22-45.6-.24-3.59-.82-7.13-1.73-10.61-.24-.93-1.69-.54-1.45,.4h0Z"/>
          </g>
          <g class="cls-40">
            <path class="cls-52" d="M250.79-12.2c-.74,41.49-1.14,82.98-1.18,124.47-.02,20.85,.05,41.69,.21,62.54s-.1,41.21,1.35,61.72c1.38,19.6,5.7,38.6,9.8,57.76,4.3,20.07,7.09,40.32,8.51,60.8,2.8,40.29,1.31,80.71,3.22,121.04,.85,17.93,1.31,37.06,8.66,53.75,3.74,8.48,9.7,15.6,14.31,23.57,4.8,8.28,7.71,17.62,8.45,27.17,.38,4.86,.19,9.72-.52,14.54-.14,.93,1.14,1.34,1.45,.4,16.48-50.21,23.78-103.22,21.47-156.01-2.32-52.92-13.22-104.9-20.47-157.25-4.16-30.01-7.07-60.26-6.52-90.59,.02-.97-1.48-.97-1.5,0-.95,52.77,8.62,104.85,16.72,156.78,4.12,26.39,7.86,52.87,9.63,79.54,1.74,26.32,1.33,52.73-1.58,78.95-3.32,29.97-9.8,59.54-19.2,88.18l1.45,.4c2.6-17.83-2.24-34.48-12.15-49.29-5.43-8.12-10.46-15.99-13.25-25.45s-3.73-18.44-4.44-27.81c-3.08-40.41-1.54-80.98-3.32-121.44-.87-19.87-2.54-39.73-5.9-59.34-3.37-19.71-8.78-39.03-11.59-58.84-2.92-20.57-2.75-41.45-2.95-62.18-.21-20.85-.33-41.69-.36-62.54-.06-41.69,.25-83.39,.91-125.08,.08-5.26,.17-10.52,.27-15.78,.02-.97-1.48-.97-1.5,0h0Z"/>
          </g>
          <g class="cls-40">
            <path class="cls-51" d="M225.03,344.81c-2.13,34.95,1.37,69.98,8.17,104.27,6.87,34.64,16.99,68.55,28.07,102.06,5.61,16.95,11.56,33.83,15.87,51.17s6.48,35.71,7.56,53.86c2.16,36.59,2.8,73.31,4.09,109.94,1.3,36.94,2.6,73.88,3.9,110.82,.16,4.53,.32,9.05,.48,13.58,.03,.96,1.53,.97,1.5,0-1.3-36.94-2.6-73.88-3.9-110.82-1.29-36.61-2.39-73.24-3.9-109.85-.72-17.58-1.85-35.19-4.97-52.53-3.16-17.61-8.57-34.7-14.21-51.65-11.21-33.71-22.1-67.53-29.92-102.22-7.8-34.64-12.63-70.1-11.8-105.67,.1-4.33,.29-8.65,.55-12.97,.06-.96-1.44-.96-1.5,0h0Z"/>
          </g>
        </g>
      </g>
      <path class="cls-35" d="M1599.34,956.24h77.62c6.3-35.8,12.6-71.6,18.91-107.4-6.65-33.56-13.3-67.12-19.96-100.68,0-58.6,0-117.21,0-175.81v-127.73c-.01-69.19-.03-67.29,0-76.64,.25-77.13,1.19-94.05,1.05-144.25-.12-45.41-1-73.16-1.58-100.68-1.17-55.79-1.69-137.48,1.58-246.43-25.87,0-51.75,0-77.62,0,2.76,43.25,6.01,106.55,6.99,183.7,.35,27.5,.23,50.26,0,95.79-.1,19.44-.54,96.17-3.57,253.49-1.22,63.45-1.35,61.47-1.94,98.13-1.22,75.72-1.52,137.66-1.58,179.19-3.41,53.72-6.83,107.44-10.24,161.16,3.45,36.05,6.89,72.1,10.34,108.15Z"/>
      <g>
        <path class="cls-35" d="M1136.64,933.25h77.62c6.3-35.8,12.6-71.6,18.91-107.4-6.65-33.56-13.3-67.12-19.96-100.68,0-58.6,0-117.21,0-175.81v-127.73c-.01-69.19-.03-67.29,0-76.64,.25-77.13,1.19-94.05,1.05-144.25-.12-45.41-1-73.16-1.58-100.68-1.17-55.79-1.69-137.48,1.58-246.43-25.87,0-51.75,0-77.62,0,2.76,43.25,6.01,106.55,6.99,183.7,.35,27.5,.23,50.26,0,95.79-.1,19.44-.54,96.17-3.57,253.49-1.22,63.45-1.35,61.47-1.94,98.13-1.22,75.72-1.52,137.66-1.58,179.19-3.41,53.72-6.83,107.44-10.24,161.16,3.45,36.05,6.89,72.1,10.34,108.15Z"/>
        <g class="cls-82">
          <g class="cls-40">
            <path class="cls-48" d="M1154.99-15.74c-13.53,53.3,12.64,105.97,10.75,159.41-.53,14.94-3.72,29.54-6.14,44.24-2.4,14.57-3.17,29.1-2.95,43.85,.22,14.82,1,29.66,.06,44.48-.86,13.5-3.06,26.9-6.51,39.97-6.69,25.36-18.07,49.47-33.54,70.65-14.64,20.06-34.48,39.26-35.38,65.7-.38,11.42,3.53,21.49,11.23,29.86,4.34,4.73,9.26,8.95,12.97,14.23,3.77,5.36,5.69,11.68,7.28,17.97,1.57,6.21,2.85,12.51,5.34,18.44,2.17,5.18,5.13,9.97,8.22,14.64,7.03,10.63,14.74,20.98,16.36,33.99,1.84,14.81-2.75,29.49-5.45,43.91-2.51,13.41-4.06,27.01-4.64,40.64-1.19,27.92,1.66,56.03,8.48,83.14,1.72,6.82,3.7,13.57,5.9,20.25,.3,.91,1.75,.52,1.45-.4-8.94-27.14-13.87-55.5-14.51-84.08-.32-14.06,.38-28.15,2.12-42.1,1.79-14.4,5.6-28.4,7.64-42.74,1.73-12.17,1.01-24.02-4.59-35.12-5.37-10.65-13.5-19.66-18.59-30.46-5.27-11.19-5.59-24.08-11.39-35.05-5.74-10.85-17.24-17.22-22.61-28.3-12.88-26.56,7.89-53.56,23.52-73.36,15.69-19.88,28.4-41.46,36.77-65.43,8.75-25.06,12.2-51.06,11.88-77.52-.18-15-1.03-30.01-.15-45,.89-15.15,4.21-29.94,6.54-44.9,4.17-26.68,1.24-52.73-3.46-79.12-4.73-26.58-10.68-53.54-8.55-80.7,.55-6.99,1.7-13.89,3.42-20.68,.24-.94-1.21-1.34-1.45-.4h0Z"/>
          </g>
          <g class="cls-40">
            <path class="cls-97" d="M1169-7.76c3.57,25.99,7.15,52,9.22,78.15,2.04,25.73,2.13,51.36,.61,77.12-1.5,25.51-3.01,50.92-3.05,76.48-.04,24.89,.65,49.77,.98,74.65,.33,25.3,.3,50.63-1.31,75.89-1.64,25.83-5.81,50.98-10.64,76.36-2.3,12.09-3.93,24.19-4.16,36.51-.23,12.3,.46,24.6,.97,36.89,1.07,25.89,2.14,51.79,3.21,77.68,1.2,29,2.39,58,3.59,87,1.17,28.29,2.5,56.89-3.59,84.76-.21,.94,1.24,1.34,1.45,.4,5.25-24.01,5.06-48.64,4.13-73.08-.98-26.04-2.14-52.07-3.21-78.1s-2.14-51.79-3.21-77.68c-1.05-25.45-3.74-51.54-.52-76.9,1.65-13.03,4.67-25.83,7-38.75,2.17-12,3.79-24.09,4.97-36.22,2.49-25.41,3.07-50.97,2.98-76.48-.17-50.88-2.36-101.62,.85-152.46,1.64-25.98,2.91-51.83,1.53-77.86-1.35-25.53-4.43-50.92-7.83-76.24-.83-6.17-1.68-12.33-2.52-18.5-.13-.95-1.58-.55-1.45,.4h0Z"/>
          </g>
          <g class="cls-40">
            <path class="cls-49" d="M1223.43-21.11c-4.93,25.72-14.91,50.12-20.15,75.77-5.53,27.04-2.29,53.87-.42,81.1,3.86,56.4,1.48,112.75-2.58,169.06-4.02,55.79-9.23,111.57-9.43,167.55-.1,28.11,1.08,56.25,4.32,84.19,1.48,12.77,3.04,25.72,6.86,38.04s11.03,24.17,14.02,37.17c3.12,13.6,2.48,27.7,1.94,41.54-.56,14.28-1.12,28.57-1.68,42.85-1.12,28.57-2.24,57.13-3.37,85.7-.29,7.28-.57,14.56-.86,21.85-.04,.97,1.46,.96,1.5,0,1.12-28.57,2.24-57.13,3.37-85.7,.56-14.28,1.12-28.57,1.68-42.85,.54-13.87,1.52-27.81,1.27-41.7-.23-12.89-2.4-25.05-7.39-36.97-5.28-12.61-10.34-24.54-12.77-38.08-4.9-27.31-6.52-55.41-7.16-83.11-1.3-55.92,3.29-111.74,7.5-167.44,4.24-55.93,7.95-111.96,5.61-168.08-.59-14.08-1.59-28.13-2.73-42.18-1.13-13.99-2.16-28.06-1.13-42.09,1.95-26.7,11.81-51.85,18.71-77.49,1.67-6.19,3.14-12.42,4.35-18.71,.18-.94-1.26-1.35-1.45-.4h0Z"/>
          </g>
        </g>
      </g>
      <g>
        <path class="cls-35" d="M1839.21,933.25h77.62c6.3-35.8,12.6-71.6,18.91-107.4-6.65-33.56-13.3-67.12-19.96-100.68,0-58.6,0-117.21,0-175.81v-127.73c-.01-69.19-.03-67.29,0-76.64,.25-77.13,1.19-94.05,1.05-144.25-.12-45.41-1-73.16-1.58-100.68-1.17-55.79-1.69-137.48,1.58-246.43-25.87,0-51.75,0-77.62,0,2.76,43.25,6.01,106.55,6.99,183.7,.35,27.5,.23,50.26,0,95.79-.1,19.44-.54,96.17-3.57,253.49-1.22,63.45-1.35,61.47-1.94,98.13-1.22,75.72-1.52,137.66-1.58,179.19-3.41,53.72-6.83,107.44-10.24,161.16,3.45,36.05,6.89,72.1,10.34,108.15Z"/>
        <g class="cls-22">
          <g class="cls-40">
            <path class="cls-96" d="M1893.21-33.98c3,68.39,6.04,137.14,19.03,204.51,6.51,33.75,16.77,66.13,26.81,98.93,10.38,33.93,16.11,68.43,18.32,103.82,2.21,35.29,1.98,70.73,2.08,106.08,.11,36.34,0,72.67-.2,109.01-.05,9-.1,18.01-.15,27.01s.97,18.12-.42,26.67c-1.59,9.8-11.76,9.22-19.48,8.84-6.21-.31-12.28,.07-18.31,1.66-23.76,6.27-41.79,27.04-50.71,49.18-12.29,30.53-8.76,64.93-6.68,96.93,2.31,35.63,2.12,71.34-1,106.92-.78,8.84-1.74,17.66-2.84,26.47-.12,.96,1.38,.95,1.5,0,4.47-35.54,6.24-71.4,5.14-107.21-1.06-34.54-7.16-70.06-.08-104.31,5.65-27.34,22.71-54.86,49.94-64.91,6.53-2.41,13.46-3.57,20.42-3.35,5.53,.17,11.56,1.12,16.84-1.01,4.29-1.73,6.4-5.36,6.88-9.85,.91-8.52,.24-17.46,.29-26.02,.42-72.02,1.68-144.22-.56-216.22-1.06-34.16-3.81-68.47-11.73-101.8-7.92-33.32-20.48-65.32-28.47-98.65-16.25-67.77-20.78-137.63-23.99-207.03-.4-8.55-.77-17.1-1.15-25.66-.04-.96-1.54-.97-1.5,0h0Z"/>
          </g>
          <g class="cls-40">
            <path class="cls-104" d="M1861.26-54.15c4.5,70.04,8.99,140.09,13.49,210.13,1.08,16.88,2.83,33.9,2.24,50.83-.6,17.11-5.27,32.2-12.19,47.71-5.87,13.17-11.81,26.32-13.11,40.86-1.41,15.73,1.63,31.39,3.87,46.9,2.49,17.23,3.11,33.83-.73,50.92-3.42,15.18-8.99,29.75-13.43,44.64-9.45,31.63-9.91,64.37-11.71,97.07-3.56,64.41-17.94,127.99-42.78,187.54-12.18,29.19-27.54,56.58-42.66,84.29-14.2,26.02-27.83,52.97-34.03,82.18-1.44,6.76-2.42,13.59-3.01,20.47-.08,.96,1.42,.96,1.5,0,5.35-62.44,47-114.19,72.24-169.54,26.05-57.12,42.51-118.57,48.48-181.06,3.17-33.25,1.93-67.05,8.31-99.95,5.93-30.6,21.71-59.37,21.63-91.04-.04-16.4-3.75-32.46-5.55-48.7-1.8-16.3-.71-31.79,5.17-47.19,5.46-14.28,13.18-27.71,16.72-42.68,3.69-15.61,3.16-31.8,2.2-47.68-4.22-69.94-8.97-139.85-13.46-209.78-.55-8.64-1.11-17.27-1.66-25.91-.06-.96-1.56-.97-1.5,0h0Z"/>
          </g>
          <g class="cls-40">
            <path class="cls-2" d="M1877.02-6.87c3.04,112.13,6.08,224.26,9.11,336.39,.76,28.17,1.53,56.35,2.29,84.52,.75,27.75,1.93,55.56,.58,83.3-2.67,54.94-20.73,107.39-28.34,161.63-8.47,60.36-9.29,121.42-10.08,182.26-.01,.97,1.49,.97,1.5,0,.71-54.77,1.43-109.69,7.76-164.16,3.22-27.72,8.28-55.03,14.49-82.23,5.88-25.69,12.04-51.39,14.7-77.67,2.79-27.55,2.17-55.28,1.43-82.92-.76-28.15-1.53-56.31-2.29-84.46-1.51-55.78-3.02-111.57-4.53-167.35-1.71-63.11-3.42-126.22-5.13-189.32-.03-.96-1.53-.97-1.5,0h0Z"/>
          </g>
        </g>
      </g>
    </g>
    <path class="cls-109" d="M-34.03,937.46c-9.92-72.99-19.83-145.98-29.75-218.98,558.63-15.34,1117.26-23.19,1675.89-23.55,233.94-.15,467.88,1.02,701.81,3.49-1.52,82.71-3.03,165.42-4.55,248.13-781.14-3.03-1562.27-6.06-2343.41-9.09Z"/>
    <g>
      <path class="cls-102" d="M34.91,721.47c-2.87,.64-6.74,1.81-10.9,4.1-4.18,2.3-6.17,4.35-7.17,3.65-1.25-.87-.25-5.58,2.43-8.58,3.66-4.09,9.4-3.86,10.61-3.79-5.88-1.67-11.75-3.35-17.63-5.02,1.03-.91,4.33-3.59,9.11-3.65,6.63-.08,10.82,4.96,11.5,5.78,.77,.92,1.3,1.78,1.65,2.43,1.5-1.63,4.1-3.97,7.94-5.47,8.51-3.33,16.32,.12,18.01,.91-2.36,1.1-5.88,2.58-10.33,3.78-6.12,1.64-11.94,2.21-11.92,2.38,.03,.22,9.98-3,18.04,1.27,3.98,2.11,6.5,5.51,8.11,8.54-4.15-.16-9.07-.64-14.49-1.77-5.87-1.22-10.9-2.9-14.97-4.56Z"/>
      <path class="cls-43" d="M1957.32,699.65c-5.4-3.9-12.72-8.36-21.96-11.91-15.02-5.78-28.46-6.62-37.14-6.44,10.91-11.06,27.16-14.16,40.17-7.96,15.72,7.5,18.69,24.78,18.93,26.31-.31-1.33-.62-2.66-.93-3.99-.6-3.77-2.49-12.41-9.41-20.69-6.87-8.22-14.97-11.62-18.57-12.88,9.33-2.98,19.37-.31,25.39,6.69,7.26,8.46,5.1,19.1,4.83,20.34,.45-1.27,3.72-9.99,13.11-13.52,11.31-4.25,21.01,2.96,21.6,3.41-4.97,1.37-11.16,3.57-17.81,7.2-8.05,4.39-14.05,9.39-18.21,13.43Z"/>
      <path class="cls-38" d="M1805.09,735.27c10.41-7.53,24.53-16.12,42.35-22.98,28.97-11.15,54.9-12.78,71.62-12.42-21.04-21.32-52.39-27.31-77.47-15.35-30.33,14.46-36.05,47.79-36.51,50.75,.6-2.56,1.19-5.12,1.79-7.69,1.15-7.27,4.8-23.93,18.15-39.9,13.25-15.85,28.87-22.4,35.81-24.85-18-5.75-37.37-.6-48.97,12.91-14.01,16.32-9.83,36.85-9.31,39.23-.87-2.46-7.17-19.27-25.29-26.07-21.81-8.2-40.53,5.71-41.66,6.58,9.58,2.64,21.52,6.88,34.35,13.89,15.52,8.47,27.1,18.11,35.12,25.9Z"/>
      <path class="cls-34" d="M283.99,726.18c10.41-7.53,24.53-16.12,42.35-22.98,28.97-11.15,54.9-12.78,71.62-12.42-21.04-21.32-52.39-27.31-77.47-15.35-30.33,14.46-36.05,47.79-36.51,50.75,.6-2.56,1.19-5.12,1.79-7.69,1.15-7.27,4.8-23.93,18.15-39.9,13.25-15.85,28.87-22.4,35.81-24.85-18-5.75-37.37-.6-48.97,12.91-14.01,16.32-9.83,36.85-9.31,39.23-.87-2.46-7.17-19.27-25.29-26.07-21.81-8.2-40.53,5.71-41.66,6.58,9.58,2.64,21.52,6.88,34.35,13.89,15.52,8.47,27.1,18.11,35.12,25.9Z"/>
      <path class="cls-79" d="M-16.14,695.48c10.41-7.53,24.53-16.12,42.35-22.98,28.97-11.15,54.9-12.78,71.62-12.42-21.04-21.32-52.39-27.31-77.47-15.35-30.33,14.46-36.05,47.79-36.51,50.75,.6-2.56,1.19-5.12,1.79-7.69,1.15-7.27,4.8-23.93,18.15-39.9,13.25-15.85,28.87-22.4,35.81-24.85-18-5.75-37.37-.6-48.97,12.91-14.01,16.32-9.83,36.85-9.31,39.23-.87-2.46-7.17-19.27-25.29-26.07-21.81-8.2-40.53,5.71-41.66,6.58,9.58,2.64,21.52,6.88,34.35,13.89,15.52,8.47,27.1,18.11,35.12,25.9Z"/>
      <path class="cls-1" d="M1990.05,731.06c2.94-2.68,7.19-5.93,12.86-8.54,10.63-4.89,20.43-4.85,25.57-4.44-7.44-8.23-19.08-10.29-27.66-5.48-10,5.61-10.74,17.71-10.77,18.46,.1-2.16-.03-5.71-1.77-9.47-4.7-10.19-16.66-12.15-18.19-12.38-13.34-1.98-22.84,7.99-23.75,8.97,5.22-.86,16.5-1.95,28.9,3.3,6.71,2.84,11.6,6.62,14.8,9.59Z"/>
    </g>
    <g>
      <path class="cls-75" d="M330.32,947.15h111.05c9.02-35.8,18.03-71.6,27.05-107.4-9.52-33.56-19.03-67.12-28.55-100.68,0-58.6,0-117.21,0-175.81v-127.73c-.02-69.19-.04-67.29,0-76.64,.36-77.13,1.7-94.05,1.5-144.25-.18-45.41-1.43-73.16-2.25-100.68-1.68-55.79-2.42-137.48,2.25-246.43-37.02,0-74.04,0-111.05,0,3.96,43.25,8.6,106.55,10,183.7,.5,27.5,.33,50.26,0,95.79-.14,19.44-.77,96.17-5.11,253.49-1.75,63.45-1.94,61.47-2.78,98.13-1.74,75.72-2.17,137.66-2.25,179.19-4.88,53.72-9.77,107.44-14.65,161.16,4.93,36.05,9.86,72.1,14.79,108.15Z"/>
      <g class="cls-33">
        <g class="cls-40">
          <path class="cls-90" d="M338.63-16.84c5.61,29.5,9.4,59.33,11.26,89.31,1.83,29.46,1.67,59,1.04,88.5-1.25,58.51-4.36,117.36,3.1,175.6,1.81,14.14,4.43,28.11,7.29,42.08,2.95,14.41,5.81,28.92,6.22,43.66,.8,28.76-6.77,56.81-11.88,84.88-2.42,13.29-4.32,26.72-4.61,40.24-.31,14.76,1.08,29.49,1.26,44.25s-1.45,29-5.57,43.17c-3.8,13.09-8.73,25.9-11.02,39.38-2.38,13.99-2.15,28.23-2.87,42.36s-2.94,27.75-6.78,41.23c-7.51,26.39-20.16,50.97-33.56,74.79-3.28,5.83-6.61,11.63-9.96,17.42-.48,.84,.81,1.59,1.3,.76,13.39-23.21,26.77-46.59,36.55-71.6,4.91-12.55,8.87-25.49,11.28-38.76s2.79-27.43,3.32-41.26c.57-14.97,2.54-29.29,6.89-43.65,4.05-13.37,8.88-26.53,10.73-40.44,3.82-28.6-2.06-57.48,1.23-86.17,3.25-28.32,11.46-55.83,14.29-84.21,1.38-13.82,1.15-27.58-.79-41.33-2.04-14.43-5.49-28.61-8.12-42.93-10.82-59.08-8.81-119.45-7.28-179.2,1.52-59.26,1.27-118.17-8.09-176.86-1.15-7.22-2.42-14.42-3.79-21.61-.18-.95-1.63-.55-1.45,.4h0Z"/>
        </g>
        <g class="cls-40">
          <path class="cls-28" d="M430.19-37.23c-6.68,28.97-10.63,58.52-11.66,88.24-.51,14.81-.3,29.65,.62,44.45,.97,15.45,2.93,30.83,3.71,46.3,1.57,31.22-5.44,61.09-11.04,91.56-5.42,29.45-8.59,59.29-10.16,89.18-3.2,60.84,.18,121.74,4.08,182.45,1,15.58,1.94,31.18,1.79,46.81s-1.94,30.66-3.58,45.99-2.34,29.43-.76,44.23,4.61,28.26,7.83,42.19c6.94,30.08,12.27,60.1,14.76,90.9,2.45,30.38,2.92,60.87,3,91.34,.02,7.47,.01,14.93,0,22.4,0,.97,1.5,.97,1.5,0,.04-59.94,.06-120.45-12.06-179.42-6.01-29.25-15.12-58.24-14.46-88.41,.32-14.96,2.62-29.77,4.01-44.64,1.46-15.5,1.5-31.05,.85-46.6-1.26-30.47-3.82-60.88-5.17-91.34s-2.02-61.12-1.23-91.69c.79-30.69,3.04-61.37,7.53-91.75,4.29-29.06,12.21-57.68,14.4-87.02,2.27-30.4-3.62-60.76-4.29-91.13s1.76-61.58,7.26-91.86c1.33-7.29,2.84-14.55,4.51-21.77,.22-.94-1.23-1.34-1.45-.4h0Z"/>
        </g>
        <g class="cls-40">
          <path class="cls-57" d="M385.44-35.62c1.3,59.25,2.6,118.5,3.9,177.76,.64,29.17,1.39,58.41-.67,87.54s-8.89,56.96-11.22,85.71,2.36,54.93,6.73,82.16c4.69,29.25,7.61,57.86,2.87,87.3-2.26,14.02-5.46,27.86-8.01,41.82-2.5,13.68-4.17,27.49-5.3,41.36-2.37,29.09-2.78,58.35-3.72,87.51-1.91,59.26-3.82,118.52-5.74,177.78-.24,7.41-.48,14.81-.72,22.22-.03,.97,1.47,.96,1.5,0,1.91-59.26,3.82-118.52,5.74-177.78,.95-29.36,1.57-58.74,3.04-88.08,.72-14.44,1.78-28.87,3.62-43.21s4.92-29.14,7.8-43.64c2.66-13.4,5.09-26.9,5.82-40.56,.75-13.91-.28-27.86-2.02-41.66-3.52-27.99-9.98-55.69-10.73-83.99-.76-28.78,6.14-56.8,9.7-85.19,3.64-28.96,3.74-58.22,3.23-87.36-1.03-59.16-2.57-118.32-3.87-177.48l-.49-22.22c-.02-.96-1.52-.97-1.5,0h0Z"/>
        </g>
        <g class="cls-40">
          <path class="cls-63" d="M434.77-16.02c-1.4,31.28,4.51,62.1,10.4,92.66,6.08,31.54,11.09,63.22,14.25,95.19,6.26,63.25,6.22,127.11-.14,190.35-.82,8.15-1.75,16.29-2.78,24.42-.94,7.43-1.86,14.96-4.33,22.06-2.49,7.16-7.12,12.32-11.39,18.39-3.49,4.97-5.22,10.42-5.91,16.42-1.76,15.4-1.23,31.31-1.71,46.8-.51,16.52-1.01,33.03-1.52,49.55-.99,32.45-1.99,64.9-2.98,97.35-.49,15.95-1.3,31.93-1.3,47.89,0,14.25,1.21,28.55,5.97,42.07,15.31,43.43,57.12,70.5,74.57,112.72,2.13,5.14,3.79,10.44,5.01,15.86,.21,.94,1.66,.54,1.45-.4-10.14-44.91-50.69-73.1-72.07-111.98-6.33-11.52-10.59-23.84-12.26-36.9-2.01-15.74-1.03-31.72-.55-47.53,.99-32.45,1.99-64.9,2.98-97.35s1.99-64.9,2.98-97.35c.24-7.75,0-15.72,1.29-23.38s5.21-12.87,9.73-18.77c8.34-10.88,10.08-23.88,11.73-37.13,7.88-63.06,9.44-126.92,4.68-190.29-2.33-31.05-6.16-61.99-11.5-92.67-5.47-31.41-13.13-62.6-14.98-94.52-.45-7.81-.51-15.64-.16-23.45,.04-.97-1.46-.96-1.5,0h0Z"/>
        </g>
      </g>
    </g>
    <g>
      <path class="cls-23" d="M2272.86,882.1h-112.02c-9.09-36.11-18.19-72.23-27.28-108.34,9.6-33.85,19.2-67.71,28.8-101.56V366.01c.02-69.8,.04-67.88,0-77.31-.37-77.81-1.71-94.87-1.52-145.52,.18-45.81,1.44-73.8,2.27-101.56,1.69-56.28,2.44-138.68-2.27-248.59h112.02c-3.99,43.63-8.67,107.48-10.09,185.31-.51,27.74-.34,50.7,0,96.63,.14,19.61,.78,97.02,5.15,255.71,1.76,64.01,1.95,62,2.81,98.99,1.76,76.39,2.19,138.87,2.27,180.76,4.93,54.19,9.85,108.38,14.78,162.57-4.97,36.37-9.95,72.73-14.92,109.1Z"/>
      <g class="cls-70">
        <g class="cls-40">
          <path class="cls-16" d="M2175.73-37.03c10.69,25.1,13.67,52.43,14.34,79.47,.33,13.16,.02,26.32,.04,39.49,.01,6.7,.26,13.43,1.55,20.03,1.24,6.37,3.63,12.4,5.6,18.56,4.56,14.29,3.11,28.02-.38,42.38-3.32,13.66-6.83,27.22-9.46,41.04-5.14,27.08-8.08,54.59-8.79,82.15-.36,14.09-.13,28.2,.68,42.28,.41,7.15,.98,14.3,1.7,21.42,.32,3.22,.68,6.44,1.06,9.65,.38,3.12,.35,6.81,1.28,9.83,.5,1.63,1.57,3.06,2.32,4.58,1.65,3.35,2.88,6.94,3.82,10.56,1.64,6.33,2.28,12.89,2.12,19.42-.2,7.64-2.07,14.86-3.09,22.38-2.04,15.01-.21,30.32,1.63,45.25,2.48,20.18,5.23,40.32,6.22,60.65,2.29,46.7-4.03,93.34-18.02,137.93-2.09,6.67-4.36,13.28-6.75,19.85-.33,.91,1.12,1.3,1.45,.4,16.34-44.77,25.44-92,25.31-139.71-.06-21.89-2.21-43.63-4.96-65.33-2.08-16.38-4.74-32.97-4.16-49.54,.23-6.7,1.54-13.08,2.65-19.65,1.73-10.17,1.76-20.69-.63-30.77-.79-3.32-1.84-6.59-3.17-9.74-.87-2.06-2.21-3.94-3.04-6-1.25-3.13-1.16-7.42-1.56-10.8-.44-3.67-.83-7.35-1.19-11.03-1.38-14.26-2.14-28.58-2.3-42.91-.32-28.59,1.76-57.21,6.24-85.44,2.25-14.15,5.1-28.21,8.54-42.12,3.21-12.97,7.4-26.08,7.11-39.59-.29-13.4-7.02-25.09-9.15-38.11-2.25-13.76-.98-28.14-1-42.03-.03-26.19-1.14-52.81-8.54-78.1-1.71-5.85-3.79-11.58-6.18-17.19-.38-.89-1.67-.12-1.3,.76h0Z"/>
        </g>
        <g class="cls-40">
          <path class="cls-61" d="M2218.81-36c-7.45,53.19-4.5,107.06-2.64,160.53,1.89,54.21,3.78,108.43,5.68,162.64,.47,13.37,.79,26.77,1.92,40.11,1.07,12.67,3.38,25,5.88,37.44,5.07,25.2,3.72,49.77-1.3,74.88-4.8,24.02-11.89,47.54-16.17,71.67s-4.02,48.98-1.15,73.82c2.99,25.9,7.46,51.94,5.35,78.09-2.04,25.31-10.97,49.65-11.68,75.11-.16,5.86,.19,11.68,1.05,17.47,.14,.95,1.59,.55,1.45-.4-3.85-25.96,4.46-51.32,8.7-76.67,4.22-25.25,1.98-50.34-1.16-75.57-3.16-25.41-6.34-50.77-3.36-76.36,2.86-24.53,9.74-48.33,15.28-72.33,5.28-22.84,9.5-46.31,7.52-69.83-1.03-12.26-4.13-24.15-6.26-36.24-2.34-13.3-3.25-26.79-3.82-40.26-2.29-53.84-3.79-107.72-5.67-161.58-1.86-53.43-5.51-107.34-.66-160.7,.65-7.16,1.48-14.31,2.47-21.43,.13-.94-1.31-1.35-1.45-.4h0Z"/>
        </g>
        <g class="cls-40">
          <path class="cls-47" d="M2162.63-29.27c13.95,56.33,13.9,114.66,10.58,172.25-3.32,57.78-9.79,115.49-8.66,173.45,.58,29.77,4.21,59.29,6,88.99,1.83,30.49,1.92,61.05,2.14,91.58,.22,30.41,.43,60.83,.65,91.24,.22,30.51,.89,61.06,.49,91.57-.39,29.44-4.23,57.92-14.56,85.59-9.66,25.88-23.28,50.07-37.5,73.67-3.54,5.87-7.12,11.72-10.71,17.56-.51,.82,.79,1.58,1.3,.76,28.75-46.81,57.02-94.9,61.78-150.82,2.57-30.13,1.11-60.67,.9-90.88-.22-31-.44-62.01-.66-93.01-.22-30.88-.15-61.78-1.19-92.65-1.03-30.44-4.54-60.66-6.28-91.05-3.34-58.43,2.53-116.83,6.48-175.08,3.9-57.41,6.06-115.62-4.69-172.45-1.34-7.08-2.89-14.12-4.63-21.11-.23-.94-1.68-.54-1.45,.4h0Z"/>
        </g>
      </g>
    </g>
    <g>
      <path class="cls-29" d="M1804.65,925.3h-161.96c-13.15-36.11-26.3-72.23-39.45-108.34,13.88-33.85,27.76-67.71,41.64-101.56V409.21c.02-69.8,.06-67.88,0-77.31-.53-77.81-2.47-94.87-2.19-145.52,.26-45.81,2.08-73.8,3.29-101.56,2.45-56.28,3.52-138.68-3.29-248.59h161.96c-5.77,43.63-12.54,107.48-14.58,185.31-.73,27.74-.49,50.7,0,96.63,.21,19.61,1.12,97.02,7.45,255.71,2.55,64.01,2.83,62,4.06,98.99,2.54,76.39,3.17,138.87,3.29,180.76,7.12,54.19,14.24,108.38,21.37,162.57-7.19,36.37-14.38,72.73-21.58,109.1Z"/>
      <g class="cls-53">
        <g class="cls-40">
          <path class="cls-59" d="M1724.92-64.3c14.56,29.51,29.79,60.61,30.7,94.16,.57,21.09-8.62,39.6-14.42,59.45-4.05,13.87-6.84,28.02-9.06,42.29-2.2,14.15-3.67,28.5-1.85,42.78,2.88,22.53,14.99,40.99,24.29,61.18,13.13,28.52,15.35,59.2,11.12,90.04-4.52,32.88-14.66,64.64-20.45,97.28-2.77,15.63-4.83,31.7-2.72,47.55,2.09,15.71,9.09,30.04,13.61,45.1,9.56,31.83,9.33,65.46,6.09,98.24s-9.53,65.88-12.62,99.03c-3.24,34.79-1.94,69.72,.44,104.52,.59,8.69,1.24,17.37,1.9,26.05,.07,.96,1.57,.96,1.5,0-2.65-35.28-5.32-70.68-3.95-106.08,1.31-33.83,7.19-67.19,11.58-100.7s7.02-64.33,2.14-96.28c-2.51-16.47-7.87-31.71-13.33-47.36-5.81-16.63-7.7-33.05-5.93-50.58,6.36-63.04,39.06-126.03,18.9-189.77-6.95-21.97-21.08-40.8-27.73-62.82-4.06-13.41-4.82-27.4-3.6-41.3,1.38-15.62,4.17-31.37,7.88-46.59,2.82-11.55,6.52-22.82,10.42-34.05,2.74-7.88,5.68-15.84,6.78-24.15,3.95-29.82-7.68-60.33-19.88-86.91-3.37-7.33-6.92-14.58-10.49-21.81-.43-.87-1.72-.11-1.3,.76h0Z"/>
        </g>
        <g class="cls-40">
          <path class="cls-73" d="M1672.47-49.06c36.3,47.11,28.42,109.86,25.15,165.23-.9,15.3-1.37,30.61-.67,45.93,.72,15.59,2.34,31.12,3.25,46.7,.92,15.58,.88,31.09-.78,46.62-1.66,15.46-4.41,30.78-6.42,46.2-4.03,31.06-2.91,62.28-3.01,93.51-.05,15.59-.48,31.2-2.2,46.71-1.74,15.67-4.96,31.1-7.75,46.6-2.59,14.37-4.85,28.88-5.13,43.51-.26,13.67,1.58,27.13,4.71,40.41,6.52,27.68,17.92,54.39,20.2,82.96,2.48,30.92-7.8,61.2-16.88,90.31-9.31,29.84-19.49,59.4-29.84,88.89-2.54,7.23-5.09,14.47-7.64,21.7-.32,.91,1.13,1.3,1.45,.4,10.49-29.76,20.98-59.52,30.75-89.52,9.35-28.7,20.23-58.29,23.33-88.48,2.95-28.64-5.36-55.73-13.42-82.85-3.99-13.44-7.83-27-9.81-40.9-2.28-16.04-1.44-32.22,.8-48.21,2.11-15.07,5.31-29.95,7.86-44.95,2.56-15.03,4.1-30.14,4.67-45.38,1.18-31.5-.89-63.07,1.34-94.54s10.05-62.06,9.92-93.6c-.13-31.54-5.07-62.77-4.08-94.35,1.74-55.38,13.41-115.39-13.72-166.88-3.11-5.9-6.73-11.49-10.81-16.77-.58-.75-1.88,0-1.3,.76h0Z"/>
        </g>
        <g class="cls-40">
          <path class="cls-69" d="M1661.85-17.46c-6.86,62.39-13.72,124.77-20.58,187.16-3.43,31.21-7.84,62.57-7.91,94.02-.07,30.52,5.09,60.74,5.74,91.23,.6,28.21-2.52,56.94,3.86,84.72,3.08,13.38,8.96,25.57,14.8,37.9,6.43,13.57,11.4,27.33,14.02,42.15,2.62,14.79,3.33,29.85,3.48,44.85,.15,14.55,.17,29.18-.54,43.71-.76,15.45-3.02,30.62-8.09,45.27-4.89,14.14-11.6,27.59-18.12,41.03-27.18,56.03-55.99,111.26-84.96,166.38-3.57,6.79-7.14,13.58-10.72,20.38-.45,.85,.85,1.61,1.3,.76,29.13-55.37,58.27-110.76,85.95-166.88,12.82-25.99,28.02-52.55,33.36-81.35,2.66-14.35,3.09-28.98,3.24-43.54,.15-14.64,.33-29.3-.47-43.92-.77-13.95-2.48-27.93-6.19-41.43s-9.97-25.8-15.83-38.42c-6.54-14.11-10.87-28.48-12.54-43.97-1.57-14.5-1.33-29.1-1.12-43.66,.22-14.96,.12-29.86-.97-44.79-1.12-15.34-2.82-30.63-3.84-45.98-2.08-31.36,.89-62.36,4.31-93.51,6.92-62.98,13.85-125.96,20.77-188.94,.85-7.72,1.7-15.45,2.55-23.17,.11-.96-1.4-.95-1.5,0h0Z"/>
        </g>
        <g class="cls-40">
          <path class="cls-14" d="M1696.92-20.45c-2.88,51.65,20.23,100.05,22.1,151.26,1,27.26-4.26,54.26-7.46,81.22-3.17,26.65-5.11,53.6-3.01,80.41,2.01,25.64,8.78,49.84,17.42,73.95,8.55,23.86,18,47.83,20.83,73.22,3.08,27.67-2.42,55.28-7.78,82.31-5.29,26.7-9.88,53.51-13.48,80.49-7.34,54.93-10.97,110.35-10.82,165.76,.02,6.86,.1,13.72,.23,20.58,.02,.96,1.52,.97,1.5,0-1.04-55.41,1.62-110.87,8.04-165.92,3.26-27.98,7.5-55.84,12.69-83.53,4.95-26.39,11.47-52.79,11.99-79.77,1-51.62-28.22-96.24-36.56-146.1-4.51-26.91-4.04-54.41-1.63-81.51,2.4-27.05,7.63-53.84,9.25-80.95,1.54-25.78-2.5-50.87-8.08-75.96-5.63-25.31-12.36-50.6-13.75-76.6-.34-6.29-.33-12.58,.02-18.87,.05-.96-1.45-.96-1.5,0h0Z"/>
        </g>
      </g>
    </g>
    <g>
      <path class="cls-25" d="M1570.29,916.2h-112.02c-9.09-36.11-18.19-72.23-27.28-108.34,9.6-33.85,19.2-67.71,28.8-101.56V400.12c.02-69.8,.04-67.88,0-77.31-.37-77.81-1.71-94.87-1.52-145.52,.18-45.81,1.44-73.8,2.27-101.56,1.69-56.28,2.44-138.68-2.27-248.59h112.02c-3.99,43.63-8.67,107.48-10.09,185.31-.51,27.74-.34,50.7,0,96.63,.14,19.61,.78,97.02,5.15,255.71,1.76,64.01,1.95,62,2.81,98.99,1.76,76.39,2.19,138.87,2.27,180.76,4.93,54.19,9.85,108.38,14.78,162.57-4.97,36.37-9.95,72.73-14.92,109.1Z"/>
      <g class="cls-93">
        <g class="cls-40">
          <path class="cls-27" d="M1473.96-25.03c1.46,28.83,2.92,57.66,4.38,86.5,1.4,27.67,5.19,56.91-1.55,84.14-1.55,6.28-3.83,12.37-5.19,18.71-1.35,6.31-1.4,12.62-.66,19.02,1.63,14.03,4.21,27.9,5.52,41.99,2.66,28.6,3.05,57.35,3.1,86.05,.06,28.92,.25,57.89-1.19,86.79-.71,14.39-2,28.71-3.63,43.02-1.54,13.46-2.9,27.1-.79,40.58,2.17,13.85,7.18,27.07,9.34,40.95,2.21,14.24,2.68,28.7,3.29,43.08,1.05,24.95,1.91,49.94,1.42,74.92-.96,49.67-7.21,100.53-29.35,145.62-2.65,5.41-5.54,10.69-8.61,15.87-.49,.83,.8,1.59,1.3,.76,25.03-42.27,34.61-91.1,37.33-139.65,1.4-24.98,1.1-50.02,.27-75.02-.88-26.59-.58-54.08-7.04-80.03-3.53-14.17-7.65-27.7-7.54-42.48s2.56-28.74,3.84-43.09c2.58-28.87,2.84-57.88,2.87-86.84,.03-29.02,.18-58.06-1.4-87.05-.78-14.35-2-28.68-3.9-42.93-1.88-14.15-5.76-28.38-2.4-42.6,1.55-6.57,3.91-12.92,5.38-19.51,1.36-6.06,2.19-12.24,2.65-18.43,1.04-13.93,.25-27.91-.46-41.83-1.46-28.83-2.92-57.66-4.38-86.5-.37-7.34-.74-14.69-1.11-22.03-.05-.96-1.55-.97-1.5,0h0Z"/>
        </g>
        <g class="cls-40">
          <path class="cls-87" d="M1586.84-28.48c1.04,12.41,1.87,25.2-.81,37.47-1.29,5.91-3.45,11.68-6.89,16.7-3.86,5.63-9.22,9.52-14.49,13.72-9.83,7.83-14.82,17.66-17.14,29.9-2.56,13.47-3.47,27.35-4.88,40.98-3.19,30.84-5.6,61.85-4.46,92.87,.55,15.01,2.02,29.95,4.42,44.78,2.38,14.7,5.45,29.28,7.54,44.02,2.18,15.4,3.07,30.86,1.52,46.37-1.53,15.3-4.82,30.34-7.41,45.47-2.42,14.14-4.02,28.33-3.63,42.7,.42,15.26,2.54,30.39,4.56,45.5,8.3,62.11,7.93,124.58,7,187.11-.23,15.43-.47,30.86-.56,46.3-.08,13.3-.97,27.47,4.91,39.81,2.82,5.92,6.87,11.14,10.68,16.45s7.52,11.08,10.76,16.95c6.81,12.36,12,25.6,15.42,39.29,1.73,6.94,2.98,13.97,3.8,21.08,.11,.95,1.61,.96,1.5,0-3.03-26.12-12.12-51.37-26.8-73.23-3.67-5.47-7.85-10.6-11.28-16.22-4.23-6.91-6.42-14.36-7.12-22.4-1.3-14.82-.33-30.02-.13-44.87,.8-62.19,2.72-124.61-3.78-186.58-3.22-30.73-9.78-61.39-6.58-92.41,3-29.13,11.93-57.44,10.93-86.95-1.04-30.45-9.71-60-12.7-90.24-3.06-30.86-1.88-61.96,.74-92.8,1.3-15.34,2.97-30.65,4.67-45.95,1.49-13.39,2.47-28.52,11.29-39.46,4.11-5.1,9.7-8.64,14.65-12.84,4.3-3.65,7.86-7.91,10.45-12.92,5.16-9.98,6.34-21.54,6.28-32.62-.03-6-.45-12-.95-17.98-.08-.95-1.58-.96-1.5,0h0Z"/>
        </g>
        <g class="cls-40">
          <path class="cls-80" d="M1512.41-40.47c-10.83,53.68-6.55,108.57-2.08,162.7,2.3,27.81,4.64,55.64,5.01,83.55,.38,28.21-1.81,56.32-3.98,84.41-2.17,28.17-4.23,56.43-3.21,84.7,.94,25.93,5.24,52.83-2.23,78.22-1.87,6.35-4.84,12.23-7.06,18.44-2.16,6.06-2.86,12.28-2.44,18.69,.88,13.57,4.58,27.13,7.21,40.44,5.53,28.02,11.05,56.03,16.58,84.05,5.48,27.81,12.04,56.06,10.2,84.59-1.71,26.36-10.43,51.84-10.95,78.32-.12,6.16,.28,12.29,1.2,18.38,.14,.95,1.59,.55,1.45-.4-4.07-27.02,4.01-53.54,7.99-80.05,4.02-26.8,.9-52.99-4.15-79.41-5.3-27.7-10.9-55.35-16.35-83.02-2.79-14.14-5.58-28.29-8.37-42.43-1.39-7.02-2.97-14.08-3.35-21.25-.39-7.39,1.05-14.26,3.82-21.08,4.72-11.6,8.3-22.82,9.4-35.38,1.12-12.73,.42-25.54-.36-38.27-1.69-27.81-1.34-55.36,.56-83.15,1.91-27.96,4.66-55.88,5.41-83.9s-.89-55.35-3.04-82.94c-4.23-54.12-10.53-108.79-3.45-162.96,.96-7.32,2.19-14.6,3.65-21.84,.19-.94-1.26-1.35-1.45-.4h0Z"/>
        </g>
      </g>
    </g>
    <g>
      <path class="cls-18" d="M241.15,940.93H89.55c-12.31-48.87-24.62-97.74-36.92-146.61,12.99-45.81,25.98-91.62,38.97-137.43V242.53c.02-94.46,.06-91.86,0-104.61-.5-105.29-2.32-128.39-2.05-196.92,.24-61.99,1.95-99.87,3.08-137.43,2.29-76.16,3.3-187.67-3.08-336.41H241.15c-5.4,59.05-11.73,145.45-13.65,250.77-.68,37.54-.46,68.61,0,130.77,.19,26.54,1.05,131.29,6.97,346.04,2.39,86.62,2.64,83.91,3.8,133.95,2.38,103.37,2.97,187.92,3.08,244.61,6.67,73.33,13.33,146.67,20,220-6.73,49.21-13.46,98.42-20.2,147.64Z"/>
      <g class="cls-4">
        <g class="cls-40">
          <path class="cls-44" d="M93.72-29.57c23.86,20.27,32.1,52.18,32.76,82.36,.38,17.56-1.43,35.06-3,52.52-1.55,17.25-2.6,34.53-3.07,51.85-1.88,69.01,4.13,137.87,7.71,206.73,3.6,69.24,4.78,139.2-7.31,207.73-2.95,16.72-6.83,33.31-8.63,50.21-1.82,17.03-.86,34.1,.85,51.1,3.3,32.77,8.82,66.05-.12,98.44-14.05,50.89-55.03,91.71-61.95,144.92-.84,6.47-1.06,12.97-.71,19.48,.05,.96,1.55,.97,1.5,0-2.96-55.61,38.93-99.86,57.7-149.14,5.07-13.31,8.39-27.11,9.46-41.32,1.27-16.87-.21-33.8-2.02-50.58-1.85-17.21-4.1-34.44-4.24-51.78s2.87-35.74,6.29-53.41c6.53-33.73,10.72-67.6,12.26-101.93s.88-69.55-.64-104.28c-3.07-69.83-9.64-139.57-8.96-209.52,.17-17.27,.78-34.53,2-51.76,1.26-17.79,3.44-35.51,4.18-53.33,1.2-29.26-2.13-60.49-19.7-84.96-3.84-5.34-8.29-10.15-13.3-14.4-.73-.62-1.8,.43-1.06,1.06h0Z"/>
        </g>
        <g class="cls-40">
          <path class="cls-58" d="M184.8-32.63c6.98,61.04-9.9,120.99-17.78,181.07-3.89,29.63-5.58,59.78-1.01,89.44,4.89,31.68,17.1,61.63,23.86,92.89,13.7,63.4,10.31,128.76,6.6,193.03-1.86,32.25-3.86,64.51-3.99,96.83s2.31,64.4,6.12,96.47c7.63,64.33,19.42,129.64,10.43,194.48-1.09,7.85-2.51,15.64-4.21,23.38-.21,.94,1.24,1.34,1.45,.4,13.86-62.99,5.33-127.52-2.73-190.66-4.13-32.36-8.13-64.78-9.19-97.41-1.05-32.25,.32-64.52,2.1-96.73,3.52-63.69,8.85-127.98-.04-191.48-2.24-15.98-5.42-31.81-9.63-47.39-4.22-15.63-9.27-31.03-13.4-46.68-8.1-30.71-10.01-61.74-7.37-93.34,5.08-60.87,23.61-120.45,21.91-181.91-.21-7.49-.75-14.95-1.6-22.39-.11-.95-1.61-.96-1.5,0h0Z"/>
        </g>
        <g class="cls-40">
          <path class="cls-5" d="M221.73-39.76c-12.19,22.36-22.78,46.26-26.02,71.74-1.69,13.29-.95,26.5,1.55,39.64,2.63,13.82,6.56,27.36,9.03,41.22,10.16,56.96,3.1,114.98,3.58,172.4,.23,27.76,2.84,55.22,7.62,82.56s11.28,54.83,17.13,82.2c6,28.13,11.33,56.46,13.57,85.17,2.22,28.51,1.73,57.15,.27,85.69-2.95,57.42-9.89,114.85-6.78,172.42,.38,7.14,.94,14.26,1.64,21.37,.09,.95,1.6,.96,1.5,0-5.65-56.87,.06-113.88,3.77-170.67,1.87-28.54,3.23-57.16,2.34-85.77-.86-27.49-4.3-54.69-9.4-81.7-10.48-55.44-26.39-110.05-29.42-166.66-3.03-56.55,4.5-113.24-.68-169.73-1.25-13.6-3.27-27.13-6.26-40.46-3.17-14.12-7.2-28.14-8.5-42.61-2.43-27.2,5.79-53.96,17.29-78.31,2.84-6.01,5.9-11.9,9.08-17.74,.46-.85-.83-1.61-1.3-.76h0Z"/>
        </g>
        <g class="cls-40">
          <path class="cls-76" d="M156.21-43.25c-.43,67.61-5.55,134.94-14.27,201.97-3.25,24.94-5.91,49.91-5.89,75.09,.01,23.52,3,46.7,6.96,69.85,11.52,67.34,23.2,134.69,30.19,202.7,3.51,34.14,5.82,68.51,5.17,102.85-.58,30.44-3.32,61.28-11.88,90.61-3.75,12.86-8.7,25.43-15.42,37.04-5.67,9.8-12.4,18.99-18.25,28.7-19.04,31.6-34.28,65.49-45.39,100.66-1.98,6.27-3.82,12.59-5.55,18.94-.25,.93,1.19,1.33,1.45,.4,9.19-33.84,22.09-66.64,38.54-97.62,7.33-13.8,15.38-27.19,24.05-40.19,6.18-9.28,11.52-18.89,15.71-29.24,10.77-26.61,15.19-55.54,17.16-84.04,2.34-33.8,1.06-67.8-1.64-101.53-5.54-69.15-16.48-138.08-28.58-206.35-4.37-24.65-9.09-49.34-10.49-74.38-1.41-25.05,.15-50.22,3.08-75.11,3.58-30.5,7.83-60.88,10.52-91.49,3.19-36.45,5.15-73.01,5.83-109.59,.12-6.42,.19-12.84,.24-19.25,0-.97-1.49-.97-1.5,0h0Z"/>
        </g>
      </g>
    </g>
    <path class="cls-39" d="M-719.17,890.62c229.67-34.28,459.33-68.56,689-102.84,301.56-24.56,684.19-46.65,1129.58-51.16,483.73-4.9,899.31,12.37,1221.02,33.49-9.13,56.08-18.26,112.17-27.38,168.25-1004.07-15.92-2008.14-31.83-3012.21-47.75Z"/>
    <g>
      <path class="cls-67" d="M1824.71,517.71c-7.7-7.15-14.42-18.11-22.11-25.26-.74-.69-2.52-1.19-2.69-.31,11.22,9.92,20.44,24.34,29.48,35.5l-4.68-9.93Z"/>
      <path class="cls-67" d="M2141.62,515.45c7.7-7.15,15.39-14.3,23.09-21.44,.74-.69,2.52-1.19,2.69-.31-11.22,9.92-21.41,20.53-30.46,31.69l4.68-9.93Z"/>
      <path class="cls-67" d="M2145.09,512.73c-17.67,10.11-40.96,22.33-58.63,32.44-4.63,2.65-9.3,5.32-14.57,7.13-8.04,2.77-14.81,3.42-16.7,3.63-19.19,2.07-38.06,12.41-60.26,16.5-41.3,7.61-83.4-8.36-109.45-18.24-7.23-2.74-12.51-5.16-14.13-5.91-23.05-10.67-38.61-23.08-48.15-31.94-.23,.91-.45,1.83-.68,2.74,18.37,15.32,35.28,29.28,52.06,43.18,6.18,5.11,13.72,11.39,26.14,17.21,10.63,4.98,22.62,7.89,34.49,10.77,16.72,4.05,33.43,8.1,50.15,12.15,10.23,2.48,20.8,4.98,31.47,4.17,14.07-1.08,26.27-7.75,37.23-14.63,19.95-12.52,38.36-26.5,54.89-41.69l36.12-37.49Z"/>
      <path class="cls-45" d="M2145.13,512.67c-5.21,4.43-13.21,10.98-23.59,18.4-33.1,23.67-70.86,50.66-123.28,54.16-5.36,.36-26.91,1.54-53.13-4.08-19-4.07-31.68-9.84-48.78-17.62-9.95-4.53-29.11-13.82-50.43-28.6-13.05-9.04-23.11-18.81-30.45-25.51,3.69,5.55,9.18,13.59,16.2,23.02,17.66,23.72,33.22,40.43,36.06,43.37,22.38,23.21,102,70.33,182.46,38.02,65.6-26.34,90.35-88.84,94.95-101.17Z"/>
      <path class="cls-67" d="M1964.4,589.46c3.69,1.14,8.98,2.57,15.53,3.62,5.91,.95,17.76,2.78,32.58,.69,5.47-.77,13.52-2.38,22.52-6.07-7.37,2.26-18.15,4.82-31.5,5.51-16.96,.88-30.7-1.64-39.13-3.75Z"/>
      <path class="cls-67" d="M1914.41,584.7c4.41,3.19,10.39,6.85,18.15,9.98,17.05,6.9,33.26,7.51,42.09,7.3-9.05-.84-20.85-2.64-33.89-6.6-10.84-3.29-19.63-7.2-26.34-10.69Z"/>
      <path class="cls-67" d="M2162.54,486.71c3.09,1.6,7.39,3.55,12.74,5.12,7.57,2.22,13.6,2.54,17.17,2.8,15.28,1.11,28.88-1.56,40.01-5.26v10.99c-5.03,1.79-10.95,3.47-17.61,4.57-9.19,1.51-16.92,1.4-22.1,1.05-12.46-.83-22.81-3.95-30.4-7.04-.38-1.43-.74-3.33-.76-5.59-.02-2.76,.47-5.04,.95-6.63Z"/>
      <path class="cls-67" d="M1644.33,480.83c23.11,7.72,59.56,16.41,103.83,12.51,20.96-1.85,39.13-6.12,53.94-10.81,.31,1.61,.58,3.33,.77,5.15,.45,4.15,.45,7.93,.23,11.22-20.09,4.93-47.39,9.55-79.83,9.09-32.09-.45-58.99-5.71-78.82-11.12,.2-3.37,.27-6.98,.15-10.8-.06-1.8-.15-3.55-.27-5.24Z"/>
    </g>
    <g>
      <g>
        <path class="cls-41" d="M2219.89,763.25c-2.8-4.75-5.78-9.47-8.85-14.01-8.6-12.71-18.03-24.26-29.66-36.36-26.96-28.02-40.48-42.08-59.81-49.8-18.31-7.31-38.86-8.97-61.07-4.92l-.18-.98c22.4-4.08,43.13-2.41,61.62,4.98,19.53,7.8,33.1,21.91,60.15,50.03,11.69,12.15,21.15,23.75,29.78,36.5,3.09,4.56,6.08,9.3,8.89,14.06l-.86,.51Z"/>
        <path class="cls-98" d="M2154.81,685.32c17.83-11.86,28.47-25.14,34.23-33.58,8.21-12.03,17.29-25.22,16.82-43.54-.33-12.67-4.9-22.41-7.92-27.7-10.11,11.05-25.17,30.44-34.63,58.38-6.13,18.1-8.05,34.32-8.5,46.44Z"/>
        <path class="cls-65" d="M2124.72,580.49c14.2,5.27,19.08,13.35,20.78,16.82,4.49,9.2,2.81,18.42-.99,36.61-1.8,8.63-4.88,20.75-10.41,34.92-8.02-7.03-11.7-14.04-13.34-20.08-3.39-12.5,1.65-20.96,3.96-40.57,1.39-11.8,.72-21.56,0-27.7Z"/>
        <path class="cls-100" d="M2073.26,587.42c6.08,.77,17.22,3.19,26.72,11.87,14.97,13.7,19.55,37.26,11.87,59.99-10.21-3.6-15.74-8.77-18.8-12.5-7.04-8.56-7.05-16.77-12.86-37.6-2.67-9.57-5.27-17.16-6.93-21.77Z"/>
        <path class="cls-42" d="M2026.76,601.27c4.46-.8,15.42-2.15,27.7,2.97,12.65,5.27,19.26,14.29,21.77,17.81,8.02,11.25,13.65,28.37,14.02,33.48-14.24,1.97-25.74-7.22-29.85-10.72-7.17-6.11-6.17-14.01-12.86-24.74-6.07-9.72-14.52-15.46-20.78-18.8Z"/>
        <path class="cls-83" d="M1981.08,654.04c6.09-4.73,17.06-11.72,31.83-13.19,24.97-2.5,48.58,11.98,47.49,16.82-.98,4.35-22.44,3.08-38.09,2.14-17.43-1.04-31.65-3.64-41.23-5.77Z"/>
        <path class="cls-106" d="M2173.6,704.1c2.28-8.99,9.02-30.54,28.95-49.06,16.28-15.14,33.61-21.04,42.55-23.42-3.72,9.87-10.61,24.45-23.42,38.92-17.52,19.79-37.19,29.26-48.08,33.56Z"/>
        <path class="cls-26" d="M2191.2,722.81c2.21-6.86,6.54-16.8,15.32-25.89,22.54-23.37,54.87-20.92,60.03-20.45-6.12,8.76-18.78,24.28-40.24,35.29-13.59,6.98-26.19,9.81-35.11,11.05Z"/>
        <path class="cls-110" d="M2090.25,655.53c-10.89,1.14-28.4,4.38-47.22,14.67-14.1,7.71-24.19,16.78-30.78,23.75,7.32,0,16.21-.81,25.95-3.52,27.69-7.7,44.73-25.91,52.06-34.9Z"/>
        <path class="cls-84" d="M2026.76,705.83c7.89-8.22,19.45-18.54,35.18-27.7,19.36-11.28,37.43-16.37,49.91-18.84-3.99,5.81-9.09,12.01-15.61,17.96-25.22,23.02-55.41,27.5-69.48,28.58Z"/>
        <path class="cls-107" d="M2134.1,668.85c-7.56-.2-17.56,.48-28.62,4-27.42,8.72-42.58,28.94-47.93,36.94,8.59-.25,22.51-1.76,37.82-8.8,21.13-9.7,33.34-24.59,38.73-32.14Z"/>
        <path class="cls-31" d="M2154.81,685.32c-5.74-.85-12.12-1.2-18.99-.6-34.57,3-57.36,27.69-65.08,36.94,10.52,.14,30.39-1.04,51.89-11.87,15.34-7.73,25.84-17.51,32.18-24.47Z"/>
        <path class="cls-10" d="M2174.47,705c-7.11-.08-15.85,.61-25.45,3.25-26.78,7.36-43.11,25.15-49.91,33.64,4.26,1.56,22.18,7.6,42.22-.66,24.24-9.99,32.06-32.86,33.15-36.23Z"/>
        <path class="cls-91" d="M2191.2,722.81c-6.56,1.87-13.46,4.1-20.63,6.76-12.24,4.54-23.15,9.56-32.71,14.58,10.67,7.67,24.55,8.85,35.79,3.01,14.27-7.42,17.23-22.51,17.56-24.35Z"/>
        <path class="cls-68" d="M2240.65,771.82c-.21-7.22-20.41-13.14-34.49-14.45-10.51-.98-36.7-1.18-68.99,23.77,40.81,14.5,68.38,8.94,82.51,4.2,5.51-1.85,21.16-7.11,20.98-13.52Z"/>
        <path class="cls-86" d="M2252.08,779.02c6.1-3.87,.86-24.25-5.2-37.04-4.53-9.53-17.74-32.15-55.69-47.16,8.39,42.49,27.26,63.35,38.55,73.07,4.41,3.79,16.92,14.56,22.34,11.12Z"/>
        <path class="cls-8" d="M2246.49,815.52c6.12-3.84,1.9-24.46-5.2-37.04-19.38-34.33-75.13-35.18-88.27-35.1,30.02,27.16,54.12,47.27,71.14,61.01,7.84,6.34,17.61,14.09,22.34,11.12Z"/>
      </g>
      <g>
        <path class="cls-56" d="M2216.96,864.64c-6.76-14.31-15.73-26.84-26.68-37.23-9.84-9.34-23.65-19.8-73.97-35.9-27.05-8.66-55.1-15.85-83.37-21.39l.19-.98c28.31,5.55,56.4,12.76,83.48,21.42,50.52,16.17,64.44,26.71,74.36,36.13,11.04,10.48,20.09,23.1,26.9,37.53l-.9,.43Z"/>
        <path class="cls-50" d="M2039.01,769.74c1.18-3.55-10.28-10.59-17.15-13.87-11.33-5.41-22.08-6.26-29.12-6.16,2.54,4.68,8.19,13.37,18.71,18.39,11.59,5.53,26.35,5.31,27.57,1.65Z"/>
        <path class="cls-85" d="M2045.23,772.17c.27-1.86,1.77-13.6-6.56-23.47-10.08-11.95-25.43-10.34-26.59-10.19,11.05,11.22,22.1,22.44,33.15,33.66Z"/>
        <path class="cls-92" d="M2059.24,773.92c1.49-1.79,3.6-4.83,4.44-9.01,2.44-12.06-8.03-21.81-9.4-23.08-10.97-10.22-25.81-8.07-27.96-7.72,10.97,13.27,21.94,26.54,32.91,39.81Z"/>
        <path class="cls-62" d="M2218.02,862.9c4.77-5.93,11.13-15.74,13.79-29.13,1.71-8.58,4.44-22.32-3.47-35.09-6.29-10.16-16.07-14.46-20.34-16.04,3.38,7.29,6.77,16.31,9.12,26.9,4.9,22.04,3.15,41,.89,53.36Z"/>
        <path class="cls-71" d="M2212.99,855.87c2.88-6.58,7.97-20.72,5.62-38.54-3.69-28.04-23.04-44.31-27.67-48,7.35,28.85,14.7,57.69,22.05,86.54Z"/>
        <path class="cls-72" d="M2202.07,839.59c1.32-5.79,4.35-22.56-3.72-41.17-9.76-22.52-28.9-31.87-33.66-34.04,12.46,25.07,24.92,50.14,37.38,75.21Z"/>
        <path class="cls-3" d="M2180.16,818.49c2.31-4.17,6.15-12.56,5.56-23.33-1.23-22.45-20.57-34.95-22.77-36.32,5.74,19.88,11.48,39.77,17.22,59.65Z"/>
        <path class="cls-101" d="M2167.18,811.58c.6-1.54,8.05-21.7-4.33-38.7-7.98-10.96-19.48-14.13-22.98-14.95,9.1,17.88,18.2,35.77,27.31,53.65Z"/>
        <path class="cls-89" d="M2145.65,801.77c.6-1.54,8.05-21.7-4.33-38.7-7.98-10.96-19.48-14.13-22.98-14.95,9.1,17.88,18.2,35.77,27.31,53.65Z"/>
        <path class="cls-74" d="M2126.17,795.16c.6-1.54,8.05-21.7-4.33-38.7-7.98-10.96-19.48-14.13-22.98-14.95,9.1,17.88,18.2,35.77,27.31,53.65Z"/>
        <path class="cls-111" d="M2103.38,787.43c.6-1.54,8.05-21.7-4.33-38.7-7.98-10.96-19.48-14.13-22.98-14.95,9.1,17.88,18.2,35.77,27.31,53.65Z"/>
        <path class="cls-13" d="M2079.59,781.33c.6-1.54,8.05-21.7-4.33-38.7-7.98-10.96-19.48-14.13-22.98-14.95,9.1,17.88,18.2,35.77,27.31,53.65Z"/>
        <path class="cls-46" d="M2124.59,835.27c-.62-2.24-1.27-5.89-.32-10.04,2.77-11.99,16.34-16.53,18.11-17.12,14.22-4.76,26.84,3.34,28.65,4.55-15.48,7.54-30.96,15.07-46.44,22.61Z"/>
        <path class="cls-21" d="M2001.47,774.14c1.61,1.78,7.56,7.93,17.17,8.95,14.64,1.56,24.17-10.25,24.79-11.05-13.99,.7-27.98,1.4-41.97,2.1Z"/>
        <path class="cls-7" d="M2018.4,777.93c1.61,1.78,7.56,7.93,17.17,8.95,14.64,1.56,24.17-10.25,24.79-11.05-13.99,.7-27.98,1.4-41.97,2.1Z"/>
        <path class="cls-32" d="M2024.94,821.36c.52-3.54,3.54-21.57,19.97-33.44,11.66-8.43,23.78-9.19,28.45-9.24-16.14,14.22-32.28,28.45-48.42,42.67Z"/>
        <path class="cls-103" d="M2048.6,821.35c.09-1.65,1.66-23.08,19.97-33.44,11.8-6.67,23.58-4.79,27.1-4.09-15.69,12.51-31.38,25.02-47.07,37.53Z"/>
        <path class="cls-15" d="M2066.65,827.65c.09-1.65,1.66-23.08,19.97-33.44,11.8-6.67,23.58-4.79,27.1-4.09-15.69,12.51-31.38,25.02-47.07,37.53Z"/>
        <path class="cls-99" d="M2084.06,834.01c.09-1.65,1.66-23.08,19.97-33.44,11.8-6.67,23.58-4.79,27.1-4.09-15.69,12.51-31.38,25.02-47.07,37.53Z"/>
        <path class="cls-6" d="M2102.5,840.23c.09-1.65,1.66-23.08,19.97-33.44,11.8-6.67,23.58-4.79,27.1-4.09-15.69,12.51-31.38,25.02-47.07,37.53Z"/>
      </g>
    </g>
    <g>
      <path class="cls-54" d="M365.01,767.49c-11.95,8.12-22.38,13.36-29.81,16.67-19.06,8.5-34.08,11.36-40.04,24.36-1.41,3.09-1.93,5.9-2.15,7.73-1.51-4.7-3.67-13.82-.51-23.75,5.42-17.03,22.66-24.47,32.16-28.57,11.34-4.9,21.58-6.04,27.97-6.29-10.53-2.95-21.05-5.89-31.58-8.84,1.99-1.76,8.41-6.97,17.68-7.07,12.87-.15,21,9.63,22.31,11.21,1.49,1.79,2.52,3.46,3.2,4.71,3.93-3.63,9.02-7.46,15.41-10.61,22.71-11.19,45.47-5.6,53.31-3.28-11.58,2.71-24.58,6.63-38.4,12.38-6.82,2.83-13.13,5.82-18.95,8.84,1.14-.68,15.57-9.01,30.82-1.77,11.38,5.4,18.61,17.29,18.44,30.32-7.69-5.52-17.97-11.84-30.82-17.18-10.83-4.5-20.78-7.19-29.05-8.84Z"/>
      <path class="cls-94" d="M1872.43,749.77c-9.78,5.27-19.72,10.82-29.81,16.67-13.97,8.1-27.31,16.24-40.04,24.36,.27-5.91,1.8-20.86,13.03-32.96,6.07-6.54,12.71-9.82,16.47-11.63,11.43-5.51,21.96-6.3,27.97-6.29h11.62c-6.71-6.31-6.53-9.5-6.04-10.88,2.47-7.05,26.03-4.23,29.56-3.79-2.1,1.08-4.64,2.65-7.2,4.93-4.83,4.31-7.39,9.08-8.72,12.13,1.75-.67,19.32-7.09,34.59,3.17,13.49,9.07,19.47,27.32,13.91,44.57-11.12-7.1-22.67-15.02-34.48-23.87-7.33-5.49-14.28-10.98-20.86-16.41Z"/>
    </g>
  </g>
</svg>